<?xml version="1.0" standalone="no"?>
<!DOCTYPE svg PUBLIC "-//W3C//DTD SVG 1.1//EN" "http://www.w3.org/Graphics/SVG/1.1/DTD/svg11.dtd" >
<svg xmlns="http://www.w3.org/2000/svg">
<metadata>
This is a custom SVG webfont generated by Font Squirrel.
Copyright   : Copyright c 2012 Pablo Impallari wwwimpallaricomimpallarigmailcom Copyright c 2012 Rodrigo Fuenzalida wwwrfuenzalidacomhellorfuenzalidacom with Reserved Font Name Libre Baskerville
Designer    : Pablo Impallari Rodrigo Fuenzalida
Foundry     : Pablo Impallari Rodrigo Fuenzalida
Foundry URL : wwwimpallaricom
</metadata>
<defs>
<font id="LibreBaskervilleRegular" horiz-adv-x="1372" >
<font-face units-per-em="2048" ascent="1638" descent="-410" />
<missing-glyph horiz-adv-x="587" />
<glyph unicode="&#xfb00;" horiz-adv-x="1492" d="M39 956v97h231v65q4 238 127 369t351 131q156 0 251 -88q147 170 408 170q127 0 207 -39t80 -100q0 -41 -26 -69t-64 -28q-43 0 -125 68q-49 43 -79 56.5t-69 13.5q-123 0 -176 -125q-33 -72 -33 -265v-159h330v-97h-330v-626q0 -152 38 -204t155 -54v-72h-541v72 q102 6 129 46t27 195v643h-467v-626q0 -152 38 -204t154 -54v-72h-540v72q102 6 128.5 46t26.5 195v643h-231zM463 1053h467v319q-41 27 -103 80q-80 68 -155 68q-123 0 -176 -125q-33 -72 -33 -265v-77z" />
<glyph unicode="&#xfb01;" horiz-adv-x="1333" d="M39 956v97h231v147q0 236 136.5 368t381.5 132q143 0 235.5 -36t92.5 -93q0 -41 -25.5 -68.5t-64.5 -27.5q-43 0 -133 61q-61 43 -94 54.5t-86 11.5q-135 0 -192.5 -81t-57.5 -309v-159h328l329 53v-774q0 -160 28 -208t122 -48v-76h-527v76q111 0 144 46t33 193v258 q0 233 -15 299q-10 49 -47 66.5t-139 17.5h-256v-626q0 -154 33.5 -206t138.5 -52v-72h-520v72q102 0 128.5 43t26.5 198v643h-231z" />
<glyph unicode="&#xfb02;" horiz-adv-x="1388" d="M45 956v97h231v147q0 236 125 368t351 132q139 0 223 -47l176 47v-1381q0 -156 33 -201.5t149 -45.5v-72h-545v72q109 0 141 45t32 188v1151l-46 39q-70 61 -118.5 84t-106.5 23q-119 0 -170 -80t-51 -310v-159h330v-97h-330v-626q0 -152 40 -205t153 -53v-72h-562v72 q113 0 144.5 43t31.5 198v643h-231z" />
<glyph unicode="&#xfb03;" horiz-adv-x="1992" d="M39 956v97h231v65q0 236 125 368t353 132q152 0 268 -107q145 188 432 189q143 0 235.5 -36t92.5 -93q0 -41 -26 -68.5t-64 -27.5q-43 0 -134 61q-61 43 -94 54.5t-86 11.5q-135 0 -192.5 -81t-57.5 -309v-159h328l330 53v-774q0 -160 27.5 -208t121.5 -48v-76h-526v76 q111 0 143.5 46t32.5 193v258q0 233 -14 299q-10 49 -47 66.5t-140 17.5h-256v-657q0 -133 40 -180t153 -47v-72h-541v72q96 0 126 45t30 196v643h-467v-626q0 -154 38 -206t154 -52v-72h-540v72q104 0 129.5 42t25.5 199v643h-231zM463 1053h467v319q-55 39 -103 80 q-80 68 -155 68q-106 0 -157.5 -84t-51.5 -306v-77z" />
<glyph unicode="&#xfb04;" horiz-adv-x="2041" d="M39 956v97h231v65q4 238 127 369t351 131q174 0 264 -105q133 186 393 187q139 0 223 -47l176 47v-1381q0 -156 32 -199.5t151 -47.5v-72h-545v72q109 6 140.5 49t31.5 184v1151l-45 39q-70 61 -119 84t-107 23q-135 0 -188 -125q-33 -78 -33 -265v-159h330v-97h-330 v-626q0 -152 38 -204t155 -54v-72h-561v72q117 6 146.5 46t29.5 195v643h-467v-626q0 -152 38 -204t154 -54v-72h-540v72q102 6 128.5 46t26.5 195v643h-231zM463 1053h467v319q-41 27 -103 80q-80 68 -155 68q-123 0 -176 -125q-33 -72 -33 -265v-77z" />
<glyph unicode="fb" horiz-adv-x="2113" d="M45 956v97h231v147q0 236 125 368t351 132q139 0 223 -47l182 47v-760h8q127 166 328 166q221 0 371.5 -163t150.5 -400q0 -242 -151.5 -404t-376.5 -162q-115 0 -217.5 43t-167.5 117l-96 -137h-45v1456l-46 39q-70 61 -118.5 84t-106.5 23q-119 0 -170 -80t-51 -310 v-159h330v-97h-330v-626q0 -154 38 -206t155 -52v-72h-562v72q117 0 146.5 42t29.5 199v643h-231zM1161 428q0 -154 85 -253t218 -99q143 0 231.5 127t88.5 334q0 209 -91 341t-237 132q-141 0 -218 -101.5t-77 -298.5v-182z" />
<glyph unicode="fh" horiz-adv-x="2144" d="M45 956v97h231v147q0 236 125 368t351 132q139 0 223 -47l176 47l-6 -8l12 8v-780h8q63 82 176 134t226 52q94 0 173 -33t122 -88q68 -88 67 -332v-327q0 -170 26.5 -212t141.5 -42v-72h-543v72q115 0 143.5 41t28.5 198v258q0 231 -53 327.5t-178 96.5q-94 0 -174 -49 t-125 -135q-35 -69 -35 -221v-262q0 -170 26.5 -212t141.5 -42v-72h-545v72q117 0 147 42t30 197v1145l-46 39q-70 61 -118.5 84t-106.5 23q-119 0 -170 -80t-51 -310v-159h330v-97h-330v-626q0 -154 39 -206t154 -52v-72h-562v72q115 0 145.5 43t30.5 198v643h-231z" />
<glyph unicode="ffb" horiz-adv-x="2764" d="M39 956v97h231v65q0 236 125 368t353 132q174 0 264 -105q133 186 393 187q139 0 223 -47l180 47v-760h9q127 166 327 166q221 0 371.5 -163t150.5 -400q0 -242 -151.5 -404t-376.5 -162q-115 0 -217 43t-168 117l-96 -137h-45v1458l-43 37q-70 61 -119 84t-107 23 q-119 0 -170 -80t-51 -310v-159h330v-97h-330v-626q0 -152 38 -204t155 -54v-72h-561v72q115 0 145.5 43t30.5 198v643h-467v-626q0 -154 38 -206t154 -52v-72h-540v72q102 0 128.5 43t26.5 198v643h-231zM463 1053h467v319q-41 27 -103 80q-80 68 -155 68 q-106 0 -157.5 -84t-51.5 -306v-77zM1812 428q0 -154 85 -253t219 -99q143 0 231 127t88 334q0 209 -91 341t-237 132q-141 0 -218 -101.5t-77 -298.5v-182z" />
<glyph unicode="ffh" horiz-adv-x="2797" d="M39 956v97h231v65q4 238 127 369t351 131q174 0 264 -105q133 186 393 187q139 0 223 -47l176 47l-6 -8l12 8v-780h9q63 82 175.5 134t225.5 52q94 0 173 -33t122 -88q68 -88 68 -332v-327q0 -168 25.5 -207t141.5 -47v-72h-542v72q117 6 144.5 45t27.5 194v258 q0 231 -53.5 327.5t-178.5 96.5q-94 0 -174 -49t-125 -135q-34 -69 -34 -221v-262q0 -61 1 -96t8 -67t16 -45.5t30.5 -24.5t45 -15t66.5 -6v-72h-544v72q119 8 147.5 47t28.5 192v1145l-45 39q-70 61 -119 84t-107 23q-135 0 -188 -125q-33 -78 -33 -265v-159h330v-97h-330 v-626q0 -152 38 -204t155 -54v-72h-561v72q117 6 146.5 46t29.5 195v643h-467v-626q0 -152 38 -204t154 -54v-72h-540v72q102 6 128.5 46t26.5 195v643h-231zM463 1053h467v319q-41 27 -103 80q-80 68 -155 68q-123 0 -176 -125q-33 -72 -33 -265v-77z" />
<glyph unicode="fj" horiz-adv-x="1306" d="M39 956v97h231v147q0 236 136.5 368t381.5 132q143 0 235.5 -36t92.5 -93q0 -41 -25.5 -68.5t-64.5 -27.5q-43 0 -133 61q-61 43 -94 54.5t-86 11.5q-135 0 -192.5 -81t-57.5 -309v-161h328l329 55v-1110q0 -256 -108.5 -392t-311.5 -136q-131 0 -214 53t-83 137 q0 96 105 96q37 0 56.5 -17.5t49.5 -78.5q29 -61 54.5 -81.5t74.5 -20.5q98 0 137.5 67.5t39.5 237.5v712q0 238 -15 301q-10 49 -47 65.5t-139 16.5h-256v-626q0 -154 34.5 -206t137.5 -52v-72h-520v72q102 0 128.5 43t26.5 198v643h-231z" />
<glyph unicode="ffj" horiz-adv-x="1966" d="M39 956v97h231v65q0 236 125 368t353 132q152 0 268 -107q145 188 432 189q143 0 235.5 -36t92.5 -93q0 -41 -26 -68.5t-64 -27.5q-43 0 -134 61q-61 43 -94 54.5t-86 11.5q-135 0 -192.5 -81t-57.5 -309v-161h328l330 55v-1110q0 -256 -108.5 -392t-311.5 -136 q-131 0 -214 53t-83 137q0 96 104 96q35 0 57.5 -21.5t49.5 -74.5q29 -61 54.5 -81.5t74.5 -20.5q98 0 137 67.5t39 237.5v712q0 238 -14 301q-10 49 -47 65.5t-140 16.5h-256v-657q0 -133 41 -180t152 -47v-72h-541v72q96 0 126 45t30 196v643h-467v-626q0 -154 39 -206 t153 -52v-72h-540v72q100 0 127.5 43t27.5 198v643h-231zM463 1053h467v319q-41 27 -103 80q-80 68 -155 68q-106 0 -157.5 -84t-51.5 -306v-77z" />
<glyph unicode="fk" horiz-adv-x="1988" d="M45 956v97h231v147q0 236 125 368t351 132q139 0 223 -47l178 47v-1125l190 187q113 111 146 148.5t33 58.5q0 25 -35 35t-127 10v71h532v-71q-76 0 -119.5 -20.5t-121.5 -88.5l-295 -262l405 -459q57 -68 101.5 -90t115.5 -22v-72h-538v72q70 0 92 5t22 21 q0 29 -108 158l-217 262l-76 -72v-120q0 -160 35 -207t155 -47v-72h-581v72q123 0 159.5 46t36.5 193v1147l-43 37q-74 61 -119.5 84t-109.5 23q-117 0 -167 -81t-50 -309v-159h330v-97h-330v-626q0 -154 39 -206t154 -52v-72h-562v72q115 0 145.5 43t30.5 198v643h-231z " />
<glyph unicode="ffk" horiz-adv-x="2643" d="M39 956v97h231v65q0 236 125 368t353 132q174 0 264 -105q133 186 393 187q139 0 223 -47l180 47v-1125l191 187q119 117 150.5 153.5t31.5 57.5q0 41 -166 41v71h533v-71q-74 0 -120 -20.5t-122 -88.5l-295 -262l406 -459q55 -66 102 -89t115 -23v-72h-539v72 q119 0 119 22q0 27 -113 162l-217 262l-76 -72v-120q0 -160 35 -207t156 -47v-72h-582v72q123 0 160 46t37 193v1145l-45 39q-70 61 -119 84t-107 23q-119 0 -170 -80t-51 -310v-159h330v-97h-330v-626q0 -154 39 -206t154 -52v-72h-561v72q115 0 145.5 43t30.5 198v643 h-467v-626q0 -154 39 -206t153 -52v-72h-540v72q102 0 128.5 43t26.5 198v643h-231zM463 1053h467v319q-41 27 -103 80q-80 68 -155 68q-106 0 -157.5 -84t-51.5 -306v-77z" />
<glyph unicode="ft" horiz-adv-x="1560" d="M45 956v97h231v147q0 236 125 368t353 132q127 0 206.5 -39t79.5 -100q0 -41 -25.5 -69t-64.5 -28q-45 0 -125 68q-49 43 -78.5 56.5t-68.5 13.5q-106 0 -157.5 -84t-51.5 -306v-159h358q86 0 177.5 78.5t128.5 179.5h59v-258h274v-97h-274v-622q0 -145 29.5 -199.5 t111.5 -54.5q94 0 158 94l51 -39q-59 -156 -274 -155q-135 0 -206 64.5t-71 184.5v727h-522v-626q0 -154 42 -206t171 -52v-72h-582v72q117 0 146.5 42t29.5 199v643h-231z" />
<glyph unicode="fft" horiz-adv-x="2164" d="M39 956v97h231v65q4 238 127 369t351 131q156 0 251 -88q147 170 408 170q127 0 207 -39t80 -100q0 -41 -26 -69t-64 -28q-43 0 -125 68q-49 43 -79 56.5t-69 13.5q-123 0 -176 -125q-33 -72 -33 -265v-159h310q86 0 177 78.5t128 179.5h59v-258h275v-97h-275v-622 q0 -145 29.5 -199.5t111.5 -54.5q94 0 158 94l51 -39q-59 -156 -274 -155q-135 0 -206 64.5t-71 184.5v727h-473v-626q0 -152 38 -204t155 -54v-72h-541v72q102 6 129 46t27 195v643h-467v-626q0 -152 38 -204t154 -54v-72h-540v72q102 6 128.5 46t26.5 195v643h-231z M463 1053h467v319q-41 27 -103 80q-80 68 -155 68q-123 0 -176 -125q-33 -72 -33 -265v-77z" />
<glyph horiz-adv-x="0" />
<glyph horiz-adv-x="0" />
<glyph unicode="&#xd;" horiz-adv-x="681" />
<glyph unicode=" "  horiz-adv-x="587" />
<glyph unicode="&#x09;" horiz-adv-x="587" />
<glyph unicode="&#xa0;" horiz-adv-x="587" />
<glyph unicode="!" horiz-adv-x="630" d="M182 113q0 57 39 96t94 39q57 0 96.5 -39t39.5 -96q0 -55 -39 -94t-97 -39q-55 0 -94 39t-39 94zM182 1462q0 57 37 96t96.5 39t96.5 -38.5t37 -96.5q0 -111 -31 -274q-53 -293 -53 -764h-99q0 305 -12 459.5t-41 312.5q-31 166 -31 266z" />
<glyph unicode="&#x22;" horiz-adv-x="751" d="M123 1599q0 43 27.5 72t68.5 29t68.5 -29t27.5 -74q0 -29 -11 -103.5t-28.5 -177t-25.5 -161.5h-60q-8 61 -25.5 163.5t-29.5 177.5t-12 103zM434 1599q0 43 27.5 72t68.5 29t69 -29t28 -74q0 -29 -11.5 -103.5t-29 -177t-25.5 -161.5h-59q-8 61 -25.5 163.5t-30 177.5 t-12.5 103z" />
<glyph unicode="#" horiz-adv-x="1363" d="M80 522l16 103h291l49 348h-293l17 102h295l71 502h123l-71 -502h309l69 502h123l-69 -502h274l-16 -102h-277l-47 -348h281l-17 -103h-284l-76 -522h-121l72 522h-310l-77 -522h-123l78 522h-287zM510 625h309l47 348h-307z" />
<glyph unicode="$" horiz-adv-x="1273" d="M78 344q0 66 28.5 96.5t71.5 30.5q29 0 51.5 -14.5t37 -43t21.5 -49t16 -60.5t11 -46q43 -166 275 -174v614q-98 41 -157.5 73t-128 86t-102.5 130t-34 176q0 184 115.5 302t306.5 130v248h112v-250q174 -16 300 -109t126 -206q0 -51 -28.5 -81t-77.5 -30t-74.5 31 t-37 77t-27 93t-59.5 84t-122 45v-565q266 -117 374 -226.5t108 -261.5q0 -193 -133 -317.5t-349 -142.5v-332h-112v330q-211 10 -361.5 110.5t-150.5 251.5zM360 1266q0 -170 230 -285v514q-106 -16 -168 -76.5t-62 -152.5zM702 88q131 16 200 84t69 174q0 111 -70 178.5 t-199 124.5v-561z" />
<glyph unicode="%" horiz-adv-x="1374" d="M72 0l1132 1577h99l-1115 -1577h-116zM168 1270q0 137 70.5 232t171 95t171 -95t70.5 -232q0 -133 -70.5 -226.5t-171 -93.5t-171 93.5t-70.5 226.5zM285 1266q0 -147 31 -206t94 -59q61 0 93 59.5t32 205.5q0 156 -31 218t-94.5 62t-94 -62.5t-30.5 -217.5zM723 299 q0 137 70.5 232.5t171 95.5t171 -95.5t70.5 -232.5q0 -133 -70.5 -226t-171 -93t-171 93t-70.5 226zM840 295q0 -147 31 -205.5t94 -58.5q61 0 93 59.5t32 204.5q0 156 -31 218t-94.5 62t-94 -62t-30.5 -218z" />
<glyph unicode="&#x26;" horiz-adv-x="1798" d="M74 342q0 139 111.5 257t353.5 237q-125 180 -125 356q0 180 99 292.5t257 112.5q139 0 229.5 -86t90.5 -219q0 -113 -76 -214t-246 -218l332 -432q100 123 163.5 232.5t63.5 162.5q0 61 -125 62v71h471v-71q-88 0 -133 -21.5t-88 -87.5l-291 -426q174 -238 365 -237 q53 0 84.5 23.5t64.5 92.5l51 -14q-20 -113 -99 -174t-204 -61q-100 0 -190 49t-217 176q-100 -106 -235.5 -165.5t-274.5 -59.5q-186 0 -309 102t-123 260zM322 367q0 -113 73.5 -185.5t186.5 -72.5q184 -1 370 163l-358 473q-129 -74 -200.5 -173t-71.5 -205zM606 1266 q1 -178 105 -328q188 147 188 326q0 96 -43 152.5t-115 56.5q-135 0 -135 -207z" />
<glyph unicode="'" horiz-adv-x="440" d="M123 1599q0 43 27.5 72t68.5 29t68.5 -29t27.5 -74q0 -29 -11 -103.5t-28.5 -177t-25.5 -161.5h-60q-8 61 -25.5 163.5t-29.5 177.5t-12 103z" />
<glyph unicode="(" horiz-adv-x="679" d="M96 662q0 561 479 1040l64 -57q-199 -268 -268.5 -467t-69.5 -482q0 -340 83 -583.5t271 -452.5l-63 -57q-496 483 -496 1059z" />
<glyph unicode=")" horiz-adv-x="679" d="M25 -340q188 209 271 452.5t83 583.5q0 283 -69.5 482t-268.5 467l63 57q479 -479 480 -1040q0 -575 -496 -1059z" />
<glyph unicode="*" horiz-adv-x="1056" d="M129 985q0 55 40 74.5t132 38t164 59.5q-96 53 -182 68.5t-101 23.5q-49 29 -49 82q0 41 28.5 66.5t67.5 25.5q31 0 65 -33.5t88 -89t116 -90.5q0 127 -35 209q-27 41 -27 84q0 41 26.5 67.5t65.5 26.5q41 0 68 -26.5t27 -67.5q0 -27 -27 -84q-33 -72 -37 -209 q66 39 112 82t63.5 70t40 44t52.5 17q39 0 68 -26.5t29 -65.5q0 -45 -22.5 -64.5t-58.5 -23.5t-107.5 -24.5t-143.5 -61.5q66 -39 136.5 -58.5t109.5 -22.5t64.5 -24.5t25.5 -68.5q0 -39 -29 -64.5t-68 -25.5q-55 0 -104 78q-45 70 -170 133q0 -98 29.5 -193.5t29.5 -103.5 q0 -37 -26.5 -64.5t-63.5 -27.5q-43 0 -68.5 28.5t-25.5 71.5q0 4 31 94t33 195q-74 -41 -122 -85t-62.5 -69.5t-35 -42t-53.5 -16.5q-39 0 -66.5 27.5t-27.5 66.5z" />
<glyph unicode="+" horiz-adv-x="1126" d="M84 641v102h426v428h106v-428h426v-102h-426v-428h-106v428h-426z" />
<glyph unicode="," horiz-adv-x="559" d="M100 -293q109 76 157 148.5t48 160.5q-27 -16 -61 -16q-47 0 -77 34t-30 87q0 57 38 92t99 35q147 0 148 -205q0 -115 -60.5 -202.5t-214.5 -198.5z" />
<glyph unicode="-" horiz-adv-x="948" d="M158 508v170h633v-170h-633z" />
<glyph unicode="." horiz-adv-x="542" d="M137 113q0 57 39 96t94 39q57 0 96.5 -39t39.5 -96q0 -55 -39 -94t-97 -39q-55 0 -94 39t-39 94z" />
<glyph unicode="/" horiz-adv-x="942" d="M59 0l723 1577h101l-705 -1577h-119z" />
<glyph unicode="0" horiz-adv-x="1462" d="M125 776q0 346 177 583.5t429 237.5t429 -237.5t177 -583.5q0 -332 -177 -564t-429 -232t-429 232t-177 564zM391 770q0 -381 85 -536.5t255 -155.5q168 0 254 155.5t86 536.5q0 399 -85 564t-255 165t-255 -165t-85 -564z" />
<glyph unicode="1" horiz-adv-x="913" d="M141 1434v77q209 10 424 86v-1265q0 -160 38 -205t175 -49v-78h-626v78q135 6 174 50t39 189v752q0 266 -9 299q-10 41 -56 53.5t-159 12.5z" />
<glyph unicode="2" horiz-adv-x="1261" d="M102 0v68q455 406 613.5 637t158.5 454q0 158 -75.5 251t-202.5 93q-121 0 -199 -81t-78 -205q0 -111 61.5 -176.5t164.5 -65.5q-8 -49 -52 -79t-108 -30q-115 0 -189.5 87t-74.5 221q0 182 145.5 303.5t362.5 121.5t354 -124.5t137 -319.5q0 -233 -190.5 -462.5 t-530.5 -481.5l2 -10h408q100 0 153.5 47t94.5 188h76l-78 -436h-953z" />
<glyph unicode="3" horiz-adv-x="1261" d="M104 342q0 111 68 185.5t168 74.5q57 0 102 -25.5t56 -64.5q-78 0 -127 -56.5t-49 -144.5q0 -104 74.5 -169.5t193.5 -65.5q139 0 214 93t75 269q0 170 -69 263.5t-194 93.5q-74 -37 -137 -37q-41 0 -67.5 19.5t-26.5 49.5q0 57 90 58q61 0 125 -23q109 0 176.5 99.5 t67.5 261.5q0 287 -242 286q-109 0 -171 -49t-62 -135q0 -70 41 -113t106 -43q-10 -35 -50 -56t-93 -21q-88 0 -148.5 62.5t-60.5 154.5q0 131 121 209.5t317 78.5q221 0 354.5 -100t133.5 -264q0 -135 -88.5 -240.5t-219.5 -138.5v-12q158 -41 256.5 -154t98.5 -264 q0 -190 -154 -317t-389 -127q-211 0 -350.5 102t-139.5 260z" />
<glyph unicode="4" horiz-adv-x="1198" d="M37 367v102l721 1128h63v-1132q127 4 159 35.5t32 150.5h71v-456h-71q0 115 -33 146.5t-158 33.5v-43q0 -158 31 -206t131 -48v-78h-575v78q133 0 173 46t40 193v50h-584zM139 469h482v729h-11z" />
<glyph unicode="5" horiz-adv-x="1163" d="M45 262q0 117 98 117q55 0 83 -48t37 -106.5t54 -106.5t132 -48q158 0 248.5 146t90.5 392q0 176 -49 257t-159 81q-164 0 -230 -194q-12 -35 -21.5 -46.5t-27.5 -11.5q-45 0 -45 41q0 10 2 17l219 845q88 -37 240 -36q190 0 272 38l12 -2q-25 -117 -108.5 -180 t-210.5 -63h-180l-96 -367l4 -6q72 53 208 53q180 0 302 -136t122 -337q0 -244 -173 -412.5t-427 -168.5q-174 0 -285.5 79.5t-111.5 202.5z" />
<glyph unicode="6" horiz-adv-x="1316" d="M125 690q0 373 191.5 640t457.5 267q147 0 250.5 -60t103.5 -148q0 -49 -29.5 -78t-80.5 -29q-53 0 -86 35t-47.5 77t-57.5 76.5t-112 34.5q-141 0 -235.5 -184t-94.5 -461l6 -4q127 184 324 184q207 0 346 -146.5t139 -363.5q0 -229 -158.5 -389.5t-384.5 -160.5 q-236 0 -384 198.5t-148 511.5zM381 580q0 -508 285 -508q141 0 209.5 110.5t68.5 339.5q0 205 -65.5 311.5t-192.5 106.5q-94 0 -165.5 -61.5t-139.5 -198.5v-100z" />
<glyph unicode="7" horiz-adv-x="1028" d="M66 1126l143 574h82q-8 -25 -8 -64q0 -35 30.5 -47t124.5 -12h600v-41q-201 -451 -287.5 -661.5t-232.5 -595.5q-66 -176 -112 -237.5t-101 -61.5q-35 0 -61.5 26.5t-26.5 56.5q0 55 57 181.5t301 595.5l279 534h-381q-160 0 -208 -26.5t-91 -141.5l-31 -80h-77z" />
<glyph unicode="8" horiz-adv-x="1241" d="M121 369q0 256 344 422q-289 156 -289 397q0 170 131 295q125 115 307 114q160 0 287 -86q156 -109 156 -276q-1 -219 -269 -348q328 -174 328 -453q0 -193 -144.5 -323.5t-357.5 -130.5q-209 0 -351 112.5t-142 276.5zM315 375q0 -139 83 -220t225 -81q139 0 223 79.5 t84 213.5q0 92 -56.5 159.5t-199.5 151.5l-123 70q-236 -131 -236 -373zM352 1268q0 -82 59.5 -148.5t194.5 -138.5l96 -51q184 123 185 295q0 121 -81 200.5t-202 79.5q-113 0 -182.5 -65.5t-69.5 -171.5z" />
<glyph unicode="9" horiz-adv-x="1316" d="M117 1047q0 229 158.5 389.5t383.5 160.5q236 0 384.5 -198.5t148.5 -511.5q0 -373 -191.5 -640t-457.5 -267q-147 0 -251 60t-104 148q0 49 30 78t81 29q53 0 86 -35t47 -77t57 -76.5t113 -34.5q141 0 235.5 184t94.5 461l-6 4q-127 -184 -324 -184q-207 0 -346 146.5 t-139 363.5zM373 1055q0 -205 65.5 -311.5t192.5 -106.5q94 0 165.5 61.5t139.5 198.5v100q0 508 -285 508q-141 0 -209.5 -110.5t-68.5 -339.5z" />
<glyph unicode=":" horiz-adv-x="583" d="M158 113q0 57 39 96t94 39q57 0 96 -39t39 -96q0 -55 -39 -94t-96 -39q-55 0 -94 39t-39 94zM158 780q0 57 39 96t94 39q57 0 96 -38.5t39 -96.5q0 -55 -39 -94t-96 -39q-55 0 -94 39t-39 94z" />
<glyph unicode=";" horiz-adv-x="636" d="M145 -293q109 76 157 148.5t48 160.5q-27 -16 -61 -16q-47 0 -77 34t-30 87q0 57 38 92t99 35q147 0 148 -205q0 -115 -60 -202.5t-214 -198.5zM182 780q0 57 39 96t94 39q57 0 96.5 -38.5t39.5 -96.5q0 -55 -39 -94t-97 -39q-55 0 -94 39t-39 94z" />
<glyph unicode="&#x3c;" horiz-adv-x="1189" d="M80 623v131l938 475v-115l-846 -426l846 -430v-111z" />
<glyph unicode="=" horiz-adv-x="1269" d="M170 516v102h930v-102h-930zM170 864v103h930v-103h-930z" />
<glyph unicode="&#x3e;" horiz-adv-x="1189" d="M172 147v111l846 430l-846 426v115l938 -475v-131z" />
<glyph unicode="?" horiz-adv-x="817" d="M141 1483q0 115 127 114q170 0 300 -155.5t130 -356.5q0 -156 -87 -241.5t-242 -85.5v-273h-113v469h59q266 0 267 203q0 98 -52.5 168t-126.5 70q-25 0 -78 -11.5t-75 -11.5q-47 0 -78 31t-31 80zM172 113q0 57 39 96t94 39q57 0 96 -39t39 -96q0 -55 -39 -94t-96 -39 q-55 0 -94 39t-39 94z" />
<glyph unicode="@" horiz-adv-x="2107" d="M106 614q0 414 304.5 698.5t746.5 284.5q367 0 594 -202.5t227 -530.5q0 -281 -156.5 -493.5t-363.5 -212.5q-197 0 -215 235h-8q-63 -106 -157.5 -170.5t-188.5 -64.5q-133 0 -220 99t-87 251q0 225 170 411.5t374 186.5q182 0 240 -201l8 -2l45 182h197l-137 -485 q-53 -188 -54 -258q0 -39 25 -60.5t66 -21.5q135 0 252.5 190.5t117.5 409.5q0 279 -203.5 462t-513.5 183q-371 0 -623.5 -258t-252.5 -635q0 -352 230.5 -570t602.5 -218q346 0 643 205l43 -64q-346 -240 -712 -239q-436 0 -715 248.5t-279 639.5zM782 465 q0 -215 138 -215q133 0 255.5 181t122.5 376q0 100 -40.5 156.5t-114.5 56.5q-135 0 -248 -174t-113 -381z" />
<glyph unicode="A" horiz-adv-x="1581" d="M-12 0v78q94 10 141 45t82 121l532 1333h88l465 -1155q92 -225 147.5 -283.5t164.5 -58.5v-80h-668v80q106 0 148 19.5t42 68.5q0 61 -47 182l-84 221h-546q-127 -303 -127 -393q0 -55 36.5 -77.5t122.5 -22.5v-78h-497zM494 674h467l-228 604z" />
<glyph unicode="B" horiz-adv-x="1570" d="M78 0v78q158 4 202 46t44 187v955q0 143 -37 185t-168 48v78h612q274 0 429 -99.5t155 -275.5q0 -133 -85 -220t-269 -142v-9q125 -14 193.5 -34.5t131.5 -63.5q182 -129 182 -323q0 -109 -61 -202t-168 -147q-70 -35 -158 -48t-266 -13h-737zM539 322q0 -125 65 -179.5 t217 -54.5q371 0 371 318q0 231 -191 323q-63 31 -133.5 40t-236.5 9h-92v-456zM539 881h114q127 0 179.5 9t103.5 40q63 39 92 97t29 151q0 160 -79 231.5t-247 71.5h-158q-35 0 -34 -35v-565z" />
<glyph unicode="C" horiz-adv-x="1642" d="M123 762q0 371 218 603t566 232q229 0 467 -147l37 127h57l19 -471h-76q-45 178 -175 281.5t-310 103.5q-248 0 -388.5 -190.5t-140.5 -526.5q0 -330 138.5 -507t396.5 -177q395 0 508 420h84v-510h-72l-47 162q-215 -182 -520 -182q-348 0 -555 211.5t-207 570.5z" />
<glyph unicode="D" horiz-adv-x="1810" d="M78 0v78q158 4 202 46t44 187v955q0 143 -37 185t-168 48v78h719q371 0 611.5 -230.5t240.5 -584.5q0 -336 -226.5 -549t-584.5 -213h-801zM539 334q0 -233 305 -234q281 0 430 168t149 490q0 338 -157.5 528.5t-431.5 190.5h-261q-35 0 -34 -35v-1108z" />
<glyph unicode="E" horiz-adv-x="1486" d="M92 0v78q143 4 184 46t41 187v955q0 143 -36.5 185t-167.5 48v78h1183l19 -360h-72q-25 160 -114 216t-302 56h-260q-35 0 -35 -35v-588q217 0 302.5 54.5t85.5 181.5h71v-559h-71q0 129 -82 184t-306 57v-462q0 -133 73 -183.5t267 -50.5q217 0 310.5 66.5t134.5 248.5 h78l-31 -403h-1272z" />
<glyph unicode="F" d="M92 0v78q143 4 184 46t41 187v955q0 143 -36.5 185t-167.5 48v78h1183l23 -391h-72q-27 174 -112.5 233.5t-307.5 59.5h-260q-35 0 -35 -35v-619q205 0 289 52.5t99 203.5h71v-600h-71q-20 156 -99.5 208t-288.5 54v-417q0 -158 49.5 -201t235.5 -47v-78h-725z" />
<glyph unicode="G" horiz-adv-x="1781" d="M123 762q0 371 218 603t566 232q229 0 467 -147l43 127h72l-27 -471h-98q0 188 -128 286.5t-310 98.5q-248 0 -388.5 -190.5t-140.5 -526.5q0 -330 138.5 -507t396.5 -177q190 0 304 85t114 204q0 117 -46.5 160t-158.5 43v77h581v-77q-98 0 -132.5 -38t-34.5 -145v-229 q-82 0 -141.5 -18.5t-172.5 -81.5q-159 -90 -368 -90q-346 0 -550 211.5t-204 570.5z" />
<glyph unicode="H" horiz-adv-x="1894" d="M92 0v78q143 4 184 46t41 187v955q0 143 -36.5 185t-167.5 48v78h622v-78q-131 -4 -167 -48t-36 -200v-393h830v408q0 143 -37 185t-168 48v78h623v-78q-131 -4 -167 -48t-36 -200v-925q0 -156 39 -200t184 -48v-78h-663v78q143 4 184 46t41 187v445h-830v-430 q0 -156 39 -200t185 -48v-78h-664z" />
<glyph unicode="I" horiz-adv-x="849" d="M92 0v78q145 4 185 55t40 240v831q0 176 -37.5 232.5t-166.5 62.5v78h622v-78q-129 -4 -166 -62.5t-37 -246.5v-803q0 -201 39 -253t185 -56v-78h-664z" />
<glyph unicode="J" horiz-adv-x="806" d="M-225 -334q0 109 104 109q39 0 62.5 -19.5t54.5 -77.5q35 -66 61.5 -89t65.5 -23q82 0 128 91t46 255v1354q0 143 -37 185t-168 48v78h623v-78q-131 -4 -167 -48t-36 -200v-1255q0 -256 -109.5 -392t-316.5 -136q-139 0 -225 54t-86 144z" />
<glyph unicode="K" horiz-adv-x="1595" d="M92 0v78q141 0 183 44t42 189v955q0 152 -38.5 192.5t-165.5 40.5v78h622v-78q-125 0 -164 -44t-39 -204v-506l512 617q41 51 41 80q0 57 -116 57v78h493v-76q-84 0 -135 -27.5t-135 -125.5l-385 -445l598 -719q51 -61 97 -83.5t120 -22.5v-78h-629v78q150 0 150 55 q0 39 -70 123l-399 492l-142 -164v-258q0 -158 41 -203t183 -45v-78h-664z" />
<glyph unicode="L" horiz-adv-x="1488" d="M92 0v78q143 4 184 46t41 187v955q0 143 -36.5 185t-167.5 48v78h622v-78q-131 -4 -167 -48t-36 -200v-882q0 -170 74 -223.5t291 -53.5q238 0 332 61.5t139 249.5h78l-31 -403h-1323z" />
<glyph unicode="M" horiz-adv-x="2232" d="M92 0v78q145 4 185 55t40 240v831q0 176 -37.5 232.5t-166.5 62.5v78h489l516 -1210h8l533 1210h459v-78q-129 -4 -166 -62.5t-37 -246.5v-803q0 -201 39 -253t184 -56v-78h-663v78q145 4 185 55t40 240v950h-21l-598 -1343h-45l-587 1343h-9v-936q0 -201 39 -253 t185 -56v-78h-572z" />
<glyph unicode="N" horiz-adv-x="1847" d="M92 0v78q145 4 185 55t40 240v831q0 176 -37.5 232.5t-166.5 62.5v78h405l895 -1194h8v807q0 201 -34.5 253t-167.5 56v78h550v-78q-145 -4 -185 -55t-40 -240v-1224h-123l-972 1282h-9v-875q0 -201 35 -253t168 -56v-78h-551z" />
<glyph unicode="O" horiz-adv-x="1937" d="M117 776q0 346 245.5 583.5t606 237.5t606.5 -237.5t246 -583.5q0 -334 -248 -565t-604.5 -231t-604 231t-247.5 565zM383 770q0 -311 158 -494.5t428 -183.5q268 0 426.5 183.5t158.5 494.5q0 330 -157.5 522.5t-428 192.5t-428 -192.5t-157.5 -522.5z" />
<glyph unicode="P" horiz-adv-x="1406" d="M92 0v78q143 4 184 46t41 187v955q0 143 -36.5 185t-167.5 48v78h643q281 0 436.5 -104.5t155.5 -290.5q0 -465 -631 -465h-185v-395q0 -154 50.5 -199t232.5 -45v-78h-723zM532 819h146q205 0 304 80t99 258q0 170 -78.5 247t-246.5 77h-189q-35 0 -35 -35v-627z" />
<glyph unicode="Q" horiz-adv-x="1941" d="M119 770q0 352 245.5 589.5t606 237.5t606.5 -237.5t246 -585.5q0 -373 -289 -624q-127 -111 -416 -218q-131 -51 -203 -104v-8q33 4 72 4q125 0 328 -77t311 -77q94 0 144.5 41t80.5 142h52q8 -49 8 -86q0 -129 -102.5 -214t-256.5 -85q-102 0 -210.5 44t-185.5 96 t-167 96t-158 44q-47 0 -85.5 -20.5t-59 -46t-49.5 -46t-59 -20.5q-59 0 -60 51q0 29 22.5 49.5t112.5 73.5l267 152q-344 10 -572.5 249.5t-228.5 579.5zM385 770q0 -336 158 -532.5t428 -196.5q268 0 426.5 197.5t158.5 531.5q0 330 -157.5 522.5t-428 192.5t-428 -192.5 t-157.5 -522.5z" />
<glyph unicode="R" horiz-adv-x="1613" d="M92 0v78q143 4 184 46t41 187v955q0 143 -36.5 185t-167.5 48v78h643q281 0 436.5 -104.5t155.5 -290.5q0 -348 -412 -418l453 -545q92 -113 280 -141v-78h-395l-502 643q-51 68 -96 86.5t-144 18.5v-426q0 -154 50.5 -199t232.5 -45v-78h-723zM532 850h146q205 0 304 77 t99 244q0 164 -78.5 237t-246.5 73h-189q-35 0 -35 -35v-596z" />
<glyph unicode="S" horiz-adv-x="1320" d="M119 481h76q29 -184 154.5 -290.5t309.5 -106.5q150 0 239 72.5t89 193.5q0 104 -75.5 177t-282.5 163q-254 113 -349.5 214.5t-95.5 258.5q0 190 129 312t330 122q172 0 326 -120l53 92h47l23 -408h-76q-98 332 -367 332q-125 0 -198.5 -62.5t-73.5 -164.5 q0 -96 68.5 -165t244.5 -147q303 -137 411.5 -242.5t108.5 -267.5q0 -207 -154.5 -335.5t-402.5 -128.5q-221 0 -399 143l-57 -100h-47z" />
<glyph unicode="T" horiz-adv-x="1644" d="M43 1186v391h1546l21 -391h-84q-14 174 -91 238.5t-259 64.5q-145 0 -188.5 -13.5t-43.5 -50.5v-1095q0 -139 49 -192.5t215 -59.5v-78h-774v78q166 6 216 59t50 193v1095q0 37 -37.5 50.5t-162.5 13.5q-78 0 -123 -3t-99.5 -19.5t-84 -48.5t-51 -90t-23.5 -142h-76z" />
<glyph unicode="U" horiz-adv-x="1763" d="M59 1499v78h699v-78q-143 0 -180 -49q-45 -59 -46 -350v-557q0 -217 96.5 -327t317.5 -110q410 0 410 449v494q0 188 -14.5 280t-53.5 129q-43 41 -178 41v78h594v-78q-135 0 -174 -55q-51 -71 -51 -395v-414q0 -332 -138.5 -493.5t-451.5 -161.5q-311 0 -456.5 132 t-145.5 447v541q0 172 -8.5 245.5t-40.5 108.5q-43 45 -179 45z" />
<glyph unicode="V" horiz-adv-x="1605" d="M-27 1497v80h668v-80q-109 0 -147.5 -20.5t-38.5 -65.5q0 -51 49 -176l364 -922l361 889q55 135 55 197q0 55 -35 77.5t-125 22.5v78h498v-78q-94 -10 -141 -45t-82 -121l-555 -1353h-72l-528 1275q-55 129 -110.5 182.5t-160.5 59.5z" />
<glyph unicode="W" horiz-adv-x="2408" d="M-23 1497v80h668v-80q-106 0 -147 -19.5t-41 -70.5q0 -45 32 -143l312 -949l252 709q16 49 52 141t48 131q-53 115 -98 158t-105 43v80h627v-80q-115 0 -150.5 -17.5t-35.5 -64.5q0 -41 43 -186l274 -920l320 889q53 145 53 209q0 51 -34 71.5t-120 20.5v78h498v-78 q-92 0 -141.5 -38t-81.5 -128l-514 -1353h-72l-393 1165l-437 -1165h-71l-426 1175q-76 207 -133.5 274.5t-178.5 67.5z" />
<glyph unicode="X" horiz-adv-x="1675" d="M4 0v78q98 0 168 43t166 164l401 512l-415 567q-96 135 -267 135v78h680v-78q-133 0 -133 -80q0 -51 58 -135l223 -332l200 254q102 131 103 203q0 51 -34 70.5t-120 19.5v78h563v-78q-100 0 -153 -37t-166 -180l-326 -420l471 -639q106 -145 260 -145v-78h-698v78 q160 0 160 65q0 31 -18.5 70t-86.5 139l-233 348l-176 -221q-129 -162 -176 -235.5t-47 -112.5q0 -31 34.5 -42t130.5 -11v-78h-569z" />
<glyph unicode="Y" horiz-adv-x="1501" d="M-10 1499v78h645v-78q-102 0 -144 -15.5t-42 -53.5q0 -43 47 -123l317 -543h8l232 389q121 205 121 277q0 39 -30 54t-104 15v78h469v-78q-86 0 -148.5 -61.5t-186.5 -274.5l-316 -532v-244q0 -201 38 -255t185 -54v-78h-663v78q145 0 185 53t40 242v250l-410 700 q-63 106 -111 141t-132 35z" />
<glyph unicode="Z" horiz-adv-x="1576" d="M33 0v8l1077 1483h-561q-145 0 -218 -65.5t-100 -225.5h-75l30 377h1248v-8l-1067 -1475h634q209 0 281 73t109 314h88l-25 -481h-1421z" />
<glyph unicode="[" horiz-adv-x="759" d="M219 -307v1986h494v-96h-310v-1794h310v-96h-494z" />
<glyph unicode="\" horiz-adv-x="942" d="M59 1577h101l723 -1577h-119z" />
<glyph unicode="]" horiz-adv-x="759" d="M47 -211h309v1794h-309v96h494v-1986h-494v96z" />
<glyph unicode="^" horiz-adv-x="983" d="M156 471l243 367h185l243 -367h-92l-243 242l-244 -242h-92z" />
<glyph unicode="_" horiz-adv-x="1478" d="M156 -154h1167v-139h-1167v139z" />
<glyph unicode="`" horiz-adv-x="563" d="M41 1573q0 33 21.5 52.5t56.5 19.5q63 0 137 -68l266 -244h-96l-281 133q-104 49 -104 107z" />
<glyph unicode="a" horiz-adv-x="1134" d="M88 223q0 102 76 183t256 159l295 129v84q0 250 -213 250q-70 0 -99.5 -25.5t-56.5 -107.5q-23 -57 -44 -77.5t-62 -20.5q-102 0 -103 102q0 98 104.5 152.5t297.5 54.5q207 0 291.5 -72.5t84.5 -247.5v-458q0 -233 93 -234q74 0 100 45l29 -49q-25 -47 -90.5 -78.5 t-137.5 -31.5q-178 0 -178 219h-10q-53 -100 -148.5 -158.5t-207.5 -58.5q-127 0 -202 65.5t-75 175.5zM295 258q0 -68 45 -111t119 -43q106 0 181 100.5t75 239.5v162q-227 -86 -323.5 -170t-96.5 -178z" />
<glyph unicode="b" horiz-adv-x="1339" d="M-2 1567v51l385 82v-760h8q127 166 328 166q221 0 371.5 -163t150.5 -400q0 -242 -151.5 -404t-376.5 -162q-115 0 -217.5 43t-167.5 117l-97 -137h-45v1237q0 207 -26 264q-14 31 -41 41t-121 25zM387 428q0 -154 85 -253t218 -99q143 0 231.5 127t88.5 334 q0 209 -91.5 341t-236.5 132q-82 0 -148.5 -40t-101.5 -112q-45 -90 -45 -248v-182z" />
<glyph unicode="c" horiz-adv-x="1097" d="M100 535q0 260 157 415.5t413 155.5q158 0 259 -50t101 -130q0 -39 -26.5 -62.5t-73.5 -23.5q-37 0 -62.5 16t-62.5 68q-41 49 -79 67.5t-97 18.5q-145 0 -220 -114t-75 -331q0 -233 84 -356t241 -123q171 0 316 143l61 -59q-74 -90 -190.5 -140t-251.5 -50 q-219 0 -356.5 153.5t-137.5 401.5z" />
<glyph unicode="d" horiz-adv-x="1382" d="M98 545q0 244 151.5 402.5t381.5 158.5q186 0 323 -137v209q0 246 -12 301q-10 45 -58 63.5t-153 18.5v61l420 78v-1182q0 -303 14 -362q12 -51 43 -67.5t123 -16.5v-70l-340 -22v192h-8q-74 -102 -157 -147t-195 -45q-231 0 -382 158.5t-151 406.5zM330 555 q0 -221 77.5 -349t223.5 -128q76 0 151.5 34.5t114.5 94.5q53 81 53 282v136q0 109 -11 163t-44 95q-45 59 -117.5 92t-146.5 33q-143 0 -222 -121t-79 -332z" />
<glyph unicode="e" horiz-adv-x="1173" d="M100 530q0 252 157 414t405 162q197 0 306 -108.5t109 -307.5q0 -27 -11 -34t-52 -7h-674q-8 -31 -8 -92q0 -213 99 -342t263.5 -129t311.5 162l63 -58q-173 -210 -430 -210h-2q-240 0 -388.5 152.5t-148.5 397.5zM354 743h377q82 0 102.5 10.5t20.5 47.5 q0 94 -61.5 150.5t-163.5 56.5q-222 -1 -275 -265z" />
<glyph unicode="f" horiz-adv-x="843" d="M45 956v97h231v147q0 236 125 368t353 132q127 0 206.5 -39t79.5 -100q0 -41 -25.5 -69t-64.5 -28q-43 0 -125 68q-49 43 -78.5 56.5t-68.5 13.5q-123 0 -176 -125q-33 -72 -33 -265v-159h330v-97h-330v-626q0 -152 42 -204t171 -54v-72h-582v72q117 6 146.5 46t29.5 195 v643h-231z" />
<glyph unicode="g" horiz-adv-x="1226" d="M66 -246q0 86 53 145.5t129 59.5q70 0 125 -43q-55 -12 -90 -60.5t-35 -109.5q0 -90 90 -139t252 -49q350 0 350 215q0 80 -54.5 135t-131.5 65q-137 18 -367 45q-233 25 -233 197q0 72 59 127t149 70v8q-92 37 -151 129t-59 196q0 156 114.5 258.5t288.5 102.5 q188 0 307 -109q131 109 223 109q74 0 118 -34t44 -91q0 -33 -23.5 -54.5t-58.5 -21.5q-39 0 -80 32t-73 32q-49 0 -101 -35q49 -76 50 -191q0 -174 -111 -274t-324 -115q-129 -10 -176 -27.5t-47 -58.5q1 -57 146 -67q158 -12 337 -39q147 -23 236.5 -115t89.5 -227 q0 -170 -137 -261t-393 -91q-229 0 -372.5 79.5t-143.5 206.5zM367 739q0 -135 53 -217t141 -82q86 0 134 79t48 218.5t-48 216t-136 76.5t-140 -79t-52 -212z" />
<glyph unicode="h" horiz-adv-x="1409" d="M45 1552v70l377 78v-780h8q63 82 176 134t225 52q94 0 173 -33t122 -88q68 -88 68 -332v-327q0 -168 25.5 -207t142.5 -47v-72h-543v72q117 6 144.5 45t27.5 194v258q0 231 -53 327.5t-178 96.5q-94 0 -174 -49t-125 -135q-35 -69 -35 -221v-262q0 -61 1 -96t8 -67 t16.5 -45.5t31 -24.5t45 -15t66.5 -6v-72h-545v72q119 8 147.5 47t28.5 192v858q0 231 -14 301q-10 49 -42 65.5t-124 16.5z" />
<glyph unicode="i" horiz-adv-x="698" d="M66 956v72l401 78v-780q0 -158 35 -204t155 -50v-72h-587v72q125 6 160.5 50t35.5 189v262q0 250 -14 301q-10 47 -48 64.5t-138 17.5zM231 1521.5q0 53.5 37 90.5t90.5 37t90 -37t36.5 -90.5t-36.5 -90t-90 -36.5t-90.5 36.5t-37 90z" />
<glyph unicode="j" horiz-adv-x="622" d="M-281 -342q0 96 105 96q37 0 56.5 -17.5t49.5 -78.5q29 -61 54.5 -81.5t74.5 -20.5q98 0 137.5 67.5t39.5 237.5v712q0 250 -15 301q-10 47 -48 64.5t-138 17.5v72l401 78v-1110q0 -256 -108.5 -392t-311.5 -136q-131 0 -214 53t-83 137zM205 1521.5q0 53.5 37 90.5 t90 37t90 -37t37 -90.5t-37 -90t-90 -36.5t-90 36.5t-37 90z" />
<glyph unicode="k" horiz-adv-x="1261" d="M31 1552v70l395 78v-1125l190 187q157 154 173 178q10 15 10 25q0 49 -166 49v71h532v-71q-76 0 -120 -20.5t-121 -88.5l-295 -262l405 -459q59 -70 100.5 -91t116.5 -21v-72h-538v72q118 0 118 22q0 27 -112 162l-217 262l-76 -72v-120q0 -158 34 -204t156 -50v-72h-581 v72q123 4 159.5 49t36.5 190v858q0 180 -4 250t-20 94q-16 27 -53 33t-123 6z" />
<glyph unicode="l" horiz-adv-x="665" d="M41 1554v70l387 76v-1381q0 -156 32 -199.5t150 -47.5v-72h-565v72q121 6 157 49t36 184v883q0 233 -13 287q-10 47 -48 63t-136 16z" />
<glyph unicode="m" horiz-adv-x="2197" d="M72 956v72l334 78l26 -205h10q180 205 418 205q129 0 217 -53.5t123 -149.5h8q76 96 185.5 149.5t230.5 53.5q96 0 175 -32t120 -87q68 -88 68 -334v-325q0 -168 26.5 -208t143.5 -48v-72h-545v72q117 6 145.5 46t28.5 193v258q0 236 -53.5 330t-186.5 94q-88 0 -168 -50 t-125 -134q-23 -41 -28.5 -83t-5.5 -138v-260q0 -170 26.5 -209t145.5 -47v-72h-545v72q117 8 144.5 46t27.5 193v258q0 238 -51.5 331t-184.5 93q-90 0 -172 -51t-123 -133q-23 -41 -28.5 -83t-5.5 -138v-260q0 -170 25.5 -209t142.5 -47v-72h-545v72q119 8 147.5 47 t28.5 192v262q0 250 -14 301q-10 51 -41 66.5t-125 15.5z" />
<glyph unicode="n" horiz-adv-x="1411" d="M72 963v65l327 78l25 -203h8q164 203 410 203q92 0 171 -31t120 -84q63 -86 63 -327v-342q0 -166 26.5 -205t139.5 -47v-70h-531v70q115 6 142.5 45t27.5 192v271q0 231 -52 324t-181 93q-90 0 -168 -48t-121 -132q-23 -43 -30 -84t-7 -135v-274q0 -166 26 -205t144 -47 v-70h-536v70q115 8 143.5 47t28.5 190v273q0 244 -12 297q-12 55 -43 70.5t-121 15.5z" />
<glyph unicode="o" horiz-adv-x="1339" d="M98 551q0 240 166 397.5t402 157.5q238 0 406.5 -159t168.5 -396q0 -246 -169 -408.5t-406 -162.5q-236 0 -402 162.5t-166 408.5zM330 549q0 -213 91 -339t245 -126q156 0 250 127t94 338q0 205 -94 332t-250 127q-152 0 -244 -126t-92 -333z" />
<glyph unicode="p" horiz-adv-x="1390" d="M37 950v70l393 78v-160h8q139 168 318 168q231 0 382.5 -160t151.5 -405q0 -248 -152.5 -404.5t-383.5 -156.5q-188 0 -316 135v-299q0 -162 41 -207t193 -49v-72h-631v72q123 4 160 49t37 192v766q0 248 -15 299q-10 49 -48 66.5t-138 17.5zM438 475q0 -111 11.5 -164 t44.5 -94q100 -137 249 -137q141 0 228.5 121t87.5 331q0 213 -90 344.5t-238 131.5q-155 0 -239 -129q-53 -84 -54 -244v-160z" />
<glyph unicode="q" horiz-adv-x="1337" d="M98 528.5q0 241.5 155 409.5t374 168q109 0 212 -45t171 -121l90 141h51v-1265q0 -172 33 -212t178 -44v-72h-625v72q131 2 175 52t44 189v346h-8q-72 -90 -149.5 -128.5t-184.5 -38.5q-227 0 -371.5 153.5t-144.5 395zM330 543q0 -213 87 -339t234 -126q84 0 151.5 40 t102.5 109q45 90 45 248v180q0 152 -86 251.5t-215 99.5q-145 0 -232 -126t-87 -337z" />
<glyph unicode="r" horiz-adv-x="976" d="M74 934v72l358 77l29 -254h8q55 123 153.5 200t202.5 77q66 0 104 -32t38 -85q0 -49 -31 -76.5t-88 -27.5q-47 0 -94 25.5t-68 25.5q-55 0 -110.5 -70.5t-86.5 -179.5q-34 -121 -34 -291v-69q0 -61 1 -96t8 -67t16 -45.5t30.5 -24.5t45.5 -15t67 -6v-72h-545v72 q119 6 147.5 45t28.5 194v240v124q0 42 -4 92t-6 69.5t-14.5 44t-21.5 31t-32.5 14.5t-43.5 8h-58z" />
<glyph unicode="s" horiz-adv-x="929" d="M131 0v352h51q80 -289 291 -289q84 0 131 41t47 121q0 57 -40 94t-197 136q-158 100 -217.5 164.5t-59.5 171.5q0 139 87 227t218 88q123 0 220 -64l40 43h39v-294h-53q-45 125 -98 178t-131 53q-70 0 -112 -37t-42 -102q0 -63 42 -105.5t159 -113.5q193 -121 260.5 -192 t67.5 -181q0 -143 -94.5 -227t-247.5 -84q-160 0 -275 92l-41 -72h-45z" />
<glyph unicode="t" horiz-adv-x="774" d="M82 956v76q111 66 171 129.5t93 149.5h60v-258h274v-97h-274v-622q0 -145 29.5 -199.5t111.5 -54.5q94 0 158 94l51 -39q-59 -155 -272 -155h-3q-135 0 -205.5 64.5t-70.5 184.5v727h-123z" />
<glyph unicode="u" d="M43 1014v71h371v-559q0 -221 52 -322.5t167 -101.5q180 0 280 236q35 84 35 219v201q0 168 -25.5 205.5t-144.5 50.5v71h371v-628q0 -227 12 -301q8 -51 40 -66.5t126 -15.5v-72l-338 -25l-22 246h-9q-151 -243 -389 -243h-2q-88 0 -168 32.5t-120 87.5q-66 86 -66 332 v326q0 168 -25.5 207t-144.5 49z" />
<glyph unicode="v" horiz-adv-x="1249" d="M10 1014v71h543v-71q-88 -4 -112.5 -14.5t-24.5 -57.5q0 -45 28 -127l218 -594h8l186 441q80 188 80 272q0 47 -25.5 63.5t-105.5 16.5v71h407v-71q-59 0 -106 -58q-18 -27 -43 -81t-49.5 -118.5t-34.5 -84.5l-301 -695h-119l-346 854q-47 119 -83 149t-120 34z" />
<glyph unicode="w" horiz-adv-x="1744" d="M25 1014v71h542v-71q-80 0 -112.5 -18.5t-32.5 -63.5q0 -33 22 -117l140 -489h8l301 759h63l273 -759h8l123 331q84 227 84 283q0 45 -27.5 59.5t-109.5 14.5v71h409v-71q-59 0 -94 -45t-100 -205l-318 -784h-76l-249 755h-9l-301 -755h-75l-267 851q-35 113 -73.5 148 t-128.5 35z" />
<glyph unicode="x" horiz-adv-x="1247" d="M20 0v72q94 0 153.5 36.5t152.5 149.5l209 256l-273 387q-45 66 -85 89.5t-99 23.5v71h504v-71q-104 0 -105 -49q0 -31 39 -86l148 -215l139 180q49 61 49 104q0 66 -121 66v71h449v-71q-74 0 -125 -34t-125 -130l-211 -268l272 -359q114 -151 232 -151h2v-72h-545v72 q74 0 102.5 11t28.5 44q0 25 -76 123l-143 184l-174 -221q-31 -37 -31 -74q0 -67 99 -67h3v-72h-469z" />
<glyph unicode="y" horiz-adv-x="1308" d="M8 1014v71h543v-71q-137 0 -137 -68q0 -61 57 -201l225 -544h11l186 461q86 209 86 262t-29.5 71.5t-113.5 18.5v71h450v-71q-78 0 -121 -56.5t-143 -285.5l-447 -994q-94 -210 -290 -210h-2q-129 0 -129 96q0 51 35.5 75.5t132.5 38.5q84 14 128 46t82 110l72 143 l-393 854q-53 115 -87 146t-116 37z" />
<glyph unicode="z" horiz-adv-x="1140" d="M37 0v8l708 991h-227q-178 0 -238.5 -35.5t-80.5 -160.5h-66l33 282h881v-8l-699 -983h240q213 0 287.5 41t111.5 182h68l-35 -317h-983z" />
<glyph unicode="{" horiz-adv-x="686" d="M59 676v51q111 23 147 81t36 183v359q0 201 69.5 275.5t282.5 74.5v-47q-92 -25 -130 -86.5t-38 -173.5v-367q0 -141 -40 -217t-161 -102v-11q117 -20 159 -88.5t42 -201.5v-406q0 -115 38 -174t138 -88v-45q-207 0 -283.5 65.5t-76.5 249.5v402q0 106 -43 182t-140 84z " />
<glyph unicode="|" horiz-adv-x="593" d="M215 -512v2191h164v-2191h-164z" />
<glyph unicode="}" horiz-adv-x="686" d="M84 -262q100 29 138 88t38 174v406q0 133 42 201.5t159 88.5v11q-121 27 -161 102.5t-40 216.5v367q0 113 -38 174t-130 86v47q213 0 282.5 -75t69.5 -275v-359q0 -125 36 -183t147 -81v-51q-96 -8 -139.5 -84t-43.5 -182v-402q0 -184 -76.5 -249.5t-283.5 -65.5v45z" />
<glyph unicode="~" horiz-adv-x="1132" d="M172 510q18 109 78.5 171t146.5 62q57 0 197.5 -47t206.5 -47q39 0 59.5 18.5t34.5 67.5h68q-16 -109 -74 -175t-137 -66q-55 0 -203 49t-215 49q-39 0 -58.5 -17.5t-33.5 -64.5h-70z" />
<glyph unicode="&#xa1;" horiz-adv-x="630" d="M182 115q0 100 31 266q29 158 41 312.5t12 459.5h99q0 -471 53 -764q31 -164 31 -274q0 -57 -37 -96t-96.5 -39t-96.5 38.5t-37 96.5zM182 1464q0 55 39 94t94 39q57 0 96.5 -38.5t39.5 -94.5q0 -57 -39 -96t-97 -39q-55 0 -94 39t-39 96z" />
<glyph unicode="&#xa2;" horiz-adv-x="1136" d="M109 535q0 236 131 387t350 178v299h102v-293q154 -4 250 -53t96 -127q0 -39 -26.5 -62.5t-73.5 -23.5q-37 0 -62.5 16t-62.5 68q-59 70 -121 82v-920q154 10 291 143l61 -59q-129 -156 -352 -184v-287h-102v281q-215 4 -348 156.5t-133 398.5zM342 565q0 -412 248 -471 v912q-248 -35 -248 -441z" />
<glyph unicode="&#xa3;" horiz-adv-x="1392" d="M80 145q0 84 60.5 138.5t152.5 54.5q109 0 217 -64q12 47 12 123q0 137 -84 361h-284v125h245q-47 160 -47 276q0 203 130 320.5t352 117.5q170 0 281.5 -67.5t111.5 -167.5q0 -94 -90 -94q-41 0 -67 23.5t-42 57t-36.5 68.5t-64.5 58.5t-114 23.5q-115 0 -182.5 -61.5 t-67.5 -165.5q0 -78 27 -178l53 -211h444v-125h-417q29 -104 28 -205q0 -195 -69 -326q176 -45 346 -45q195 0 303 142l20 -9q0 -170 -78.5 -252.5t-220.5 -82.5q-86 0 -175 28.5t-251 112.5q-39 -61 -125 -102.5t-174 -41.5t-141 45.5t-53 122.5zM211 158q0 -66 102 -66 t168 78q-111 53 -180 53q-41 0 -65.5 -17.5t-24.5 -47.5z" />
<glyph unicode="&#xa4;" horiz-adv-x="1255" d="M131 965l72 71l147 -147q119 96 277 96q154 0 276 -96l148 147l71 -71l-147 -148q98 -121 98 -278.5t-96 -276.5l145 -145l-71 -72l-146 145q-119 -96 -278 -96q-162 0 -279 99l-145 -146l-70 70l146 145q-96 119 -97 277q0 160 97 278zM285 538.5q0 -141.5 100 -241.5 t241.5 -100t243 100t101.5 241.5t-101.5 243t-243 101.5t-241.5 -101.5t-100 -243z" />
<glyph unicode="&#xa5;" horiz-adv-x="1642" d="M61 1499v78h646v-78q-113 0 -150 -15.5t-37 -53.5q0 -43 47 -123l318 -543h8l231 389q121 205 121 277q0 39 -29.5 54t-103.5 15v78h469v-78q-86 0 -148.5 -61.5t-187.5 -274.5l-248 -418h285v-122h-352v-142h352v-123h-352q2 -180 41 -230t182 -50v-78h-664v78 q143 0 183.5 50t42.5 230h-363v123h363v142h-363v122h291l-338 578q-63 106 -111.5 141t-132.5 35z" />
<glyph unicode="&#xa6;" horiz-adv-x="610" d="M223 -369v789h164v-789h-164zM223 748v788h164v-788h-164z" />
<glyph unicode="&#xa7;" horiz-adv-x="1159" d="M123 -20q0 78 36 124t93 46q53 0 92 -38t39 -89q0 -47 -45 -101.5t-45 -73.5q0 -45 84 -78.5t192 -33.5q133 0 207 60.5t74 166.5q0 76 -51.5 134t-180.5 132l-120 68q-201 113 -285 212t-84 230q0 221 203 303q-145 121 -146 314q0 158 105.5 251t281.5 93 q168 0 278 -79t110 -198q0 -66 -35 -104.5t-92 -38.5q-53 0 -87 31.5t-34 83.5q0 41 28.5 75.5t28.5 53.5q0 41 -57.5 67.5t-141.5 26.5q-111 0 -172 -51t-61 -146q0 -76 48 -134t167 -126l123 -71q188 -111 272 -215.5t84 -231.5q0 -170 -178 -301q158 -129 158 -313 q0 -170 -126 -277.5t-327 -107.5q-190 0 -313 95t-123 241zM281 821q-1 -133 155 -223l332 -197q63 49 89 86t26 82q0 139 -189 254l-272 162q-80 -41 -110.5 -77t-30.5 -87z" />
<glyph unicode="&#xa8;" horiz-adv-x="661" d="M41 1452q0 51 34 85t85 34t85 -34t34 -85t-34 -85t-85 -34t-85 34t-34 85zM383 1452q0 51 34 85t85 34t85 -34t34 -85t-34 -85t-85 -34t-85 34t-34 85z" />
<glyph unicode="&#xa9;" horiz-adv-x="1818" d="M117 788.5q0 333.5 230.5 571t555.5 237.5q332 0 565.5 -235t233.5 -571q0 -338 -233.5 -574.5t-563.5 -236.5q-326 0 -557 237.5t-231 571zM215 788q0 -295 200.5 -502.5t489.5 -207.5t494 209t205 503.5t-205 501.5t-496 207q-287 0 -487.5 -209t-200.5 -502zM463 768 q0 213 127 346t332 133q125 0 258 -84l20 72h43l10 -268h-53q-25 92 -96.5 145t-171.5 53q-137 0 -214 -102t-77 -287q0 -180 76 -275t219 -95q201 0 260 219h68q-31 -141 -119 -222t-236 -81q-205 0 -325.5 121.5t-120.5 324.5z" />
<glyph unicode="&#xaa;" horiz-adv-x="774" d="M129 1159q0 53 39 92t135 82l143 64v39q0 113 -102 112q-45 0 -64.5 -12t-27.5 -51q-12 -49 -53 -49q-51 0 -52 59q0 43 59.5 72.5t155.5 29.5q109 0 154 -35.5t45 -121.5v-230q0 -119 45 -118q31 0 49 26l15 -24q-31 -55 -123 -56q-90 0 -90 99h-8q-57 -98 -173 -99 q-68 0 -107.5 34t-39.5 87zM256 1188q0 -35 19.5 -56.5t52.5 -21.5q47 0 82.5 48.5t35.5 111.5v69q-190 -70 -190 -151z" />
<glyph unicode="&#xab;" horiz-adv-x="1001" d="M100 537l349 325l40 -43l-202 -282l200 -283l-38 -41zM451 537l348 325l41 -43l-203 -282l201 -283l-39 -41z" />
<glyph unicode="&#xac;" horiz-adv-x="1280" d="M170 641v102h938v-518h-102v416h-836z" />
<glyph unicode="&#xad;" horiz-adv-x="948" d="M158 508v170h633v-170h-633z" />
<glyph unicode="&#xae;" horiz-adv-x="1818" d="M117 788.5q0 333.5 230.5 571t555.5 237.5q332 0 565.5 -235t233.5 -571q0 -338 -233.5 -574.5t-563.5 -236.5q-326 0 -557 237.5t-231 571zM215 788q0 -295 200.5 -502.5t489.5 -207.5t494 209t205 503.5t-205 501.5t-496 207q-287 0 -487.5 -209t-200.5 -502zM498 375 v45q74 2 94 26.5t20 102.5v530q0 80 -18.5 103.5t-83.5 25.5v52h358q164 0 254 -59t90 -163q0 -199 -221 -233l254 -307q53 -63 137 -78v-45h-221l-282 350q-27 37 -50.5 48t-72.5 11v-229q0 -86 25.5 -110.5t121.5 -24.5v-45h-405zM756 852h82q104 0 154 43t50 137 q0 90 -40.5 128t-133.5 38h-94q-18 0 -18 -18v-328z" />
<glyph unicode="&#xaf;" horiz-adv-x="634" d="M41 1438v102h553v-102h-553z" />
<glyph unicode="&#xb0;" horiz-adv-x="708" d="M109 1351.5q0 102.5 72.5 174t173 71.5t173 -71.5t72.5 -174t-72.5 -174t-173 -71.5t-173 71.5t-72.5 174zM170 1351.5q0 -75.5 54.5 -130t130 -54.5t129 54.5t53.5 130t-53.5 129t-129 53.5t-130 -53.5t-54.5 -129z" />
<glyph unicode="&#xb1;" horiz-adv-x="1298" d="M170 195v102h958v-102h-958zM170 907v103h426v428h106v-428h426v-103h-426v-428h-106v428h-426z" />
<glyph unicode="&#xb2;" horiz-adv-x="583" d="M70 958v27q182 162 245.5 255t63.5 181q0 59 -30 94t-83 35q-43 0 -71.5 -29.5t-28.5 -74.5q0 -39 24.5 -63.5t65.5 -24.5q-4 -23 -23.5 -38t-50.5 -15q-45 0 -74.5 34.5t-29.5 87.5q0 74 57.5 122t145.5 48q90 0 148 -49t58 -127q0 -94 -75.5 -183t-212.5 -191v-9h174 q41 0 61.5 19.5t36.5 75.5h41l-31 -175h-411z" />
<glyph unicode="&#xb3;" horiz-adv-x="571" d="M72 1096q0 45 26.5 74.5t67.5 29.5q27 0 48.5 -13t25.5 -34q-31 0 -51.5 -19.5t-20.5 -50.5q0 -37 27.5 -60.5t70.5 -23.5q115 1 115 136q0 137 -105 137q-29 -14 -55 -15q-37 0 -37 33q0 29 35 29q25 0 51 -10q43 0 70 37.5t27 101.5q0 104 -97 104q-82 0 -82 -63 q0 -23 15.5 -38t42.5 -15q-2 -16 -22.5 -28.5t-45.5 -12.5q-35 0 -58.5 25.5t-23.5 62.5q0 51 48.5 82.5t125.5 31.5q94 0 149.5 -39.5t55.5 -105.5q0 -55 -38 -97t-95 -55v-8q68 -16 111 -60t43 -104q0 -78 -64.5 -128t-163.5 -50q-86 0 -141 41t-55 105z" />
<glyph unicode="&#xb4;" horiz-adv-x="563" d="M41 1333l266 244q74 68 137 68q35 0 56.5 -19.5t21.5 -52.5q0 -57 -104 -107l-281 -133h-96z" />
<glyph unicode="&#xb5;" horiz-adv-x="1476" d="M96 1014v71h371v-559q0 -229 52 -332.5t169 -103.5q172 0 279 248q35 78 34 219v201q0 164 -30.5 210t-139.5 46v71h371v-628q0 -227 12 -301q10 -51 41 -66.5t125 -15.5v-72l-338 -25l-22 246h-8q-133 -244 -334 -243q-170 0 -254 188l-8 -2q84 -416 84 -555 q0 -66 -31 -104.5t-84 -38.5q-51 0 -85 36.5t-34 89.5v1164q0 164 -30.5 210t-139.5 46z" />
<glyph unicode="&#xb6;" horiz-adv-x="1292" d="M74 1155q0 205 142 313.5t411 108.5h565v-78q-100 0 -141 -15.5t-60 -58.5q-22 -58 -22 -251v-1045q0 -246 26 -315q25 -74 197 -74v-78h-375v1825h-106v-1825h-398v78q106 0 157.5 18.5t66.5 61.5q20 70 20 309v635q-10 0 -31.5 -1t-38.5 -1q-195 0 -304 103.5 t-109 289.5z" />
<glyph unicode="&#xb7;" horiz-adv-x="583" d="M158 561q0 57 39 96t94 39q57 0 96 -39t39 -96q0 -55 -39 -94t-96 -39q-55 0 -94 39t-39 94z" />
<glyph unicode="&#xb8;" horiz-adv-x="475" d="M12 -377q0 74 64 74q37 0 67 -66q18 -43 38 -59t55 -16q45 0 73.5 28.5t28.5 73.5q0 111 -162 111q-31 0 -72 -5l-6 11l109 250h108l-63 -172q254 0 254 -177q0 -96 -69.5 -152t-188.5 -56q-104 0 -170 43t-66 112z" />
<glyph unicode="&#xb9;" horiz-adv-x="503" d="M121 1522v41q80 1 180 34v-495q0 -63 15.5 -82t70.5 -21v-41h-262v41q55 2 70.5 19.5t15.5 77.5v280q0 109 -4 119q-4 27 -86 27z" />
<glyph unicode="&#xba;" horiz-adv-x="784" d="M109 1321q0 119 82.5 197.5t197.5 78.5q117 0 202 -78.5t85 -197.5q0 -121 -85 -202t-202 -81q-115 0 -197.5 81t-82.5 202zM240 1321q0 -102 41 -164.5t108 -62.5q70 0 112 62.5t42 164.5q0 98 -42 160.5t-112 62.5q-66 0 -107.5 -62.5t-41.5 -160.5z" />
<glyph unicode="&#xbb;" horiz-adv-x="1001" d="M162 819l41 43l348 -325l-348 -324l-39 41l201 283zM512 819l41 43l348 -325l-348 -324l-39 41l201 283z" />
<glyph unicode="&#xbc;" horiz-adv-x="1370" d="M63 0l1133 1577h98l-1114 -1577h-117zM268 1522v41q81 1 181 34v-495q0 -63 15 -82t71 -21v-41h-263v41q55 2 70.5 19.5t15.5 77.5v280q0 109 -4 119q-4 27 -86 27zM723 147v52l289 440h45v-442q51 2 63.5 13t12.5 60h38v-192h-38q0 45 -13.5 57t-62.5 15v-17 q0 -63 12 -81.5t53 -20.5v-31h-252v31q55 2 70.5 19.5t15.5 76.5v20h-233zM774 199h182v266h-8z" />
<glyph unicode="&#xbd;" horiz-adv-x="1382" d="M63 0l1133 1577h98l-1114 -1577h-117zM268 1522v41q81 1 181 34v-495q0 -63 15 -82t71 -21v-41h-263v41q55 2 70.5 19.5t15.5 77.5v280q0 109 -4 119q-4 27 -86 27zM756 0v27q182 162 245.5 255t63.5 181q0 59 -29.5 94t-83.5 35q-43 0 -71.5 -30t-28.5 -75 q0 -39 24.5 -63.5t65.5 -24.5q-4 -23 -23.5 -38t-50.5 -15q-45 0 -74.5 35t-29.5 88q0 74 57.5 122t145.5 48q90 0 148.5 -49t58.5 -127q0 -94 -76 -183.5t-213 -191.5v-8h174q41 0 61.5 19.5t36.5 74.5h41l-31 -174h-411z" />
<glyph unicode="&#xbe;" horiz-adv-x="1374" d="M78 0l1132 1577h99l-1114 -1577h-117zM184 1096q0 45 27 74.5t68 29.5q27 0 48 -13t25 -34q-31 0 -51 -19.5t-20 -50.5q0 -37 27.5 -60.5t70.5 -23.5q115 1 115 136q0 137 -105 137q-29 -14 -55 -15q-37 0 -37 33q0 29 35 29q25 0 51 -10q43 0 69.5 37.5t26.5 101.5 q0 104 -96 104q-82 0 -82 -63q0 -23 15.5 -38t41.5 -15q-2 -16 -22.5 -28.5t-44.5 -12.5q-35 0 -58.5 25.5t-23.5 62.5q0 51 48 82.5t126 31.5q94 0 149.5 -39.5t55.5 -105.5q0 -55 -38 -97t-95 -55v-8q68 -16 110.5 -60t42.5 -104q0 -78 -64.5 -128t-162.5 -50 q-86 0 -141.5 41t-55.5 105zM737 147v52l289 440h45v-442q51 2 63.5 13t12.5 60h39v-192h-39q0 45 -13.5 57t-62.5 15v-17q0 -63 12.5 -81.5t53.5 -20.5v-31h-252v31q55 2 70.5 19.5t15.5 76.5v20h-234zM788 199h183v266h-8z" />
<glyph unicode="&#xbf;" horiz-adv-x="817" d="M119 492q0 156 87 241.5t243 85.5v273h112v-469h-59q-266 0 -266 -203q0 -98 52 -168t126 -70q25 0 78 11.5t75 11.5q47 0 78 -31t31 -80q0 -115 -127 -114q-170 0 -300 155.5t-130 356.5zM377 1464q0 55 39 94t96 39q55 0 94 -39t39 -94q0 -57 -39 -96t-94 -39 q-57 0 -96 39t-39 96z" />
<glyph unicode="&#xc0;" horiz-adv-x="1581" d="M-12 0v78q94 10 141 45t82 121l532 1333h88l465 -1155q92 -225 147.5 -283.5t164.5 -58.5v-80h-668v80q106 0 148 19.5t42 68.5q0 61 -47 182l-84 221h-546q-127 -303 -127 -393q0 -55 36.5 -77.5t122.5 -22.5v-78h-497zM479 1894q0 33 21.5 52.5t56.5 19.5q66 0 178 -68 l266 -157h-122l-246 57q-154 35 -154 96zM494 674h467l-228 604z" />
<glyph unicode="&#xc1;" horiz-adv-x="1581" d="M-12 0v78q94 10 141 45t82 121l532 1333h88l465 -1155q92 -225 147.5 -283.5t164.5 -58.5v-80h-668v80q106 0 148 19.5t42 68.5q0 61 -47 182l-84 221h-546q-127 -303 -127 -393q0 -55 36.5 -77.5t122.5 -22.5v-78h-497zM494 674h467l-228 604zM580 1741l266 157 q115 68 178 68q35 0 56.5 -19.5t21.5 -52.5q0 -61 -154 -96l-246 -57h-122z" />
<glyph unicode="&#xc2;" horiz-adv-x="1581" d="M-12 0v78q94 10 141 45t82 121l532 1333h88l465 -1155q92 -225 147.5 -283.5t164.5 -58.5v-80h-668v80q106 0 148 19.5t42 68.5q0 61 -47 182l-84 221h-546q-127 -303 -127 -393q0 -55 36.5 -77.5t122.5 -22.5v-78h-497zM449 1743l223 223h225l223 -223h-92l-244 110 l-243 -110h-92zM494 674h467l-228 604z" />
<glyph unicode="&#xc3;" horiz-adv-x="1581" d="M-12 0v78q94 10 141 45t82 121l532 1333h88l465 -1155q92 -225 147.5 -283.5t164.5 -58.5v-80h-668v80q106 0 148 19.5t42 68.5q0 61 -47 182l-84 221h-546q-127 -303 -127 -393q0 -55 36.5 -77.5t122.5 -22.5v-78h-497zM434 1733q16 104 76.5 168.5t140.5 64.5 q55 0 161 -47t157 -47q39 0 59.5 19.5t36.5 66.5h68q-10 -102 -69.5 -172t-135.5 -70q-53 0 -165 49.5t-167 49.5q-39 0 -58.5 -17.5t-33.5 -64.5h-70zM494 674h467l-228 604z" />
<glyph unicode="&#xc4;" horiz-adv-x="1581" d="M-12 0v78q94 10 141 45t82 121l532 1333h88l465 -1155q92 -225 147.5 -283.5t164.5 -58.5v-80h-668v80q106 0 148 19.5t42 68.5q0 61 -47 182l-84 221h-546q-127 -303 -127 -393q0 -55 36.5 -77.5t122.5 -22.5v-78h-497zM494 674h467l-228 604zM496 1864q0 43 29.5 72.5 t72.5 29.5q45 0 74.5 -29.5t29.5 -72.5q0 -45 -29.5 -75t-74.5 -30q-43 0 -72.5 30t-29.5 75zM868 1864q0 43 30 72.5t75 29.5q43 0 72.5 -29.5t29.5 -72.5q0 -45 -29.5 -75t-72.5 -30q-45 0 -75 30t-30 75z" />
<glyph unicode="&#xc5;" horiz-adv-x="1581" d="M-12 0v78q94 10 141 45t82 121l532 1333h88l465 -1155q92 -225 147.5 -283.5t164.5 -58.5v-80h-668v80q106 0 148 19.5t42 68.5q0 61 -47 182l-84 221h-546q-127 -303 -127 -393q0 -55 36.5 -77.5t122.5 -22.5v-78h-497zM494 674h467l-228 604zM651 1833q0 57 38 95 t95.5 38t95.5 -38t38 -95t-38 -95t-95.5 -38t-95.5 38t-38 95zM715 1833q0 -31 19.5 -50.5t49.5 -19.5q29 0 48.5 19.5t19.5 50.5q0 29 -19.5 48.5t-48.5 19.5q-31 0 -50 -19.5t-19 -48.5z" />
<glyph unicode="&#xc6;" horiz-adv-x="2152" d="M-23 0v78q92 10 137.5 44t94.5 122q217 387 614 1157q14 33 15 47q0 51 -170 51v78h1302v-360h-72q-25 162 -109.5 217t-295.5 55h-260q-35 0 -35 -35v-588q205 0 289 48.5t98 187.5h72v-559h-72q-20 143 -99 191t-288 50v-462q0 -133 72.5 -183.5t267.5 -50.5 q217 0 310.5 66.5t133.5 248.5h78l-30 -403h-1272v78q143 4 184 46t41 187v271h-473l-8 -19q-16 -31 -49 -92t-50.5 -95t-39 -79t-30.5 -79t-9 -58q0 -20 7 -34.5t15 -22t28.5 -13.5t30 -7t36 -3t32.5 -2v-78h-496zM559 674h424v803z" />
<glyph unicode="&#xc7;" horiz-adv-x="1642" d="M123 762q0 371 218 603t566 232q229 0 467 -147l37 127h57l19 -471h-76q-45 178 -175 281.5t-310 103.5q-248 0 -388.5 -190.5t-140.5 -526.5q0 -330 138.5 -507t396.5 -177q395 0 508 420h84v-510h-72l-47 162q-205 -170 -481 -180l-47 -129q254 0 253 -177 q0 -96 -69.5 -152t-188.5 -56q-104 0 -169.5 43t-65.5 112q0 74 63 74q37 0 68 -66q18 -43 37.5 -59t54.5 -16q45 0 74 28.5t29 73.5q0 111 -162 111q-31 0 -72 -5l-6 11l90 207q-317 23 -503.5 232.5t-186.5 547.5z" />
<glyph unicode="&#xc8;" horiz-adv-x="1486" d="M92 0v78q143 4 184 46t41 187v955q0 143 -36.5 185t-167.5 48v78h1183l19 -360h-72q-25 160 -114 216t-302 56h-260q-35 0 -35 -35v-588q217 0 302.5 54.5t85.5 181.5h71v-559h-71q0 129 -82 184t-306 57v-462q0 -133 73 -183.5t267 -50.5q217 0 310.5 66.5t134.5 248.5 h78l-31 -403h-1272zM471 1894q0 33 21.5 52.5t56.5 19.5q66 0 178 -68l266 -157h-123l-245 57q-154 35 -154 96z" />
<glyph unicode="&#xc9;" horiz-adv-x="1486" d="M92 0v78q143 4 184 46t41 187v955q0 143 -36.5 185t-167.5 48v78h1183l19 -360h-72q-25 160 -114 216t-302 56h-260q-35 0 -35 -35v-588q217 0 302.5 54.5t85.5 181.5h71v-559h-71q0 129 -82 184t-306 57v-462q0 -133 73 -183.5t267 -50.5q217 0 310.5 66.5t134.5 248.5 h78l-31 -403h-1272zM571 1741l267 157q113 68 178 68q35 0 56.5 -19.5t21.5 -52.5q0 -61 -154 -96l-246 -57h-123z" />
<glyph unicode="&#xca;" horiz-adv-x="1486" d="M92 0v78q143 4 184 46t41 187v955q0 143 -36.5 185t-167.5 48v78h1183l19 -360h-72q-25 160 -114 216t-302 56h-260q-35 0 -35 -35v-588q217 0 302.5 54.5t85.5 181.5h71v-559h-71q0 129 -82 184t-306 57v-462q0 -133 73 -183.5t267 -50.5q217 0 310.5 66.5t134.5 248.5 h78l-31 -403h-1272zM440 1743l224 223h225l223 -223h-92l-244 110l-244 -110h-92z" />
<glyph unicode="&#xcb;" horiz-adv-x="1486" d="M92 0v78q143 4 184 46t41 187v955q0 143 -36.5 185t-167.5 48v78h1183l19 -360h-72q-25 160 -114 216t-302 56h-260q-35 0 -35 -35v-588q217 0 302.5 54.5t85.5 181.5h71v-559h-71q0 129 -82 184t-306 57v-462q0 -133 73 -183.5t267 -50.5q217 0 310.5 66.5t134.5 248.5 h78l-31 -403h-1272zM459 1864q0 43 29.5 72.5t72.5 29.5q45 0 75 -29.5t30 -72.5q0 -45 -30 -75t-75 -30q-43 0 -72.5 30t-29.5 75zM831 1864q0 43 30 72.5t75 29.5q43 0 72.5 -29.5t29.5 -72.5q0 -45 -29.5 -75t-72.5 -30q-45 0 -75 30t-30 75z" />
<glyph unicode="&#xcc;" horiz-adv-x="849" d="M92 0v78q145 4 185 55t40 240v831q0 176 -37.5 232.5t-166.5 62.5v78h622v-78q-129 -4 -166 -62.5t-37 -246.5v-803q0 -201 39 -253t185 -56v-78h-664zM117 1894q0 33 21.5 52.5t56.5 19.5q66 0 178 -68l266 -157h-123l-246 57q-154 35 -153 96z" />
<glyph unicode="&#xcd;" horiz-adv-x="849" d="M92 0v78q145 4 185 55t40 240v831q0 176 -37.5 232.5t-166.5 62.5v78h622v-78q-129 -4 -166 -62.5t-37 -246.5v-803q0 -201 39 -253t185 -56v-78h-664zM217 1741l266 157q115 68 179 68q35 0 56 -19.5t21 -52.5q0 -61 -153 -96l-246 -57h-123z" />
<glyph unicode="&#xce;" horiz-adv-x="849" d="M86 1743l223 223h226l223 -223h-92l-244 110l-244 -110h-92zM92 0v78q145 4 185 55t40 240v831q0 176 -37.5 232.5t-166.5 62.5v78h622v-78q-129 -4 -166 -62.5t-37 -246.5v-803q0 -201 39 -253t185 -56v-78h-664z" />
<glyph unicode="&#xcf;" horiz-adv-x="849" d="M92 0v78q145 4 185 55t40 240v831q0 176 -37.5 232.5t-166.5 62.5v78h622v-78q-129 -4 -166 -62.5t-37 -246.5v-803q0 -201 39 -253t185 -56v-78h-664zM137 1864q0 43 30 72.5t73 29.5q45 0 74.5 -29.5t29.5 -72.5q0 -45 -29.5 -75t-74.5 -30q-43 0 -73 30t-30 75z M510 1864q0 43 29.5 72.5t74.5 29.5q43 0 73 -29.5t30 -72.5q0 -45 -30 -75t-73 -30q-45 0 -74.5 30t-29.5 75z" />
<glyph unicode="&#xd0;" horiz-adv-x="1806" d="M74 0v78q158 4 201.5 46t43.5 187v473h-163v109h163v373q0 143 -36.5 185t-167.5 48v78h719q371 0 611.5 -230.5t240.5 -584.5q0 -336 -226.5 -549t-585.5 -213h-800zM535 334q0 -233 305 -234q281 0 430 168t149 490q0 338 -158 528.5t-432 190.5h-260q-35 0 -34 -35 v-549h335v-109h-335v-450z" />
<glyph unicode="&#xd1;" horiz-adv-x="1847" d="M92 0v78q145 4 185 55t40 240v831q0 176 -37.5 232.5t-166.5 62.5v78h405l895 -1194h8v807q0 201 -34.5 253t-167.5 56v78h550v-78q-145 -4 -185 -55t-40 -240v-1224h-123l-972 1282h-9v-875q0 -201 35 -253t168 -56v-78h-551zM600 1733q16 104 76.5 168.5t140.5 64.5 q55 0 160.5 -47t157.5 -47q39 0 59 19.5t37 66.5h67q-10 -102 -69.5 -172t-134.5 -70q-53 0 -165 49.5t-167 49.5q-39 0 -58.5 -17.5t-33.5 -64.5h-70z" />
<glyph unicode="&#xd2;" horiz-adv-x="1937" d="M117 776q0 346 245.5 583.5t606 237.5t606.5 -237.5t246 -583.5q0 -334 -248 -565t-604.5 -231t-604 231t-247.5 565zM383 770q0 -311 158 -494.5t428 -183.5q268 0 426.5 183.5t158.5 494.5q0 330 -157.5 522.5t-428 192.5t-428 -192.5t-157.5 -522.5zM666 1894 q0 33 21.5 52.5t55.5 19.5q66 0 179 -68l266 -157h-123l-246 57q-154 35 -153 96z" />
<glyph unicode="&#xd3;" horiz-adv-x="1937" d="M117 776q0 346 245.5 583.5t606 237.5t606.5 -237.5t246 -583.5q0 -334 -248 -565t-604.5 -231t-604 231t-247.5 565zM383 770q0 -311 158 -494.5t428 -183.5q268 0 426.5 183.5t158.5 494.5q0 330 -157.5 522.5t-428 192.5t-428 -192.5t-157.5 -522.5zM766 1741l266 157 q113 68 178 68q35 0 56.5 -19.5t21.5 -52.5q0 -61 -153 -96l-246 -57h-123z" />
<glyph unicode="&#xd4;" horiz-adv-x="1937" d="M117 776q0 346 245.5 583.5t606 237.5t606.5 -237.5t246 -583.5q0 -334 -248 -565t-604.5 -231t-604 231t-247.5 565zM383 770q0 -311 158 -494.5t428 -183.5q268 0 426.5 183.5t158.5 494.5q0 330 -157.5 522.5t-428 192.5t-428 -192.5t-157.5 -522.5zM635 1743l223 223 h225l224 -223h-93l-243 110l-244 -110h-92z" />
<glyph unicode="&#xd5;" horiz-adv-x="1937" d="M117 776q0 346 245.5 583.5t606 237.5t606.5 -237.5t246 -583.5q0 -334 -248 -565t-604.5 -231t-604 231t-247.5 565zM383 770q0 -311 158 -494.5t428 -183.5q268 0 426.5 183.5t158.5 494.5q0 330 -157.5 522.5t-428 192.5t-428 -192.5t-157.5 -522.5zM621 1733 q16 104 76.5 168.5t140.5 64.5q55 0 160.5 -47t156.5 -47q39 0 59.5 19.5t36.5 66.5h68q-10 -102 -69.5 -172t-135.5 -70q-53 0 -164.5 49.5t-167.5 49.5q-39 0 -58.5 -17.5t-33.5 -64.5h-69z" />
<glyph unicode="&#xd6;" horiz-adv-x="1937" d="M117 776q0 346 245.5 583.5t606 237.5t606.5 -237.5t246 -583.5q0 -334 -248 -565t-604.5 -231t-604 231t-247.5 565zM383 770q0 -311 158 -494.5t428 -183.5q268 0 426.5 183.5t158.5 494.5q0 330 -157.5 522.5t-428 192.5t-428 -192.5t-157.5 -522.5zM682 1864 q0 43 29.5 72.5t72.5 29.5q45 0 75 -29.5t30 -72.5q0 -45 -30 -75t-75 -30q-43 0 -72.5 30t-29.5 75zM1055 1864q0 43 29.5 72.5t74.5 29.5q43 0 73 -29.5t30 -72.5q0 -45 -30 -75t-73 -30q-45 0 -74.5 30t-29.5 75z" />
<glyph unicode="&#xd7;" horiz-adv-x="1062" d="M139 377l318 317l-316 316l72 71l315 -315l318 317l76 -75l-318 -318l316 -315l-72 -72l-316 315l-317 -317z" />
<glyph unicode="&#xd8;" horiz-adv-x="1937" d="M117 776q0 346 246 583.5t606 237.5q248 0 454 -122l179 225h141l-227 -289q143 -115 224 -279.5t81 -355.5q0 -334 -248 -565t-604 -231q-264 0 -480 135l-221 -281h-139l272 344q-135 111 -209.5 266.5t-74.5 331.5zM383 770q0 -281 125 -455l823 1043 q-145 127 -362 127q-270 0 -428 -192.5t-158 -522.5zM582 231q151 -139 387 -139q268 0 426.5 183.5t158.5 494.5q0 315 -145 506z" />
<glyph unicode="&#xd9;" horiz-adv-x="1763" d="M59 1499v78h699v-78q-143 0 -180 -49q-45 -59 -46 -350v-557q0 -217 96.5 -327t317.5 -110q410 0 410 449v494q0 188 -14.5 280t-53.5 129q-43 41 -178 41v78h594v-78q-135 0 -174 -55q-51 -71 -51 -395v-414q0 -332 -138.5 -493.5t-451.5 -161.5q-311 0 -456.5 132 t-145.5 447v541q0 172 -8.5 245.5t-40.5 108.5q-43 45 -179 45zM635 1894q0 33 21.5 52.5t56.5 19.5q66 0 178 -68l266 -157h-123l-246 57q-154 35 -153 96z" />
<glyph unicode="&#xda;" horiz-adv-x="1763" d="M59 1499v78h699v-78q-143 0 -180 -49q-45 -59 -46 -350v-557q0 -217 96.5 -327t317.5 -110q410 0 410 449v494q0 188 -14.5 280t-53.5 129q-43 41 -178 41v78h594v-78q-135 0 -174 -55q-51 -71 -51 -395v-414q0 -332 -138.5 -493.5t-451.5 -161.5q-311 0 -456.5 132 t-145.5 447v541q0 172 -8.5 245.5t-40.5 108.5q-43 45 -179 45zM735 1741l266 157q113 68 179 68q35 0 56 -19.5t21 -52.5q0 -61 -153 -96l-246 -57h-123z" />
<glyph unicode="&#xdb;" horiz-adv-x="1763" d="M59 1499v78h699v-78q-143 0 -180 -49q-45 -59 -46 -350v-557q0 -217 96.5 -327t317.5 -110q410 0 410 449v494q0 188 -14.5 280t-53.5 129q-43 41 -178 41v78h594v-78q-135 0 -174 -55q-51 -71 -51 -395v-414q0 -332 -138.5 -493.5t-451.5 -161.5q-311 0 -456.5 132 t-145.5 447v541q0 172 -8.5 245.5t-40.5 108.5q-43 45 -179 45zM604 1743l223 223h226l223 -223h-92l-244 110l-244 -110h-92z" />
<glyph unicode="&#xdc;" horiz-adv-x="1763" d="M59 1499v78h699v-78q-143 0 -180 -49q-45 -59 -46 -350v-557q0 -217 96.5 -327t317.5 -110q410 0 410 449v494q0 188 -14.5 280t-53.5 129q-43 41 -178 41v78h594v-78q-135 0 -174 -55q-51 -71 -51 -395v-414q0 -332 -138.5 -493.5t-451.5 -161.5q-311 0 -456.5 132 t-145.5 447v541q0 172 -8.5 245.5t-40.5 108.5q-43 45 -179 45zM651 1864q0 43 30 72.5t73 29.5q45 0 74.5 -29.5t29.5 -72.5q0 -45 -29.5 -75t-74.5 -30q-43 0 -73 30t-30 75zM1024 1864q0 43 29.5 72.5t74.5 29.5q43 0 73 -29.5t30 -72.5q0 -45 -30 -75t-73 -30 q-45 0 -74.5 30t-29.5 75z" />
<glyph unicode="&#xdd;" horiz-adv-x="1501" d="M-10 1499v78h645v-78q-102 0 -144 -15.5t-42 -53.5q0 -43 47 -123l317 -543h8l232 389q121 205 121 277q0 39 -30 54t-104 15v78h469v-78q-86 0 -148.5 -61.5t-186.5 -274.5l-316 -532v-244q0 -201 38 -255t185 -54v-78h-663v78q145 0 185 53t40 242v250l-410 700 q-63 106 -111 141t-132 35zM569 1741l267 157q113 68 178 68q35 0 56.5 -19.5t21.5 -52.5q0 -61 -154 -96l-246 -57h-123z" />
<glyph unicode="&#xde;" horiz-adv-x="1431" d="M96 0v78q143 4 184.5 46t41.5 187v955q0 145 -41 187t-185 46v78h723v-78q-182 0 -232 -45t-50 -199v-34h223q276 0 434 -116t158 -304q0 -221 -148.5 -331t-482.5 -110h-184v-38q0 -154 50 -199t232 -45v-78h-723zM537 463h145q205 0 304 80t99 258q0 170 -78.5 246.5 t-246.5 76.5h-189q-34 1 -34 -34v-627z" />
<glyph unicode="&#xdf;" horiz-adv-x="1347" d="M49 0v78q115 0 145.5 40t30.5 195v887q0 233 124 366.5t343 133.5q190 0 311 -106.5t121 -274.5q0 -301 -295 -363v-10q180 0 300 -142t120 -358q0 -199 -125 -332.5t-305 -133.5q-104 0 -164.5 46t-60.5 117q0 45 20.5 72t51.5 27q57 0 84 -70q2 -4 9 -21.5t9 -24.5 t10 -19.5t14.5 -17.5t17.5 -10t24 -5q70 0 120 105.5t50 260.5q0 203 -96.5 328t-282.5 125v104q131 0 192.5 73t61.5 226q0 301 -215 301q-158 0 -213 -124q-33 -72 -33 -261v-882q0 -152 25.5 -202t105.5 -50v-78h-500z" />
<glyph unicode="&#xe0;" horiz-adv-x="1134" d="M88 223q0 102 76 183t256 159l295 129v84q0 250 -213 250q-70 0 -99.5 -25.5t-56.5 -107.5q-23 -57 -44 -77.5t-62 -20.5q-102 0 -103 102q0 98 104.5 152.5t297.5 54.5q207 0 291.5 -72.5t84.5 -247.5v-458q0 -233 93 -234q74 0 100 45l29 -49q-25 -47 -90.5 -78.5 t-137.5 -31.5q-178 0 -178 219h-10q-53 -100 -148.5 -158.5t-207.5 -58.5q-127 0 -202 65.5t-75 175.5zM266 1573q0 33 21.5 52.5t56.5 19.5q63 0 137 -68l267 -244h-97l-280 133q-104 49 -105 107zM295 258q0 -68 45 -111t119 -43q106 0 181 100.5t75 239.5v162 q-227 -86 -323.5 -170t-96.5 -178z" />
<glyph unicode="&#xe1;" horiz-adv-x="1134" d="M88 223q0 102 76 183t256 159l295 129v84q0 250 -213 250q-70 0 -99.5 -25.5t-56.5 -107.5q-23 -57 -44 -77.5t-62 -20.5q-102 0 -103 102q0 98 104.5 152.5t297.5 54.5q207 0 291.5 -72.5t84.5 -247.5v-458q0 -233 93 -234q74 0 100 45l29 -49q-25 -47 -90.5 -78.5 t-137.5 -31.5q-178 0 -178 219h-10q-53 -100 -148.5 -158.5t-207.5 -58.5q-127 0 -202 65.5t-75 175.5zM295 258q0 -68 45 -111t119 -43q106 0 181 100.5t75 239.5v162q-227 -86 -323.5 -170t-96.5 -178zM358 1333l267 244q74 68 137 68q35 0 56.5 -19.5t21.5 -52.5 q0 -57 -105 -107l-280 -133h-97z" />
<glyph unicode="&#xe2;" horiz-adv-x="1134" d="M88 223q0 102 76 183t256 159l295 129v84q0 250 -213 250q-70 0 -99.5 -25.5t-56.5 -107.5q-23 -57 -44 -77.5t-62 -20.5q-102 0 -103 102q0 98 104.5 152.5t297.5 54.5q207 0 291.5 -72.5t84.5 -247.5v-458q0 -233 93 -234q74 0 100 45l29 -49q-25 -47 -90.5 -78.5 t-137.5 -31.5q-178 0 -178 219h-10q-53 -100 -148.5 -158.5t-207.5 -58.5q-127 0 -202 65.5t-75 175.5zM207 1333l244 264h184l244 -264h-93l-243 140l-244 -140h-92zM295 258q0 -68 45 -111t119 -43q106 0 181 100.5t75 239.5v162q-227 -86 -323.5 -170t-96.5 -178z" />
<glyph unicode="&#xe3;" horiz-adv-x="1134" d="M88 223q0 102 76 183t256 159l295 129v84q0 250 -213 250q-70 0 -99.5 -25.5t-56.5 -107.5q-23 -57 -44 -77.5t-62 -20.5q-102 0 -103 102q0 98 104.5 152.5t297.5 54.5q207 0 291.5 -72.5t84.5 -247.5v-458q0 -233 93 -234q74 0 100 45l29 -49q-25 -47 -90.5 -78.5 t-137.5 -31.5q-178 0 -178 219h-10q-53 -100 -148.5 -158.5t-207.5 -58.5q-127 0 -202 65.5t-75 175.5zM195 1352q16 104 76.5 168.5t140.5 64.5q55 0 160.5 -47t156.5 -47q39 0 59.5 19.5t36.5 66.5h68q-10 -102 -69.5 -172t-135.5 -70q-53 0 -164.5 49.5t-167.5 49.5 q-39 0 -58.5 -17.5t-33.5 -64.5h-69zM295 258q0 -68 45 -111t119 -43q106 0 181 100.5t75 239.5v162q-227 -86 -323.5 -170t-96.5 -178z" />
<glyph unicode="&#xe4;" horiz-adv-x="1134" d="M88 223q0 102 76 183t256 159l295 129v84q0 250 -213 250q-70 0 -99.5 -25.5t-56.5 -107.5q-23 -57 -44 -77.5t-62 -20.5q-102 0 -103 102q0 98 104.5 152.5t297.5 54.5q207 0 291.5 -72.5t84.5 -247.5v-458q0 -233 93 -234q74 0 100 45l29 -49q-25 -47 -90.5 -78.5 t-137.5 -31.5q-178 0 -178 219h-10q-53 -100 -148.5 -158.5t-207.5 -58.5q-127 0 -202 65.5t-75 175.5zM254 1452q0 51 34 85t85 34t85 -34t34 -85t-34 -85t-85 -34t-85 34t-34 85zM295 258q0 -68 45 -111t119 -43q106 0 181 100.5t75 239.5v162q-227 -86 -323.5 -170 t-96.5 -178zM596 1452q0 51 34 85t85 34t85 -34t34 -85t-34 -85t-85 -34t-85 34t-34 85z" />
<glyph unicode="&#xe5;" horiz-adv-x="1134" d="M88 223q0 102 76 183t256 159l295 129v84q0 250 -213 250q-70 0 -99.5 -25.5t-56.5 -107.5q-23 -57 -44 -77.5t-62 -20.5q-102 0 -103 102q0 98 104.5 152.5t297.5 54.5q207 0 291.5 -72.5t84.5 -247.5v-458q0 -233 93 -234q74 0 100 45l29 -49q-25 -47 -90.5 -78.5 t-137.5 -31.5q-178 0 -178 219h-10q-53 -100 -148.5 -158.5t-207.5 -58.5q-127 0 -202 65.5t-75 175.5zM295 258q0 -68 45 -111t119 -43q106 0 181 100.5t75 239.5v162q-227 -86 -323.5 -170t-96.5 -178zM381 1520q0 78 50 129t126 51q78 0 129 -51.5t51 -128.5 q0 -76 -51 -126.5t-129 -50.5q-76 0 -126 50.5t-50 126.5zM461 1520q0 -41 27.5 -69t68.5 -28q39 0 65.5 28t26.5 69t-25.5 66.5t-66.5 25.5t-68.5 -26.5t-27.5 -65.5z" />
<glyph unicode="&#xe6;" horiz-adv-x="1744" d="M88 223q0 219 332 342l295 109v104q0 129 -52.5 189.5t-164.5 60.5q-63 0 -92 -26.5t-60 -106.5q-20 -57 -42.5 -77.5t-61.5 -20.5q-104 0 -105 102q0 98 105.5 152.5t298.5 54.5q266 0 340 -141q141 141 360 141q193 0 301.5 -109.5t108.5 -302.5q0 -45 -64 -45h-633 q-8 -25 -8 -90q0 -219 88 -346t240 -127q158 0 305 162l63 -58q-180 -211 -425 -210q-150 0 -263.5 68.5t-175.5 193.5q-57 -125 -162.5 -192.5t-242.5 -67.5q-131 0 -208 64.5t-77 176.5zM295 258q0 -68 46 -111t118 -43q104 0 180 88t76 211v183q-221 -82 -320.5 -159 t-99.5 -169zM969 743h336q82 0 102 9.5t20 46.5q0 94 -60 151.5t-159 57.5q-192 -1 -239 -265z" />
<glyph unicode="&#xe7;" horiz-adv-x="1097" d="M100 535q0 260 157 415.5t413 155.5q158 0 259 -50t101 -130q0 -39 -26.5 -62.5t-73.5 -23.5q-37 0 -62.5 16t-62.5 68q-41 49 -79 67.5t-97 18.5q-145 0 -220 -114t-75 -331q0 -233 84 -356t241 -123q171 0 316 143l61 -59q-139 -172 -399 -188l-47 -129q254 0 254 -177 q0 -96 -69.5 -152t-188.5 -56q-104 0 -170 43t-66 112q0 74 64 74q37 0 67 -66q18 -43 38 -59t54 -16q45 0 74 28.5t29 73.5q0 111 -162 111q-31 0 -72 -5l-6 11l90 209q-193 23 -309.5 172t-116.5 379z" />
<glyph unicode="&#xe8;" horiz-adv-x="1173" d="M100 530q0 252 157 414t405 162q197 0 306 -108.5t109 -307.5q0 -27 -11 -34t-52 -7h-674q-8 -31 -8 -92q0 -213 99 -342t263.5 -129t311.5 162l63 -58q-174 -211 -432 -210q-240 0 -388.5 152.5t-148.5 397.5zM354 743h377q82 0 102.5 10.5t20.5 47.5q0 94 -61.5 150.5 t-163.5 56.5q-222 -1 -275 -265zM432 1573q0 33 21.5 52.5t56.5 19.5q63 0 137 -68l266 -244h-96l-280 133q-104 49 -105 107z" />
<glyph unicode="&#xe9;" horiz-adv-x="1173" d="M100 530q0 252 157 414t405 162q197 0 306 -108.5t109 -307.5q0 -27 -11 -34t-52 -7h-674q-8 -31 -8 -92q0 -213 99 -342t263.5 -129t311.5 162l63 -58q-174 -211 -432 -210q-240 0 -388.5 152.5t-148.5 397.5zM354 743h377q82 0 102.5 10.5t20.5 47.5q0 94 -61.5 150.5 t-163.5 56.5q-222 -1 -275 -265zM492 1333l266 244q74 68 137 68q35 0 56.5 -19.5t21.5 -52.5q0 -57 -105 -107l-280 -133h-96z" />
<glyph unicode="&#xea;" horiz-adv-x="1173" d="M100 530q0 252 157 414t405 162q197 0 306 -108.5t109 -307.5q0 -27 -11 -34t-52 -7h-674q-8 -31 -8 -92q0 -213 99 -342t263.5 -129t311.5 162l63 -58q-174 -211 -432 -210q-240 0 -388.5 152.5t-148.5 397.5zM305 1333l244 264h184l244 -264h-92l-244 140l-244 -140 h-92zM354 743h377q82 0 102.5 10.5t20.5 47.5q0 94 -61.5 150.5t-163.5 56.5q-222 -1 -275 -265z" />
<glyph unicode="&#xeb;" horiz-adv-x="1173" d="M100 530q0 252 157 414t405 162q197 0 306 -108.5t109 -307.5q0 -27 -11 -34t-52 -7h-674q-8 -31 -8 -92q0 -213 99 -342t263.5 -129t311.5 162l63 -58q-174 -211 -432 -210q-240 0 -388.5 152.5t-148.5 397.5zM352 1452q0 51 34 85t85 34t85 -34t34 -85t-34 -85t-85 -34 t-85 34t-34 85zM354 743h377q82 0 102.5 10.5t20.5 47.5q0 94 -61.5 150.5t-163.5 56.5q-222 -1 -275 -265zM694 1452q0 51 34 85t85 34t85 -34t34 -85t-34 -85t-85 -34t-85 34t-34 85z" />
<glyph unicode="&#xec;" horiz-adv-x="698" d="M39 1573q0 33 21.5 52.5t56.5 19.5q63 0 137 -68l266 -244h-96l-281 133q-104 49 -104 107zM66 952v76l401 78v-774q0 -160 35 -206t155 -50v-76h-587v76q125 6 160.5 50t35.5 189v254q0 248 -14 299q-10 49 -48 66.5t-138 17.5z" />
<glyph unicode="&#xed;" horiz-adv-x="698" d="M66 952v76l401 78v-774q0 -160 35 -206t155 -50v-76h-587v76q125 6 160.5 50t35.5 189v254q0 248 -14 299q-10 49 -48 66.5t-138 17.5zM184 1333l267 244q74 68 137 68q35 0 56.5 -19.5t21.5 -52.5q0 -57 -105 -107l-280 -133h-97z" />
<glyph unicode="&#xee;" horiz-adv-x="698" d="M33 1333l243 264h185l244 -264h-93l-243 140l-244 -140h-92zM66 952v76l401 78v-774q0 -160 35 -206t155 -50v-76h-587v76q125 6 160.5 50t35.5 189v254q0 248 -14 299q-10 49 -48 66.5t-138 17.5z" />
<glyph unicode="&#xef;" horiz-adv-x="698" d="M66 952v76l401 78v-774q0 -160 35 -206t155 -50v-76h-587v76q125 6 160.5 50t35.5 189v254q0 248 -14 299q-10 49 -48 66.5t-138 17.5zM80 1452q0 51 33.5 85t85 34t85 -34t33.5 -85t-33.5 -85t-85 -34t-85 34t-33.5 85zM422 1452q0 51 33.5 85t85 34t85 -34t33.5 -85 t-33.5 -85t-85 -34t-85 34t-33.5 85z" />
<glyph unicode="&#xf0;" horiz-adv-x="1310" d="M102 500q0 219 146.5 369.5t365.5 150.5q225 0 314 -176l6 4q-82 319 -258 487l-266 -153l-50 65l248 146q-87 67 -280 135l39 69q236 -68 354 -139l266 154l51 -66l-239 -139q178 -125 278.5 -334t100.5 -442q0 -285 -155 -468t-392 -183q-223 0 -376 148t-153 372z M358 500q0 -203 73 -315.5t202 -112.5q131 0 208 114.5t77 313.5q0 195 -76 307.5t-207 112.5t-204 -110.5t-73 -309.5z" />
<glyph unicode="&#xf1;" horiz-adv-x="1411" d="M72 963v65l327 78l25 -203h8q164 203 410 203q92 0 171 -31t120 -84q63 -86 63 -327v-342q0 -166 26.5 -205t139.5 -47v-70h-531v70q115 6 142.5 45t27.5 192v271q0 231 -52 324t-181 93q-90 0 -168 -48t-121 -132q-23 -43 -30 -84t-7 -135v-274q0 -166 26 -205t144 -47 v-70h-536v70q115 8 143.5 47t28.5 190v273q0 244 -12 297q-12 55 -43 70.5t-121 15.5zM358 1352q16 104 77 168.5t140 64.5q55 0 161 -47t157 -47q39 0 59.5 19.5t36.5 66.5h68q-10 -102 -69.5 -172t-135.5 -70q-53 0 -165 49.5t-167 49.5q-39 0 -58.5 -17.5t-33.5 -64.5 h-70z" />
<glyph unicode="&#xf2;" horiz-adv-x="1339" d="M98 551q0 240 166 397.5t402 157.5q238 0 406.5 -159t168.5 -396q0 -246 -169 -408.5t-406 -162.5q-236 0 -402 162.5t-166 408.5zM330 549q0 -213 91 -339t245 -126q156 0 250 127t94 338q0 205 -94 332t-250 127q-152 0 -244 -126t-92 -333zM430 1573q0 33 21.5 52.5 t56.5 19.5q63 0 137 -68l266 -244h-96l-280 133q-104 49 -105 107z" />
<glyph unicode="&#xf3;" horiz-adv-x="1339" d="M98 551q0 240 166 397.5t402 157.5q238 0 406.5 -159t168.5 -396q0 -246 -169 -408.5t-406 -162.5q-236 0 -402 162.5t-166 408.5zM330 549q0 -213 91 -339t245 -126q156 0 250 127t94 338q0 205 -94 332t-250 127q-152 0 -244 -126t-92 -333zM481 1333l267 244 q74 68 137 68q35 0 56.5 -19.5t21.5 -52.5q0 -57 -105 -107l-280 -133h-97z" />
<glyph unicode="&#xf4;" horiz-adv-x="1339" d="M98 551q0 240 166 397.5t402 157.5q238 0 406.5 -159t168.5 -396q0 -246 -169 -408.5t-406 -162.5q-236 0 -402 162.5t-166 408.5zM330 549q0 -213 91 -339t245 -126q156 0 250 127t94 338q0 205 -94 332t-250 127q-152 0 -244 -126t-92 -333zM330 1333l243 264h185 l243 -264h-92l-243 140l-244 -140h-92z" />
<glyph unicode="&#xf5;" horiz-adv-x="1339" d="M98 551q0 240 166 397.5t402 157.5q238 0 406.5 -159t168.5 -396q0 -246 -169 -408.5t-406 -162.5q-236 0 -402 162.5t-166 408.5zM301 1352q16 104 76.5 168.5t140.5 64.5q55 0 160.5 -47t157.5 -47q39 0 59 19.5t37 66.5h67q-10 -102 -69.5 -172t-134.5 -70 q-53 0 -165 49.5t-167 49.5q-39 0 -58.5 -17.5t-33.5 -64.5h-70zM330 549q0 -213 91 -339t245 -126q156 0 250 127t94 338q0 205 -94 332t-250 127q-152 0 -244 -126t-92 -333z" />
<glyph unicode="&#xf6;" horiz-adv-x="1339" d="M98 551q0 240 166 397.5t402 157.5q238 0 406.5 -159t168.5 -396q0 -246 -169 -408.5t-406 -162.5q-236 0 -402 162.5t-166 408.5zM330 549q0 -213 91 -339t245 -126q156 0 250 127t94 338q0 205 -94 332t-250 127q-152 0 -244 -126t-92 -333zM377 1452q0 51 33.5 85 t85 34t85 -34t33.5 -85t-33.5 -85t-85 -34t-85 34t-33.5 85zM719 1452q0 51 33.5 85t85 34t85 -34t33.5 -85t-33.5 -85t-85 -34t-85 34t-33.5 85z" />
<glyph unicode="&#xf7;" horiz-adv-x="1226" d="M135 641v102h959v-102h-959zM485 332q0 57 39 96t94 39q57 0 96.5 -39t39.5 -96q0 -55 -39 -94t-97 -39q-55 0 -94 39t-39 94zM485 1049q0 57 39 96t94 39q57 0 96.5 -39t39.5 -96q0 -55 -39 -94.5t-97 -39.5q-55 0 -94 39.5t-39 94.5z" />
<glyph unicode="&#xf8;" horiz-adv-x="1333" d="M82 -125l197 250q-182 168 -183 426q0 240 166 397.5t402 157.5q174 0 317 -92l158 198h141l-211 -266q170 -160 170 -395q0 -246 -169 -408.5t-406 -162.5q-160 0 -297 79l-146 -184h-139zM328 549q0 -172 59 -287l506 641q-92 105 -229 105q-152 0 -244 -126t-92 -333z M453 168q84 -84 211 -84q156 0 250 127t94 338q0 143 -52 256z" />
<glyph unicode="&#xf9;" d="M43 1014v71h371v-559q0 -221 52 -322.5t167 -101.5q180 0 280 236q35 84 35 219v201q0 168 -25.5 205.5t-144.5 50.5v71h371v-628q0 -227 12 -301q8 -51 40 -66.5t126 -15.5v-72l-338 -25l-22 246h-9q-152 -244 -391 -243q-88 0 -168 32.5t-120 87.5q-66 86 -66 332v326 q0 168 -25.5 207t-144.5 49zM365 1573q0 33 21.5 52.5t55.5 19.5q63 0 138 -68l266 -244h-96l-281 133q-104 49 -104 107z" />
<glyph unicode="&#xfa;" d="M43 1014v71h371v-559q0 -221 52 -322.5t167 -101.5q180 0 280 236q35 84 35 219v201q0 168 -25.5 205.5t-144.5 50.5v71h371v-628q0 -227 12 -301q8 -51 40 -66.5t126 -15.5v-72l-338 -25l-22 246h-9q-152 -244 -391 -243q-88 0 -168 32.5t-120 87.5q-66 86 -66 332v326 q0 168 -25.5 207t-144.5 49zM457 1333l266 244q74 68 137 68q35 0 56.5 -19.5t21.5 -52.5q0 -57 -104 -107l-281 -133h-96z" />
<glyph unicode="&#xfb;" d="M43 1014v71h371v-559q0 -221 52 -322.5t167 -101.5q180 0 280 236q35 84 35 219v201q0 168 -25.5 205.5t-144.5 50.5v71h371v-628q0 -227 12 -301q8 -51 40 -66.5t126 -15.5v-72l-338 -25l-22 246h-9q-152 -244 -391 -243q-88 0 -168 32.5t-120 87.5q-66 86 -66 332v326 q0 168 -25.5 207t-144.5 49zM305 1333l244 264h184l244 -264h-92l-244 140l-244 -140h-92z" />
<glyph unicode="&#xfc;" d="M43 1014v71h371v-559q0 -221 52 -322.5t167 -101.5q180 0 280 236q35 84 35 219v201q0 168 -25.5 205.5t-144.5 50.5v71h371v-628q0 -227 12 -301q8 -51 40 -66.5t126 -15.5v-72l-338 -25l-22 246h-9q-152 -244 -391 -243q-88 0 -168 32.5t-120 87.5q-66 86 -66 332v326 q0 168 -25.5 207t-144.5 49zM352 1452q0 51 34 85t85 34t85 -34t34 -85t-34 -85t-85 -34t-85 34t-34 85zM694 1452q0 51 34 85t85 34t85 -34t34 -85t-34 -85t-85 -34t-85 34t-34 85z" />
<glyph unicode="&#xfd;" horiz-adv-x="1308" d="M8 1014v71h543v-71q-137 0 -137 -68q0 -61 57 -201l225 -544h11l186 461q86 209 86 262t-29.5 71.5t-113.5 18.5v71h450v-71q-78 0 -121 -56.5t-143 -285.5l-447 -994q-94 -211 -292 -210q-129 0 -129 96q0 51 35.5 75.5t132.5 38.5q84 14 128 46t82 110l72 143l-393 854 q-53 115 -87 146t-116 37zM530 1333l267 244q74 68 137 68q35 0 56.5 -19.5t21.5 -52.5q0 -57 -105 -107l-280 -133h-97z" />
<glyph unicode="&#xfe;" horiz-adv-x="1339" d="M-6 -440q123 4 157.5 49t34.5 192v1436q0 207 -26 264q-14 31 -41 41t-121 25v51l385 82v-760h8q127 166 328 166q221 0 371.5 -163t150.5 -400q0 -242 -151.5 -404t-376.5 -162q-201 0 -322 138v-299q0 -162 41 -207t193 -49v-72h-631v72zM387 428q0 -154 85 -253 t218 -99q143 0 231.5 127t88.5 334q0 209 -91.5 341t-236.5 132q-82 0 -148.5 -40t-101.5 -112q-45 -90 -45 -248v-182z" />
<glyph unicode="&#xff;" horiz-adv-x="1308" d="M8 1014v71h543v-71q-137 0 -137 -68q0 -61 57 -201l225 -544h11l186 461q86 209 86 262t-29.5 71.5t-113.5 18.5v71h450v-71q-78 0 -121 -56.5t-143 -285.5l-447 -994q-94 -211 -292 -210q-129 0 -129 96q0 51 35.5 75.5t132.5 38.5q84 14 128 46t82 110l72 143l-393 854 q-53 115 -87 146t-116 37zM426 1452q0 51 34 85t85 34t85 -34t34 -85t-34 -85t-85 -34t-85 34t-34 85zM768 1452q0 51 34 85t85 34t85 -34t34 -85t-34 -85t-85 -34t-85 34t-34 85z" />
<glyph unicode="&#x100;" horiz-adv-x="1581" d="M-12 0v78q94 10 141 45t82 121l532 1333h88l465 -1155q92 -225 147.5 -283.5t164.5 -58.5v-80h-668v80q106 0 148 19.5t42 68.5q0 61 -47 182l-84 221h-546q-127 -303 -127 -393q0 -55 36.5 -77.5t122.5 -22.5v-78h-497zM494 674h467l-228 604zM508 1802v103h553v-103 h-553z" />
<glyph unicode="&#x101;" horiz-adv-x="1134" d="M88 223q0 102 76 183t256 159l295 129v84q0 250 -213 250q-70 0 -99.5 -25.5t-56.5 -107.5q-23 -57 -44 -77.5t-62 -20.5q-102 0 -103 102q0 98 104.5 152.5t297.5 54.5q207 0 291.5 -72.5t84.5 -247.5v-458q0 -233 93 -234q74 0 100 45l29 -49q-25 -47 -90.5 -78.5 t-137.5 -31.5q-178 0 -178 219h-10q-53 -100 -148.5 -158.5t-207.5 -58.5q-127 0 -202 65.5t-75 175.5zM266 1438v102h553v-102h-553zM295 258q0 -68 45 -111t119 -43q106 0 181 100.5t75 239.5v162q-227 -86 -323.5 -170t-96.5 -178z" />
<glyph unicode="&#x102;" horiz-adv-x="1581" d="M-12 0v78q94 10 141 45t82 121l532 1333h88l465 -1155q92 -225 147.5 -283.5t164.5 -58.5v-80h-668v80q106 0 148 19.5t42 68.5q0 61 -47 182l-84 221h-546q-127 -303 -127 -393q0 -55 36.5 -77.5t122.5 -22.5v-78h-497zM494 674h467l-228 604zM502 1966h73 q16 -43 73 -68.5t134.5 -25.5t135 25.5t73.5 68.5h76q-8 -102 -88 -168.5t-195 -66.5q-119 0 -198.5 66.5t-83.5 168.5z" />
<glyph unicode="&#x103;" horiz-adv-x="1134" d="M88 223q0 102 76 183t256 159l295 129v84q0 250 -213 250q-70 0 -99.5 -25.5t-56.5 -107.5q-23 -57 -44 -77.5t-62 -20.5q-102 0 -103 102q0 98 104.5 152.5t297.5 54.5q207 0 291.5 -72.5t84.5 -247.5v-458q0 -233 93 -234q74 0 100 45l29 -49q-25 -47 -90.5 -78.5 t-137.5 -31.5q-178 0 -178 219h-10q-53 -100 -148.5 -158.5t-207.5 -58.5q-127 0 -202 65.5t-75 175.5zM260 1589h74q18 -57 74.5 -91t132.5 -34q78 0 135.5 34t73.5 91h75q-8 -117 -88 -191.5t-194 -74.5q-119 0 -199 76t-84 190zM295 258q0 -68 45 -111t119 -43 q106 0 181 100.5t75 239.5v162q-227 -86 -323.5 -170t-96.5 -178z" />
<glyph unicode="&#x104;" horiz-adv-x="1581" d="M-12 0v78q94 10 141 45t82 121l532 1333h88l465 -1155q92 -225 147.5 -283.5t164.5 -58.5v-80h-234q-98 -53 -160.5 -126t-62.5 -132q0 -43 28.5 -70.5t75.5 -27.5q89 -1 195 108l59 -63q-129 -168 -321 -168q-94 0 -146.5 46t-52.5 128q0 88 66.5 168t185.5 137h-301v80 q106 0 148 19.5t42 68.5q0 61 -47 182l-84 221h-546q-127 -303 -127 -393q0 -55 36.5 -77.5t122.5 -22.5v-78h-497zM494 674h467l-228 604z" />
<glyph unicode="&#x105;" horiz-adv-x="1136" d="M88 223q0 102 76 183t256 159l295 129v84q0 250 -213 250q-70 0 -99.5 -25.5t-56.5 -107.5q-23 -57 -44 -77.5t-62 -20.5q-102 0 -103 102q0 98 104.5 152.5t297.5 54.5q207 0 291.5 -72.5t84.5 -247.5v-458q0 -233 93 -234q74 0 100 45l29 -49q-23 -45 -83.5 -75.5 t-129.5 -34.5q-86 -51 -137.5 -117t-51.5 -121q0 -43 29 -70.5t76 -27.5q88 -1 194 108l60 -63q-129 -168 -322 -168q-94 0 -146.5 46t-52.5 128q0 88 64.5 167t183.5 136q-90 45 -90 201h-10q-53 -100 -148.5 -158.5t-207.5 -58.5q-127 0 -202 65.5t-75 175.5zM295 258 q0 -68 45 -111t119 -43q106 0 181 100.5t75 239.5v162q-227 -86 -323.5 -170t-96.5 -178z" />
<glyph unicode="&#x106;" horiz-adv-x="1642" d="M123 762q0 371 218 603t566 232q229 0 467 -147l37 127h57l19 -471h-76q-45 178 -175 281.5t-310 103.5q-248 0 -388.5 -190.5t-140.5 -526.5q0 -330 138.5 -507t396.5 -177q395 0 508 420h84v-510h-72l-47 162q-215 -182 -520 -182q-348 0 -555 211.5t-207 570.5z M713 1741l266 157q115 68 178 68q35 0 56.5 -19.5t21.5 -52.5q0 -61 -154 -96l-245 -57h-123z" />
<glyph unicode="&#x107;" horiz-adv-x="1097" d="M100 535q0 260 157 415.5t413 155.5q158 0 259 -50t101 -130q0 -39 -26.5 -62.5t-73.5 -23.5q-37 0 -62.5 16t-62.5 68q-41 49 -79 67.5t-97 18.5q-145 0 -220 -114t-75 -331q0 -233 84 -356t241 -123q171 0 316 143l61 -59q-74 -90 -190.5 -140t-251.5 -50 q-219 0 -356.5 153.5t-137.5 401.5zM516 1333l266 244q74 68 138 68q35 0 56 -19.5t21 -52.5q0 -57 -104 -107l-281 -133h-96z" />
<glyph unicode="&#x108;" horiz-adv-x="1642" d="M123 762q0 371 218 603t566 232q229 0 467 -147l37 127h57l19 -471h-76q-45 178 -175 281.5t-310 103.5q-248 0 -388.5 -190.5t-140.5 -526.5q0 -330 138.5 -507t396.5 -177q395 0 508 420h84v-510h-72l-47 162q-215 -182 -520 -182q-348 0 -555 211.5t-207 570.5z M582 1743l223 223h225l223 -223h-92l-243 110l-244 -110h-92z" />
<glyph unicode="&#x109;" horiz-adv-x="1097" d="M100 535q0 260 157 415.5t413 155.5q158 0 259 -50t101 -130q0 -39 -26.5 -62.5t-73.5 -23.5q-37 0 -62.5 16t-62.5 68q-41 49 -79 67.5t-97 18.5q-145 0 -220 -114t-75 -331q0 -233 84 -356t241 -123q171 0 316 143l61 -59q-74 -90 -190.5 -140t-251.5 -50 q-219 0 -356.5 153.5t-137.5 401.5zM311 1333l244 264h184l244 -264h-92l-244 140l-244 -140h-92z" />
<glyph unicode="&#x10a;" horiz-adv-x="1642" d="M123 762q0 371 218 603t566 232q229 0 467 -147l37 127h57l19 -471h-76q-45 178 -175 281.5t-310 103.5q-248 0 -388.5 -190.5t-140.5 -526.5q0 -330 138.5 -507t396.5 -177q395 0 508 420h84v-510h-72l-47 162q-215 -182 -520 -182q-348 0 -555 211.5t-207 570.5z M811 1851q0 47 31.5 80t75.5 33q47 0 79.5 -33t32.5 -80q0 -43 -32.5 -74.5t-79.5 -31.5q-43 0 -75 31.5t-32 74.5z" />
<glyph unicode="&#x10b;" horiz-adv-x="1097" d="M100 535q0 260 157 415.5t413 155.5q158 0 259 -50t101 -130q0 -39 -26.5 -62.5t-73.5 -23.5q-37 0 -62.5 16t-62.5 68q-41 49 -79 67.5t-97 18.5q-145 0 -220 -114t-75 -331q0 -233 84 -356t241 -123q171 0 316 143l61 -59q-74 -90 -190.5 -140t-251.5 -50 q-219 0 -356.5 153.5t-137.5 401.5zM520 1521.5q0 53.5 37 90.5t90 37t90 -37t37 -90.5t-37 -90t-90 -36.5t-90 36.5t-37 90z" />
<glyph unicode="&#x10c;" horiz-adv-x="1642" d="M123 762q0 371 218 603t566 232q229 0 467 -147l37 127h57l19 -471h-76q-45 178 -175 281.5t-310 103.5q-248 0 -388.5 -190.5t-140.5 -526.5q0 -330 138.5 -507t396.5 -177q395 0 508 420h84v-510h-72l-47 162q-215 -182 -520 -182q-348 0 -555 211.5t-207 570.5z M582 1966h92l244 -111l243 111h92l-223 -223h-225z" />
<glyph unicode="&#x10d;" horiz-adv-x="1097" d="M100 535q0 260 157 415.5t413 155.5q158 0 259 -50t101 -130q0 -39 -26.5 -62.5t-73.5 -23.5q-37 0 -62.5 16t-62.5 68q-41 49 -79 67.5t-97 18.5q-145 0 -220 -114t-75 -331q0 -233 84 -356t241 -123q171 0 316 143l61 -59q-74 -90 -190.5 -140t-251.5 -50 q-219 0 -356.5 153.5t-137.5 401.5zM311 1597h92l244 -139l244 139h92l-244 -264h-184z" />
<glyph unicode="&#x10e;" horiz-adv-x="1810" d="M78 0v78q158 4 202 46t44 187v955q0 143 -37 185t-168 48v78h719q371 0 611.5 -230.5t240.5 -584.5q0 -336 -226.5 -549t-584.5 -213h-801zM539 334q0 -233 305 -234q281 0 430 168t149 490q0 338 -157.5 528.5t-431.5 190.5h-261q-35 0 -34 -35v-1108zM571 1966h93 l243 -111l244 111h92l-223 -223h-225z" />
<glyph unicode="&#x10f;" horiz-adv-x="1382" d="M98 545q0 244 151.5 402.5t381.5 158.5q186 0 323 -137v209q0 246 -12 301q-10 45 -58 63.5t-153 18.5v61l420 78v-1182q0 -303 14 -362q12 -51 43 -67.5t123 -16.5v-70l-340 -22v192h-8q-74 -102 -157 -147t-195 -45q-231 0 -382 158.5t-151 406.5zM330 555 q0 -221 77.5 -349t223.5 -128q76 0 151.5 34.5t114.5 94.5q53 81 53 282v136q0 109 -11 163t-44 95q-45 59 -117.5 92t-146.5 33q-143 0 -222 -121t-79 -332zM1315 1489q0 47 33.5 77.5t87.5 30.5q61 0 95 -42t34 -119q0 -136 -195 -240l-45 53q133 74 133 160 q-20 -16 -53 -16q-41 0 -65.5 26.5t-24.5 69.5z" />
<glyph unicode="&#x110;" horiz-adv-x="1806" d="M74 0v78q158 4 201.5 46t43.5 187v473h-163v109h163v373q0 143 -36.5 185t-167.5 48v78h719q371 0 611.5 -230.5t240.5 -584.5q0 -336 -226.5 -549t-585.5 -213h-800zM535 334q0 -233 305 -234q281 0 430 168t149 490q0 338 -158 528.5t-432 190.5h-260q-35 0 -34 -35 v-549h335v-109h-335v-450z" />
<glyph unicode="&#x111;" horiz-adv-x="1382" d="M98 545q0 244 151.5 402.5t381.5 158.5q186 0 323 -137v256h-200v108h198q-2 106 -10 146q-10 45 -58 63.5t-153 18.5v61l420 78v-367h174v-108h-174v-707q0 -303 14 -362q12 -51 43 -67.5t123 -16.5v-70l-340 -22v192h-8q-74 -102 -157 -147t-195 -45q-231 0 -382 158.5 t-151 406.5zM330 555q0 -221 77.5 -349t223.5 -128q76 0 151.5 34.5t114.5 94.5q53 81 53 282v136q0 109 -11 163t-44 95q-45 59 -117.5 92t-146.5 33q-143 0 -222 -121t-79 -332z" />
<glyph unicode="&#x112;" horiz-adv-x="1486" d="M92 0v78q143 4 184 46t41 187v955q0 143 -36.5 185t-167.5 48v78h1183l19 -360h-72q-25 160 -114 216t-302 56h-260q-35 0 -35 -35v-588q217 0 302.5 54.5t85.5 181.5h71v-559h-71q0 129 -82 184t-306 57v-462q0 -133 73 -183.5t267 -50.5q217 0 310.5 66.5t134.5 248.5 h78l-31 -403h-1272zM500 1802v103h553v-103h-553z" />
<glyph unicode="&#x113;" horiz-adv-x="1173" d="M100 530q0 252 157 414t405 162q197 0 306 -108.5t109 -307.5q0 -27 -11 -34t-52 -7h-674q-8 -31 -8 -92q0 -213 99 -342t263.5 -129t311.5 162l63 -58q-174 -211 -432 -210q-240 0 -388.5 152.5t-148.5 397.5zM354 743h377q82 0 102.5 10.5t20.5 47.5q0 94 -61.5 150.5 t-163.5 56.5q-222 -1 -275 -265zM365 1438v102h553v-102h-553z" />
<glyph unicode="&#x114;" horiz-adv-x="1486" d="M92 0v78q143 4 184 46t41 187v955q0 143 -36.5 185t-167.5 48v78h1183l19 -360h-72q-25 160 -114 216t-302 56h-260q-35 0 -35 -35v-588q217 0 302.5 54.5t85.5 181.5h71v-559h-71q0 129 -82 184t-306 57v-462q0 -133 73 -183.5t267 -50.5q217 0 310.5 66.5t134.5 248.5 h78l-31 -403h-1272zM494 1966h73q16 -43 72.5 -68.5t134.5 -25.5t135.5 25.5t73.5 68.5h76q-8 -102 -88 -168.5t-195 -66.5q-119 0 -198.5 66.5t-83.5 168.5z" />
<glyph unicode="&#x115;" horiz-adv-x="1173" d="M100 530q0 252 157 414t405 162q197 0 306 -108.5t109 -307.5q0 -27 -11 -34t-52 -7h-674q-8 -31 -8 -92q0 -213 99 -342t263.5 -129t311.5 162l63 -58q-174 -211 -432 -210q-240 0 -388.5 152.5t-148.5 397.5zM354 743h377q82 0 102.5 10.5t20.5 47.5q0 94 -61.5 150.5 t-163.5 56.5q-222 -1 -275 -265zM358 1589h74q18 -57 74.5 -91t132.5 -34q78 0 135.5 34t73.5 91h76q-8 -117 -88 -191.5t-195 -74.5q-119 0 -199 76t-84 190z" />
<glyph unicode="&#x116;" horiz-adv-x="1486" d="M92 0v78q143 4 184 46t41 187v955q0 143 -36.5 185t-167.5 48v78h1183l19 -360h-72q-25 160 -114 216t-302 56h-260q-35 0 -35 -35v-588q217 0 302.5 54.5t85.5 181.5h71v-559h-71q0 129 -82 184t-306 57v-462q0 -133 73 -183.5t267 -50.5q217 0 310.5 66.5t134.5 248.5 h78l-31 -403h-1272zM627 1851q0 47 31.5 80t74.5 33q47 0 80 -33t33 -80q0 -43 -33 -74.5t-80 -31.5q-43 0 -74.5 31.5t-31.5 74.5z" />
<glyph unicode="&#x117;" horiz-adv-x="1173" d="M100 530q0 252 157 414t405 162q197 0 306 -108.5t109 -307.5q0 -27 -11 -34t-52 -7h-674q-8 -31 -8 -92q0 -213 99 -342t263.5 -129t311.5 162l63 -58q-174 -211 -432 -210q-240 0 -388.5 152.5t-148.5 397.5zM354 743h377q82 0 102.5 10.5t20.5 47.5q0 94 -61.5 150.5 t-163.5 56.5q-222 -1 -275 -265zM514 1521.5q0 53.5 37 90.5t90 37t90 -37t37 -90.5t-37 -90t-90 -36.5t-90 36.5t-37 90z" />
<glyph unicode="&#x118;" horiz-adv-x="1486" d="M92 0v78q143 4 184 46t41 187v955q0 143 -36.5 185t-167.5 48v78h1183l19 -360h-72q-25 160 -114 216t-302 56h-260q-35 0 -35 -35v-588q217 0 302.5 54.5t85.5 181.5h71v-559h-71q0 129 -82 184t-306 57v-462q0 -133 73 -183.5t267 -50.5q217 0 310.5 66.5t134.5 248.5 h78l-31 -403h-510q-98 -53 -160.5 -126t-62.5 -132q0 -43 28.5 -70.5t75.5 -27.5q89 -1 195 108l59 -63q-129 -168 -321 -168q-94 0 -146.5 46t-52.5 128q0 88 66.5 168t185.5 137h-629z" />
<glyph unicode="&#x119;" horiz-adv-x="1173" d="M100 530q0 252 157 414t405 162q197 0 306 -108.5t109 -307.5q0 -27 -11 -34t-52 -7h-674q-8 -31 -8 -92q0 -213 99 -342t263 -129t312 162l63 -58q-170 -205 -420 -210q-86 -51 -137 -117t-51 -121q0 -43 28.5 -70.5t75.5 -27.5q89 -1 195 108l59 -63 q-129 -168 -321 -168q-94 0 -146.5 46t-52.5 128q0 84 60.5 160.5t168.5 134.5q-195 33 -311.5 178t-116.5 362zM354 743h377q82 0 102.5 10.5t20.5 47.5q0 94 -61.5 150.5t-163.5 56.5q-222 -1 -275 -265z" />
<glyph unicode="&#x11a;" horiz-adv-x="1486" d="M92 0v78q143 4 184 46t41 187v955q0 143 -36.5 185t-167.5 48v78h1183l19 -360h-72q-25 160 -114 216t-302 56h-260q-35 0 -35 -35v-588q217 0 302.5 54.5t85.5 181.5h71v-559h-71q0 129 -82 184t-306 57v-462q0 -133 73 -183.5t267 -50.5q217 0 310.5 66.5t134.5 248.5 h78l-31 -403h-1272zM440 1966h92l244 -111l244 111h92l-223 -223h-225z" />
<glyph unicode="&#x11b;" horiz-adv-x="1173" d="M100 530q0 252 157 414t405 162q197 0 306 -108.5t109 -307.5q0 -27 -11 -34t-52 -7h-674q-8 -31 -8 -92q0 -213 99 -342t263.5 -129t311.5 162l63 -58q-174 -211 -432 -210q-240 0 -388.5 152.5t-148.5 397.5zM305 1597h92l244 -139l244 139h92l-244 -264h-184zM354 743 h377q82 0 102.5 10.5t20.5 47.5q0 94 -61.5 150.5t-163.5 56.5q-222 -1 -275 -265z" />
<glyph unicode="&#x11c;" horiz-adv-x="1781" d="M123 762q0 371 218 603t566 232q229 0 467 -147l43 127h72l-27 -471h-98q0 188 -128 286.5t-310 98.5q-248 0 -388.5 -190.5t-140.5 -526.5q0 -330 138.5 -507t396.5 -177q190 0 304 85t114 204q0 117 -46.5 160t-158.5 43v77h581v-77q-98 0 -132.5 -38t-34.5 -145v-229 q-82 0 -141.5 -18.5t-172.5 -81.5q-159 -90 -368 -90q-346 0 -550 211.5t-204 570.5zM578 1743l223 223h225l223 -223h-92l-244 110l-243 -110h-92z" />
<glyph unicode="&#x11d;" horiz-adv-x="1226" d="M66 -246q0 86 53 145.5t129 59.5q70 0 125 -43q-55 -12 -90 -60.5t-35 -109.5q0 -90 90 -139t252 -49q350 0 350 215q0 80 -54.5 135t-131.5 65q-137 18 -367 45q-233 25 -233 197q0 72 59 127t149 70v8q-92 37 -151 129t-59 196q0 156 114.5 258.5t288.5 102.5 q188 0 307 -109q131 109 223 109q74 0 118 -34t44 -91q0 -33 -23.5 -54.5t-58.5 -21.5q-39 0 -80 32t-73 32q-49 0 -101 -35q49 -76 50 -191q0 -174 -111 -274t-324 -115q-129 -10 -176 -27.5t-47 -58.5q1 -57 146 -67q158 -12 337 -39q147 -23 236.5 -115t89.5 -227 q0 -170 -137 -261t-393 -91q-229 0 -372.5 79.5t-143.5 206.5zM260 1333l244 264h184l244 -264h-92l-244 140l-244 -140h-92zM367 739q0 -135 53 -217t141 -82q86 0 134 79t48 218.5t-48 216t-136 76.5t-140 -79t-52 -212z" />
<glyph unicode="&#x11e;" horiz-adv-x="1781" d="M123 762q0 371 218 603t566 232q229 0 467 -147l43 127h72l-27 -471h-98q0 188 -128 286.5t-310 98.5q-248 0 -388.5 -190.5t-140.5 -526.5q0 -330 138.5 -507t396.5 -177q190 0 304 85t114 204q0 117 -46.5 160t-158.5 43v77h581v-77q-98 0 -132.5 -38t-34.5 -145v-229 q-82 0 -141.5 -18.5t-172.5 -81.5q-159 -90 -368 -90q-346 0 -550 211.5t-204 570.5zM631 1966h74q16 -43 72.5 -68.5t134 -25.5t135 25.5t73.5 68.5h76q-8 -102 -88 -168.5t-195 -66.5q-119 0 -198.5 66.5t-83.5 168.5z" />
<glyph unicode="&#x11f;" horiz-adv-x="1226" d="M66 -246q0 86 53 145.5t129 59.5q70 0 125 -43q-55 -12 -90 -60.5t-35 -109.5q0 -90 90 -139t252 -49q350 0 350 215q0 80 -54.5 135t-131.5 65q-137 18 -367 45q-233 25 -233 197q0 72 59 127t149 70v8q-92 37 -151 129t-59 196q0 156 114.5 258.5t288.5 102.5 q188 0 307 -109q131 109 223 109q74 0 118 -34t44 -91q0 -33 -23.5 -54.5t-58.5 -21.5q-39 0 -80 32t-73 32q-49 0 -101 -35q49 -76 50 -191q0 -174 -111 -274t-324 -115q-129 -10 -176 -27.5t-47 -58.5q1 -57 146 -67q158 -12 337 -39q147 -23 236.5 -115t89.5 -227 q0 -170 -137 -261t-393 -91q-229 0 -372.5 79.5t-143.5 206.5zM295 1589h74q18 -57 74.5 -91t131.5 -34q78 0 135.5 34t73.5 91h76q-8 -117 -88 -191.5t-194 -74.5q-119 0 -199 76t-84 190zM367 739q0 -135 53 -217t141 -82q86 0 134 79t48 218.5t-48 216t-136 76.5 t-140 -79t-52 -212z" />
<glyph unicode="&#x120;" horiz-adv-x="1781" d="M123 762q0 371 218 603t566 232q229 0 467 -147l43 127h72l-27 -471h-98q0 188 -128 286.5t-310 98.5q-248 0 -388.5 -190.5t-140.5 -526.5q0 -330 138.5 -507t396.5 -177q190 0 304 85t114 204q0 117 -46.5 160t-158.5 43v77h581v-77q-98 0 -132.5 -38t-34.5 -145v-229 q-82 0 -141.5 -18.5t-172.5 -81.5q-159 -90 -368 -90q-346 0 -550 211.5t-204 570.5zM807 1851q0 47 31.5 80t74.5 33q47 0 80 -33t33 -80q0 -43 -32.5 -74.5t-80.5 -31.5q-43 0 -74.5 31.5t-31.5 74.5z" />
<glyph unicode="&#x121;" horiz-adv-x="1226" d="M66 -246q0 86 53 145.5t129 59.5q70 0 125 -43q-55 -12 -90 -60.5t-35 -109.5q0 -90 90 -139t252 -49q350 0 350 215q0 80 -54.5 135t-131.5 65q-137 18 -367 45q-233 25 -233 197q0 72 59 127t149 70v8q-92 37 -151 129t-59 196q0 156 114.5 258.5t288.5 102.5 q188 0 307 -109q131 109 223 109q74 0 118 -34t44 -91q0 -33 -23.5 -54.5t-58.5 -21.5q-39 0 -80 32t-73 32q-49 0 -101 -35q49 -76 50 -191q0 -174 -111 -274t-324 -115q-129 -10 -176 -27.5t-47 -58.5q1 -57 146 -67q158 -12 337 -39q147 -23 236.5 -115t89.5 -227 q0 -170 -137 -261t-393 -91q-229 0 -372.5 79.5t-143.5 206.5zM367 739q0 -135 53 -217t141 -82q86 0 134 79t48 218.5t-48 216t-136 76.5t-140 -79t-52 -212zM459 1521.5q0 53.5 36.5 90.5t90 37t90.5 -37t37 -90.5t-37 -90t-90.5 -36.5t-90 36.5t-36.5 90z" />
<glyph unicode="&#x122;" horiz-adv-x="1781" d="M123 762q0 371 218 603t566 232q229 0 467 -147l43 127h72l-27 -471h-98q0 188 -128 286.5t-310 98.5q-248 0 -388.5 -190.5t-140.5 -526.5q0 -330 138.5 -507t396.5 -177q190 0 304 85t114 204q0 117 -46.5 160t-158.5 43v77h581v-77q-98 0 -132.5 -38t-34.5 -145v-229 q-82 0 -141.5 -18.5t-172.5 -81.5q-159 -90 -368 -90q-346 0 -550 211.5t-204 570.5zM758 -219q0 47 33.5 77.5t87.5 30.5q61 0 95 -42t34 -119q0 -136 -195 -240l-45 53q133 74 133 160q-20 -16 -53 -16q-41 0 -65.5 26.5t-24.5 69.5z" />
<glyph unicode="&#x123;" horiz-adv-x="1226" d="M66 -246q0 86 53 145.5t129 59.5q70 0 125 -43q-55 -12 -90 -60.5t-35 -109.5q0 -90 90 -139t252 -49q350 0 350 215q0 80 -54.5 135t-131.5 65q-137 18 -367 45q-233 25 -233 197q0 72 59 127t149 70v8q-92 37 -151 129t-59 196q0 156 114.5 258.5t288.5 102.5 q188 0 307 -109q131 109 223 109q74 0 118 -34t44 -91q0 -33 -23.5 -54.5t-58.5 -21.5q-39 0 -80 32t-73 32q-49 0 -101 -35q49 -76 50 -191q0 -174 -111 -274t-324 -115q-129 -10 -176 -27.5t-47 -58.5q1 -57 146 -67q158 -12 337 -39q147 -23 236.5 -115t89.5 -227 q0 -170 -137 -261t-393 -91q-229 0 -372.5 79.5t-143.5 206.5zM367 739q0 -135 53 -217t141 -82q86 0 134 79t48 218.5t-48 216t-136 76.5t-140 -79t-52 -212zM465 1483q-1 148 194 252l46 -54q-133 -74 -134 -159q20 16 54 16q41 0 65.5 -26.5t24.5 -69.5q0 -47 -34 -78 t-87 -31q-61 0 -95 41t-34 109z" />
<glyph unicode="&#x124;" horiz-adv-x="1894" d="M92 0v78q143 4 184 46t41 187v955q0 143 -36.5 185t-167.5 48v78h622v-78q-131 -4 -167 -48t-36 -200v-393h830v408q0 143 -37 185t-168 48v78h623v-78q-131 -4 -167 -48t-36 -200v-925q0 -156 39 -200t184 -48v-78h-663v78q143 4 184 46t41 187v445h-830v-430 q0 -156 39 -200t185 -48v-78h-664zM614 1743l224 223h225l223 -223h-92l-244 110l-243 -110h-93z" />
<glyph unicode="&#x125;" horiz-adv-x="1409" d="M45 1552v70l377 78v-780h8q63 82 176 134t225 52q94 0 173 -33t122 -88q68 -88 68 -332v-327q0 -168 25.5 -207t142.5 -47v-72h-543v72q117 6 144.5 45t27.5 194v258q0 231 -53 327.5t-178 96.5q-94 0 -174 -49t-125 -135q-35 -69 -35 -221v-262q0 -61 1 -96t8 -67 t16.5 -45.5t31 -24.5t45 -15t66.5 -6v-72h-545v72q119 8 147.5 47t28.5 192v858q0 231 -14 301q-10 49 -42 65.5t-124 16.5zM455 1333l243 264h185l243 -264h-92l-243 140l-244 -140h-92z" />
<glyph unicode="&#x126;" horiz-adv-x="1898" d="M94 0v78q143 4 184 46t41 187v797h-163v102h163v56q0 143 -36.5 185t-167.5 48v78h622v-78q-131 -4 -166.5 -48t-35.5 -200v-41h829v56q0 143 -37 185t-168 48v78h623v-78q-131 -4 -167 -48t-36 -200v-41h162v-102h-162v-782q0 -156 39 -200t184 -48v-78h-663v78 q143 4 184 46t41 187v445h-829v-430q0 -156 38.5 -200t184.5 -48v-78h-664zM535 858h829v250h-829v-250z" />
<glyph unicode="&#x127;" horiz-adv-x="1409" d="M45 1552v70l377 78v-367h196v-108h-196v-305h8q63 82 176 134t225 52q94 0 173 -33t122 -88q68 -88 68 -332v-327q0 -168 25.5 -207t142.5 -47v-72h-543v72q117 6 144.5 45t27.5 194v258q0 231 -53 327.5t-178 96.5q-94 0 -174 -49t-125 -135q-35 -69 -35 -221v-262 q0 -61 1 -96t8 -67t16.5 -45.5t31 -24.5t45 -15t66.5 -6v-72h-545v72q119 8 147.5 47t28.5 192v914h-178v108h176q-2 94 -12 137q-10 49 -42 65.5t-124 16.5z" />
<glyph unicode="&#x128;" horiz-adv-x="849" d="M72 1733q16 104 76.5 168.5t140.5 64.5q55 0 160.5 -47t156.5 -47q39 0 59.5 19.5t36.5 66.5h68q-10 -102 -69.5 -172t-135.5 -70q-53 0 -164.5 49.5t-167.5 49.5q-39 0 -58.5 -17.5t-33.5 -64.5h-69zM92 0v78q145 4 185 55t40 240v831q0 176 -37.5 232.5t-166.5 62.5v78 h622v-78q-129 -4 -166 -62.5t-37 -246.5v-803q0 -201 39 -253t185 -56v-78h-664z" />
<glyph unicode="&#x129;" horiz-adv-x="698" d="M4 1352q16 104 76.5 168.5t140.5 64.5q55 0 160.5 -47t157.5 -47q39 0 59 19.5t37 66.5h67q-10 -102 -69.5 -172t-134.5 -70q-53 0 -165 49.5t-167 49.5q-39 0 -58.5 -17.5t-33.5 -64.5h-70zM66 952v76l401 78v-774q0 -160 35 -206t155 -50v-76h-587v76q125 6 160.5 50 t35.5 189v254q0 248 -14 299q-10 49 -48 66.5t-138 17.5z" />
<glyph unicode="&#x12a;" horiz-adv-x="849" d="M92 0v78q145 4 185 55t40 240v831q0 176 -37.5 232.5t-166.5 62.5v78h622v-78q-129 -4 -166 -62.5t-37 -246.5v-803q0 -201 39 -253t185 -56v-78h-664zM145 1802v103h553v-103h-553z" />
<glyph unicode="&#x12b;" horiz-adv-x="698" d="M66 952v76l401 78v-774q0 -160 35 -206t155 -50v-76h-587v76q125 6 160.5 50t35.5 189v254q0 248 -14 299q-10 49 -48 66.5t-138 17.5zM92 1438v102h553v-102h-553z" />
<glyph unicode="&#x12c;" horiz-adv-x="849" d="M92 0v78q145 4 185 55t40 240v831q0 176 -37.5 232.5t-166.5 62.5v78h622v-78q-129 -4 -166 -62.5t-37 -246.5v-803q0 -201 39 -253t185 -56v-78h-664zM139 1966h74q16 -43 72.5 -68.5t134.5 -25.5t135.5 25.5t73.5 68.5h76q-8 -102 -88 -168.5t-195 -66.5 q-119 0 -199 66.5t-84 168.5z" />
<glyph unicode="&#x12d;" horiz-adv-x="698" d="M66 952v76l401 78v-774q0 -160 35 -206t155 -50v-76h-587v76q125 6 160.5 50t35.5 189v254q0 248 -14 299q-10 49 -48 66.5t-138 17.5zM86 1589h74q18 -57 74.5 -91t132.5 -34q78 0 135 34t73 91h76q-8 -117 -88 -191.5t-194 -74.5q-119 0 -199 76t-84 190z" />
<glyph unicode="&#x12e;" horiz-adv-x="849" d="M92 0v78q145 4 185 55t40 240v831q0 176 -37.5 232.5t-166.5 62.5v78h622v-78q-129 -4 -166 -62.5t-37 -246.5v-803q0 -201 39 -253t185 -56v-78h-252q-98 -53 -160.5 -126t-62.5 -132q0 -43 28.5 -70.5t75.5 -27.5q89 -1 195 108l59 -63q-129 -168 -322 -168 q-94 0 -146 46t-52 128q0 88 66.5 168t185.5 137h-279z" />
<glyph unicode="&#x12f;" horiz-adv-x="698" d="M27 -305q0 88 66.5 168t185.5 137h-209v72q125 6 160.5 50t35.5 189v262q0 250 -14 301q-10 47 -48 64.5t-138 17.5v72l401 78v-780q0 -158 35 -204t155 -50v-72h-245q-98 -53 -161 -126t-63 -132q0 -43 29 -70.5t76 -27.5q88 -1 194 108l60 -63q-129 -168 -322 -168 q-94 0 -146 46t-52 128zM231 1521.5q0 53.5 37 90.5t90.5 37t90 -37t36.5 -90.5t-36.5 -90t-90 -36.5t-90.5 36.5t-37 90z" />
<glyph unicode="&#x130;" horiz-adv-x="849" d="M92 0v78q145 4 185 55t40 240v831q0 176 -37.5 232.5t-166.5 62.5v78h622v-78q-129 -4 -166 -62.5t-37 -246.5v-803q0 -201 39 -253t185 -56v-78h-664zM317 1851q0 47 32 80t75 33q47 0 80 -33t33 -80q0 -43 -33 -74.5t-80 -31.5q-43 0 -75 31.5t-32 74.5z" />
<glyph unicode="&#x131;" horiz-adv-x="698" d="M66 952v76l401 78v-774q0 -160 35 -206t155 -50v-76h-587v76q125 6 160.5 50t35.5 189v254q0 248 -14 299q-10 49 -48 66.5t-138 17.5z" />
<glyph unicode="&#x132;" horiz-adv-x="1656" d="M92 0v78q145 4 185 55t40 240v831q0 176 -37.5 232.5t-166.5 62.5v78h622v-78q-129 -4 -166 -62.5t-37 -246.5v-803q0 -201 39 -253t185 -56v-78h-664zM625 -334q0 109 104 109q39 0 62.5 -19.5t54.5 -77.5q35 -66 61.5 -89t65.5 -23q82 0 128 91t46 255v1354 q0 143 -37 185t-168 48v78h623v-78q-131 -4 -167 -48t-36 -200v-1255q0 -256 -109.5 -392t-316.5 -136q-139 0 -225 54t-86 144z" />
<glyph unicode="&#x133;" horiz-adv-x="1320" d="M66 956v72l401 78v-780q0 -158 35 -204t155 -50v-72h-587v72q125 6 160.5 50t35.5 189v262q0 250 -14 301q-10 47 -48 64.5t-138 17.5zM231 1521.5q0 53.5 37 90.5t90.5 37t90 -37t36.5 -90.5t-36.5 -90t-90 -36.5t-90.5 36.5t-37 90zM418 -342q0 96 104 96 q37 0 56.5 -17.5t50.5 -78.5q29 -61 54.5 -81.5t74.5 -20.5q98 0 137 67.5t39 237.5v712q0 250 -14 301q-10 47 -48 64.5t-139 17.5v72l402 78v-1110q0 -256 -108.5 -392t-311.5 -136q-131 0 -214 53t-83 137zM903 1521.5q0 53.5 37 90.5t90 37t90 -37t37 -90.5t-37 -90 t-90 -36.5t-90 36.5t-37 90z" />
<glyph unicode="&#x134;" horiz-adv-x="806" d="M-225 -334q0 109 104 109q39 0 62.5 -19.5t54.5 -77.5q35 -66 61.5 -89t65.5 -23q82 0 128 91t46 255v1354q0 143 -37 185t-168 48v78h623v-78q-131 -4 -167 -48t-36 -200v-1255q0 -256 -109.5 -392t-316.5 -136q-139 0 -225 54t-86 144zM72 1743l223 223h225l223 -223 h-92l-243 110l-244 -110h-92z" />
<glyph unicode="&#x135;" horiz-adv-x="622" d="M-281 -342q0 96 105 96q37 0 56.5 -17.5t49.5 -78.5q29 -61 54.5 -81.5t74.5 -20.5q98 0 137.5 67.5t39.5 237.5v712q0 250 -15 301q-10 47 -48 64.5t-138 17.5v72l401 78v-1110q0 -256 -108.5 -392t-311.5 -136q-131 0 -214 53t-83 137zM-4 1333l244 264h184l244 -264 h-93l-243 140l-244 -140h-92z" />
<glyph unicode="&#x136;" horiz-adv-x="1595" d="M92 0v78q141 0 183 44t42 189v955q0 152 -38.5 192.5t-165.5 40.5v78h622v-78q-125 0 -164 -44t-39 -204v-506l512 617q41 51 41 80q0 57 -116 57v78h493v-76q-84 0 -135 -27.5t-135 -125.5l-385 -445l598 -719q51 -61 97 -83.5t120 -22.5v-78h-629v78q150 0 150 55 q0 39 -70 123l-399 492l-142 -164v-258q0 -158 41 -203t183 -45v-78h-664zM719 -219q0 47 33.5 77.5t87.5 30.5q61 0 95 -42t34 -119q0 -136 -195 -240l-45 53q133 74 133 160q-20 -16 -53 -16q-41 0 -65.5 26.5t-24.5 69.5z" />
<glyph unicode="&#x137;" horiz-adv-x="1261" d="M31 1552v70l395 78v-1125l190 187q157 154 173 178q10 15 10 25q0 49 -166 49v71h532v-71q-76 0 -120 -20.5t-121 -88.5l-295 -262l405 -459q59 -70 100.5 -91t116.5 -21v-72h-538v72q119 0 118 22q-2 29 -112 162l-217 262l-76 -72v-120q0 -158 34 -204t156 -50v-72 h-581v72q123 4 159.5 49t36.5 190v858q0 180 -4 250t-20 94q-16 27 -53 33t-123 6zM543 -219q0 47 33.5 77.5t87.5 30.5q61 0 95 -42t34 -119q0 -136 -195 -240l-45 53q133 74 133 160q-20 -16 -53 -16q-41 0 -65.5 26.5t-24.5 69.5z" />
<glyph unicode="&#x138;" horiz-adv-x="1296" d="M66 979v70l395 77v-551l190 187q176 170 176 211t-159 41v71h532v-71q-76 0 -120 -20.5t-122 -88.5l-294 -262l405 -459q59 -68 104.5 -90t112.5 -22v-72h-538v72q63 0 84.5 6t21.5 24q0 33 -100 154l-217 262l-76 -72v-120q0 -160 35.5 -207t154.5 -47v-72h-581v72 q121 0 158.5 46t37.5 193v426q0 162 -32.5 202t-167.5 40z" />
<glyph unicode="&#x139;" horiz-adv-x="1488" d="M92 0v78q143 4 184 46t41 187v955q0 143 -36.5 185t-167.5 48v78h622v-78q-131 -4 -167 -48t-36 -200v-882q0 -170 74 -223.5t291 -53.5q238 0 332 61.5t139 249.5h78l-31 -403h-1323zM217 1741l266 157q115 68 179 68q35 0 56 -19.5t21 -52.5q0 -61 -153 -96l-246 -57 h-123z" />
<glyph unicode="&#x13a;" horiz-adv-x="665" d="M41 1513v70l387 76v-1340q0 -156 32 -199.5t150 -47.5v-72h-565v72q121 6 157 49t36 184v842q0 236 -13 287q-10 47 -48 63t-136 16zM129 1741l266 157q113 68 178 68q35 0 56.5 -19.5t21.5 -52.5q0 -61 -153 -96l-246 -57h-123z" />
<glyph unicode="&#x13b;" horiz-adv-x="1488" d="M92 0v78q143 4 184 46t41 187v955q0 143 -36.5 185t-167.5 48v78h622v-78q-131 -4 -167 -48t-36 -200v-882q0 -170 74 -223.5t291 -53.5q238 0 332 61.5t139 249.5h78l-31 -403h-1323zM655 -219q0 47 34 77.5t87 30.5q61 0 95 -42t34 -119q1 -136 -194 -240l-45 53 q133 74 133 160q-20 -16 -54 -16q-41 0 -65.5 26.5t-24.5 69.5z" />
<glyph unicode="&#x13c;" horiz-adv-x="665" d="M41 1554v70l387 76v-1381q0 -156 32 -199.5t150 -47.5v-72h-565v72q121 6 157 49t36 184v883q0 233 -13 287q-10 47 -48 63t-136 16zM211 -219q0 47 34 77.5t87 30.5q61 0 95 -42t34 -119q0 -136 -195 -240l-45 53q133 74 133 160q-20 -16 -53 -16q-41 0 -65.5 26.5 t-24.5 69.5z" />
<glyph unicode="&#x13d;" horiz-adv-x="1488" d="M86 1966h92l244 -111l244 111h92l-223 -223h-226zM92 0v78q143 4 184 46t41 187v955q0 143 -36.5 185t-167.5 48v78h622v-78q-131 -4 -167 -48t-36 -200v-882q0 -170 74 -223.5t291 -53.5q238 0 332 61.5t139 249.5h78l-31 -403h-1323z" />
<glyph unicode="&#x13e;" horiz-adv-x="665" d="M41 1554v70l387 76v-1381q0 -156 32 -199.5t150 -47.5v-72h-565v72q121 6 157 49t36 184v883q0 233 -13 287q-10 47 -48 63t-136 16zM592 1489q0 47 33.5 77.5t87.5 30.5q61 0 95 -42t34 -119q0 -136 -195 -240l-45 53q133 74 133 160q-20 -16 -53 -16q-41 0 -65.5 26.5 t-24.5 69.5z" />
<glyph unicode="&#x13f;" horiz-adv-x="1488" d="M92 0v78q143 4 184 46t41 187v955q0 143 -36.5 185t-167.5 48v78h622v-78q-131 -4 -167 -48t-36 -200v-882q0 -170 74 -223.5t291 -53.5q238 0 332 61.5t139 249.5h78l-31 -403h-1323zM803 821q0 57 39 96t94 39q57 0 96 -38.5t39 -96.5q0 -55 -39 -94t-96 -39 q-55 0 -94 39t-39 94z" />
<glyph unicode="&#x140;" horiz-adv-x="825" d="M41 1554v70l387 76v-1381q0 -156 32 -199.5t150 -47.5v-72h-565v72q121 6 157 49t36 184v883q0 233 -13 287q-10 47 -48 63t-136 16zM606 852q0 57 39 96t94 39q57 0 96 -39t39 -96q0 -55 -38.5 -94t-96.5 -39q-55 0 -94 39t-39 94z" />
<glyph unicode="&#x141;" horiz-adv-x="1490" d="M94 0v78q143 4 184 46t41 187v351l-184 -115v123l184 114v482q0 143 -36.5 185t-167.5 48v78h622v-78q-131 -4 -166.5 -48t-35.5 -200v-331l264 165v-122l-264 -166v-428q0 -170 73.5 -223.5t290.5 -53.5q238 0 332 61.5t139 249.5h78l-31 -403h-1323z" />
<glyph unicode="&#x142;" horiz-adv-x="669" d="M43 1554v70l387 76v-748l162 101v-133l-162 -101v-500q0 -156 32 -199.5t150 -47.5v-72h-565v72q121 6 157 49t36 184v395l-164 -102v133l164 103v354q0 233 -13 287q-10 47 -48 63t-136 16z" />
<glyph unicode="&#x143;" horiz-adv-x="1847" d="M92 0v78q145 4 185 55t40 240v831q0 176 -37.5 232.5t-166.5 62.5v78h405l895 -1194h8v807q0 201 -34.5 253t-167.5 56v78h550v-78q-145 -4 -185 -55t-40 -240v-1224h-123l-972 1282h-9v-875q0 -201 35 -253t168 -56v-78h-551zM745 1741l267 157q115 68 178 68 q35 0 56.5 -19.5t21.5 -52.5q0 -61 -154 -96l-246 -57h-123z" />
<glyph unicode="&#x144;" horiz-adv-x="1411" d="M72 963v65l327 78l25 -203h8q164 203 410 203q92 0 171 -31t120 -84q63 -86 63 -327v-342q0 -166 26.5 -205t139.5 -47v-70h-531v70q115 6 142.5 45t27.5 192v271q0 231 -52 324t-181 93q-90 0 -168 -48t-121 -132q-23 -43 -30 -84t-7 -135v-274q0 -166 26 -205t144 -47 v-70h-536v70q115 8 143.5 47t28.5 190v273q0 244 -12 297q-12 55 -43 70.5t-121 15.5zM539 1333l266 244q74 68 137 68q35 0 56.5 -19.5t21.5 -52.5q0 -57 -105 -107l-280 -133h-96z" />
<glyph unicode="&#x145;" horiz-adv-x="1847" d="M92 0v78q145 4 185 55t40 240v831q0 176 -37.5 232.5t-166.5 62.5v78h405l895 -1194h8v807q0 201 -34.5 253t-167.5 56v78h550v-78q-145 -4 -185 -55t-40 -240v-1224h-123l-972 1282h-9v-875q0 -201 35 -253t168 -56v-78h-551zM815 -219q0 47 34 77.5t87 30.5 q61 0 95 -42t34 -119q0 -136 -195 -240l-45 53q133 74 133 160q-20 -16 -53 -16q-41 0 -65.5 26.5t-24.5 69.5z" />
<glyph unicode="&#x146;" horiz-adv-x="1411" d="M72 963v65l327 78l25 -203h8q164 203 410 203q92 0 171 -31t120 -84q63 -86 63 -327v-342q0 -166 26.5 -205t139.5 -47v-70h-531v70q115 6 142.5 45t27.5 192v271q0 231 -52 324t-181 93q-90 0 -168 -48t-121 -132q-23 -43 -30 -84t-7 -135v-274q0 -166 26 -205t144 -47 v-70h-536v70q115 8 143.5 47t28.5 190v273q0 244 -12 297q-12 55 -43 70.5t-121 15.5zM598 -219q0 47 34 77.5t87 30.5q61 0 95 -42t34 -119q0 -136 -195 -240l-45 53q133 74 133 160q-20 -16 -53 -16q-41 0 -65.5 26.5t-24.5 69.5z" />
<glyph unicode="&#x147;" horiz-adv-x="1847" d="M92 0v78q145 4 185 55t40 240v831q0 176 -37.5 232.5t-166.5 62.5v78h405l895 -1194h8v807q0 201 -34.5 253t-167.5 56v78h550v-78q-145 -4 -185 -55t-40 -240v-1224h-123l-972 1282h-9v-875q0 -201 35 -253t168 -56v-78h-551zM614 1966h93l243 -111l244 111h92 l-223 -223h-225z" />
<glyph unicode="&#x148;" horiz-adv-x="1411" d="M72 963v65l327 78l25 -203h8q164 203 410 203q92 0 171 -31t120 -84q63 -86 63 -327v-342q0 -166 26.5 -205t139.5 -47v-70h-531v70q115 6 142.5 45t27.5 192v271q0 231 -52 324t-181 93q-90 0 -168 -48t-121 -132q-23 -43 -30 -84t-7 -135v-274q0 -166 26 -205t144 -47 v-70h-536v70q115 8 143.5 47t28.5 190v273q0 244 -12 297q-12 55 -43 70.5t-121 15.5zM387 1597h92l244 -139l244 139h92l-244 -264h-184z" />
<glyph unicode="&#x149;" horiz-adv-x="1554" d="M57 1599q0 43 28 72t69 29t68.5 -29t27.5 -74q0 -20 -11.5 -79.5t-29 -141.5t-25.5 -125h-59q-8 43 -25.5 125t-30 142.5t-12.5 80.5zM215 963v65l328 78l24 -203h8q164 203 410 203q92 0 171 -31t120 -84q63 -86 63 -327v-342q0 -166 27 -205t139 -47v-70h-530v70 q115 6 142.5 45t27.5 192v271q0 231 -52.5 324t-181.5 93q-90 0 -167.5 -48t-120.5 -132q-23 -43 -30 -84t-7 -135v-274q0 -166 25.5 -205t144.5 -47v-70h-537v70q115 8 143.5 47t28.5 190v273q0 244 -12 297q-12 55 -43 70.5t-121 15.5z" />
<glyph unicode="&#x14a;" horiz-adv-x="1847" d="M92 0v78q145 4 185 55t40 240v831q0 176 -37.5 232.5t-166.5 62.5v78h405l895 -1194h8v807q0 201 -34.5 253t-167.5 56v78h550v-78q-145 -4 -185 -55t-40 -240v-1224q0 -248 -110.5 -380t-315.5 -132q-139 0 -225 54t-86 144q0 109 104 109q39 0 62.5 -19.5t54.5 -77.5 q35 -66 61.5 -89t65.5 -23q127 0 196.5 91t69.5 255v68l-972 1282h-9v-875q0 -201 35 -253t168 -56v-78h-551z" />
<glyph unicode="&#x14b;" horiz-adv-x="1359" d="M72 963v65l327 78l25 -203h8q164 203 410 203q92 0 171 -31t120 -84q63 -86 63 -327v-668q0 -256 -108.5 -392t-311.5 -136q-131 0 -214 53t-83 137q0 96 105 96q37 0 56 -17.5t50 -78.5q29 -61 54.5 -81.5t74.5 -20.5q98 0 140 68.5t42 236.5v717q0 231 -52 324t-181 93 q-90 0 -168 -48t-121 -132q-23 -43 -30 -84t-7 -135v-274q0 -166 26 -205t144 -47v-70h-536v70q115 8 143.5 47t28.5 190v273q0 244 -12 297q-12 55 -43 70.5t-121 15.5z" />
<glyph unicode="&#x14c;" horiz-adv-x="1937" d="M117 776q0 346 245.5 583.5t606 237.5t606.5 -237.5t246 -583.5q0 -334 -248 -565t-604.5 -231t-604 231t-247.5 565zM383 770q0 -311 158 -494.5t428 -183.5q268 0 426.5 183.5t158.5 494.5q0 330 -157.5 522.5t-428 192.5t-428 -192.5t-157.5 -522.5zM694 1802v103h553 v-103h-553z" />
<glyph unicode="&#x14d;" horiz-adv-x="1339" d="M98 551q0 240 166 397.5t402 157.5q238 0 406.5 -159t168.5 -396q0 -246 -169 -408.5t-406 -162.5q-236 0 -402 162.5t-166 408.5zM330 549q0 -213 91 -339t245 -126q156 0 250 127t94 338q0 205 -94 332t-250 127q-152 0 -244 -126t-92 -333zM389 1438v102h553v-102 h-553z" />
<glyph unicode="&#x14e;" horiz-adv-x="1937" d="M117 776q0 346 245.5 583.5t606 237.5t606.5 -237.5t246 -583.5q0 -334 -248 -565t-604.5 -231t-604 231t-247.5 565zM383 770q0 -311 158 -494.5t428 -183.5q268 0 426.5 183.5t158.5 494.5q0 330 -157.5 522.5t-428 192.5t-428 -192.5t-157.5 -522.5zM688 1966h74 q16 -43 72.5 -68.5t134.5 -25.5t135.5 25.5t73.5 68.5h75q-8 -102 -88 -168.5t-194 -66.5q-119 0 -199 66.5t-84 168.5z" />
<glyph unicode="&#x14f;" horiz-adv-x="1339" d="M98 551q0 240 166 397.5t402 157.5q238 0 406.5 -159t168.5 -396q0 -246 -169 -408.5t-406 -162.5q-236 0 -402 162.5t-166 408.5zM330 549q0 -213 91 -339t245 -126q156 0 250 127t94 338q0 205 -94 332t-250 127q-152 0 -244 -126t-92 -333zM383 1589h74 q18 -57 74.5 -91t132.5 -34q78 0 135 34t73 91h76q-8 -117 -88 -191.5t-194 -74.5q-119 0 -199 76t-84 190z" />
<glyph unicode="&#x150;" horiz-adv-x="1937" d="M117 776q0 346 245.5 583.5t606 237.5t606.5 -237.5t246 -583.5q0 -334 -248 -565t-604.5 -231t-604 231t-247.5 565zM383 770q0 -311 158 -494.5t428 -183.5q268 0 426.5 183.5t158.5 494.5q0 330 -157.5 522.5t-428 192.5t-428 -192.5t-157.5 -522.5zM592 1741l246 157 q106 68 178 68q35 0 56.5 -19.5t21.5 -52.5q0 -59 -154 -96l-225 -57h-123zM975 1741l246 157q106 68 178 68q35 0 56.5 -19.5t21.5 -52.5q0 -59 -154 -96l-225 -57h-123z" />
<glyph unicode="&#x151;" horiz-adv-x="1339" d="M98 551q0 240 166 397.5t402 157.5q238 0 406.5 -159t168.5 -396q0 -246 -169 -408.5t-406 -162.5q-236 0 -402 162.5t-166 408.5zM330 549q0 -213 91 -339t245 -126q156 0 250 127t94 338q0 205 -94 332t-250 127q-152 0 -244 -126t-92 -333zM340 1333l266 244 q74 68 137 68q35 0 56.5 -19.5t21.5 -52.5q0 -57 -104 -107l-281 -133h-96zM745 1333l267 244q74 68 137 68q35 0 56.5 -19.5t21.5 -52.5q0 -57 -105 -107l-280 -133h-97z" />
<glyph unicode="&#x152;" horiz-adv-x="2359" d="M119 776q0 338 246 569.5t606 231.5h1198l18 -360h-71q-25 160 -114 216t-302 56h-260q-35 0 -35 -35v-588q209 0 298 49.5t89 186.5h72v-559h-72q0 141 -85 190t-302 51v-462q0 -133 72.5 -183.5t267.5 -50.5q217 0 310 66.5t134 248.5h78l-31 -403h-1271 q-356 0 -601 225.5t-245 550.5zM385 770q0 -315 157.5 -499.5t428.5 -184.5q143 0 181 40t38 185v955q0 141 -43 185t-176 44q-270 0 -428 -194.5t-158 -530.5z" />
<glyph unicode="&#x153;" horiz-adv-x="2082" d="M98 551q0 240 166 397.5t402 157.5q135 0 255.5 -56.5t200.5 -156.5q158 213 449 213q197 0 306.5 -108.5t109.5 -307.5q0 -27 -11.5 -34t-52.5 -7h-674q-8 -31 -8 -92v-22q4 -205 102.5 -327t260.5 -122q164 0 311 162l63 -58q-174 -211 -432 -210q-285 0 -434 206 q-80 -98 -197.5 -152t-248.5 -54q-236 0 -402 162.5t-166 408.5zM330 549q0 -213 91 -339t245 -126q152 0 246 122t98 324v19q0 205 -94 332t-250 127q-152 0 -244 -126t-92 -333zM1264 743h376q82 0 102.5 10.5t20.5 47.5q0 94 -61.5 150.5t-163.5 56.5q-221 -1 -274 -265z " />
<glyph unicode="&#x154;" horiz-adv-x="1613" d="M92 0v78q143 4 184 46t41 187v955q0 143 -36.5 185t-167.5 48v78h643q281 0 436.5 -104.5t155.5 -290.5q0 -348 -412 -418l453 -545q92 -113 280 -141v-78h-395l-502 643q-51 68 -96 86.5t-144 18.5v-426q0 -154 50.5 -199t232.5 -45v-78h-723zM532 850h146q205 0 304 77 t99 244q0 164 -78.5 237t-246.5 73h-189q-35 0 -35 -35v-596zM563 1741l266 157q113 68 179 68q35 0 56 -19.5t21 -52.5q0 -61 -153 -96l-246 -57h-123z" />
<glyph unicode="&#x155;" horiz-adv-x="976" d="M74 934v72l358 77l29 -254h8q55 123 153.5 200t202.5 77q66 0 104 -32t38 -85q0 -49 -31 -76.5t-88 -27.5q-47 0 -94 25.5t-68 25.5q-55 0 -110.5 -70.5t-86.5 -179.5q-34 -121 -34 -291v-69q0 -61 1 -96t8 -67t16 -45.5t30.5 -24.5t45.5 -15t67 -6v-72h-545v72 q119 6 147.5 45t28.5 194v240v124q0 42 -4 92t-6 69.5t-14.5 44t-21.5 31t-32.5 14.5t-43.5 8h-58zM369 1333l266 244q74 68 137 68q35 0 56.5 -19.5t21.5 -52.5q0 -57 -105 -107l-280 -133h-96z" />
<glyph unicode="&#x156;" horiz-adv-x="1613" d="M92 0v78q143 4 184 46t41 187v955q0 143 -36.5 185t-167.5 48v78h643q281 0 436.5 -104.5t155.5 -290.5q0 -348 -412 -418l453 -545q92 -113 280 -141v-78h-395l-502 643q-51 68 -96 86.5t-144 18.5v-426q0 -154 50.5 -199t232.5 -45v-78h-723zM532 850h146q205 0 304 77 t99 244q0 164 -78.5 237t-246.5 73h-189q-35 0 -35 -35v-596zM719 -219q0 47 33.5 77.5t87.5 30.5q61 0 95 -42t34 -119q0 -136 -195 -240l-45 53q133 74 133 160q-20 -16 -53 -16q-41 0 -65.5 26.5t-24.5 69.5z" />
<glyph unicode="&#x157;" horiz-adv-x="976" d="M74 934v72l358 77l29 -254h8q55 123 153.5 200t202.5 77q66 0 104 -32t38 -85q0 -49 -31 -76.5t-88 -27.5q-47 0 -94 25.5t-68 25.5q-55 0 -110.5 -70.5t-86.5 -179.5q-34 -121 -34 -291v-69q0 -61 1 -96t8 -67t16 -45.5t30.5 -24.5t45.5 -15t67 -6v-72h-545v72 q119 6 147.5 45t28.5 194v240v124q0 42 -4 92t-6 69.5t-14.5 44t-21.5 31t-32.5 14.5t-43.5 8h-58zM233 -219q0 47 34 77.5t87 30.5q61 0 95 -42t34 -119q1 -136 -194 -240l-45 53q133 74 133 160q-20 -16 -53 -16q-41 0 -66 26.5t-25 69.5z" />
<glyph unicode="&#x158;" horiz-adv-x="1613" d="M92 0v78q143 4 184 46t41 187v955q0 143 -36.5 185t-167.5 48v78h643q281 0 436.5 -104.5t155.5 -290.5q0 -348 -412 -418l453 -545q92 -113 280 -141v-78h-395l-502 643q-51 68 -96 86.5t-144 18.5v-426q0 -154 50.5 -199t232.5 -45v-78h-723zM432 1966h92l244 -111 l244 111h92l-223 -223h-226zM532 850h146q205 0 304 77t99 244q0 164 -78.5 237t-246.5 73h-189q-35 0 -35 -35v-596z" />
<glyph unicode="&#x159;" horiz-adv-x="976" d="M74 934v72l358 77l29 -254h8q55 123 153.5 200t202.5 77q66 0 104 -32t38 -85q0 -49 -31 -76.5t-88 -27.5q-47 0 -94 25.5t-68 25.5q-55 0 -110.5 -70.5t-86.5 -179.5q-34 -121 -34 -291v-69q0 -61 1 -96t8 -67t16 -45.5t30.5 -24.5t45.5 -15t67 -6v-72h-545v72 q119 6 147.5 45t28.5 194v240v124q0 42 -4 92t-6 69.5t-14.5 44t-21.5 31t-32.5 14.5t-43.5 8h-58zM217 1597h92l244 -139l244 139h92l-244 -264h-184z" />
<glyph unicode="&#x15a;" horiz-adv-x="1320" d="M119 481h76q29 -184 154.5 -290.5t309.5 -106.5q150 0 239 72.5t89 193.5q0 104 -75.5 177t-282.5 163q-254 113 -349.5 214.5t-95.5 258.5q0 190 129 312t330 122q172 0 326 -120l53 92h47l23 -408h-76q-98 332 -367 332q-125 0 -198.5 -62.5t-73.5 -164.5 q0 -96 68.5 -165t244.5 -147q303 -137 411.5 -242.5t108.5 -267.5q0 -207 -154.5 -335.5t-402.5 -128.5q-221 0 -399 143l-57 -100h-47zM442 1741l267 157q115 68 178 68q35 0 56.5 -19.5t21.5 -52.5q0 -61 -154 -96l-246 -57h-123z" />
<glyph unicode="&#x15b;" horiz-adv-x="929" d="M131 0v352h51q80 -289 291 -289q84 0 131 41t47 121q0 57 -40 94t-197 136q-158 100 -217.5 164.5t-59.5 171.5q0 139 87 227t218 88q123 0 220 -64l40 43h39v-294h-53q-45 125 -98 178t-131 53q-70 0 -112 -37t-42 -102q0 -63 42 -105.5t159 -113.5q193 -121 260.5 -192 t67.5 -181q0 -143 -94.5 -227t-247.5 -84q-160 0 -275 92l-41 -72h-45zM303 1333l266 244q74 68 138 68q35 0 56 -19.5t21 -52.5q0 -57 -104 -107l-281 -133h-96z" />
<glyph unicode="&#x15c;" horiz-adv-x="1320" d="M119 481h76q29 -184 154.5 -290.5t309.5 -106.5q150 0 239 72.5t89 193.5q0 104 -75.5 177t-282.5 163q-254 113 -349.5 214.5t-95.5 258.5q0 190 129 312t330 122q172 0 326 -120l53 92h47l23 -408h-76q-98 332 -367 332q-125 0 -198.5 -62.5t-73.5 -164.5 q0 -96 68.5 -165t244.5 -147q303 -137 411.5 -242.5t108.5 -267.5q0 -207 -154.5 -335.5t-402.5 -128.5q-221 0 -399 143l-57 -100h-47zM311 1743l224 223h225l223 -223h-92l-244 110l-244 -110h-92z" />
<glyph unicode="&#x15d;" horiz-adv-x="929" d="M121 1333l244 264h184l244 -264h-93l-243 140l-244 -140h-92zM131 0v352h51q80 -289 291 -289q84 0 131 41t47 121q0 57 -40 94t-197 136q-158 100 -217.5 164.5t-59.5 171.5q0 139 87 227t218 88q123 0 220 -64l40 43h39v-294h-53q-45 125 -98 178t-131 53 q-70 0 -112 -37t-42 -102q0 -63 42 -105.5t159 -113.5q193 -121 260.5 -192t67.5 -181q0 -143 -94.5 -227t-247.5 -84q-160 0 -275 92l-41 -72h-45z" />
<glyph unicode="&#x15e;" horiz-adv-x="1320" d="M119 481h76q29 -184 154.5 -290.5t309.5 -106.5q150 0 239 72.5t89 193.5q0 104 -75.5 177t-282.5 163q-254 113 -349.5 214.5t-95.5 258.5q0 190 129 312t330 122q172 0 326 -120l53 92h47l23 -408h-76q-98 332 -367 332q-125 0 -198.5 -62.5t-73.5 -164.5 q0 -96 68.5 -165t244.5 -147q303 -137 411.5 -242.5t108.5 -267.5q0 -197 -143 -324.5t-375 -137.5l-47 -129q254 0 254 -177q0 -96 -69.5 -152t-188.5 -56q-104 0 -169.5 43t-65.5 112q0 74 63 74q37 0 68 -66q18 -43 37.5 -59t54.5 -16q45 0 73.5 28.5t28.5 73.5 q0 111 -162 111q-31 0 -71 -5l-6 11l90 209q-174 14 -328 139l-57 -100h-47z" />
<glyph unicode="&#x15f;" horiz-adv-x="929" d="M131 0v352h51q80 -289 291 -289q84 0 131 41t47 121q0 57 -40 94t-197 136q-158 100 -217.5 164.5t-59.5 171.5q0 139 87 227t218 88q123 0 220 -64l40 43h39v-294h-53q-45 125 -98 178t-131 53q-70 0 -112 -37t-42 -102q0 -63 42 -105.5t159 -113.5q193 -121 260.5 -192 t67.5 -181q0 -135 -84 -217t-224 -92l-47 -129q254 0 254 -177q0 -96 -69.5 -152t-188.5 -56q-104 0 -169.5 43t-65.5 112q0 74 63 74q37 0 68 -66q18 -43 37.5 -59t54.5 -16q45 0 73.5 28.5t28.5 73.5q0 111 -162 111q-31 0 -71 -5l-6 11l90 211q-117 18 -199 86l-41 -72 h-45z" />
<glyph unicode="&#x160;" horiz-adv-x="1320" d="M119 481h76q29 -184 154.5 -290.5t309.5 -106.5q150 0 239 72.5t89 193.5q0 104 -75.5 177t-282.5 163q-254 113 -349.5 214.5t-95.5 258.5q0 190 129 312t330 122q172 0 326 -120l53 92h47l23 -408h-76q-98 332 -367 332q-125 0 -198.5 -62.5t-73.5 -164.5 q0 -96 68.5 -165t244.5 -147q303 -137 411.5 -242.5t108.5 -267.5q0 -207 -154.5 -335.5t-402.5 -128.5q-221 0 -399 143l-57 -100h-47zM311 1966h92l244 -111l244 111h92l-223 -223h-225z" />
<glyph unicode="&#x161;" horiz-adv-x="929" d="M121 1597h92l244 -139l243 139h93l-244 -264h-184zM131 0v352h51q80 -289 291 -289q84 0 131 41t47 121q0 57 -40 94t-197 136q-158 100 -217.5 164.5t-59.5 171.5q0 139 87 227t218 88q123 0 220 -64l40 43h39v-294h-53q-45 125 -98 178t-131 53q-70 0 -112 -37 t-42 -102q0 -63 42 -105.5t159 -113.5q193 -121 260.5 -192t67.5 -181q0 -143 -94.5 -227t-247.5 -84q-160 0 -275 92l-41 -72h-45z" />
<glyph unicode="&#x162;" horiz-adv-x="1644" d="M43 1186v391h1546l21 -391h-84q-14 174 -91 238.5t-259 64.5q-145 0 -188.5 -13.5t-43.5 -50.5v-1095q0 -139 49 -192.5t215 -59.5v-78h-342l-53 -147q254 0 254 -177q0 -96 -69.5 -152t-188.5 -56q-104 0 -170 43t-66 112q0 74 64 74q37 0 68 -66q18 -43 37.5 -59 t54.5 -16q45 0 73.5 28.5t28.5 73.5q0 111 -162 111q-31 0 -71 -5l-7 11l99 225h-324v78q166 6 216 59t50 193v1095q0 37 -37.5 50.5t-162.5 13.5q-78 0 -123 -3t-99.5 -19.5t-84 -48.5t-51 -90t-23.5 -142h-76z" />
<glyph unicode="&#x163;" horiz-adv-x="774" d="M82 956v76q111 66 171 129.5t93 149.5h60v-258h274v-97h-274v-622q0 -145 29.5 -199.5t111.5 -54.5q94 0 158 94l51 -39q-59 -156 -275 -155h-18l-47 -127q254 0 254 -177q0 -96 -70 -152t-188 -56q-104 0 -170 43t-66 112q0 74 64 74q37 0 67 -66q18 -43 38 -59t54 -16 q45 0 74 28.5t29 73.5q0 111 -162 111q-31 0 -72 -5l-6 11l96 223q-154 49 -153 231v727h-123z" />
<glyph unicode="&#x164;" horiz-adv-x="1644" d="M43 1186v391h1546l21 -391h-84q-14 174 -91 238.5t-259 64.5q-145 0 -188.5 -13.5t-43.5 -50.5v-1095q0 -139 49 -192.5t215 -59.5v-78h-774v78q166 6 216 59t50 193v1095q0 37 -37.5 50.5t-162.5 13.5q-78 0 -123 -3t-99.5 -19.5t-84 -48.5t-51 -90t-23.5 -142h-76z M487 1966h93l243 -111l244 111h92l-223 -223h-225z" />
<glyph unicode="&#x165;" horiz-adv-x="774" d="M82 956v76q111 66 171 129.5t93 149.5h60v-258h274v-97h-274v-622q0 -145 29.5 -199.5t111.5 -54.5q94 0 158 94l51 -39q-59 -156 -275 -155q-135 0 -205.5 64.5t-70.5 184.5v727h-123zM621 1489q0 47 33.5 77.5t86.5 30.5q61 0 95 -42t34 -119q1 -136 -194 -240l-45 53 q133 74 133 160q-20 -16 -53 -16q-41 0 -65.5 26.5t-24.5 69.5z" />
<glyph unicode="&#x166;" horiz-adv-x="1648" d="M45 1186v391h1546l21 -391h-84q-14 174 -91 238.5t-259 64.5q-145 0 -188.5 -13.5t-43.5 -50.5v-469h418v-102h-418v-524q0 -139 49 -192.5t215 -59.5v-78h-774v78q166 6 216 59t50 193v524h-417v102h417v469q0 37 -37.5 50.5t-162.5 13.5q-78 0 -123 -3t-99.5 -19.5 t-84 -48.5t-51 -90t-23.5 -142h-76z" />
<glyph unicode="&#x167;" horiz-adv-x="780" d="M88 672v108h123v176h-123v76q111 66 171 129.5t93 149.5h60v-258h274v-97h-274v-176h247v-108h-247v-338q0 -145 29.5 -199.5t111.5 -54.5q94 0 158 94l51 -39q-59 -156 -275 -155q-135 0 -205.5 64.5t-70.5 184.5v443h-123z" />
<glyph unicode="&#x168;" horiz-adv-x="1763" d="M59 1499v78h699v-78q-143 0 -180 -49q-45 -59 -46 -350v-557q0 -217 96.5 -327t317.5 -110q410 0 410 449v494q0 188 -14.5 280t-53.5 129q-43 41 -178 41v78h594v-78q-135 0 -174 -55q-51 -71 -51 -395v-414q0 -332 -138.5 -493.5t-451.5 -161.5q-311 0 -456.5 132 t-145.5 447v541q0 172 -8.5 245.5t-40.5 108.5q-43 45 -179 45zM590 1733q16 104 76.5 168.5t140.5 64.5q55 0 160.5 -47t156.5 -47q39 0 59.5 19.5t37.5 66.5h67q-10 -102 -69.5 -172t-135.5 -70q-53 0 -164.5 49.5t-166.5 49.5q-39 0 -59 -17.5t-34 -64.5h-69z" />
<glyph unicode="&#x169;" d="M43 1014v71h371v-559q0 -221 52 -322.5t167 -101.5q180 0 280 236q35 84 35 219v201q0 168 -25.5 205.5t-144.5 50.5v71h371v-628q0 -227 12 -301q8 -51 40 -66.5t126 -15.5v-72l-338 -25l-22 246h-9q-152 -244 -391 -243q-88 0 -168 32.5t-120 87.5q-66 86 -66 332v326 q0 168 -25.5 207t-144.5 49zM276 1352q16 104 77 168.5t141 64.5q55 0 160.5 -47t156.5 -47q39 0 59.5 19.5t36.5 66.5h68q-10 -102 -69.5 -172t-135.5 -70q-53 0 -164.5 49.5t-167.5 49.5q-39 0 -58.5 -17.5t-33.5 -64.5h-70z" />
<glyph unicode="&#x16a;" horiz-adv-x="1763" d="M59 1499v78h699v-78q-143 0 -180 -49q-45 -59 -46 -350v-557q0 -217 96.5 -327t317.5 -110q410 0 410 449v494q0 188 -14.5 280t-53.5 129q-43 41 -178 41v78h594v-78q-135 0 -174 -55q-51 -71 -51 -395v-414q0 -332 -138.5 -493.5t-451.5 -161.5q-311 0 -456.5 132 t-145.5 447v541q0 172 -8.5 245.5t-40.5 108.5q-43 45 -179 45zM664 1802v103h553v-103h-553z" />
<glyph unicode="&#x16b;" d="M43 1014v71h371v-559q0 -221 52 -322.5t167 -101.5q180 0 280 236q35 84 35 219v201q0 168 -25.5 205.5t-144.5 50.5v71h371v-628q0 -227 12 -301q8 -51 40 -66.5t126 -15.5v-72l-338 -25l-22 246h-9q-152 -244 -391 -243q-88 0 -168 32.5t-120 87.5q-66 86 -66 332v326 q0 168 -25.5 207t-144.5 49zM365 1438v102h553v-102h-553z" />
<glyph unicode="&#x16c;" horiz-adv-x="1763" d="M59 1499v78h699v-78q-143 0 -180 -49q-45 -59 -46 -350v-557q0 -217 96.5 -327t317.5 -110q410 0 410 449v494q0 188 -14.5 280t-53.5 129q-43 41 -178 41v78h594v-78q-135 0 -174 -55q-51 -71 -51 -395v-414q0 -332 -138.5 -493.5t-451.5 -161.5q-311 0 -456.5 132 t-145.5 447v541q0 172 -8.5 245.5t-40.5 108.5q-43 45 -179 45zM657 1966h74q16 -43 72.5 -68.5t134.5 -25.5t135.5 25.5t73.5 68.5h76q-8 -102 -88 -168.5t-195 -66.5q-119 0 -198.5 66.5t-84.5 168.5z" />
<glyph unicode="&#x16d;" d="M43 1014v71h371v-559q0 -221 52 -322.5t167 -101.5q180 0 280 236q35 84 35 219v201q0 168 -25.5 205.5t-144.5 50.5v71h371v-628q0 -227 12 -301q8 -51 40 -66.5t126 -15.5v-72l-338 -25l-22 246h-9q-152 -244 -391 -243q-88 0 -168 32.5t-120 87.5q-66 86 -66 332v326 q0 168 -25.5 207t-144.5 49zM358 1589h74q18 -57 74.5 -91t132.5 -34q78 0 135.5 34t73.5 91h76q-8 -117 -88 -191.5t-195 -74.5q-119 0 -199 76t-84 190z" />
<glyph unicode="&#x16e;" horiz-adv-x="1763" d="M59 1499v78h699v-78q-143 0 -180 -49q-45 -59 -46 -350v-557q0 -217 96.5 -327t317.5 -110q410 0 410 449v494q0 188 -14.5 280t-53.5 129q-43 41 -178 41v78h594v-78q-135 0 -174 -55q-51 -71 -51 -395v-414q0 -332 -138.5 -493.5t-451.5 -161.5q-311 0 -456.5 132 t-145.5 447v541q0 172 -8.5 245.5t-40.5 108.5q-43 45 -179 45zM807 1833q0 57 38 95t95 38t95 -38t38 -95t-38 -95t-95 -38t-95 38t-38 95zM870 1833q0 -31 19.5 -50.5t50.5 -19.5q29 0 48.5 19.5t19.5 50.5q0 29 -19.5 48.5t-48.5 19.5q-31 0 -50.5 -19.5t-19.5 -48.5z " />
<glyph unicode="&#x16f;" d="M43 1014v71h371v-559q0 -221 52 -322.5t167 -101.5q180 0 280 236q35 84 35 219v201q0 168 -25.5 205.5t-144.5 50.5v71h371v-628q0 -227 12 -301q8 -51 40 -66.5t126 -15.5v-72l-338 -25l-22 246h-9q-152 -244 -391 -243q-88 0 -168 32.5t-120 87.5q-66 86 -66 332v326 q0 168 -25.5 207t-144.5 49zM483 1520q0 78 50.5 129t125.5 51q78 0 129.5 -51.5t51.5 -128.5q0 -76 -51.5 -126.5t-129.5 -50.5q-76 0 -126 50.5t-50 126.5zM563 1520q0 -41 27.5 -69t68.5 -28q39 0 66 28t27 69t-26 66.5t-67 25.5t-68.5 -26.5t-27.5 -65.5z" />
<glyph unicode="&#x170;" horiz-adv-x="1763" d="M59 1499v78h699v-78q-143 0 -180 -49q-45 -59 -46 -350v-557q0 -217 96.5 -327t317.5 -110q410 0 410 449v494q0 188 -14.5 280t-53.5 129q-43 41 -178 41v78h594v-78q-135 0 -174 -55q-51 -71 -51 -395v-414q0 -332 -138.5 -493.5t-451.5 -161.5q-311 0 -456.5 132 t-145.5 447v541q0 172 -8.5 245.5t-40.5 108.5q-43 45 -179 45zM561 1741l246 157q106 68 178 68q35 0 56.5 -19.5t21.5 -52.5q0 -59 -154 -96l-225 -57h-123zM944 1741l246 157q106 68 178 68q35 0 56.5 -19.5t21.5 -52.5q0 -59 -154 -96l-225 -57h-123z" />
<glyph unicode="&#x171;" d="M43 1014v71h371v-559q0 -221 52 -322.5t167 -101.5q180 0 280 236q35 84 35 219v201q0 168 -25.5 205.5t-144.5 50.5v71h371v-628q0 -227 12 -301q8 -51 40 -66.5t126 -15.5v-72l-338 -25l-22 246h-9q-152 -244 -391 -243q-88 0 -168 32.5t-120 87.5q-66 86 -66 332v326 q0 168 -25.5 207t-144.5 49zM287 1333l266 244q74 68 137 68q35 0 56.5 -19.5t21.5 -52.5q0 -57 -104 -107l-281 -133h-96zM692 1333l266 244q74 68 138 68q35 0 56.5 -19.5t21.5 -52.5q0 -57 -105 -107l-281 -133h-96z" />
<glyph unicode="&#x172;" horiz-adv-x="1763" d="M59 1499v78h699v-78q-143 0 -180 -49q-45 -59 -46 -350v-557q0 -217 96.5 -327t317.5 -110q410 0 410 449v494q0 188 -14.5 280t-53.5 129q-43 41 -178 41v78h594v-78q-135 0 -174 -55q-51 -72 -51 -395v-414q0 -313 -121 -473t-395 -178q-86 -53 -139.5 -120t-53.5 -122 q0 -43 28.5 -70.5t75.5 -27.5q89 -1 195 108l59 -63q-129 -168 -321 -168q-94 0 -146.5 46t-52.5 128q0 168 215 287q-276 10 -406 144t-130 433v541q0 172 -8.5 245.5t-40.5 108.5q-43 45 -179 45z" />
<glyph unicode="&#x173;" d="M43 1014v71h371v-559q0 -221 52 -322.5t167 -101.5q180 0 280 236q35 84 35 219v201q0 168 -25.5 205.5t-144.5 50.5v71h371v-628q0 -227 12 -301q8 -51 40 -66.5t126 -15.5v-72l-184 -12q-92 -53 -147.5 -122t-55.5 -126q0 -43 28.5 -70.5t75.5 -27.5q89 -1 195 108 l59 -63q-129 -168 -321 -168q-94 0 -146.5 46t-52.5 128q0 166 211 285l-22 243h-9q-152 -244 -391 -243q-88 0 -168 32.5t-120 87.5q-66 86 -66 332v326q0 168 -25.5 207t-144.5 49z" />
<glyph unicode="&#x174;" horiz-adv-x="2408" d="M-23 1497v80h668v-80q-106 0 -147 -19.5t-41 -70.5q0 -45 32 -143l312 -949l252 709q16 49 52 141t48 131q-53 115 -98 158t-105 43v80h627v-80q-115 0 -150.5 -17.5t-35.5 -64.5q0 -41 43 -186l274 -920l320 889q53 145 53 209q0 51 -34 71.5t-120 20.5v78h498v-78 q-92 0 -141.5 -38t-81.5 -128l-514 -1353h-72l-393 1165l-437 -1165h-71l-426 1175q-76 207 -133.5 274.5t-178.5 67.5zM924 1743l223 223h225l223 -223h-92l-243 110l-244 -110h-92z" />
<glyph unicode="&#x175;" horiz-adv-x="1744" d="M25 1014v71h542v-71q-80 0 -112.5 -18.5t-32.5 -63.5q0 -33 22 -117l140 -489h8l301 759h63l273 -759h8l123 331q84 227 84 283q0 45 -27.5 59.5t-109.5 14.5v71h409v-71q-59 0 -94 -45t-100 -205l-318 -784h-76l-249 755h-9l-301 -755h-75l-267 851q-35 113 -73.5 148 t-128.5 35zM588 1333l243 264h185l244 -264h-93l-243 140l-244 -140h-92z" />
<glyph unicode="&#x176;" horiz-adv-x="1501" d="M-10 1499v78h645v-78q-102 0 -144 -15.5t-42 -53.5q0 -43 47 -123l317 -543h8l232 389q121 205 121 277q0 39 -30 54t-104 15v78h469v-78q-86 0 -148.5 -61.5t-186.5 -274.5l-316 -532v-244q0 -201 38 -255t185 -54v-78h-663v78q145 0 185 53t40 242v250l-410 700 q-63 106 -111 141t-132 35zM500 1743l223 223h225l223 -223h-92l-243 110l-244 -110h-92z" />
<glyph unicode="&#x177;" horiz-adv-x="1308" d="M8 1014v71h543v-71q-137 0 -137 -68q0 -61 57 -201l225 -544h11l186 461q86 209 86 262t-29.5 71.5t-113.5 18.5v71h450v-71q-78 0 -121 -56.5t-143 -285.5l-447 -994q-94 -211 -292 -210q-129 0 -129 96q0 51 35.5 75.5t132.5 38.5q84 14 128 46t82 110l72 143l-393 854 q-53 115 -87 146t-116 37zM379 1333l244 264h184l244 -264h-93l-243 140l-244 -140h-92z" />
<glyph unicode="&#x178;" horiz-adv-x="1501" d="M-10 1499v78h645v-78q-102 0 -144 -15.5t-42 -53.5q0 -43 47 -123l317 -543h8l232 389q121 205 121 277q0 39 -30 54t-104 15v78h469v-78q-86 0 -148.5 -61.5t-186.5 -274.5l-316 -532v-244q0 -201 38 -255t185 -54v-78h-663v78q145 0 185 53t40 242v250l-410 700 q-63 106 -111 141t-132 35zM547 1864q0 43 29.5 72.5t72.5 29.5q45 0 75 -29.5t30 -72.5q0 -45 -30 -75t-75 -30q-43 0 -72.5 30t-29.5 75zM920 1864q0 43 29.5 72.5t74.5 29.5q43 0 72.5 -29.5t29.5 -72.5q0 -45 -29.5 -75t-72.5 -30q-45 0 -74.5 30t-29.5 75z" />
<glyph unicode="&#x179;" horiz-adv-x="1576" d="M33 0v8l1077 1483h-561q-145 0 -218 -65.5t-100 -225.5h-75l30 377h1248v-8l-1067 -1475h634q209 0 281 73t109 314h88l-25 -481h-1421zM496 1894q0 33 21.5 52.5t55.5 19.5q66 0 179 -68l266 -157h-123l-246 57q-154 35 -153 96z" />
<glyph unicode="&#x17a;" horiz-adv-x="1140" d="M37 0v8l708 991h-227q-178 0 -238.5 -35.5t-80.5 -160.5h-66l33 282h881v-8l-699 -983h240q213 0 287.5 41t111.5 182h68l-35 -317h-983zM403 1333l267 244q74 68 137 68q35 0 56.5 -19.5t21.5 -52.5q0 -57 -105 -107l-280 -133h-97z" />
<glyph unicode="&#x17b;" horiz-adv-x="1576" d="M33 0v8l1077 1483h-561q-145 0 -218 -65.5t-100 -225.5h-75l30 377h1248v-8l-1067 -1475h634q209 0 281 73t109 314h88l-25 -481h-1421zM694 1851q0 47 32 80t75 33q47 0 79.5 -33t32.5 -80q0 -43 -32.5 -74.5t-79.5 -31.5q-43 0 -75 31.5t-32 74.5z" />
<glyph unicode="&#x17c;" horiz-adv-x="1140" d="M37 0v8l708 991h-227q-178 0 -238.5 -35.5t-80.5 -160.5h-66l33 282h881v-8l-699 -983h240q213 0 287.5 41t111.5 182h68l-35 -317h-983zM461 1521.5q0 53.5 37 90.5t90 37t90 -37t37 -90.5t-37 -90t-90 -36.5t-90 36.5t-37 90z" />
<glyph unicode="&#x17d;" horiz-adv-x="1576" d="M33 0v8l1077 1483h-561q-145 0 -218 -65.5t-100 -225.5h-75l30 377h1248v-8l-1067 -1475h634q209 0 281 73t109 314h88l-25 -481h-1421zM465 1966h92l244 -111l243 111h93l-224 -223h-225z" />
<glyph unicode="&#x17e;" horiz-adv-x="1140" d="M37 0v8l708 991h-227q-178 0 -238.5 -35.5t-80.5 -160.5h-66l33 282h881v-8l-699 -983h240q213 0 287.5 41t111.5 182h68l-35 -317h-983zM252 1597h92l244 -139l243 139h93l-244 -264h-184z" />
<glyph unicode="&#x18f;" horiz-adv-x="1644" d="M119 578q0 39 15.5 49t76.5 10h1038q10 41 11 131q0 324 -160 519.5t-430 195.5q-143 0 -246.5 -53.5t-220.5 -188.5l-82 64q242 295 631 294q346 0 559 -219t213 -573q0 -362 -226.5 -594.5t-580.5 -232.5q-285 0 -441.5 155.5t-156.5 442.5zM410 418q0 -145 95 -232.5 t259 -87.5q379 1 465 404h-643q-119 0 -147.5 -14.5t-28.5 -69.5z" />
<glyph unicode="&#x192;" horiz-adv-x="1366" d="M-190 -354q0 47 25.5 73.5t70.5 26.5q70 0 108 -70q37 -66 60.5 -87t58.5 -21q84 0 140.5 137t105.5 463l102 690h-215l29 98h205l22 119q47 246 185.5 384t339.5 138q117 0 194.5 -40.5t77.5 -102.5q0 -39 -26.5 -65.5t-63.5 -26.5q-43 0 -125 68q-86 70 -139 69 q-174 0 -248 -428l-21 -115h254l-26 -98h-238l-63 -395q-72 -451 -168 -666q-150 -330 -400 -329q-106 0 -175.5 50t-69.5 128z" />
<glyph unicode="&#x1c4;" horiz-adv-x="3387" d="M78 0v78q158 4 202 46t44 187v955q0 143 -37 185t-168 48v78h719q371 0 611.5 -230.5t240.5 -584.5q0 -336 -226.5 -549t-584.5 -213h-801zM539 334q0 -233 305 -234q281 0 430 168t149 490q0 338 -157.5 528.5t-431.5 190.5h-261q-35 0 -34 -35v-1108zM1843 0v8 l1077 1483h-561q-145 0 -218 -65.5t-99 -225.5h-76l31 377h1247v-8l-1067 -1475h635q209 0 280.5 73t108.5 314h88l-24 -481h-1422zM2275 1966h92l244 -111l244 111h92l-223 -223h-225z" />
<glyph unicode="&#x1c5;" horiz-adv-x="2951" d="M78 0v78q158 4 202 46t44 187v955q0 143 -37 185t-168 48v78h719q371 0 611.5 -230.5t240.5 -584.5q0 -336 -226.5 -549t-584.5 -213h-801zM539 334q0 -233 305 -234q281 0 430 168t149 490q0 338 -157.5 528.5t-431.5 190.5h-261q-35 0 -34 -35v-1108zM1847 0v8l709 991 h-227q-178 0 -238.5 -35.5t-81.5 -160.5h-65l32 282h881v-8l-698 -983h239q213 0 288 41t112 182h67l-35 -317h-983zM2062 1597h92l244 -139l244 139h92l-244 -264h-184z" />
<glyph unicode="&#x1c6;" horiz-adv-x="2523" d="M98 545q0 244 151.5 402.5t381.5 158.5q186 0 323 -137v209q0 246 -12 301q-10 45 -58 63.5t-153 18.5v61l420 78v-1182q0 -303 14 -362q12 -51 43 -67.5t123 -16.5v-70l-340 -22v192h-8q-74 -102 -157 -147t-195 -45q-231 0 -382 158.5t-151 406.5zM330 555 q0 -221 77.5 -349t223.5 -128q76 0 151.5 34.5t114.5 94.5q53 81 53 282v136q0 109 -11 163t-44 95q-45 59 -117.5 92t-146.5 33q-143 0 -222 -121t-79 -332zM1419 0v8l709 991h-227q-178 0 -238.5 -35.5t-81.5 -160.5h-65l32 282h881v-8l-698 -983h239q213 0 288 41 t112 182h67l-35 -317h-983zM1634 1597h92l244 -139l244 139h92l-244 -264h-184z" />
<glyph unicode="&#x1c7;" horiz-adv-x="2277" d="M92 0v78q143 4 184 46t41 187v955q0 143 -36.5 185t-167.5 48v78h622v-78q-131 -4 -167 -48t-36 -200v-882q0 -170 74 -223.5t291 -53.5q238 0 332 61.5t139 249.5h78l-31 -403h-1323zM1245 -334q0 109 105 109q39 0 62.5 -19.5t53.5 -77.5q35 -66 61.5 -89t65.5 -23 q82 0 128 91t46 255v1354q0 143 -36.5 185t-167.5 48v78h622v-78q-131 -4 -167 -48t-36 -200v-1255q0 -256 -109.5 -392t-316.5 -136q-139 0 -225 54t-86 144z" />
<glyph unicode="&#x1c8;" horiz-adv-x="2101" d="M92 0v78q143 4 184 46t41 187v955q0 143 -36.5 185t-167.5 48v78h622v-78q-131 -4 -167 -48t-36 -200v-882q0 -170 74 -223.5t291 -53.5q238 0 332 61.5t139 249.5h78l-31 -403h-1323zM1198 -342q0 96 105 96q37 0 56 -17.5t50 -78.5q29 -61 54.5 -81.5t74.5 -20.5 q98 0 137 67.5t39 237.5v712q0 250 -14 301q-10 47 -48 64.5t-139 17.5v72l402 78v-1110q0 -256 -108.5 -392t-311.5 -136q-131 0 -214 53t-83 137zM1683 1521.5q0 53.5 37 90.5t90.5 37t90 -37t36.5 -90.5t-36.5 -90t-90 -36.5t-90.5 36.5t-37 90z" />
<glyph unicode="&#x1c9;" horiz-adv-x="1288" d="M41 1554v70l387 76v-1381q0 -156 32 -199.5t150 -47.5v-72h-565v72q121 6 157 49t36 184v883q0 233 -13 287q-10 47 -48 63t-136 16zM385 -342q0 96 104 96q37 0 56.5 -17.5t50.5 -78.5q29 -61 54.5 -81.5t74.5 -20.5q98 0 137 67.5t39 237.5v712q0 250 -14 301 q-10 47 -48 64.5t-139 17.5v72l402 78v-1110q0 -256 -108.5 -392t-311.5 -136q-131 0 -214 53t-83 137zM870 1521.5q0 53.5 37 90.5t90.5 37t90 -37t36.5 -90.5t-36.5 -90t-90 -36.5t-90.5 36.5t-37 90z" />
<glyph unicode="&#x1ca;" horiz-adv-x="2654" d="M92 0v78q145 4 185 55t40 240v831q0 176 -37.5 232.5t-166.5 62.5v78h405l895 -1194h8v807q0 201 -34.5 253t-167.5 56v78h550v-78q-145 -4 -185 -55t-40 -240v-1224h-123l-972 1282h-9v-875q0 -201 35 -253t168 -56v-78h-551zM1622 -334q0 109 104 109q39 0 62.5 -19.5 t54.5 -77.5q35 -66 61.5 -89t65.5 -23q82 0 128 91t46 255v1354q0 143 -36.5 185t-168.5 48v78h623v-78q-131 -4 -167 -48t-36 -200v-1255q0 -256 -109.5 -392t-316.5 -136q-139 0 -225 54t-86 144z" />
<glyph unicode="&#x1cb;" horiz-adv-x="2447" d="M92 0v78q145 4 185 55t40 240v831q0 176 -37.5 232.5t-166.5 62.5v78h405l895 -1194h8v807q0 201 -34.5 253t-167.5 56v78h550v-78q-145 -4 -185 -55t-40 -240v-1224h-123l-972 1282h-9v-875q0 -201 35 -253t168 -56v-78h-551zM1544 -342q0 96 105 96q37 0 56 -17.5 t50 -78.5q29 -61 54.5 -81.5t74.5 -20.5q98 0 137 67.5t39 237.5v712q0 250 -14 301q-10 47 -48 64.5t-138 17.5v72l401 78v-1110q0 -256 -108.5 -392t-311.5 -136q-131 0 -214 53t-83 137zM2030 1521.5q0 53.5 36.5 90.5t90 37t90.5 -37t37 -90.5t-37 -90t-90.5 -36.5 t-90 36.5t-36.5 90z" />
<glyph unicode="&#x1cc;" horiz-adv-x="2033" d="M72 963v65l327 78l25 -203h8q164 203 410 203q92 0 171 -31t120 -84q63 -86 63 -327v-342q0 -166 26.5 -205t139.5 -47v-70h-531v70q115 6 142.5 45t27.5 192v271q0 231 -52 324t-181 93q-90 0 -168 -48t-121 -132q-23 -43 -30 -84t-7 -135v-274q0 -166 26 -205t144 -47 v-70h-536v70q115 8 143.5 47t28.5 190v273q0 244 -12 297q-12 55 -43 70.5t-121 15.5zM1130 -342q0 96 105 96q37 0 56.5 -17.5t49.5 -78.5q29 -61 54.5 -81.5t74.5 -20.5q98 0 137.5 67.5t39.5 237.5v712q0 250 -15 301q-10 47 -48 64.5t-138 17.5v72l401 78v-1110 q0 -256 -108.5 -392t-311.5 -136q-131 0 -214 53t-83 137zM1616 1521.5q0 53.5 37 90.5t90 37t90 -37t37 -90.5t-37 -90t-90 -36.5t-90 36.5t-37 90z" />
<glyph unicode="&#x1ea;" horiz-adv-x="1937" d="M117 776q0 346 245.5 583.5t606 237.5t606.5 -237.5t246 -583.5q0 -322 -232.5 -550t-572.5 -244q-86 -51 -138.5 -118t-52.5 -122q0 -43 29 -70.5t76 -27.5q88 -1 194 108l60 -63q-129 -168 -322 -168q-94 0 -146 46t-52 128q0 170 221 289q-328 29 -548 255t-220 537z M383 770q0 -311 158 -494.5t428 -183.5q268 0 426.5 183.5t158.5 494.5q0 330 -157.5 522.5t-428 192.5t-428 -192.5t-157.5 -522.5z" />
<glyph unicode="&#x1eb;" horiz-adv-x="1337" d="M98 551q0 240 166 397.5t402 157.5q238 0 406.5 -159t168.5 -396q0 -223 -142.5 -380t-353.5 -185q-88 -51 -142 -119t-54 -125q0 -43 28.5 -70.5t75.5 -27.5q89 -1 195 108l59 -63q-129 -168 -321 -168q-94 0 -146.5 46t-52.5 128q0 170 219 289q-215 20 -361.5 177.5 t-146.5 389.5zM330 549q0 -213 91 -339t245 -126q156 0 250 127t94 338q0 205 -94 332t-250 127q-152 0 -244 -126t-92 -333z" />
<glyph unicode="&#x1f1;" horiz-adv-x="3362" d="M78 0v78q158 4 202 46t44 187v955q0 143 -37 185t-168 48v78h719q371 0 611.5 -230.5t240.5 -584.5q0 -336 -226.5 -549t-584.5 -213h-801zM539 334q0 -233 305 -234q281 0 430 168t149 490q0 338 -157.5 528.5t-431.5 190.5h-261q-35 0 -34 -35v-1108zM1819 0v8 l1077 1483h-561q-145 0 -218 -65.5t-100 -225.5h-75l30 377h1247v-8l-1067 -1475h635q209 0 281 73t108 314h89l-25 -481h-1421z" />
<glyph unicode="&#x1f2;" horiz-adv-x="2934" d="M78 0v78q158 4 202 46t44 187v955q0 143 -37 185t-168 48v78h719q371 0 611.5 -230.5t240.5 -584.5q0 -336 -226.5 -549t-584.5 -213h-801zM539 334q0 -233 305 -234q281 0 430 168t149 490q0 338 -157.5 528.5t-431.5 190.5h-261q-35 0 -34 -35v-1108zM1831 0v8l709 991 h-228q-178 0 -238.5 -35.5t-80.5 -160.5h-66l33 282h881v-8l-699 -983h240q213 0 287.5 41t111.5 182h68l-35 -317h-983z" />
<glyph unicode="&#x1f3;" horiz-adv-x="2523" d="M98 545q0 244 151.5 402.5t381.5 158.5q186 0 323 -137v209q0 246 -12 301q-10 45 -58 63.5t-153 18.5v61l420 78v-1182q0 -303 14 -362q12 -51 43 -67.5t123 -16.5v-70l-340 -22v192h-8q-74 -102 -157 -147t-195 -45q-231 0 -382 158.5t-151 406.5zM330 555 q0 -221 77.5 -349t223.5 -128q76 0 151.5 34.5t114.5 94.5q53 81 53 282v136q0 109 -11 163t-44 95q-45 59 -117.5 92t-146.5 33q-143 0 -222 -121t-79 -332zM1419 0v8l709 991h-227q-178 0 -238.5 -35.5t-81.5 -160.5h-65l32 282h881v-8l-698 -983h239q213 0 288 41 t112 182h67l-35 -317h-983z" />
<glyph unicode="&#x1fa;" horiz-adv-x="1587" d="M-10 0v78q84 0 135 39t88 127l532 1231h89l520 -1184q51 -117 108.5 -164t147.5 -47v-80h-668v80q102 0 146.5 23.5t44.5 76.5q-1 59 -48 170l-94 221h-534l-86 -217q-45 -115 -45 -172q0 -55 38.5 -79.5t122.5 -24.5v-78h-497zM496 1640l122 115q-4 29 -4 43 q0 74 46.5 121t115.5 47q51 0 92 -27q47 47 97 48q59 0 59 -53.5t-88 -102.5q4 -20 4 -33q0 -68 -47 -115t-117 -47q-59 0 -104 35l-66 -31h-110zM504 674h444l-213 543zM690 1798q0 -37 23.5 -60.5t62.5 -23.5t62.5 23.5t23.5 60.5q0 39 -23.5 62.5t-62.5 23.5t-62.5 -23.5 t-23.5 -62.5z" />
<glyph unicode="&#x1fb;" horiz-adv-x="1134" d="M88 223q0 102 76 183t256 159l295 129v84q0 250 -213 250q-70 0 -99.5 -25.5t-56.5 -107.5q-23 -57 -44 -77.5t-62 -20.5q-102 0 -103 102q0 98 104.5 152.5t297.5 54.5q207 0 291.5 -72.5t84.5 -247.5v-458q0 -233 93 -234q74 0 100 45l29 -49q-25 -47 -90.5 -78.5 t-137.5 -31.5q-178 0 -178 219h-10q-53 -100 -148.5 -158.5t-207.5 -58.5q-127 0 -202 65.5t-75 175.5zM256 1354l123 114q-4 29 -4 43q0 74 46 121t116 47q53 0 92 -26q47 47 96 47q59 0 59 -53.5t-88 -102.5q4 -20 4 -33q0 -68 -47 -114.5t-116 -46.5q-59 0 -105 34 l-65 -30h-111zM295 258q0 -68 45 -111t119 -43q106 0 181 100.5t75 239.5v162q-227 -86 -323.5 -170t-96.5 -178zM451 1511q0 -37 23.5 -60.5t62 -23.5t62.5 24t24 60q0 39 -24 62.5t-62.5 23.5t-62 -23.5t-23.5 -62.5z" />
<glyph unicode="&#x1fc;" horiz-adv-x="2152" d="M-23 0v78q92 10 137.5 44t94.5 122q217 387 614 1157q14 33 15 47q0 51 -170 51v78h1302v-360h-72q-25 162 -109.5 217t-295.5 55h-260q-35 0 -35 -35v-588q205 0 289 48.5t98 187.5h72v-559h-72q-20 143 -99 191t-288 50v-462q0 -133 72.5 -183.5t267.5 -50.5 q217 0 310.5 66.5t133.5 248.5h78l-30 -403h-1272v78q143 4 184 46t41 187v271h-473l-8 -19q-16 -31 -49 -92t-50.5 -95t-39 -79t-30.5 -79t-9 -58q0 -20 7 -34.5t15 -22t28.5 -13.5t30 -7t36 -3t32.5 -2v-78h-496zM559 674h424v803zM967 1741l266 157q115 68 178 68 q35 0 56.5 -19.5t21.5 -52.5q0 -61 -154 -96l-245 -57h-123z" />
<glyph unicode="&#x1fd;" horiz-adv-x="1744" d="M88 223q0 219 332 342l295 109v104q0 129 -52.5 189.5t-164.5 60.5q-63 0 -92 -26.5t-60 -106.5q-20 -57 -42.5 -77.5t-61.5 -20.5q-104 0 -105 102q0 98 105.5 152.5t298.5 54.5q266 0 340 -141q141 141 360 141q193 0 301.5 -109.5t108.5 -302.5q0 -45 -64 -45h-633 q-8 -25 -8 -90q0 -219 88 -346t240 -127q158 0 305 162l63 -58q-180 -211 -425 -210q-150 0 -263.5 68.5t-175.5 193.5q-57 -125 -162.5 -192.5t-242.5 -67.5q-131 0 -208 64.5t-77 176.5zM295 258q0 -68 46 -111t118 -43q104 0 180 88t76 211v183q-221 -82 -320.5 -159 t-99.5 -169zM698 1333l267 244q74 68 137 68q35 0 56.5 -19.5t21.5 -52.5q0 -57 -105 -107l-280 -133h-97zM969 743h336q82 0 102 9.5t20 46.5q0 94 -60 151.5t-159 57.5q-192 -1 -239 -265z" />
<glyph unicode="&#x1fe;" horiz-adv-x="1931" d="M117 776q0 346 246 583.5t606 237.5q248 0 454 -122l179 225h141l-227 -289q143 -115 224 -279.5t81 -355.5q0 -334 -248 -565t-604 -231q-264 0 -480 135l-221 -281h-139l272 344q-135 111 -209.5 266.5t-74.5 331.5zM383 770q0 -281 125 -455l823 1043 q-145 127 -362 127q-270 0 -428 -192.5t-158 -522.5zM582 231q151 -139 387 -139q268 0 426.5 183.5t158.5 494.5q0 315 -145 506zM770 1741l266 157q115 68 178 68q35 0 56.5 -19.5t21.5 -52.5q0 -61 -153 -96l-246 -57h-123z" />
<glyph unicode="&#x1ff;" horiz-adv-x="1333" d="M82 -125l197 250q-182 168 -183 426q0 240 166 397.5t402 157.5q174 0 317 -92l158 198h141l-211 -266q170 -160 170 -395q0 -246 -169 -408.5t-406 -162.5q-160 0 -297 79l-146 -184h-139zM328 549q0 -172 59 -287l506 641q-92 105 -229 105q-152 0 -244 -126t-92 -333z M453 168q84 -84 211 -84q156 0 250 127t94 338q0 143 -52 256zM559 1333l266 244q74 68 138 68q35 0 56 -19.5t21 -52.5q0 -57 -104 -107l-281 -133h-96z" />
<glyph unicode="&#x218;" horiz-adv-x="1320" d="M119 481h76q29 -184 154.5 -290.5t309.5 -106.5q150 0 239 72.5t89 193.5q0 104 -75.5 177t-282.5 163q-254 113 -349.5 214.5t-95.5 258.5q0 190 129 312t330 122q172 0 326 -120l53 92h47l23 -408h-76q-98 332 -367 332q-125 0 -198.5 -62.5t-73.5 -164.5 q0 -96 68.5 -165t244.5 -147q303 -137 411.5 -242.5t108.5 -267.5q0 -207 -154.5 -335.5t-402.5 -128.5q-221 0 -399 143l-57 -100h-47zM526 -219q0 47 34 77.5t87 30.5q61 0 95 -42t34 -119q1 -136 -194 -240l-45 53q133 74 133 160q-20 -16 -54 -16q-41 0 -65.5 26.5 t-24.5 69.5z" />
<glyph unicode="&#x219;" horiz-adv-x="929" d="M131 0v352h51q80 -289 291 -289q84 0 131 41t47 121q0 57 -40 94t-197 136q-158 100 -217.5 164.5t-59.5 171.5q0 139 87 227t218 88q123 0 220 -64l40 43h39v-294h-53q-45 125 -98 178t-131 53q-70 0 -112 -37t-42 -102q0 -63 42 -105.5t159 -113.5q193 -121 260.5 -192 t67.5 -181q0 -143 -94.5 -227t-247.5 -84q-160 0 -275 92l-41 -72h-45zM367 -217q0 47 33.5 77.5t86.5 30.5q61 0 95 -42t34 -119q1 -136 -194 -240l-45 53q133 74 133 160q-20 -16 -53 -16q-41 0 -65.5 26.5t-24.5 69.5z" />
<glyph unicode="&#x21a;" horiz-adv-x="1644" d="M43 1186v391h1546l21 -391h-84q-14 174 -91 238.5t-259 64.5q-145 0 -188.5 -13.5t-43.5 -50.5v-1095q0 -139 49 -192.5t215 -59.5v-78h-774v78q166 6 216 59t50 193v1095q0 37 -37.5 50.5t-162.5 13.5q-78 0 -123 -3t-99.5 -19.5t-84 -48.5t-51 -90t-23.5 -142h-76z M698 -219q0 47 34 77.5t87 30.5q61 0 95 -42t34 -119q1 -136 -194 -240l-45 53q133 74 133 160q-20 -16 -54 -16q-41 0 -65.5 26.5t-24.5 69.5z" />
<glyph unicode="&#x21b;" horiz-adv-x="774" d="M82 956v76q111 66 171 129.5t93 149.5h60v-258h274v-97h-274v-622q0 -145 29.5 -199.5t111.5 -54.5q94 0 158 94l51 -39q-59 -156 -275 -155q-135 0 -205.5 64.5t-70.5 184.5v727h-123zM356 -219q0 47 34 77.5t87 30.5q61 0 95 -42t34 -119q1 -136 -194 -240l-45 53 q133 74 133 160q-20 -16 -54 -16q-41 0 -65.5 26.5t-24.5 69.5z" />
<glyph unicode="&#x237;" horiz-adv-x="622" d="M-281 -342q0 96 105 96q37 0 56.5 -17.5t49.5 -78.5q29 -61 54.5 -81.5t74.5 -20.5q98 0 137.5 67.5t39.5 237.5v712q0 250 -15 301q-10 47 -48 64.5t-138 17.5v72l401 78v-1110q0 -256 -108.5 -392t-311.5 -136q-131 0 -214 53t-83 137z" />
<glyph unicode="&#x259;" horiz-adv-x="1175" d="M98 395q0 27 11.5 34t52.5 7h674q8 31 8 92q0 213 -99.5 342t-263.5 129.5t-311 -161.5l-64 57q174 211 433 211q240 0 388 -152.5t148 -398.5q0 -252 -156.5 -413.5t-404.5 -161.5q-197 0 -306.5 108.5t-109.5 306.5zM322 285q0 -94 61 -150.5t164 -56.5q221 0 274 264 h-377q-82 0 -102 -10t-20 -47z" />
<glyph unicode="&#x2bc;" horiz-adv-x="397" d="M102 1599q0 43 28 72t69 29t68.5 -29t27.5 -74q0 -20 -11.5 -79.5t-29 -141.5t-25.5 -125h-59q-8 43 -25.5 125t-30 142.5t-12.5 80.5z" />
<glyph unicode="&#x2c6;" horiz-adv-x="753" d="M41 1333l244 264h184l244 -264h-92l-244 140l-244 -140h-92z" />
<glyph unicode="&#x2c7;" horiz-adv-x="753" d="M41 1597h92l244 -139l244 139h92l-244 -264h-184z" />
<glyph unicode="&#x2d8;" horiz-adv-x="647" d="M41 1589h74q18 -57 74.5 -91t132.5 -34q78 0 135 34t73 91h76q-8 -117 -88 -191.5t-194 -74.5q-119 0 -199 76t-84 190z" />
<glyph unicode="&#x2d9;" horiz-adv-x="335" d="M41 1521.5q0 53.5 37 90.5t90 37t90 -37t37 -90.5t-37 -90t-90 -36.5t-90 36.5t-37 90z" />
<glyph unicode="&#x2da;" horiz-adv-x="438" d="M41 1520q0 78 50 129t126 51q78 0 129 -51.5t51 -128.5q0 -76 -51 -126.5t-129 -50.5q-76 0 -126 50.5t-50 126.5zM121 1520q0 -41 27.5 -69t68.5 -28q39 0 65.5 28t26.5 69t-25.5 66.5t-66.5 25.5t-68.5 -26.5t-27.5 -65.5z" />
<glyph unicode="&#x2db;" horiz-adv-x="542" d="M0 -305q0 96 81 183t224 145h109v-9q-111 -53 -181.5 -130t-70.5 -142q0 -43 28.5 -70.5t75.5 -27.5q89 -1 195 108l59 -63q-129 -168 -321 -168q-94 0 -146.5 46t-52.5 128z" />
<glyph unicode="&#x2dc;" horiz-adv-x="780" d="M41 1352q16 104 76.5 168.5t140.5 64.5q55 0 160.5 -47t156.5 -47q39 0 59.5 19.5t37.5 66.5h67q-10 -102 -69.5 -172t-134.5 -70q-53 0 -165 49.5t-167 49.5q-39 0 -58.5 -17.5t-33.5 -64.5h-70z" />
<glyph unicode="&#x2dd;" horiz-adv-x="968" d="M41 1333l266 244q74 68 137 68q35 0 56.5 -19.5t21.5 -52.5q0 -57 -104 -107l-281 -133h-96zM446 1333l267 244q74 68 137 68q35 0 56.5 -19.5t21.5 -52.5q0 -57 -105 -107l-280 -133h-97z" />
<glyph unicode="&#x3bc;" horiz-adv-x="1476" d="M96 1014v71h371v-559q0 -229 52 -332.5t169 -103.5q172 0 279 248q35 78 34 219v201q0 164 -30.5 210t-139.5 46v71h371v-628q0 -227 12 -301q10 -51 41 -66.5t125 -15.5v-72l-338 -25l-22 246h-8q-133 -244 -334 -243q-170 0 -254 188l-8 -2q84 -416 84 -555 q0 -66 -31 -104.5t-84 -38.5q-51 0 -85 36.5t-34 89.5v1164q0 164 -30.5 210t-139.5 46z" />
<glyph unicode="&#x1e0c;" horiz-adv-x="1810" d="M78 0v78q158 4 202 46t44 187v955q0 143 -37 185t-168 48v78h719q371 0 611.5 -230.5t240.5 -584.5q0 -336 -226.5 -549t-584.5 -213h-801zM539 334q0 -233 305 -234q281 0 430 168t149 490q0 338 -157.5 528.5t-431.5 190.5h-261q-35 0 -34 -35v-1108zM776 -344 q0 53 37 90t90 37t90 -37t37 -90t-37 -90t-90 -37t-90 37t-37 90z" />
<glyph unicode="&#x1e0d;" horiz-adv-x="1382" d="M98 545q0 244 151.5 402.5t381.5 158.5q186 0 323 -137v209q0 246 -12 301q-10 45 -58 63.5t-153 18.5v61l420 78v-1182q0 -303 14 -362q12 -51 43 -67.5t123 -16.5v-70l-340 -22v192h-8q-74 -102 -157 -147t-195 -45q-231 0 -382 158.5t-151 406.5zM330 555 q0 -221 77.5 -349t223.5 -128q76 0 151.5 34.5t114.5 94.5q53 81 53 282v136q0 109 -11 163t-44 95q-45 59 -117.5 92t-146.5 33q-143 0 -222 -121t-79 -332zM504 -344q0 53 37 90t90 37t90 -37t37 -90t-37 -90t-90 -37t-90 37t-37 90z" />
<glyph unicode="&#x1e24;" horiz-adv-x="1894" d="M92 0v78q143 4 184 46t41 187v955q0 143 -36.5 185t-167.5 48v78h622v-78q-131 -4 -167 -48t-36 -200v-393h830v408q0 143 -37 185t-168 48v78h623v-78q-131 -4 -167 -48t-36 -200v-925q0 -156 39 -200t184 -48v-78h-663v78q143 4 184 46t41 187v445h-830v-430 q0 -156 39 -200t185 -48v-78h-664zM823 -344q0 53 37 90t90.5 37t90 -37t36.5 -90t-36.5 -90t-90 -37t-90.5 37t-37 90z" />
<glyph unicode="&#x1e25;" horiz-adv-x="1409" d="M45 1552v70l377 78v-780h8q63 82 176 134t225 52q94 0 173 -33t122 -88q68 -88 68 -332v-327q0 -168 25.5 -207t142.5 -47v-72h-543v72q117 6 144.5 45t27.5 194v258q0 231 -53 327.5t-178 96.5q-94 0 -174 -49t-125 -135q-35 -69 -35 -221v-262q0 -61 1 -96t8 -67 t16.5 -45.5t31 -24.5t45 -15t66.5 -6v-72h-545v72q119 8 147.5 47t28.5 192v858q0 231 -14 301q-10 49 -42 65.5t-124 16.5zM580 -344q0 53 36.5 90t90 37t90.5 -37t37 -90t-37 -90t-90.5 -37t-90 37t-36.5 90z" />
<glyph unicode="&#x1e44;" horiz-adv-x="1847" d="M92 0v78q145 4 185 55t40 240v831q0 176 -37.5 232.5t-166.5 62.5v78h405l895 -1194h8v807q0 201 -34.5 253t-167.5 56v78h550v-78q-145 -4 -185 -55t-40 -240v-1224h-123l-972 1282h-9v-875q0 -201 35 -253t168 -56v-78h-551zM844 1851q0 47 31.5 80t74.5 33 q47 0 80 -33t33 -80q0 -43 -33 -74.5t-80 -31.5q-43 0 -74.5 31.5t-31.5 74.5z" />
<glyph unicode="&#x1e45;" horiz-adv-x="1411" d="M72 963v65l327 78l25 -203h8q164 203 410 203q92 0 171 -31t120 -84q63 -86 63 -327v-342q0 -166 26.5 -205t139.5 -47v-70h-531v70q115 6 142.5 45t27.5 192v271q0 231 -52 324t-181 93q-90 0 -168 -48t-121 -132q-23 -43 -30 -84t-7 -135v-274q0 -166 26 -205t144 -47 v-70h-536v70q115 8 143.5 47t28.5 190v273q0 244 -12 297q-12 55 -43 70.5t-121 15.5zM596 1521.5q0 53.5 37 90.5t90 37t90 -37t37 -90.5t-37 -90t-90 -36.5t-90 36.5t-37 90z" />
<glyph unicode="&#x1e5a;" horiz-adv-x="1613" d="M92 0v78q143 4 184 46t41 187v955q0 143 -36.5 185t-167.5 48v78h643q281 0 436.5 -104.5t155.5 -290.5q0 -348 -412 -418l453 -545q92 -113 280 -141v-78h-395l-502 643q-51 68 -96 86.5t-144 18.5v-426q0 -154 50.5 -199t232.5 -45v-78h-723zM532 850h146q205 0 304 77 t99 244q0 164 -78.5 237t-246.5 73h-189q-35 0 -35 -35v-596zM717 -344q0 53 37 90t90 37t90 -37t37 -90t-37 -90t-90 -37t-90 37t-37 90z" />
<glyph unicode="&#x1e5b;" horiz-adv-x="976" d="M74 934v72l358 77l29 -254h8q55 123 153.5 200t202.5 77q66 0 104 -32t38 -85q0 -49 -31 -76.5t-88 -27.5q-47 0 -94 25.5t-68 25.5q-55 0 -110.5 -70.5t-86.5 -179.5q-34 -121 -34 -291v-69q0 -61 1 -96t8 -67t16 -45.5t30.5 -24.5t45.5 -15t67 -6v-72h-545v72 q119 6 147.5 45t28.5 194v240v124q0 42 -4 92t-6 69.5t-14.5 44t-21.5 31t-32.5 14.5t-43.5 8h-58zM231 -344q0 53 37 90t90.5 37t90 -37t36.5 -90t-36.5 -90t-90 -37t-90.5 37t-37 90z" />
<glyph unicode="&#x1e62;" horiz-adv-x="1320" d="M119 481h76q29 -184 154.5 -290.5t309.5 -106.5q150 0 239 72.5t89 193.5q0 104 -75.5 177t-282.5 163q-254 113 -349.5 214.5t-95.5 258.5q0 190 129 312t330 122q172 0 326 -120l53 92h47l23 -408h-76q-98 332 -367 332q-125 0 -198.5 -62.5t-73.5 -164.5 q0 -96 68.5 -165t244.5 -147q303 -137 411.5 -242.5t108.5 -267.5q0 -207 -154.5 -335.5t-402.5 -128.5q-221 0 -399 143l-57 -100h-47zM524 -344q0 53 37 90t90.5 37t90 -37t36.5 -90t-36.5 -90t-90 -37t-90.5 37t-37 90z" />
<glyph unicode="&#x1e63;" horiz-adv-x="929" d="M131 0v352h51q80 -289 291 -289q84 0 131 41t47 121q0 57 -40 94t-197 136q-158 100 -217.5 164.5t-59.5 171.5q0 139 87 227t218 88q123 0 220 -64l40 43h39v-294h-53q-45 125 -98 178t-131 53q-70 0 -112 -37t-42 -102q0 -63 42 -105.5t159 -113.5q193 -121 260.5 -192 t67.5 -181q0 -143 -94.5 -227t-247.5 -84q-160 0 -275 92l-41 -72h-45zM365 -342q0 53 36.5 90t90 37t90 -37t36.5 -90t-36.5 -90t-90 -37t-90 37t-36.5 90z" />
<glyph unicode="&#x1e6c;" horiz-adv-x="1644" d="M43 1186v391h1546l21 -391h-84q-14 174 -91 238.5t-259 64.5q-145 0 -188.5 -13.5t-43.5 -50.5v-1095q0 -139 49 -192.5t215 -59.5v-78h-774v78q166 6 216 59t50 193v1095q0 37 -37.5 50.5t-162.5 13.5q-78 0 -123 -3t-99.5 -19.5t-84 -48.5t-51 -90t-23.5 -142h-76z M696 -344q0 53 37 90t90.5 37t90 -37t36.5 -90t-36.5 -90t-90 -37t-90.5 37t-37 90z" />
<glyph unicode="&#x1e6d;" horiz-adv-x="774" d="M82 956v76q111 66 171 129.5t93 149.5h60v-258h274v-97h-274v-622q0 -145 29.5 -199.5t111.5 -54.5q94 0 158 94l51 -39q-59 -156 -275 -155q-135 0 -205.5 64.5t-70.5 184.5v727h-123zM354 -344q0 53 37 90t90.5 37t90 -37t36.5 -90t-36.5 -90t-90 -37t-90.5 37t-37 90z " />
<glyph unicode="&#x1e80;" horiz-adv-x="2408" d="M-23 1497v80h668v-80q-106 0 -147 -19.5t-41 -70.5q0 -45 32 -143l312 -949l252 709q16 49 52 141t48 131q-53 115 -98 158t-105 43v80h627v-80q-115 0 -150.5 -17.5t-35.5 -64.5q0 -41 43 -186l274 -920l320 889q53 145 53 209q0 51 -34 71.5t-120 20.5v78h498v-78 q-92 0 -141.5 -38t-81.5 -128l-514 -1353h-72l-393 1165l-437 -1165h-71l-426 1175q-76 207 -133.5 274.5t-178.5 67.5zM954 1894q0 33 21.5 52.5t56.5 19.5q66 0 178 -68l267 -157h-123l-246 57q-154 35 -154 96z" />
<glyph unicode="&#x1e81;" horiz-adv-x="1744" d="M25 1014v71h542v-71q-80 0 -112.5 -18.5t-32.5 -63.5q0 -33 22 -117l140 -489h8l301 759h63l273 -759h8l123 331q84 227 84 283q0 45 -27.5 59.5t-109.5 14.5v71h409v-71q-59 0 -94 -45t-100 -205l-318 -784h-76l-249 755h-9l-301 -755h-75l-267 851q-35 113 -73.5 148 t-128.5 35zM647 1573q0 33 21.5 52.5t56.5 19.5q63 0 137 -68l266 -244h-96l-280 133q-104 49 -105 107z" />
<glyph unicode="&#x1e82;" horiz-adv-x="2408" d="M-23 1497v80h668v-80q-106 0 -147 -19.5t-41 -70.5q0 -45 32 -143l312 -949l252 709q16 49 52 141t48 131q-53 115 -98 158t-105 43v80h627v-80q-115 0 -150.5 -17.5t-35.5 -64.5q0 -41 43 -186l274 -920l320 889q53 145 53 209q0 51 -34 71.5t-120 20.5v78h498v-78 q-92 0 -141.5 -38t-81.5 -128l-514 -1353h-72l-393 1165l-437 -1165h-71l-426 1175q-76 207 -133.5 274.5t-178.5 67.5zM995 1741l267 157q115 68 178 68q35 0 56.5 -19.5t21.5 -52.5q0 -61 -154 -96l-246 -57h-123z" />
<glyph unicode="&#x1e83;" horiz-adv-x="1744" d="M25 1014v71h542v-71q-80 0 -112.5 -18.5t-32.5 -63.5q0 -33 22 -117l140 -489h8l301 759h63l273 -759h8l123 331q84 227 84 283q0 45 -27.5 59.5t-109.5 14.5v71h409v-71q-59 0 -94 -45t-100 -205l-318 -784h-76l-249 755h-9l-301 -755h-75l-267 851q-35 113 -73.5 148 t-128.5 35zM739 1333l267 244q74 68 137 68q35 0 56.5 -19.5t21.5 -52.5q0 -57 -105 -107l-280 -133h-97z" />
<glyph unicode="&#x1e84;" horiz-adv-x="2408" d="M-23 1497v80h668v-80q-106 0 -147 -19.5t-41 -70.5q0 -45 32 -143l312 -949l252 709q16 49 52 141t48 131q-53 115 -98 158t-105 43v80h627v-80q-115 0 -150.5 -17.5t-35.5 -64.5q0 -41 43 -186l274 -920l320 889q53 145 53 209q0 51 -34 71.5t-120 20.5v78h498v-78 q-92 0 -141.5 -38t-81.5 -128l-514 -1353h-72l-393 1165l-437 -1165h-71l-426 1175q-76 207 -133.5 274.5t-178.5 67.5zM971 1864q0 43 29.5 72.5t72.5 29.5q45 0 75 -29.5t30 -72.5q0 -45 -30 -75t-75 -30q-43 0 -72.5 30t-29.5 75zM1343 1864q0 43 30 72.5t75 29.5 q43 0 72.5 -29.5t29.5 -72.5q0 -45 -29.5 -75t-72.5 -30q-45 0 -75 30t-30 75z" />
<glyph unicode="&#x1e85;" horiz-adv-x="1744" d="M25 1014v71h542v-71q-80 0 -112.5 -18.5t-32.5 -63.5q0 -33 22 -117l140 -489h8l301 759h63l273 -759h8l123 331q84 227 84 283q0 45 -27.5 59.5t-109.5 14.5v71h409v-71q-59 0 -94 -45t-100 -205l-318 -784h-76l-249 755h-9l-301 -755h-75l-267 851q-35 113 -73.5 148 t-128.5 35zM635 1452q0 51 33.5 85t85 34t85 -34t33.5 -85t-33.5 -85t-85 -34t-85 34t-33.5 85zM977 1452q0 51 33.5 85t85 34t85 -34t33.5 -85t-33.5 -85t-85 -34t-85 34t-33.5 85z" />
<glyph unicode="&#x1e92;" horiz-adv-x="1576" d="M33 0v8l1077 1483h-561q-145 0 -218 -65.5t-100 -225.5h-75l30 377h1248v-8l-1067 -1475h634q209 0 281 73t109 314h88l-25 -481h-1421zM666 -344q0 53 36.5 90t90 37t90.5 -37t37 -90t-37 -90t-90.5 -37t-90 37t-36.5 90z" />
<glyph unicode="&#x1e93;" horiz-adv-x="1140" d="M37 0v8l708 991h-227q-178 0 -238.5 -35.5t-80.5 -160.5h-66l33 282h881v-8l-699 -983h240q213 0 287.5 41t111.5 182h68l-35 -317h-983zM436 -344q0 53 37 90t90 37t90 -37t37 -90t-37 -90t-90 -37t-90 37t-37 90z" />
<glyph unicode="&#x1eb8;" horiz-adv-x="1486" d="M92 0v78q143 4 184 46t41 187v955q0 143 -36.5 185t-167.5 48v78h1183l19 -360h-72q-25 160 -114 216t-302 56h-260q-35 0 -35 -35v-588q217 0 302.5 54.5t85.5 181.5h71v-559h-71q0 129 -82 184t-306 57v-462q0 -133 73 -183.5t267 -50.5q217 0 310.5 66.5t134.5 248.5 h78l-31 -403h-1272zM649 -344q0 53 37 90t90 37t90 -37t37 -90t-37 -90t-90 -37t-90 37t-37 90z" />
<glyph unicode="&#x1eb9;" horiz-adv-x="1173" d="M100 530q0 252 157 414t405 162q197 0 306 -108.5t109 -307.5q0 -27 -11 -34t-52 -7h-674q-8 -31 -8 -92q0 -213 99 -342t263.5 -129t311.5 162l63 -58q-174 -211 -432 -210q-240 0 -388.5 152.5t-148.5 397.5zM354 743h377q82 0 102.5 10.5t20.5 47.5q0 94 -61.5 150.5 t-163.5 56.5q-222 -1 -275 -265zM512 -344q0 53 37 90t90 37t90 -37t37 -90t-37 -90t-90 -37t-90 37t-37 90z" />
<glyph unicode="&#x1ebc;" horiz-adv-x="1486" d="M92 0v78q143 4 184 46t41 187v955q0 143 -36.5 185t-167.5 48v78h1183l19 -360h-72q-25 160 -114 216t-302 56h-260q-35 0 -35 -35v-588q217 0 302.5 54.5t85.5 181.5h71v-559h-71q0 129 -82 184t-306 57v-462q0 -133 73 -183.5t267 -50.5q217 0 310.5 66.5t134.5 248.5 h78l-31 -403h-1272zM426 1733q16 104 76.5 168.5t140.5 64.5q55 0 160.5 -47t157.5 -47q39 0 59 19.5t37 66.5h67q-10 -102 -69.5 -172t-134.5 -70q-53 0 -165 49.5t-167 49.5q-39 0 -58.5 -17.5t-33.5 -64.5h-70z" />
<glyph unicode="&#x1ebd;" horiz-adv-x="1173" d="M100 530q0 252 157 414t405 162q197 0 306 -108.5t109 -307.5q0 -27 -11 -34t-52 -7h-674q-8 -31 -8 -92q0 -213 99 -342t263.5 -129t311.5 162l63 -58q-174 -211 -432 -210q-240 0 -388.5 152.5t-148.5 397.5zM276 1352q16 104 77 168.5t141 64.5q55 0 160.5 -47 t156.5 -47q39 0 59.5 19.5t36.5 66.5h68q-10 -102 -69.5 -172t-135.5 -70q-53 0 -164.5 49.5t-167.5 49.5q-39 0 -58.5 -17.5t-33.5 -64.5h-70zM354 743h377q82 0 102.5 10.5t20.5 47.5q0 94 -61.5 150.5t-163.5 56.5q-222 -1 -275 -265z" />
<glyph unicode="&#x1eca;" horiz-adv-x="849" d="M92 0v78q145 4 185 55t40 240v831q0 176 -37.5 232.5t-166.5 62.5v78h622v-78q-129 -4 -166 -62.5t-37 -246.5v-803q0 -201 39 -253t185 -56v-78h-664zM295 -344q0 53 37 90t90 37t90 -37t37 -90t-37 -90t-90 -37t-90 37t-37 90z" />
<glyph unicode="&#x1ecb;" horiz-adv-x="698" d="M66 956v72l401 78v-780q0 -158 35 -204t155 -50v-72h-587v72q125 6 160.5 50t35.5 189v262q0 250 -14 301q-10 47 -48 64.5t-138 17.5zM231 1521.5q0 53.5 37 90.5t90.5 37t90 -37t36.5 -90.5t-36.5 -90t-90 -36.5t-90.5 36.5t-37 90zM240 -344q0 53 36.5 90t90 37 t90.5 -37t37 -90t-37 -90t-90.5 -37t-90 37t-36.5 90z" />
<glyph unicode="&#x1ecc;" horiz-adv-x="1937" d="M117 776q0 346 245.5 583.5t606 237.5t606.5 -237.5t246 -583.5q0 -334 -248 -565t-604.5 -231t-604 231t-247.5 565zM383 770q0 -311 158 -494.5t428 -183.5q268 0 426.5 183.5t158.5 494.5q0 330 -157.5 522.5t-428 192.5t-428 -192.5t-157.5 -522.5zM844 -344 q0 53 37 90t90 37t90 -37t37 -90t-37 -90t-90 -37t-90 37t-37 90z" />
<glyph unicode="&#x1ecd;" horiz-adv-x="1339" d="M98 551q0 240 166 397.5t402 157.5q238 0 406.5 -159t168.5 -396q0 -246 -169 -408.5t-406 -162.5q-236 0 -402 162.5t-166 408.5zM330 549q0 -213 91 -339t245 -126q156 0 250 127t94 338q0 205 -94 332t-250 127q-152 0 -244 -126t-92 -333zM539 -344q0 53 36.5 90 t90 37t90.5 -37t37 -90t-37 -90t-90.5 -37t-90 37t-36.5 90z" />
<glyph unicode="&#x1ee4;" horiz-adv-x="1763" d="M59 1499v78h699v-78q-143 0 -180 -49q-45 -59 -46 -350v-557q0 -217 96.5 -327t317.5 -110q410 0 410 449v494q0 188 -14.5 280t-53.5 129q-43 41 -178 41v78h594v-78q-135 0 -174 -55q-51 -71 -51 -395v-414q0 -332 -138.5 -493.5t-451.5 -161.5q-311 0 -456.5 132 t-145.5 447v541q0 172 -8.5 245.5t-40.5 108.5q-43 45 -179 45zM799 -344q0 53 36.5 90t90 37t90.5 -37t37 -90t-37 -90t-90.5 -37t-90 37t-36.5 90z" />
<glyph unicode="&#x1ee5;" d="M43 1014v71h371v-559q0 -221 52 -322.5t167 -101.5q180 0 280 236q35 84 35 219v201q0 168 -25.5 205.5t-144.5 50.5v71h371v-628q0 -227 12 -301q8 -51 40 -66.5t126 -15.5v-72l-338 -25l-22 246h-9q-152 -244 -391 -243q-88 0 -168 32.5t-120 87.5q-66 86 -66 332v326 q0 168 -25.5 207t-144.5 49zM469 -344q0 53 37 90t90 37t90 -37t37 -90t-37 -90t-90 -37t-90 37t-37 90z" />
<glyph unicode="&#x1ef2;" horiz-adv-x="1501" d="M-10 1499v78h645v-78q-102 0 -144 -15.5t-42 -53.5q0 -43 47 -123l317 -543h8l232 389q121 205 121 277q0 39 -30 54t-104 15v78h469v-78q-86 0 -148.5 -61.5t-186.5 -274.5l-316 -532v-244q0 -201 38 -255t185 -54v-78h-663v78q145 0 185 53t40 242v250l-410 700 q-63 106 -111 141t-132 35zM530 1894q0 33 21.5 52.5t56.5 19.5q63 0 178 -68l267 -157h-123l-246 57q-154 35 -154 96z" />
<glyph unicode="&#x1ef3;" horiz-adv-x="1308" d="M8 1014v71h543v-71q-137 0 -137 -68q0 -61 57 -201l225 -544h11l186 461q86 209 86 262t-29.5 71.5t-113.5 18.5v71h450v-71q-78 0 -121 -56.5t-143 -285.5l-447 -994q-94 -211 -292 -210q-129 0 -129 96q0 51 35.5 75.5t132.5 38.5q84 14 128 46t82 110l72 143l-393 854 q-53 115 -87 146t-116 37zM438 1573q0 33 21.5 52.5t56.5 19.5q63 0 137 -68l267 -244h-97l-280 133q-104 49 -105 107z" />
<glyph unicode="&#x1ef8;" horiz-adv-x="1501" d="M-10 1499v78h645v-78q-102 0 -144 -15.5t-42 -53.5q0 -43 47 -123l317 -543h8l232 389q121 205 121 277q0 39 -30 54t-104 15v78h469v-78q-86 0 -148.5 -61.5t-186.5 -274.5l-316 -532v-244q0 -201 38 -255t185 -54v-78h-663v78q145 0 185 53t40 242v250l-410 700 q-63 106 -111 141t-132 35zM485 1733q16 104 77 168.5t140 64.5q55 0 161 -47t157 -47q39 0 59.5 19.5t36.5 66.5h68q-10 -102 -69.5 -172t-135.5 -70q-53 0 -165 49.5t-167 49.5q-39 0 -58.5 -17.5t-33.5 -64.5h-70z" />
<glyph unicode="&#x1ef9;" horiz-adv-x="1308" d="M8 1014v71h543v-71q-137 0 -137 -68q0 -61 57 -201l225 -544h11l186 461q86 209 86 262t-29.5 71.5t-113.5 18.5v71h450v-71q-78 0 -121 -56.5t-143 -285.5l-447 -994q-94 -211 -292 -210q-129 0 -129 96q0 51 35.5 75.5t132.5 38.5q84 14 128 46t82 110l72 143l-393 854 q-53 115 -87 146t-116 37zM350 1352q16 104 76.5 168.5t140.5 64.5q55 0 161 -47t157 -47q39 0 59.5 19.5t36.5 66.5h68q-10 -102 -69.5 -172t-135.5 -70q-53 0 -165 49.5t-167 49.5q-39 0 -58.5 -17.5t-33.5 -64.5h-70z" />
<glyph unicode="&#x2000;" horiz-adv-x="993" />
<glyph unicode="&#x2001;" horiz-adv-x="1987" />
<glyph unicode="&#x2002;" horiz-adv-x="993" />
<glyph unicode="&#x2003;" horiz-adv-x="1987" />
<glyph unicode="&#x2004;" horiz-adv-x="662" />
<glyph unicode="&#x2005;" horiz-adv-x="496" />
<glyph unicode="&#x2006;" horiz-adv-x="331" />
<glyph unicode="&#x2007;" horiz-adv-x="331" />
<glyph unicode="&#x2008;" horiz-adv-x="248" />
<glyph unicode="&#x2009;" horiz-adv-x="397" />
<glyph unicode="&#x200a;" horiz-adv-x="110" />
<glyph unicode="&#x2010;" horiz-adv-x="948" d="M158 508v170h633v-170h-633z" />
<glyph unicode="&#x2011;" horiz-adv-x="948" d="M158 508v170h633v-170h-633z" />
<glyph unicode="&#x2012;" horiz-adv-x="948" d="M158 508v170h633v-170h-633z" />
<glyph unicode="&#x2013;" horiz-adv-x="1482" d="M158 508v170h1167v-170h-1167z" />
<glyph unicode="&#x2014;" horiz-adv-x="2277" d="M158 508v170h1962v-170h-1962z" />
<glyph unicode="&#x2018;" horiz-adv-x="526" d="M115 1337q0 104 52 182.5t191 180.5l48 -55q-94 -70 -134.5 -135.5t-40.5 -143.5q27 16 62 16q47 0 76.5 -31.5t29.5 -80.5q0 -55 -37.5 -90t-101.5 -35q-145 0 -145 192z" />
<glyph unicode="&#x2019;" horiz-adv-x="520" d="M131 1200q94 70 134 135.5t40 143.5q-27 -16 -61 -17q-47 0 -77 32t-30 81q0 55 38 90t101 35q145 0 146 -193q0 -104 -52.5 -182t-191.5 -180z" />
<glyph unicode="&#x201a;" horiz-adv-x="563" d="M135 -283q94 70 134 135.5t40 143.5q-27 -16 -61 -16q-47 0 -77 31.5t-30 80.5q0 55 38 90t102 35q145 0 145 -192q0 -104 -52.5 -182.5t-191.5 -180.5z" />
<glyph unicode="&#x201c;" horiz-adv-x="919" d="M115 1337q0 104 52 182.5t191 180.5l48 -55q-94 -70 -134.5 -135.5t-40.5 -143.5q27 16 62 16q47 0 76.5 -31.5t29.5 -80.5q0 -55 -37.5 -90t-101.5 -35q-145 0 -145 192zM508 1337q0 104 52.5 182.5t191.5 180.5l47 -55q-94 -70 -134 -135.5t-40 -143.5q27 16 61 16 q47 0 77 -31.5t30 -80.5q0 -55 -38 -90t-102 -35q-145 0 -145 192z" />
<glyph unicode="&#x201d;" horiz-adv-x="913" d="M131 1200q94 70 134 135.5t40 143.5q-27 -16 -61 -17q-47 0 -77 32t-30 81q0 55 38 90t101 35q145 0 146 -193q0 -104 -52.5 -182t-191.5 -180zM524 1200q94 70 134 135.5t40 143.5q-27 -16 -61 -17q-47 0 -77 32t-30 81q0 55 38 90t102 35q145 0 145 -193 q0 -104 -52.5 -182t-191.5 -180z" />
<glyph unicode="&#x201e;" horiz-adv-x="956" d="M135 -283q94 70 134 135.5t40 143.5q-27 -16 -61 -16q-47 0 -77 31.5t-30 80.5q0 55 38 90t102 35q145 0 145 -192q0 -104 -52.5 -182.5t-191.5 -180.5zM528 -283q94 70 134 135.5t40 143.5q-27 -16 -61 -16q-47 0 -76.5 31.5t-29.5 80.5q0 55 37.5 90t101.5 35 q145 0 145 -192q0 -104 -52.5 -182.5t-191.5 -180.5z" />
<glyph unicode="&#x2020;" horiz-adv-x="1130" d="M61 1005.5q0 53.5 37 90.5t90 37q39 0 136.5 -38t199.5 -46q-4 137 -44 257.5t-40 163.5q0 53 37 90t90.5 37t90 -36.5t36.5 -90.5q0 -43 -40 -162.5t-46 -258.5q98 10 195.5 47t138.5 37q53 0 90 -37t37 -90.5t-37 -90t-90 -36.5q-41 0 -138 36.5t-196 45.5 q0 -145 27 -240.5t86 -185.5q-45 -166 -79 -488.5t-34 -578.5h-82q0 256 -33.5 578.5t-78.5 488.5q59 90 84.5 184t27.5 242q-100 -8 -198.5 -45t-139.5 -37q-53 0 -90 36.5t-37 90z" />
<glyph unicode="&#x2021;" horiz-adv-x="1216" d="M104 59.5q0 53.5 37 90t90 36.5q41 0 139.5 -36.5t198.5 -45.5q-2 147 -27.5 242.5t-84.5 188.5q59 90 84.5 184t27.5 242q-100 -8 -198.5 -45t-139.5 -37q-53 0 -90 36.5t-37 90t37 90.5t90 37q39 0 136.5 -38t199.5 -46q-4 137 -44 257.5t-40 163.5q0 53 37 90t90.5 37 t90 -36.5t36.5 -90.5q0 -43 -40 -162.5t-46 -258.5q98 10 195.5 47t138.5 37q53 0 90 -37t37 -90.5t-37 -90t-90 -36.5q-41 0 -138 36.5t-196 45.5q0 -145 27 -240.5t86 -185.5q-59 -90 -86 -186.5t-27 -244.5q98 8 195.5 45t138.5 37q53 0 90 -36.5t37 -90t-37 -90.5 t-90 -37q-41 0 -138 37t-196 47q6 -139 46 -258.5t40 -163.5q0 -53 -36.5 -89.5t-90 -36.5t-90.5 36.5t-37 89.5q0 43 40 164t44 258q-102 -8 -199.5 -46t-136.5 -38q-53 0 -90 37t-37 90.5z" />
<glyph unicode="&#x2022;" horiz-adv-x="974" d="M172 756q0 129 94 220t226 91q127 0 219 -91t92 -220q0 -131 -94.5 -222.5t-227.5 -91.5q-125 0 -217 92.5t-92 221.5z" />
<glyph unicode="&#x2026;" horiz-adv-x="1427" d="M137 113q0 57 39 96t94 39q57 0 96.5 -39t39.5 -96q0 -55 -39 -94t-97 -39q-55 0 -94 39t-39 94zM580 113q0 57 38.5 96t94.5 39q57 0 96 -39t39 -96q0 -55 -39 -94t-96 -39q-55 0 -94 39t-39 94zM1022 113q0 57 39 96t94 39q57 0 96 -39t39 -96q0 -55 -39 -94t-96 -39 q-55 0 -94 39t-39 94z" />
<glyph unicode="&#x202f;" horiz-adv-x="397" />
<glyph unicode="&#x2030;" horiz-adv-x="1875" d="M72 0l1132 1577h99l-1115 -1577h-116zM168 1270q0 137 70.5 232t171 95t171 -95t70.5 -232q0 -133 -70.5 -226.5t-171 -93.5t-171 93.5t-70.5 226.5zM285 1266q0 -147 31 -206t94 -59q61 0 93 59.5t32 205.5q0 156 -31 218t-94.5 62t-94 -62.5t-30.5 -217.5zM723 299 q0 137 70.5 232.5t171 95.5t171 -95.5t70.5 -232.5q0 -133 -70.5 -226t-171 -93t-171 93t-70.5 226zM840 295q0 -147 31 -205.5t94 -58.5q61 0 93 59.5t32 204.5q0 156 -31 218t-94.5 62t-94 -62t-30.5 -218zM1319 299q0 137 70.5 232.5t171 95.5t171 -95.5t70.5 -232.5 q0 -133 -70.5 -226t-171 -93t-171 93t-70.5 226zM1436 295q0 -147 31 -205.5t94 -58.5q61 0 93 59.5t32 204.5q0 156 -31 218t-94.5 62t-94 -62t-30.5 -218z" />
<glyph unicode="&#x2039;" horiz-adv-x="651" d="M100 537l349 325l40 -43l-202 -282l200 -283l-38 -41z" />
<glyph unicode="&#x203a;" horiz-adv-x="651" d="M162 819l41 43l348 -325l-348 -324l-39 41l201 283z" />
<glyph unicode="&#x2044;" horiz-adv-x="81" d="M-573 0l1132 1577h98l-1114 -1577h-116z" />
<glyph unicode="&#x205f;" horiz-adv-x="496" />
<glyph unicode="&#x2070;" horiz-adv-x="634" d="M76 1270q0 137 70.5 232t171 95t171 -95t70.5 -232q0 -133 -70.5 -226.5t-171 -93.5t-171 93.5t-70.5 226.5zM193 1266q0 -147 30.5 -206t93.5 -59q61 0 93 59.5t32 205.5q0 156 -30.5 218t-94 62t-94 -62.5t-30.5 -217.5z" />
<glyph unicode="&#x2074;" horiz-adv-x="561" d="M41 1106v51l289 440h45v-442q51 2 63.5 13.5t12.5 60.5h38v-193h-38q0 45 -13.5 57.5t-62.5 14.5v-16q0 -63 12 -82t53 -21v-31h-252v31q55 2 70.5 19.5t15.5 76.5v21h-233zM92 1157h182v266h-8z" />
<glyph unicode="&#x2075;" horiz-adv-x="534" d="M43 1063q0 47 35 47q18 0 28.5 -12.5t28.5 -53.5q18 -47 70 -47q68 0 106.5 55.5t38.5 149.5q0 129 -86 129q-57 0 -98 -71q-10 -23 -31 -23q-18 0 -18 14q0 10 4 23l86 323q33 -14 96 -14q92 0 125 14h8q-20 -98 -137 -98h-74l-37 -141l7 -4q29 23 81 22q84 0 135.5 -52 t51.5 -142q0 -98 -74 -165t-182 -67q-74 0 -119 31t-45 82z" />
<glyph unicode="&#x2076;" horiz-adv-x="598" d="M76 1235q0 150 75.5 256t182.5 106q66 0 109.5 -24.5t43.5 -59.5q0 -43 -45 -43q-33 0 -58.5 40t-72.5 40q-53 0 -92 -71.5t-39 -175.5l8 -3q49 74 134 74q88 0 146 -58.5t58 -144.5q0 -92 -66.5 -156.5t-160.5 -64.5q-100 0 -161.5 79t-61.5 206zM188 1190 q0 -193 113 -193t113 170q0 158 -105 158q-72 0 -121 -94v-41z" />
<glyph unicode="&#x2077;" horiz-adv-x="487" d="M53 1397l58 229h43q-4 -8 -4 -24.5t12 -20.5t51 -4h250v-16q-96 -209 -209 -504q-45 -119 -92 -119t-47 45q0 27 117 234q8 13 12 20.5t11 21t13 23.5l111 213h-152q-66 0 -85 -10t-36 -55l-12 -33h-41z" />
<glyph unicode="&#x2078;" horiz-adv-x="569" d="M76 1104q0 106 137 170q-117 63 -117 162q0 68 54 116q47 45 133 45q76 0 125 -34q61 -41 61 -109q-1 -80 -107 -141q131 -68 132 -180q0 -82 -62.5 -132.5t-148.5 -50.5q-78 0 -142.5 41t-64.5 113zM164 1110q0 -55 33.5 -84t93.5 -29q47 0 83 29t36 72q0 39 -22 67.5 t-81 63.5l-49 28q-94 -51 -94 -147zM178 1470q0 -37 23 -63t78 -55l38 -21q29 18 51.5 50t22.5 61q0 47 -29.5 77.5t-80.5 30.5q-47 0 -75 -23.5t-28 -56.5z" />
<glyph unicode="&#x2079;" horiz-adv-x="598" d="M72 1376q0 92 66.5 156.5t160.5 64.5q100 0 161.5 -78.5t61.5 -205.5q0 -150 -75.5 -256.5t-182.5 -106.5q-66 0 -109.5 24.5t-43.5 59.5q0 43 45 43q33 0 58.5 -40t72.5 -40q53 0 92 72t39 176l-8 2q-49 -74 -134 -73q-88 0 -146 58t-58 144zM184 1380q0 -158 105 -157 q72 0 121 94v41q0 193 -113 192.5t-113 -170.5z" />
<glyph unicode="&#x2080;" horiz-adv-x="634" d="M76 299q0 137 70.5 232.5t171 95.5t171 -95.5t70.5 -232.5q0 -133 -70.5 -226t-171 -93t-171 93t-70.5 226zM193 295q0 -147 30.5 -205.5t93.5 -58.5q61 0 93 59.5t32 204.5q0 156 -30.5 218t-94 62t-94 -62t-30.5 -218z" />
<glyph unicode="&#x2081;" horiz-adv-x="503" d="M121 563v41q82 2 180 35v-496q0 -63 15.5 -81.5t70.5 -20.5v-41h-262v41q55 2 70.5 19.5t15.5 76.5v281q0 109 -4 119q-4 27 -86 26z" />
<glyph unicode="&#x2082;" horiz-adv-x="583" d="M70 0v27q182 162 245.5 255t63.5 181q0 59 -30 94t-83 35q-43 0 -71.5 -30t-28.5 -75q0 -39 24.5 -63.5t65.5 -24.5q-4 -23 -23.5 -38t-50.5 -15q-45 0 -74.5 35t-29.5 88q0 74 57.5 122t145.5 48q90 0 148 -49t58 -127q0 -94 -75.5 -183.5t-212.5 -191.5v-8h174 q41 0 61.5 19.5t36.5 74.5h41l-31 -174h-411z" />
<glyph unicode="&#x2083;" horiz-adv-x="573" d="M72 125q0 45 26.5 74.5t67.5 29.5q27 0 48.5 -13t25.5 -34q-31 0 -51.5 -19.5t-20.5 -49.5q0 -37 27.5 -60.5t70.5 -23.5q115 0 115 135q0 137 -105 137q-29 -14 -55 -14q-37 0 -37 32q0 29 35 29q25 0 51 -10q43 0 70 38t27 101q0 104 -97 105q-82 0 -82 -64 q0 -23 15.5 -38t42.5 -15q-2 -16 -22.5 -28.5t-45.5 -12.5q-35 0 -58.5 25.5t-23.5 62.5q0 51 48.5 83t125.5 32q94 0 149.5 -40t55.5 -106q0 -55 -38 -97t-95 -54v-8q68 -16 111 -60.5t43 -103.5q0 -78 -64.5 -128t-163.5 -50q-86 0 -141 40.5t-55 104.5z" />
<glyph unicode="&#x2084;" horiz-adv-x="561" d="M41 147v52l289 440h45v-442q51 2 63.5 13t12.5 60h38v-192h-38q0 45 -13.5 57t-62.5 15v-17q0 -63 12 -81.5t53 -20.5v-31h-252v31q55 2 70.5 19.5t15.5 76.5v20h-233zM92 199h182v266h-8z" />
<glyph unicode="&#x2085;" horiz-adv-x="536" d="M43 92q0 47 35 47q18 0 28.5 -12t28.5 -53q18 -47 70 -47q68 0 106.5 55t38.5 149q0 129 -86 129q-57 0 -98 -71q-10 -23 -31 -23q-18 0 -18 15q0 10 4 22l86 324q33 -14 96 -15q92 0 125 15h8q-20 -98 -137 -99h-74l-37 -141l7 -4q29 23 81 23q84 0 135.5 -52.5 t51.5 -142.5q0 -98 -74 -164.5t-182 -66.5q-74 0 -119 30.5t-45 81.5z" />
<glyph unicode="&#x2086;" horiz-adv-x="598" d="M76 264q0 150 75.5 256.5t182.5 106.5q66 0 109.5 -24.5t43.5 -59.5q0 -43 -45 -43q-33 0 -58.5 40t-72.5 40q-53 0 -92 -72t-39 -176l8 -2q49 74 134 73q88 0 146 -58t58 -144q0 -92 -66.5 -156.5t-160.5 -64.5q-100 0 -161.5 78.5t-61.5 205.5zM188 219 q0 -193 113 -192.5t113 170.5q0 158 -105 157q-72 0 -121 -94v-41z" />
<glyph unicode="&#x2087;" horiz-adv-x="487" d="M53 438l58 230h43q-4 -8 -4 -24.5t12 -21t51 -4.5h250v-16q-96 -209 -209 -504q-45 -119 -92 -118.5t-47 45.5q0 27 117 234q24 42 36 65l111 213h-152q-66 0 -85 -10.5t-36 -55.5l-12 -33h-41z" />
<glyph unicode="&#x2088;" horiz-adv-x="573" d="M76 133q0 106 137 170q-117 63 -117 162q0 68 54 117q47 45 133 45q76 0 125 -35q61 -41 61 -109q-1 -80 -107 -141q131 -68 132 -180q0 -82 -62.5 -132t-148.5 -50q-78 0 -142.5 40.5t-64.5 112.5zM164 139q0 -55 33.5 -83.5t93.5 -28.5q47 0 83 28.5t36 71.5 q0 39 -22 67.5t-81 63.5l-49 29q-94 -51 -94 -148zM178 500q0 -37 23 -63.5t78 -55.5l38 -21q29 18 51.5 50t22.5 61q0 47 -29.5 78t-80.5 31q-47 0 -75 -24t-28 -56z" />
<glyph unicode="&#x2089;" horiz-adv-x="598" d="M72 406q0 92 66.5 156.5t160.5 64.5q100 0 161.5 -79t61.5 -206q0 -150 -75.5 -256t-182.5 -106q-66 0 -109.5 24.5t-43.5 58.5q0 43 45 43q33 0 58.5 -39.5t72.5 -39.5q53 0 92 71.5t39 175.5l-8 2q-49 -74 -134 -73q-88 0 -146 58.5t-58 144.5zM184 410 q0 -158 105 -158q72 0 121 94v41q0 193 -113 193t-113 -170z" />
<glyph unicode="&#x20ac;" horiz-adv-x="1468" d="M86 881v118h184q51 285 216 441.5t403 156.5q96 0 159.5 -24.5t147.5 -99.5l35 104h57v-442h-88q-70 365 -303 364q-152 0 -247 -126t-124 -374h473v-118h-479q-4 -57 -4 -88q0 -41 2 -60h481v-119h-477q0 -238 100.5 -387t260.5 -149q139 0 235 120.5t113 317.5h88v-516 h-70l-24 141q-137 -162 -359 -161q-231 0 -394 172t-208 462h-176v119h166q-2 20 -2 62q0 43 6 86h-172z" />
<glyph unicode="&#x2120;" horiz-adv-x="1632" d="M154 1151h36q10 -70 59.5 -110t121.5 -40q123 0 123 99q0 41 -28 69.5t-106 61.5q-100 43 -139 84t-39 106q0 78 51.5 127t133.5 49q66 0 129 -49l22 37h19l10 -162h-35q-43 123 -143 123q-98 0 -99 -82q0 -39 24.5 -64.5t90.5 -53.5q125 -59 167 -101.5t42 -107.5 q0 -84 -61.5 -135.5t-161.5 -51.5q-94 0 -160 58l-23 -41h-20zM635 946v41q57 0 73.5 20.5t16.5 98.5v311q0 72 -16.5 95.5t-65.5 23.5v41h221l189 -463h8l201 463h204v-41q-51 0 -66.5 -23.5t-15.5 -101.5v-299q0 -80 16.5 -102.5t74.5 -22.5v-41h-277v41q57 0 73.5 22.5 t16.5 96.5v369h-8l-240 -537h-16l-231 537h-9v-363q0 -80 16.5 -102.5t73.5 -22.5v-41h-239z" />
<glyph unicode="&#x2122;" horiz-adv-x="1814" d="M150 1421v156h618v-156h-43q-8 72 -30.5 91.5t-96.5 19.5q-78 0 -78 -35v-410q0 -59 21.5 -79.5t85.5 -20.5v-41h-330v41q63 0 84.5 20.5t21.5 79.5v410q0 35 -79 35q-76 0 -102.5 -22.5t-31.5 -88.5h-40zM817 946v41q57 0 73.5 20.5t16.5 98.5v311q0 72 -16.5 95.5 t-65.5 23.5v41h222l186 -463h8l203 463h205v-41q-49 0 -65.5 -24.5t-16.5 -100.5v-299q0 -80 16 -102.5t74 -22.5v-41h-277v41q57 0 73.5 22.5t16.5 96.5v369h-8l-239 -537h-17l-231 537h-8v-363q0 -82 15 -103.5t75 -21.5v-41h-240z" />
<glyph unicode="&#x2153;" horiz-adv-x="1378" d="M63 0l1133 1577h98l-1114 -1577h-117zM268 1522v41q81 1 181 34v-495q0 -63 15 -82t71 -21v-41h-263v41q55 2 70.5 19.5t15.5 77.5v280q0 109 -4 119q-4 27 -86 27zM762 125q0 45 26.5 74.5t67.5 29.5q27 0 48.5 -13t25.5 -34q-31 0 -51.5 -19.5t-20.5 -49.5 q0 -37 27.5 -60.5t70.5 -23.5q115 0 115 135q0 137 -104 137q-29 -14 -56 -14q-37 0 -37 32q0 29 35 29q25 0 52 -10q43 0 69.5 38t26.5 101q0 104 -96 105q-82 0 -82 -64q0 -23 15 -38t42 -15q-2 -16 -22.5 -28.5t-45.5 -12.5q-35 0 -58.5 25.5t-23.5 62.5q0 51 48.5 83 t126.5 32q94 0 149 -40t55 -106q0 -55 -37.5 -97t-95.5 -54v-8q68 -16 111 -60.5t43 -103.5q0 -78 -64.5 -128t-163.5 -50q-86 0 -141 40.5t-55 104.5z" />
<glyph unicode="&#x2154;" horiz-adv-x="1384" d="M84 0l1133 1577h98l-1114 -1577h-117zM170 958v27q182 162 245.5 255t63.5 181q0 59 -29.5 94t-82.5 35q-43 0 -72 -29.5t-29 -74.5q0 -39 24.5 -63.5t65.5 -24.5q-4 -23 -23.5 -38t-49.5 -15q-45 0 -75 34.5t-30 87.5q0 74 57.5 122t145.5 48q90 0 148.5 -49t58.5 -127 q0 -94 -76 -183t-213 -191v-9h174q41 0 61.5 19.5t36.5 75.5h41l-30 -175h-412zM782 125q0 45 27 74.5t68 29.5q27 0 48 -13t25 -34q-31 0 -51 -19.5t-20 -49.5q0 -37 27.5 -60.5t70.5 -23.5q115 0 115 135q0 137 -105 137q-29 -14 -55 -14q-37 0 -37 32q0 29 35 29 q25 0 51 -10q43 0 69.5 38t26.5 101q0 104 -96 105q-82 0 -82 -64q0 -23 15.5 -38t41.5 -15q-2 -16 -22.5 -28.5t-44.5 -12.5q-35 0 -58.5 25.5t-23.5 62.5q0 51 48 83t126 32q94 0 149.5 -40t55.5 -106q0 -55 -38 -97t-95 -54v-8q68 -16 110.5 -60.5t42.5 -103.5 q0 -78 -64.5 -128t-162.5 -50q-86 0 -141.5 40.5t-55.5 104.5z" />
<glyph unicode="&#x215b;" horiz-adv-x="1378" d="M63 0l1133 1577h98l-1114 -1577h-117zM268 1522v41q81 1 181 34v-495q0 -63 15 -82t71 -21v-41h-263v41q55 2 70.5 19.5t15.5 77.5v280q0 109 -4 119q-4 27 -86 27zM764 133q0 106 137 170q-117 63 -117 162q0 68 54 117q47 45 133 45q76 0 125 -35q61 -41 61 -109 q0 -80 -106 -141q131 -68 131 -180q0 -82 -62.5 -132t-148.5 -50q-78 0 -142.5 40.5t-64.5 112.5zM852 139q0 -55 34 -83.5t93 -28.5q47 0 83 28.5t36 71.5q0 39 -22 67.5t-81 63.5l-49 29q-94 -51 -94 -148zM866 500q0 -37 23 -63.5t78 -55.5l39 -21q29 18 51 50t22 61 q0 47 -29.5 78t-80.5 31q-47 0 -75 -24t-28 -56z" />
<glyph unicode="&#x215c;" horiz-adv-x="1380" d="M80 0l1132 1577h99l-1114 -1577h-117zM166 1096q0 45 26.5 74.5t67.5 29.5q27 0 48.5 -13t25.5 -34q-31 0 -51.5 -19.5t-20.5 -50.5q0 -37 27.5 -60.5t70.5 -23.5q115 1 115 136q0 137 -104 137q-29 -14 -56 -15q-37 0 -36 33q0 29 34 29q25 0 52 -10q43 0 69.5 37.5 t26.5 101.5q0 104 -96 104q-82 0 -82 -63q0 -23 15 -38t42 -15q-2 -16 -22.5 -28.5t-45.5 -12.5q-35 0 -58.5 25.5t-23.5 62.5q0 51 48.5 82.5t126.5 31.5q94 0 149 -39.5t55 -105.5q0 -55 -37.5 -97t-95.5 -55v-8q68 -16 111 -60t43 -104q0 -78 -64.5 -128t-163.5 -50 q-86 0 -141 41t-55 105zM780 133q0 106 138 170q-117 63 -117 162q0 68 53 117q47 45 133 45q76 0 125 -35q61 -41 62 -109q-1 -80 -107 -141q131 -68 131 -180q0 -82 -62.5 -132t-148.5 -50q-78 0 -142.5 40.5t-64.5 112.5zM868 139q0 -55 34 -83.5t93 -28.5q47 0 83 28.5 t36 71.5q0 39 -21.5 67.5t-80.5 63.5l-49 29q-94 -51 -95 -148zM883 500q0 -37 22.5 -63.5t77.5 -55.5l39 -21q29 18 51.5 50t22.5 61q0 47 -30 78t-81 31q-47 0 -74.5 -24t-27.5 -56z" />
<glyph unicode="&#x215d;" horiz-adv-x="1376" d="M74 0l1132 1577h99l-1115 -1577h-116zM156 1063q0 47 34 47q18 0 28.5 -12.5t29.5 -53.5q18 -47 69 -47q68 0 107 55.5t39 149.5q0 129 -86 129q-57 0 -98 -71q-12 -23 -31 -23t-19 14q0 10 4 23l86 323q33 -14 97 -14q92 0 125 14h8q-20 -98 -137 -98h-74l-37 -141l6 -4 q29 23 82 22q84 0 135 -52t51 -142q0 -98 -73.5 -165t-182.5 -67q-74 0 -118.5 31t-44.5 82zM774 133q0 106 137 170q-117 63 -116 162q0 68 53 117q47 45 133 45q76 0 125 -35q61 -41 61 -109q0 -80 -106 -141q131 -68 131 -180q0 -82 -62.5 -132t-148.5 -50 q-78 0 -142.5 40.5t-64.5 112.5zM862 139q0 -55 34 -83.5t93 -28.5q47 0 83 28.5t36 71.5q0 39 -21.5 67.5t-80.5 63.5l-50 29q-94 -51 -94 -148zM877 500q0 -37 22.5 -63.5t77.5 -55.5l39 -21q29 18 51.5 50t22.5 61q0 47 -30 78t-81 31q-47 0 -74.5 -24t-27.5 -56z" />
<glyph unicode="&#x215e;" horiz-adv-x="1380" d="M66 0l1132 1577h98l-1114 -1577h-116zM233 1397l58 229h43q-4 -8 -4 -24.5t12 -20.5t51 -4h250v-16q-96 -209 -209 -504q-45 -119 -92 -119t-47 45q0 27 117 234q8 13 12 20.5t11.5 21t13.5 23.5l110 213h-151q-66 0 -85.5 -10t-35.5 -55l-13 -33h-41zM766 133 q0 106 137 170q-117 63 -117 162q0 68 54 117q47 45 133 45q76 0 125 -35q61 -41 61 -109q0 -80 -106 -141q131 -68 131 -180q0 -82 -62.5 -132t-148.5 -50q-78 0 -142.5 40.5t-64.5 112.5zM854 139q0 -55 34 -83.5t93 -28.5q47 0 83 28.5t36 71.5q0 39 -22 67.5t-81 63.5 l-49 29q-94 -51 -94 -148zM868 500q0 -37 23 -63.5t78 -55.5l39 -21q29 18 51 50t22 61q0 47 -29.5 78t-80.5 31q-47 0 -75 -24t-28 -56z" />
<glyph unicode="&#x2212;" horiz-adv-x="1298" d="M170 641v102h958v-102h-958z" />
<glyph unicode="&#x2215;" horiz-adv-x="1150" d="M-45 0l1132 1577h111l-1114 -1577h-129z" />
<glyph unicode="&#x2219;" horiz-adv-x="583" d="M158 561q0 57 39 96t94 39q57 0 96 -39t39 -96q0 -55 -39 -94t-96 -39q-55 0 -94 39t-39 94z" />
<glyph unicode="&#xe000;" horiz-adv-x="1085" d="M0 1085h1085v-1085h-1085v1085z" />
<glyph unicode="&#xf6c3;" horiz-adv-x="331" d="M41 -240q0 47 34 78t87 31q61 0 95 -42t34 -120q0 -135 -195 -239l-45 53q133 74 133 160q-20 -16 -53 -17q-41 0 -65.5 26.5t-24.5 69.5z" />
<glyph unicode="&#xfb06;" horiz-adv-x="1738" d="M131 0v352h51q80 -289 291 -289q82 0 130 42t48 114q0 57 -41 99t-196 137q-162 98 -219.5 170.5t-57.5 173.5q0 135 97.5 227t263.5 92q84 0 143 -14q-27 72 -27 158q0 182 107.5 283.5t302.5 101.5q375 0 375 -400v-194h246v-97h-275v-622q0 -145 30 -199.5t109 -54.5 q96 0 160 94l51 -39q-59 -156 -276 -155q-133 0 -204 64.5t-71 184.5v727h-122v76q113 0 179 68.5t66 183.5q0 119 -73.5 189.5t-200.5 70.5q-135 0 -216 -79t-81 -210q0 -139 92 -231q45 -41 45 -96q0 -39 -26.5 -62.5t-73.5 -23.5q-37 0 -61.5 16t-63.5 68 q-41 53 -79 74.5t-97 21.5q-68 0 -110 -36t-42 -91q0 -66 40 -112t161 -119q195 -117 261.5 -195t66.5 -184q0 -137 -94.5 -221t-247.5 -84q-160 0 -275 92l-41 -72h-45z" />
<glyph horiz-adv-x="337" d="M61 1851q0 47 32 80t75 33q47 0 80 -33t33 -80q0 -43 -33 -74.5t-80 -31.5q-43 0 -75 31.5t-32 74.5z" />
<glyph horiz-adv-x="661" d="M41 1864q0 43 29.5 72.5t72.5 29.5q45 0 75 -29.5t30 -72.5q0 -45 -30 -75t-75 -30q-43 0 -72.5 30t-29.5 75zM414 1864q0 43 29.5 72.5t74.5 29.5q43 0 73 -29.5t30 -72.5q0 -45 -30 -75t-73 -30q-45 0 -74.5 30t-29.5 75z" />
<glyph horiz-adv-x="335" d="M41 -344q0 53 37 90t90 37t90 -37t37 -90t-37 -90t-90 -37t-90 37t-37 90z" />
<glyph horiz-adv-x="604" d="M41 1741l266 157q113 68 178 68q35 0 56.5 -19.5t21.5 -52.5q0 -61 -153 -96l-246 -57h-123z" />
<glyph horiz-adv-x="968" d="M41 1741l246 157q106 68 178 68q35 0 56.5 -19.5t21.5 -52.5q0 -59 -154 -96l-225 -57h-123zM424 1741l246 157q106 68 178 68q35 0 56.5 -19.5t21.5 -52.5q0 -59 -154 -96l-225 -57h-123z" />
<glyph horiz-adv-x="780" d="M41 1733q16 104 76.5 168.5t140.5 64.5q55 0 160.5 -47t156.5 -47q39 0 59.5 19.5t37.5 66.5h67q-10 -102 -69.5 -172t-134.5 -70q-53 0 -165 49.5t-167 49.5q-39 0 -58.5 -17.5t-33.5 -64.5h-70z" />
<glyph horiz-adv-x="604" d="M41 1894q0 33 21.5 52.5t56.5 19.5q66 0 178 -68l266 -157h-123l-245 57q-154 35 -154 96z" />
<glyph horiz-adv-x="647" d="M41 1966h74q16 -43 72.5 -68.5t134 -25.5t135 25.5t73.5 68.5h76q-8 -102 -88 -168.5t-194 -66.5q-119 0 -199 66.5t-84 168.5z" />
<glyph horiz-adv-x="753" d="M41 1743l223 223h225l224 -223h-92l-244 110l-244 -110h-92z" />
<glyph horiz-adv-x="753" d="M41 1966h92l244 -111l244 111h92l-224 -223h-225z" />
<glyph horiz-adv-x="348" d="M41 1833q0 57 38 95t95 38t95 -38t38 -95t-38 -95t-95 -38t-95 38t-38 95zM104 1833q0 -31 19.5 -50.5t50.5 -19.5q29 0 48.5 19.5t19.5 50.5q0 29 -19.5 48.5t-48.5 19.5q-31 0 -50.5 -19.5t-19.5 -48.5z" />
<glyph horiz-adv-x="634" d="M41 1802v103h553v-103h-553z" />
<glyph horiz-adv-x="331" d="M41 1489q0 47 34 77.5t87 30.5q61 0 95 -42t34 -119q0 -136 -195 -240l-45 53q133 74 133 160q-20 -16 -53 -16q-41 0 -65.5 26.5t-24.5 69.5z" />
<glyph horiz-adv-x="1902" d="M100 532q0 262 157 418t419 156q74 0 135 -12q-33 74 -33 168q0 182 107.5 283.5t302.5 101.5q375 0 375 -400v-194h245v-97h-274v-622q0 -145 29.5 -199.5t109.5 -54.5q96 0 160 94l51 -39q-59 -156 -276 -155q-133 0 -204 64.5t-71 184.5v727h-123v76q113 0 179.5 68.5 t66.5 183.5q0 119 -73.5 189.5t-200.5 70.5q-135 0 -216 -79t-81 -210q0 -139 110 -247q35 -39 35 -82q0 -41 -27.5 -63.5t-76.5 -22.5q-37 0 -61.5 17t-59.5 67q-76 86 -174 86q-297 0 -297 -447q0 -233 84 -355t244 -122q164 0 313 143l61 -59q-76 -88 -192.5 -139 t-243.5 -51q-223 0 -361.5 152.5t-138.5 399.5z" />
<glyph horiz-adv-x="2228" d="M131 0v352h51q76 -289 293 -289q84 0 130 35t46 92q0 66 -45 118t-192 147q-166 106 -221.5 181t-55.5 185q0 131 101.5 214t275.5 83h14q-51 66 -51 160q0 141 101.5 240.5t244.5 99.5q78 0 148.5 -34t128 -75t86.5 -49q27 133 119 133q47 0 77.5 -26.5t30.5 -65.5 q0 -49 -44 -86t-99 -37v-440h8q76 90 151.5 129t176.5 39q225 0 374.5 -163t149.5 -404q0 -244 -151.5 -401.5t-385.5 -157.5q-188 0 -315 135v-299q0 -164 41 -210t192 -46v-72h-630v72q123 0 159.5 46t36.5 195v1121q0 244 86 462q-23 8 -143.5 70t-198.5 62 q-102 0 -171.5 -67t-69.5 -167q0 -72 42 -121t136 -96q100 -51 100 -137q0 -41 -27.5 -63.5t-74.5 -22.5q-37 0 -61.5 16t-61.5 68q-74 96 -170 96q-74 0 -116 -35t-42 -92q0 -63 44 -114.5t157 -116.5q174 -102 251 -191.5t77 -183.5q0 -141 -93.5 -225t-248.5 -84 q-160 0 -275 92l-41 -72h-45zM1278 475q0 -115 10 -164t45 -94q102 -137 254 -137q141 0 226 124t85 328q0 213 -90 344.5t-237 131.5q-158 0 -240 -129q-53 -86 -53 -244v-160z" />
</font>
</defs>
</svg>
