<?xml version="1.0" standalone="no"?>
<!DOCTYPE svg PUBLIC "-//W3C//DTD SVG 1.1//EN" "http://www.w3.org/Graphics/SVG/1.1/DTD/svg11.dtd" >
<svg xmlns="http://www.w3.org/2000/svg">
<metadata>
This is a custom SVG webfont generated by Font Squirrel.
Copyright   : Copyright c 2012 Pablo Impallari wwwimpallaricomimpallarigmailcom Copyright c 2012 Rodrigo Fuenzalida wwwrfuenzalidacomhellorfuenzalidacom with Reserved Font Name Libre Baskerville
Designer    : Pablo Impallari Rodrigo Fuenzalida
Foundry     : Pablo Impallari Rodrigo Fuenzalida
Foundry URL : wwwimpallaricom
</metadata>
<defs>
<font id="LibreBaskervilleBold" horiz-adv-x="1198" >
<font-face units-per-em="2048" ascent="1638" descent="-410" />
<missing-glyph horiz-adv-x="544" />
<glyph unicode="&#xfb00;" horiz-adv-x="1581" d="M39 936v117h219v65q0 229 141.5 364.5t380.5 135.5q141 0 240 -68q76 68 208 109t271 41t223 -50.5t84 -131.5q0 -53 -28.5 -81t-73.5 -28q-90 0 -154 82q-41 53 -65.5 71.5t-54.5 18.5q-199 0 -199 -369v-159h321v-117h-321v-596q0 -154 40 -204t163 -54v-82h-613v82 q82 4 103.5 47t21.5 195v612h-403v-596q0 -152 30.5 -203t122.5 -55v-82h-620v82q121 6 151.5 46t30.5 196v612h-219zM543 1053h403v299q-63 84 -116.5 115.5t-114.5 31.5q-92 0 -132 -92t-40 -277v-77z" />
<glyph unicode="&#xfb01;" horiz-adv-x="1417" d="M37 936v117h203v147q0 238 148.5 369t414.5 131q162 0 263 -53.5t101 -137.5q0 -45 -27.5 -72.5t-72.5 -27.5q-71 0 -141 68q-106 104 -203 104q-113 0 -158 -104q-41 -88 -41 -265v-159h260l420 53v-768q0 -164 31 -208t147 -48v-82h-604v82q88 4 115 49t27 191v231 q0 227 -15 299q-10 49 -50 66.5t-144 17.5h-187v-600q0 -152 32 -203t126 -55v-78h-586v78q94 6 119 47t25 194v617h-203z" />
<glyph unicode="&#xfb02;" horiz-adv-x="1447" d="M37 936v117h211v147q0 236 137 368t381 132q190 0 291 -53l170 53v-1370q0 -156 31.5 -200t146.5 -48v-82h-604v82q90 4 115.5 47t25.5 186v1155q-106 111 -221 111q-109 0 -156 -125q-33 -90 -33 -244v-159h236v-117h-236v-596q0 -152 35 -203t138 -55v-82h-609v82 q100 6 126 47t26 195v612h-211z" />
<glyph unicode="&#xfb03;" horiz-adv-x="2138" d="M39 936v117h219v65q0 229 141.5 364.5t380.5 135.5q141 0 240 -68q76 68 208 109t271 41q176 0 282.5 -50.5t106.5 -131.5q0 -53 -28.5 -81t-73.5 -28q-72 0 -154 82q-90 90 -202 90q-199 0 -199 -369v-159h319l375 53v-770q0 -162 31 -206t147 -48v-82h-604v82 q90 6 115.5 51t25.5 189v229q0 236 -14 301q-10 51 -46 67.5t-130 16.5h-219v-596q0 -154 33.5 -205t138.5 -53v-82h-602v82q94 4 119.5 47t25.5 195v612h-403v-596q0 -152 30.5 -203t122.5 -55v-82h-620v82q121 6 151.5 46t30.5 196v612h-219zM543 1053h403v299 q-63 84 -116.5 115.5t-114.5 31.5q-92 0 -132 -92t-40 -277v-77z" />
<glyph unicode="&#xfb04;" horiz-adv-x="2146" d="M39 936v117h219v65q0 229 141.5 364.5t380.5 135.5q141 0 240 -68q76 68 208 109t271 41q172 0 277 -47l149 47v-1364q0 -162 31 -206t147 -48v-82h-604v82q90 6 115.5 51t25.5 189v1163q-96 96 -210 96q-199 0 -199 -369v-159h270v-117h-270v-596q0 -154 33.5 -205 t138.5 -53v-82h-602v82q94 4 119.5 47t25.5 195v612h-403v-596q0 -152 30.5 -203t122.5 -55v-82h-620v82q121 6 151.5 46t30.5 196v612h-219zM543 1053h403v299q-63 84 -116.5 115.5t-114.5 31.5q-92 0 -132 -92t-40 -277v-77z" />
<glyph unicode="fb" horiz-adv-x="2150" d="M37 936v117h211v147q0 236 137 368t381 132q190 0 291 -53l170 53v-756h8q111 162 330 162q215 0 361.5 -163t146.5 -400.5t-156 -401.5t-375 -164q-113 0 -212 43t-161 117l-155 -137h-70v1470q-106 111 -223 111q-188 0 -189 -369v-159h236v-117h-236v-596 q0 -152 35 -203t138 -55v-82h-609v82q100 6 126 47t26 195v612h-211zM1231 449q0 -152 80 -252.5t200.5 -100.5t185 113t64.5 326q0 442 -250 442q-131 0 -205.5 -105.5t-74.5 -293.5v-129z" />
<glyph unicode="ffb" horiz-adv-x="2848" d="M39 936v117h219v65q0 229 141.5 364.5t380.5 135.5q141 0 240 -68q76 68 208 109t271 41q190 0 299 -60l127 60v-756h8q111 162 330 162q215 0 361.5 -163t146.5 -400.5t-155.5 -401.5t-374.5 -164q-113 0 -212.5 43t-160.5 117l-156 -137h-70v1485q-96 96 -212 96 q-199 0 -199 -369v-159h270v-117h-270v-596q0 -154 33.5 -205t138.5 -53v-82h-602v82q94 4 119.5 47t25.5 195v612h-403v-596q0 -152 30.5 -203t122.5 -55v-82h-620v82q121 6 151.5 46t30.5 196v612h-219zM543 1053h403v299q-63 84 -116.5 115.5t-114.5 31.5q-92 0 -132 -92 t-40 -277v-77zM1929 449q0 -152 80 -252.5t201 -100.5t185.5 113t64.5 326q0 442 -250 442q-131 0 -206 -105.5t-75 -293.5v-129z" />
<glyph unicode="fh" horiz-adv-x="2193" d="M37 936v117h211v147q0 236 137 368t381 132q190 0 291 -53l170 53v-756h8q123 162 332 162q199 0 312.5 -127t113.5 -326v-317q0 -94 3 -136t23.5 -72t50 -36t97.5 -10v-82h-641v82q123 6 152.5 45t29.5 195v251q0 219 -47 308.5t-162 89.5q-129 0 -198.5 -96.5 t-69.5 -266.5v-272q0 -168 27.5 -207t150.5 -47v-82h-604v82q96 8 118.5 46t22.5 194v1148q-106 111 -225 111q-188 0 -189 -369v-159h236v-117h-236v-596q0 -152 31 -203t121 -55v-82h-588v82q100 6 126 47t26 195v612h-211z" />
<glyph unicode="ffh" horiz-adv-x="2891" d="M39 936v117h219v65q0 229 141.5 364.5t380.5 135.5q141 0 240 -68q76 68 208 109t271 41q176 0 283 -51l143 51v-756h8q123 162 332 162q201 0 311 -123q115 -131 115 -330v-317q0 -94 3 -136t23.5 -72t50.5 -36t97 -10v-82h-641v82q123 6 152.5 45t29.5 195v251 q0 219 -47 308.5t-161 89.5q-123 0 -195 -90q-74 -101 -74 -273v-272q0 -168 28 -207t150 -47v-82h-604v82q96 8 119 46t23 194v1159q-4 0 -5 4q-96 96 -210 96q-199 0 -199 -369v-159h270v-117h-270v-596q0 -154 33.5 -205t138.5 -53v-82h-602v82q94 4 119.5 47t25.5 195 v612h-403v-596q0 -152 30.5 -203t122.5 -55v-82h-620v82q121 6 151.5 46t30.5 196v612h-219zM543 1053h403v299q-63 84 -116.5 115.5t-114.5 31.5q-92 0 -132 -92t-40 -277v-77z" />
<glyph unicode="fj" horiz-adv-x="1378" d="M37 936v117h203v147q0 238 148.5 369t414.5 131q162 0 263 -53.5t101 -137.5q0 -45 -27.5 -72.5t-72.5 -27.5q-71 0 -141 68q-106 104 -203 104q-113 0 -158 -104q-41 -88 -41 -265v-159h260l420 53v-1110q0 -254 -125 -391t-356 -137q-154 0 -245 57t-91 145q0 49 33 78 t78 29q51 0 85.5 -32t51 -68.5t50.5 -68.5t83 -32q78 0 115 61.5t37 202.5v1012q-10 49 -50.5 66.5t-144.5 17.5h-201v-600q0 -152 32 -203t126 -55v-78h-586v78q94 6 119 47t25 194v617h-203z" />
<glyph unicode="ffj" horiz-adv-x="2099" d="M39 936v117h219v65q0 229 141.5 364.5t380.5 135.5q141 0 240 -68q76 68 208 109t271 41q176 0 282.5 -50.5t106.5 -131.5q0 -53 -28.5 -81t-73.5 -28q-72 0 -154 82q-90 90 -202 90q-199 0 -199 -369v-159h319l375 53v-1110q0 -254 -125 -391t-356 -137q-154 0 -245 57 t-91 145q0 49 33 78t78 29q51 0 85.5 -32t51 -68.5t50.5 -68.5t83 -32q78 0 114.5 61.5t36.5 202.5v1012q-10 49 -52 66.5t-138 17.5h-219v-596q0 -154 33.5 -205t138.5 -53v-82h-602v82q94 4 119.5 47t25.5 195v612h-403v-596q0 -152 30.5 -203t122.5 -55v-82h-620v82 q121 6 151.5 46t30.5 196v612h-219zM543 1053h403v299q-63 84 -116.5 115.5t-114.5 31.5q-92 0 -132 -92t-40 -277v-77z" />
<glyph unicode="fk" horiz-adv-x="2091" d="M37 936v117h211v147q0 236 137 368t381 132q190 0 291 -53l170 53v-1139l196 187q115 109 152 150.5t37 62.5q0 25 -36 34t-134 9v81h559v-81q-78 0 -137.5 -27t-128.5 -92l-199 -187l354 -501q45 -66 90 -90.5t121 -24.5v-82h-637v82q61 0 83 7t22 30q0 18 -64 119 l-176 276l-102 -98v-80q0 -158 26.5 -206t114.5 -48v-82h-584v82q100 0 131 46t31 194v1148q-106 111 -225 111q-188 0 -189 -369v-159h236v-117h-236v-596q0 -154 31 -206t121 -52v-82h-588v82q98 0 125 44t27 198v612h-211z" />
<glyph unicode="ffk" horiz-adv-x="2789" d="M39 936v117h219v65q0 229 141.5 364.5t380.5 135.5q141 0 240 -68q76 68 208 109t271 41q193 0 301 -60l125 60v-1139l197 187q197 186 196 223q0 33 -178 33v81h559v-81q-78 0 -137 -27t-129 -92l-199 -187l355 -501q49 -70 94 -92.5t117 -22.5v-82h-637v82q61 0 83.5 7 t22.5 26q0 20 -61 116l-180 283l-103 -98v-80q0 -156 27.5 -205t113.5 -49v-82h-604v82q111 0 147 47t36 193v1163q-96 96 -215 96q-199 0 -199 -369v-159h270v-117h-270v-596q0 -154 33.5 -205t138.5 -53v-82h-602v82q94 4 119.5 47t25.5 195v612h-403v-596 q0 -152 30.5 -203t122.5 -55v-82h-620v82q121 6 151.5 46t30.5 196v612h-219zM543 1053h403v299q-63 84 -116.5 115.5t-114.5 31.5q-92 0 -132 -92t-40 -277v-77z" />
<glyph unicode="ft" horiz-adv-x="1585" d="M35 973v112h221v115q0 223 143.5 361.5t374.5 138.5q137 0 228.5 -49t91.5 -125q0 -47 -36 -78t-87 -31q-35 0 -61.5 21.5t-86.5 93.5q-45 53 -106 53q-82 0 -129 -100.5t-47 -272.5v-127h323q96 0 190.5 76t129.5 172h104v-248h236v-112h-236v-629q0 -125 27.5 -179 t93.5 -54q80 0 121 73l43 -59q-57 -145 -270 -145q-141 0 -220 65.5t-79 183.5v744h-463v-633q0 -154 44 -204t179 -54v-82h-692v82q123 6 153.5 46t30.5 196v649h-221z" />
<glyph unicode="fft" horiz-adv-x="2238" d="M35 973v112h219v33q0 229 141.5 364.5t380.5 135.5q141 0 240 -68q76 68 208 109t271 41t223 -50.5t84 -131.5q0 -53 -28.5 -81t-73.5 -28q-90 0 -154 82q-41 53 -65.5 71.5t-55.5 18.5q-199 0 -198 -369v-127h291q96 0 190 76t129 172h105v-248h235v-112h-235v-629 q0 -125 27.5 -179t92.5 -54q80 0 121 73l43 -59q-57 -145 -270 -145q-141 0 -220 65.5t-79 183.5v744h-430v-633q0 -154 41 -206t162 -52v-82h-613v82q80 0 102.5 44t22.5 198v649h-403v-633q0 -152 31.5 -205t121.5 -53v-82h-620v82q123 0 152.5 41t29.5 201v649h-219z M539 1085h403v267q-63 84 -116.5 115.5t-114.5 31.5q-92 0 -132 -92t-40 -277v-45z" />
<glyph horiz-adv-x="0" />
<glyph horiz-adv-x="0" />
<glyph unicode="&#xd;" horiz-adv-x="716" />
<glyph unicode=" "  horiz-adv-x="544" />
<glyph unicode="&#x09;" horiz-adv-x="544" />
<glyph unicode="&#xa0;" horiz-adv-x="544" />
<glyph unicode="!" horiz-adv-x="636" d="M158 1413q0 184 159.5 184t159.5 -184q0 -59 -6 -119.5t-12 -101.5t-19.5 -112.5t-19.5 -112.5q-41 -262 -41 -543h-123q0 281 -41 543q-6 41 -19.5 112.5t-19.5 112.5t-12 101.5t-6 119.5zM164 133.5q0 65.5 45 110.5t110.5 45t110.5 -46t45 -110q0 -66 -45 -109.5 t-110.5 -43.5t-110.5 44t-45 109.5z" />
<glyph unicode="&#x22;" horiz-adv-x="802" d="M98 1579q0 51 34 86t85 35q53 0 87 -35t34 -88q0 -29 -13.5 -103.5t-35 -180t-29.5 -158.5h-84q-8 53 -29.5 159.5t-35 181t-13.5 103.5zM465 1579q0 51 33.5 86t87.5 35q51 0 85 -35t34 -88q0 -27 -13.5 -103.5t-34 -179t-28.5 -159.5h-84q-8 55 -29.5 159.5t-36 180 t-14.5 104.5z" />
<glyph unicode="#" horiz-adv-x="1437" d="M74 512l22 123h305l48 328h-308l21 122h309l74 492h149l-73 -492h305l71 492h150l-72 -492h289l-23 -122h-288l-47 -328h294l-20 -123h-299l-78 -512h-147l73 512h-305l-80 -512h-149l80 512h-301zM551 635h303l45 328h-301z" />
<glyph unicode="$" horiz-adv-x="1318" d="M76 365q0 70 31.5 108.5t89 38.5t93.5 -47t66 -166q45 -178 228 -193v566q-233 94 -343 208.5t-110 270.5q0 199 136 321.5t317 122.5v248h139v-252q178 0 317.5 -103.5t139.5 -238.5q0 -53 -33 -86t-86 -33q-66 0 -104.5 53.5t-55 116t-60.5 115.5t-118 53v-499 q276 -111 398 -233t122 -285q0 -195 -140 -321t-380 -146v-332h-139v330q-217 12 -362.5 121.5t-145.5 261.5zM362 1262q0 -135 222 -236v440q-90 0 -156 -61t-66 -143zM723 111q125 14 192.5 75.5t67.5 157.5q0 86 -59.5 148.5t-200.5 123.5v-505z" />
<glyph unicode="%" horiz-adv-x="1458" d="M63 0l1188 1577h146l-1170 -1577h-164zM176 1270q0 137 77.5 232t186.5 95q111 0 188 -95t77 -232q0 -133 -78 -226.5t-186.5 -93.5t-186.5 93.5t-78 226.5zM330 1266q0 -135 26.5 -189.5t83.5 -54.5q55 0 83 54t28 190q0 143 -26.5 201.5t-84 58.5t-84 -58.5 t-26.5 -201.5zM758 299q0 137 77.5 232.5t186 95.5t186.5 -95.5t78 -232.5q0 -133 -78 -226t-186.5 -93t-186 93t-77.5 226zM911 295q0 -135 27 -189.5t84 -54.5q55 0 83 54.5t28 189.5q0 143 -27 201.5t-84 58.5t-84 -58.5t-27 -201.5z" />
<glyph unicode="&#x26;" horiz-adv-x="1824" d="M41 342q0 139 111.5 257t355.5 237q-131 184 -131 356q0 180 109.5 292.5t285.5 112.5q156 0 256 -86t100 -219q0 -111 -76.5 -209t-250.5 -213l327 -411q100 113 164 214t64 150q0 61 -131 62v82h495v-82q-88 0 -138 -29t-99 -98l-285 -396q84 -106 181.5 -167.5 t185.5 -61.5q57 0 90 19.5t67 76.5l54 -14q-23 -115 -105 -175t-213 -60q-102 0 -195.5 49t-232.5 170q-106 -98 -249.5 -158.5t-286.5 -60.5q-197 0 -325 102t-128 260zM362 367q0 -102 66 -170t166 -68q172 0 348 143l-364 453q-102 -70 -159 -164t-57 -194zM610 1266 q0 -160 119 -297q168 129 168 295q0 86 -42 137t-114 51q-131 0 -131 -186z" />
<glyph unicode="'" horiz-adv-x="436" d="M98 1579q0 51 34 86t85 35q53 0 87 -35t34 -88q0 -29 -13.5 -103.5t-35 -180t-29.5 -158.5h-84q-8 53 -29.5 159.5t-35 181t-13.5 103.5z" />
<glyph unicode="(" horiz-adv-x="702" d="M72 662q0 563 524 1040l66 -57q-313 -459 -314 -945q0 -285 82 -557t250 -473l-68 -67q-541 481 -540 1059z" />
<glyph unicode=")" horiz-adv-x="702" d="M23 -330q168 201 249.5 473.5t81.5 556.5q0 486 -313 945l65 57q524 -477 525 -1040q0 -578 -541 -1059z" />
<glyph unicode="*" horiz-adv-x="1007" d="M106 985q0 66 64 102q25 14 98.5 19.5t147.5 48.5q-106 51 -180 51q-49 0 -89.5 36t-40.5 81t32 76t73 31q55 0 81.5 -30t64.5 -82t102 -87q-4 106 -34 159.5t-30 88.5q0 53 30 85.5t77 32.5t77.5 -32.5t30.5 -85.5q0 -29 -32.5 -95.5t-32.5 -152.5q63 35 100 87t64.5 82 t83.5 30q41 0 72.5 -31t31.5 -76t-41 -81t-88 -36q-84 0 -180 -51q74 -43 147.5 -48t98.5 -20q63 -39 63 -102q0 -43 -30.5 -73.5t-69.5 -30.5q-43 0 -74 23.5t-48.5 55t-51 67.5t-76.5 54q2 -109 31.5 -162t29.5 -90q0 -51 -29.5 -82.5t-74.5 -31.5q-47 0 -78 32.5 t-31 83.5q0 31 32 96.5t34 151.5q-51 -25 -94 -76t-78 -86.5t-82 -35.5q-39 0 -70 30.5t-31 73.5z" />
<glyph unicode="+" horiz-adv-x="1146" d="M70 629v127h434v452h139v-452h434v-127h-434v-453h-139v453h-434z" />
<glyph unicode="," horiz-adv-x="536" d="M61 -231q215 143 215 247q-29 -16 -61 -16q-43 0 -73.5 39t-30.5 92q0 68 44 113t109 45q72 0 115 -51.5t43 -139.5q0 -216 -301 -415z" />
<glyph unicode="-" horiz-adv-x="935" d="M135 498v190h666v-190h-666z" />
<glyph unicode="." horiz-adv-x="532" d="M111 131q0 66 45 112t108 46q68 0 113 -46t45 -112q0 -63 -45 -107t-113 -44q-63 0 -108 44t-45 107z" />
<glyph unicode="/" horiz-adv-x="976" d="M47 0l760 1577h125l-739 -1577h-146z" />
<glyph unicode="0" horiz-adv-x="1546" d="M96 776q0 344 196.5 582.5t475.5 238.5q283 0 482.5 -237.5t199.5 -583.5q0 -332 -199.5 -564t-482.5 -232q-279 0 -475.5 232t-196.5 564zM453 770q0 -371 78.5 -521.5t236.5 -150.5t236.5 150.5t78.5 521.5q0 264 -38.5 424t-106.5 222.5t-170 62.5t-170 -62.5 t-106.5 -222.5t-38.5 -424z" />
<glyph unicode="1" horiz-adv-x="892" d="M61 1430v81q332 14 557 86v-1261q0 -160 39 -205t185 -49v-82h-770v82q158 6 201.5 50t43.5 190v743q0 266 -10 299q-12 41 -64.5 53.5t-181.5 12.5z" />
<glyph unicode="2" horiz-adv-x="1333" d="M80 0v94q479 410 640 628t161 437q0 150 -68 236t-184 86q-113 0 -185.5 -74t-72.5 -190q0 -100 52 -161t142 -61q-8 -57 -55 -93t-113 -36q-127 0 -212 87t-85 221q0 182 160 302.5t404 120.5q242 0 394 -123.5t152 -318.5q0 -229 -192.5 -445t-552.5 -458l2 -10h418 q106 0 160.5 47t99.5 188h90l-82 -477h-1073z" />
<glyph unicode="3" horiz-adv-x="1304" d="M76 344q0 115 80 197t190 82q68 0 115 -36t59 -95q-61 0 -102 -50.5t-41 -124.5q0 -100 65.5 -160.5t171.5 -60.5q117 0 191 95.5t74 251t-62.5 243.5t-171.5 88q-88 -37 -143 -37q-121 0 -121 90q0 78 117 78q43 0 129 -22q100 0 157.5 78.5t57.5 228.5q0 145 -57.5 222 t-159.5 77q-94 0 -146.5 -45t-52.5 -125q0 -55 31.5 -92t81.5 -37q-27 -119 -158 -119q-100 0 -171 69.5t-71 166.5q0 131 134.5 210.5t353.5 79.5q242 0 385 -99t143 -265q0 -131 -83 -237.5t-212 -141.5v-12q156 -43 251 -158t95 -260q0 -193 -167 -318.5t-423 -125.5 q-233 0 -386.5 103t-153.5 261z" />
<glyph unicode="4" horiz-adv-x="1359" d="M16 426v123l748 1048h194v-1042q150 4 196 41t46 156h76v-498h-76q0 111 -45 143.5t-197 36.5v-63q0 -154 38 -219.5t153 -69.5v-82h-703v82q135 6 179.5 69.5t44.5 204.5v70h-654zM190 555h480v664h-8z" />
<glyph unicode="5" horiz-adv-x="1218" d="M20 262q0 66 33 101.5t90 35.5q49 0 75 -31.5t38 -76.5t28.5 -91t60.5 -78t120 -32q158 0 247 140.5t89 377.5q0 172 -46 250t-153 78q-174 0 -242 -184q-27 -78 -84 -78t-57 53q0 8 4 25l230 845q113 -37 292 -36q231 0 328 38l12 -2q-29 -127 -128 -195.5t-248 -68.5 h-199l-96 -356l4 -6q78 84 225 84q207 0 346 -141.5t139 -352.5q0 -244 -193.5 -412.5t-475.5 -168.5q-193 0 -316 79.5t-123 202.5z" />
<glyph unicode="6" horiz-adv-x="1380" d="M98 690q0 373 213 640t510 267q164 0 277.5 -66.5t113.5 -162.5q0 -57 -36.5 -92t-98.5 -35q-45 0 -75.5 25.5t-47 61.5t-37 71t-59.5 60.5t-100 25.5q-133 0 -224.5 -165t-91.5 -409l7 -4q125 143 309 144q225 0 377.5 -149t152.5 -372q0 -229 -172 -389.5t-418 -160.5 q-266 0 -433 198.5t-167 511.5zM438 580q0 -487 269 -488q129 0 190 105.5t61 324.5q0 408 -229 408q-88 0 -156.5 -57.5t-134.5 -182.5v-110z" />
<glyph unicode="7" horiz-adv-x="1056" d="M39 1126l151 574h86q-10 -41 -10 -60q0 -37 35 -50t129 -13h651v-82q-233 -477 -311 -665.5t-229 -630.5q-41 -117 -90.5 -168t-120.5 -51q-61 0 -96 33.5t-35 95.5q0 55 38.5 135t186.5 323q178 295 253 427t179 339h-389q-168 0 -222.5 -21.5t-88.5 -105.5l-35 -80h-82 z" />
<glyph unicode="8" horiz-adv-x="1300" d="M102 371q0 117 72 218t207 171q-242 164 -242 418q0 186 137 305q133 115 365 114q203 0 342 -86q143 -102 143 -276q0 -94 -47 -167.5t-153 -149.5q133 -84 207.5 -207t74.5 -260q0 -207 -158.5 -339t-406.5 -132q-231 0 -386 111.5t-155 279.5zM358 397q0 -139 79 -221 t210 -82q137 0 226.5 77t89.5 196q-1 163 -263 276l-168 74q-174 -117 -174 -320zM375 1262q0 -146 260 -246l139 -55q123 100 123 243q0 119 -76 200t-190 81q-109 0 -182.5 -64.5t-73.5 -158.5z" />
<glyph unicode="9" horiz-adv-x="1380" d="M92 1047q0 229 172 389.5t418 160.5q266 0 433 -198.5t167 -511.5q0 -373 -213 -640t-510 -267q-164 0 -277.5 66.5t-113.5 162.5q0 57 37 92t98 35q45 0 76 -25.5t47 -61.5t36.5 -71t59.5 -60.5t101 -25.5q139 0 232 165t93 409l-6 4q-129 -143 -319 -144 q-225 0 -378 149t-153 372zM422 1055q0 -408 229 -408q88 0 156.5 57.5t134.5 182.5v100q0 498 -268 498q-129 0 -190.5 -105.5t-61.5 -324.5z" />
<glyph unicode=":" horiz-adv-x="581" d="M135 131q0 66 45 112t109 46q68 0 112.5 -46t44.5 -112q0 -63 -45 -107t-112 -44q-63 0 -108.5 44t-45.5 107zM135 778q0 66 45 112t109 46q68 0 112.5 -46t44.5 -112q0 -63 -45 -107t-112 -44q-63 0 -108.5 44t-45.5 107z" />
<glyph unicode=";" horiz-adv-x="604" d="M100 -231q215 143 215 247q-29 -16 -61 -16q-43 0 -73.5 39t-30.5 92q0 68 44 113t109 45q72 0 115 -51.5t43 -139.5q0 -216 -301 -415zM150 778q0 66 45 112t108 46q68 0 113 -46t45 -112q0 -63 -45 -107t-113 -44q-63 0 -108 44t-45 107z" />
<glyph unicode="&#x3c;" horiz-adv-x="1214" d="M74 623v131l983 475v-142l-860 -399l860 -399v-142z" />
<glyph unicode="=" horiz-adv-x="1265" d="M145 496v122h975v-122h-975zM145 864v123h975v-123h-975z" />
<glyph unicode="&#x3e;" horiz-adv-x="1214" d="M158 147v142l860 399l-860 399v142l983 -475v-131z" />
<glyph unicode="?" horiz-adv-x="825" d="M111 1473q0 125 153 124q182 0 324.5 -155.5t142.5 -356.5q0 -164 -92 -256t-258 -92v-248h-139v486h71q281 0 281 182q0 90 -55.5 153.5t-130.5 63.5q-27 0 -83.5 -11t-78.5 -11q-59 0 -97 33.5t-38 87.5zM147 133.5q0 65.5 45.5 110.5t111 45t110.5 -46t45 -110 q0 -66 -45 -109.5t-110.5 -43.5t-111 44t-45.5 109.5z" />
<glyph unicode="@" horiz-adv-x="2172" d="M82 616q0 270 147.5 495.5t405.5 355.5t567 130q389 0 627.5 -201.5t238.5 -531.5q0 -285 -164.5 -495.5t-387.5 -210.5q-221 0 -240 235h-8q-68 -113 -161 -174t-194 -61q-141 0 -241.5 111.5t-100.5 269.5q0 213 184.5 390t407.5 177q100 0 155.5 -46t86.5 -155h8 l47 180h248l-143 -464q-57 -186 -58 -259q0 -37 26 -59t69 -22q127 0 238.5 183t111.5 392q0 272 -207 450.5t-522 178.5q-375 0 -629 -251t-254 -620q0 -346 230.5 -558t603.5 -212q352 0 655 205l65 -84q-193 -127 -370.5 -183t-382.5 -56q-463 0 -761 249.5t-298 640.5z M844 483q0 -213 123 -213t244.5 177.5t121.5 357.5q0 194 -145 194q-133 0 -238.5 -157.5t-105.5 -358.5z" />
<glyph unicode="A" horiz-adv-x="1656" d="M-27 0v82q100 10 150.5 45t85.5 121l539 1349h151l490 -1196q59 -145 98 -204.5t84 -81t145 -31.5v-84h-774v84q104 4 144 21.5t40 64.5q0 45 -53 184l-47 123h-580q-96 -217 -96 -301q0 -57 42 -75.5t143 -18.5v-82h-562zM494 600h487l-236 621h-8z" />
<glyph unicode="B" horiz-adv-x="1632" d="M68 0v82q139 4 178 47t39 186v947q0 143 -32 185t-142 48v82h657q307 0 475 -100.5t168 -282.5q0 -244 -350 -344v-8q223 0 357 -120t134 -306q0 -205 -194 -314q-183 -102 -502 -102h-788zM586 358q0 -127 65 -180t219 -53q330 0 330 297q0 182 -119 266 q-115 80 -397 80h-98v-410zM586 891h121q178 0 274 67q98 68 98 211q0 150 -73.5 216.5t-237.5 66.5h-145q-37 0 -37 -35v-526z" />
<glyph unicode="C" horiz-adv-x="1685" d="M96 762q0 371 234.5 603t609.5 232q231 0 469 -147l39 127h100l-41 -518h-82q-43 188 -167.5 296.5t-299.5 108.5q-240 0 -372.5 -183t-132.5 -507q0 -317 132 -488t382 -171q416 0 530 440h90v-555h-96l-29 162q-225 -182 -547 -182q-373 0 -596 211.5t-223 570.5z" />
<glyph unicode="D" horiz-adv-x="1882" d="M72 0v82q137 4 176 46t39 187v947q0 143 -33 185t-150 48v82h779q393 0 649 -230.5t256 -584.5q0 -336 -240.5 -549t-621.5 -213h-854zM588 358q0 -233 301 -233q268 0 412.5 163t144.5 470q0 326 -151.5 510t-415.5 184h-256q-35 0 -35 -35v-1059z" />
<glyph unicode="E" horiz-adv-x="1564" d="M72 0v82q137 4 176 47t39 186v947q0 143 -35 185t-158 48v82h1295l14 -401h-88q-27 172 -113 232t-305 60h-231q-51 0 -64.5 -13t-13.5 -62v-521q264 0 335.5 42t90.5 208h76v-600h-76q-10 72 -25.5 112t-40 69.5t-75 42t-113 17.5t-172.5 5v-422q0 -133 75.5 -183 t274.5 -50q233 0 331.5 73.5t141.5 282.5h82l-33 -469h-1388z" />
<glyph unicode="F" horiz-adv-x="1411" d="M72 0v82q137 4 176 47t39 186v947q0 143 -35 185t-158 48v82h1254l24 -432h-86q-25 178 -104.5 247.5t-274.5 69.5h-282q-37 0 -37 -35v-591q250 0 330.5 50t95.5 216h76v-641h-76q-25 170 -102.5 217t-323.5 49v-397q0 -158 52 -201t247 -47v-82h-815z" />
<glyph unicode="G" horiz-adv-x="1794" d="M96 760q0 373 229.5 605t596.5 232q238 0 489 -147l39 127h74v-518h-103q-41 193 -164.5 299t-310.5 106q-233 0 -364 -182t-131 -506q0 -317 128 -488t367 -171q172 0 270.5 89t98.5 247q0 94 -50.5 139t-164.5 53v82h663v-82q-100 0 -139 -44t-39 -159v-272 q-90 0 -137 -15.5t-158 -82.5q-155 -92 -393 -92q-369 0 -585 210.5t-216 569.5z" />
<glyph unicode="H" horiz-adv-x="1935" d="M72 0v82q137 4 176 46t39 187v947q0 143 -34 185t-159 48v82h707v-82q-137 -4 -175 -48t-38 -200v-377h760v392q0 143 -39 185t-176 48v82h708v-82q-125 -4 -158.5 -48t-33.5 -200v-917q0 -156 37.5 -200t177.5 -48v-82h-752v82q150 4 193 46t43 187v428h-760v-413 q0 -156 41 -200t192 -48v-82h-749z" />
<glyph unicode="I" horiz-adv-x="878" d="M74 0v82q139 4 177 55t38 240v823q0 176 -36 232.5t-159 62.5v82h690v-82q-123 -6 -158.5 -62.5t-35.5 -232.5v-823q0 -188 38 -239.5t177 -55.5v-82h-731z" />
<glyph unicode="J" horiz-adv-x="833" d="M-344 -307q0 57 37 90t94 33q45 0 73.5 -23.5t69.5 -93.5q39 -66 72 -89.5t82 -23.5q88 0 135 96.5t47 270.5v1309q0 143 -34.5 185t-159.5 48v82h690v-82q-127 -4 -161 -48t-34 -200v-1251q0 -258 -133 -393t-389 -135q-180 0 -284.5 62t-104.5 163z" />
<glyph unicode="K" horiz-adv-x="1683" d="M72 0v82q137 4 176 47t39 186v947q0 141 -35 184t-158 49v82h707v-82q-137 -4 -175 -48t-38 -200v-454l530 569q47 51 47 86q0 47 -139 47v82h559v-80q-92 -4 -148.5 -37t-176.5 -157l-365 -381l602 -734q78 -98 229 -106v-82h-757v82q157 2 157 54q0 34 -73 124 l-363 447l-102 -107v-270q0 -156 34.5 -200t159.5 -48v-82h-710z" />
<glyph unicode="L" horiz-adv-x="1546" d="M72 0v82q137 4 176 47t39 186v947q0 143 -35 185t-158 48v82h707v-82q-137 -4 -175 -48t-38 -200v-858q0 -168 75.5 -222t294.5 -54q240 0 335.5 69.5t140.5 282.5h82l-33 -465h-1411z" />
<glyph unicode="M" horiz-adv-x="2344" d="M61 0v82q154 4 196 55t42 240v823q0 178 -40 236.5t-175 58.5v82h621l477 -1194h8l473 1194h598v-82q-133 0 -172 -59.5t-39 -249.5v-795q0 -201 40 -253t194 -56v-82h-771v82q154 4 195 55t41 240v958h-10l-551 -1355h-152l-569 1355h-8v-944q0 -201 40 -253t193 -56 v-82h-631z" />
<glyph unicode="N" horiz-adv-x="1925" d="M61 0v82q152 4 194 55t42 240v823q0 176 -40 232.5t-175 62.5v82h571l826 -1184h8v793q0 201 -37 253t-176 56v82h608v-82q-152 -4 -193.5 -55t-41.5 -240v-1220h-275l-907 1292h-8v-881q0 -201 36.5 -253t176.5 -56v-82h-609z" />
<glyph unicode="O" horiz-adv-x="1931" d="M92 776q0 346 253 583.5t621.5 237.5t621.5 -237.5t253 -583.5q0 -334 -254 -565t-620.5 -231t-620.5 231t-254 565zM449 770q0 -303 139 -480t379 -177q238 0 378 177t140 480q0 319 -139.5 506.5t-379 187.5t-378.5 -187t-139 -507z" />
<glyph unicode="P" horiz-adv-x="1468" d="M72 0v82q137 4 176 47t39 186v947q0 143 -34 185t-159 48v82h709q309 0 470 -111.5t161 -326.5q0 -219 -173.5 -336t-498.5 -117h-174v-360q0 -156 53 -200t244 -44v-82h-813zM588 809h133q197 0 290 81t93 251q0 321 -320 321h-2h-157q-37 0 -37 -35v-618z" />
<glyph unicode="Q" horiz-adv-x="1943" d="M94 772q0 350 250 587.5t621 237.5q373 0 629.5 -238.5t256.5 -584.5q0 -209 -103 -387t-290 -299q-119 -76 -364 -162q-139 -49 -215 -98v-8q37 4 79 4q117 0 322 -61.5t319 -61.5q96 0 152.5 35t87.5 117h76q8 -47 8 -89q0 -127 -108.5 -211.5t-270.5 -84.5 q-129 0 -267 62t-260 124.5t-208 62.5q-78 0 -152.5 -58t-121.5 -58q-35 0 -55.5 16t-20.5 41q0 35 30.5 63.5t118.5 77.5l258 146q-330 29 -551 265t-221 562zM451 768q0 -328 138 -517.5t376 -189.5q242 0 386 192.5t144 514.5q0 319 -143.5 507.5t-386.5 188.5 q-240 0 -377 -186t-137 -510z" />
<glyph unicode="R" horiz-adv-x="1669" d="M72 0v82q135 0 175 44t40 189v947q0 143 -34 185t-159 48v82h709q295 0 457.5 -104.5t162.5 -290.5q0 -365 -411 -439l475 -544q100 -117 254 -117v-82h-486l-507 623q-86 104 -160 104v-401q0 -154 52 -199t245 -45v-82h-813zM588 850h133q195 0 289 77t94 244 q0 131 -81 211t-220 80h-178q-37 0 -37 -35v-577z" />
<glyph unicode="S" horiz-adv-x="1357" d="M111 522h79q27 -193 155 -305.5t314 -112.5q154 0 248 70t94 184q0 96 -73.5 155.5t-311.5 148.5q-469 178 -469 501q0 193 141.5 313.5t364.5 120.5q203 0 379 -131l37 103h49l23 -443h-80q-49 166 -153.5 256.5t-241.5 90.5q-125 0 -205 -62.5t-80 -161.5 q0 -88 67.5 -141t280.5 -133q285 -109 411 -233t126 -293q0 -207 -171 -338t-440 -131q-227 0 -424 143l-41 -123h-49z" />
<glyph unicode="T" horiz-adv-x="1693" d="M25 1126l20 451h1604l20 -451h-88q-12 197 -92 270.5t-252 73.5q-156 0 -200 -12t-44 -51v-1073q0 -139 51.5 -192.5t225.5 -59.5v-82h-858v82q174 6 227 59.5t53 192.5v1073q0 39 -39 51t-172 12q-74 0 -116.5 -4t-98 -22.5t-85 -53t-52.5 -101t-25 -163.5h-79z" />
<glyph unicode="U" horiz-adv-x="1802" d="M55 1495v82h736v-82q-154 0 -191 -45q-27 -33 -37 -101.5t-10 -228.5v-536q0 -231 99.5 -344t305.5 -113q422 0 422 469v473q0 172 -13 252t-46 119q-53 55 -199 55v82h664v-82q-137 0 -180 -51q-56 -70 -56 -375v-434q0 -348 -155.5 -501.5t-507.5 -153.5 q-330 0 -482.5 138t-152.5 441v561q0 270 -37 326q-33 49 -160 49z" />
<glyph unicode="V" horiz-adv-x="1648" d="M-63 1493v84h774v-84q-106 -2 -144.5 -19.5t-38.5 -62.5q0 -49 41 -162l328 -897l266 682q76 195 97.5 264.5t21.5 116.5q0 49 -37 64.5t-147 15.5v82h581v-82q-170 0 -235 -166l-539 -1349h-151l-490 1196q-80 193 -143.5 255t-183.5 62z" />
<glyph unicode="W" horiz-adv-x="2512" d="M-57 1493v84h774v-84q-100 0 -141 -19.5t-41 -64.5q0 -43 51 -186l286 -826l332 906q-39 109 -86 143.5t-149 46.5v84h723v-84q-88 0 -128 -22.5t-40 -81.5q0 -55 35 -166l258 -826l276 791q49 137 49 205q0 59 -41 80.5t-139 21.5v82h582v-82q-176 0 -236 -166 l-493 -1349h-183l-356 1081l-406 -1081h-170l-434 1196q-74 203 -136 260t-187 57z" />
<glyph unicode="X" horiz-adv-x="1736" d="M-4 0v82q113 0 167 24.5t122 106.5l448 547l-477 618q-53 68 -107.5 92.5t-128.5 24.5v82h771v-82q-139 0 -140 -74q0 -53 62 -137l211 -291l264 316q57 70 57 123q0 33 -32.5 48t-133.5 15v82h611v-82q-88 0 -134.5 -13.5t-76.5 -47.5l-457 -566l465 -641 q106 -145 272 -145v-82h-764v82q96 0 128 13.5t32 39.5q0 23 -19.5 56.5t-88.5 130.5l-220 311l-141 -174q-33 -41 -85 -100.5t-79.5 -92.5t-50 -68.5t-22.5 -58.5q0 -33 40.5 -45t135.5 -12v-82h-629z" />
<glyph unicode="Y" horiz-adv-x="1556" d="M-29 1495v82h688v-82q-155 0 -155 -64q0 -32 51 -128l293 -560h8l258 431q121 203 121 260q0 35 -32 48t-118 13v82h514v-82q-90 0 -158.5 -71.5t-209.5 -311.5l-299 -512v-209q0 -201 40 -255t173 -54v-82h-729v82q131 0 173 53t42 242v188l-424 754q-61 106 -108.5 141 t-127.5 35z" />
<glyph unicode="Z" horiz-adv-x="1632" d="M31 0v47l1030 1423h-518q-150 0 -226.5 -74.5t-107.5 -236.5h-80l33 418h1327v-47l-1020 -1415h586q215 0 291.5 80.5t115.5 326.5h94l-26 -522h-1499z" />
<glyph unicode="[" horiz-adv-x="802" d="M197 -307v1986h579v-106h-325v-1774h325v-106h-579z" />
<glyph unicode="\" horiz-adv-x="976" d="M45 1577h125l760 -1577h-146z" />
<glyph unicode="]" horiz-adv-x="802" d="M27 -201h325v1774h-325v106h579v-1986h-579v106z" />
<glyph unicode="^" horiz-adv-x="1007" d="M131 471l277 369h192l277 -369h-117l-256 203l-256 -203h-117z" />
<glyph unicode="_" horiz-adv-x="1495" d="M135 -143h1225v-160h-1225v160z" />
<glyph unicode="`" horiz-adv-x="612" d="M33 1573q0 43 30.5 67.5t81.5 24.5q80 0 174 -88l261 -244h-131l-275 123q-74 33 -107.5 58.5t-33.5 58.5z" />
<glyph unicode="a" horiz-adv-x="1175" d="M70 244q0 184 346 323l289 125v86q0 227 -173 228q-57 0 -88.5 -31t-58.5 -107q-39 -108 -143 -108h-2q-57 0 -88 34.5t-31 98.5q0 98 110.5 155.5t321.5 57.5q231 0 328.5 -83t97.5 -278v-448q0 -174 70 -174q39 0 71 27l31 -60q-27 -51 -88.5 -80.5t-136.5 -29.5 q-94 0 -143.5 57t-49.5 162h-10q-119 -217 -369 -217q-127 0 -205.5 72.5t-78.5 189.5zM358 301q0 -59 33 -94t82 -35q98 0 165 62.5t67 154.5v195q-178 -82 -262.5 -147.5t-84.5 -135.5z" />
<glyph unicode="b" horiz-adv-x="1380" d="M-2 1548v70l459 82v-756h8q111 162 328 162q215 0 362.5 -163t147.5 -398q0 -242 -156 -405t-377 -163q-111 0 -210 43t-161 117l-155 -137h-70v1219q0 193 -27 264q-12 31 -37.5 42t-111.5 23zM461 449q0 -152 80 -252.5t200.5 -100.5t185 114t64.5 331q0 436 -250 436 q-74 0 -136 -40t-97 -112q-47 -97 -47 -247v-129z" />
<glyph unicode="c" horiz-adv-x="1155" d="M80 539q0 254 164 410.5t426 156.5q184 0 306 -69.5t122 -172.5q0 -59 -34 -94t-91 -35q-86 0 -154 105q-61 96 -91 121.5t-83 25.5q-119 0 -184.5 -110.5t-65.5 -309.5q0 -213 79 -327.5t226 -114.5q170 0 328 123l53 -78q-162 -180 -444 -180q-250 0 -403.5 151.5 t-153.5 397.5z" />
<glyph unicode="d" horiz-adv-x="1421" d="M80 534.5q0 243.5 148.5 407.5t369.5 164q213 0 320 -135h8v174q0 268 -13 321q-18 82 -223 82v70l518 82v-1172q0 -283 15 -362q8 -53 35.5 -68.5t115.5 -15.5v-80l-389 -22v151h-8q-140 -151 -364 -151h-3q-233 0 -381.5 155.5t-148.5 399zM391 539q0 -213 63.5 -328 t182.5 -115q68 0 129 35t100 94q56 84 56 283v80q0 160 -66 262q-76 121 -217 121q-119 0 -183.5 -111.5t-64.5 -320.5z" />
<glyph unicode="e" d="M78 528q0 254 165 416t423 162q217 0 337.5 -118t120.5 -326q0 -33 -10 -40.5t-57 -7.5h-660q-8 -18 -8 -67q0 -201 87 -317.5t237 -116.5h2q169 0 334 149l57 -72q-185 -210 -462 -210h-3q-252 0 -407.5 152.5t-155.5 395.5zM412 729h297q84 0 106.5 9.5t22.5 43.5 q0 88 -51.5 146.5t-129.5 58.5q-88 0 -156.5 -72.5t-88.5 -185.5z" />
<glyph unicode="f" horiz-adv-x="907" d="M35 973v112h221v115q0 223 143.5 361.5t374.5 138.5q137 0 228.5 -49t91.5 -125q0 -47 -36 -78t-87 -31q-35 0 -61.5 21.5t-86.5 93.5q-45 53 -106 53q-82 0 -129 -100.5t-47 -272.5v-127h346v-112h-346v-633q0 -154 44 -204t179 -54v-82h-692v82q123 6 153.5 46 t30.5 196v649h-221z" />
<glyph unicode="g" horiz-adv-x="1249" d="M45 -246q0 102 54.5 158.5t140.5 56.5q117 0 188 -84q-53 -10 -87 -48t-34 -89q0 -82 74 -126t213 -44q307 0 307 195q0 72 -47 121t-131 59l-358 49q-227 31 -228 203q0 82 54.5 136t154.5 75v8q-92 37 -151.5 128t-59.5 196q0 154 120 256t300 102q184 0 315 -100 q162 100 250 100q78 0 126 -35t48 -92q0 -43 -26.5 -70.5t-69.5 -27.5q-41 0 -85 44t-85 44q-43 0 -82 -56q37 -66 37 -168q0 -162 -105.5 -264t-328.5 -127q-98 -10 -136 -26.5t-38 -48.5q0 -50 92 -58q188 -16 334 -39q158 -23 250 -120t92 -240q0 -174 -144.5 -264 t-420.5 -90q-254 0 -393.5 74.5t-139.5 211.5zM412 739q0 -121 41.5 -194.5t111.5 -73.5q66 0 103 69.5t37 194.5q0 127 -37 195.5t-105 68.5q-70 0 -110.5 -70.5t-40.5 -189.5z" />
<glyph unicode="h" horiz-adv-x="1462" d="M33 0v82q125 8 153.5 46t28.5 194v841q0 231 -14 301q-10 51 -40 66.5t-122 15.5v76l457 78v-756h8q123 162 332 162q201 0 311 -123q115 -131 115 -330v-317q0 -94 3 -136t23.5 -72t50 -36t97.5 -10v-82h-641v82q123 6 152.5 45t29.5 195v251q0 219 -47 308.5t-162 89.5 q-123 0 -195 -90q-73 -101 -73 -273v-272q0 -168 27.5 -207t150.5 -47v-82h-645z" />
<glyph unicode="i" horiz-adv-x="739" d="M51 958v70l475 78v-770q0 -164 30 -207t149 -47v-82h-646v82q115 6 149 50t34 190v251q0 238 -15 301q-10 51 -46 67.5t-130 16.5zM225 1540q0 68 46 114t112 46q68 0 114 -46t46 -114q0 -66 -46 -112t-114 -46q-66 0 -112 46t-46 112z" />
<glyph unicode="j" horiz-adv-x="677" d="M-313 -330q0 49 32.5 78t77.5 29q51 0 86 -32t51.5 -68.5t50 -68.5t83.5 -32q78 0 114.5 61.5t36.5 202.5v754q0 213 -16 283q-10 49 -45 65t-129 16v70l475 78v-1110q0 -254 -125 -391t-356 -137q-154 0 -245 57t-91 145zM203 1540q0 68 46 114t111 46q68 0 114 -46 t46 -114q0 -66 -46 -112t-114 -46q-66 0 -111.5 46t-45.5 112z" />
<glyph unicode="k" horiz-adv-x="1359" d="M33 0v82q113 2 147.5 48t34.5 192v868q0 94 -1 144t-8 96.5t-16.5 64.5t-32 32.5t-47 16.5t-71.5 2v76l457 78v-1139l196 187q197 184 197 223q0 33 -178 33v81h559v-81q-78 0 -136.5 -27t-129.5 -92l-199 -187l354 -501q47 -66 92 -90.5t119 -24.5v-82h-637v82 q119 0 119 27q0 29 -98 172l-156 233l-102 -98v-80q0 -158 26.5 -206t114.5 -48v-82h-604z" />
<glyph unicode="l" horiz-adv-x="727" d="M31 1552v70l475 78v-1364q0 -164 29.5 -207t148.5 -47v-82h-645v82q115 6 148.5 50t33.5 190v845q0 238 -14 301q-10 51 -46 67.5t-130 16.5z" />
<glyph unicode="m" horiz-adv-x="2265" d="M53 958v70l396 78l24 -178h12q86 94 173 136t202 42q264 0 357 -182h8q156 182 395 182q250 0 356 -119q80 -92 80 -334v-315q0 -168 27.5 -208t150.5 -48v-82h-647v82q123 6 152.5 46t29.5 194v268q0 213 -51 298t-178 85q-125 0 -194 -125q-53 -96 -54 -240v-270 q0 -170 28 -209t153 -47v-82h-650v82q123 8 153 46t30 194v268q0 215 -52.5 299t-185.5 84q-121 0 -184 -121q-56 -105 -56 -244v-270q0 -170 27 -209t150 -47v-82h-648v82q123 8 154 47t31 193v253q0 250 -15 302q-12 51 -43.5 66t-130.5 15z" />
<glyph unicode="n" horiz-adv-x="1488" d="M51 958v70l395 78l27 -180h8q143 180 363 180q129 0 211 -36t145 -120q88 -119 88 -327v-289q0 -166 27.5 -205t146.5 -47v-82h-641v82q121 6 152 46t31 191v279q0 209 -52.5 292t-185.5 83q-123 0 -195 -139q-45 -91 -45 -218v-282q0 -166 28 -205t151 -47v-82h-646v82 q121 8 152 47t31 190v256q0 236 -15 297q-12 53 -47 69.5t-129 16.5z" />
<glyph unicode="o" horiz-adv-x="1351" d="M76 551q0 240 174 397.5t422 157.5t426 -159t178 -396q0 -246 -178 -408.5t-426 -162.5t-422 162.5t-174 408.5zM397 549q0 -203 75 -324t200 -121q129 0 205.5 122t76.5 323q0 197 -77.5 317.5t-204.5 120.5q-125 0 -200 -121t-75 -317z" />
<glyph unicode="p" horiz-adv-x="1427" d="M35 961v79l411 58v-146h9q135 154 352 154q238 0 390.5 -159t152.5 -404q0 -244 -151.5 -403.5t-387.5 -159.5q-199 0 -303 135h-8v-285q0 -162 43 -207t202 -49v-86h-706v86q111 4 144.5 49t33.5 193v762q0 221 -14 299q-10 47 -46 65.5t-122 18.5zM504 475 q0 -145 71 -248q77 -112 218 -112h2q246 0 245 424q1 450 -245 450q-141 0 -220 -104q-72 -98 -71 -271v-139z" />
<glyph unicode="q" horiz-adv-x="1380" d="M80 539q0 248 149.5 407.5t380.5 159.5q205 0 351 -139l155 118h90v-1259q0 -170 31 -211t168 -45v-82h-733v82q150 2 201 52.5t51 189.5v315h-11q-133 -147 -313 -147q-225 0 -372.5 158.5t-147.5 400.5zM389 551q0 -213 65.5 -325.5t188.5 -112.5q74 0 135.5 40 t93.5 109q48 101 48 248v127q0 150 -79 250t-198 100q-121 0 -187.5 -113.5t-66.5 -322.5z" />
<glyph unicode="r" horiz-adv-x="1019" d="M53 958v72l410 76l33 -236h8q55 109 145 172.5t191 63.5q78 0 127 -39t49 -98q0 -68 -39 -112t-103 -44q-45 0 -99 41t-79 41q-39 0 -73.5 -51t-57.5 -137q-37 -133 -37 -291v-99q0 -158 37 -195.5t180 -39.5v-82h-684v82q125 8 154 46t29 194v249q0 254 -33 320.5 t-158 66.5z" />
<glyph unicode="s" horiz-adv-x="954" d="M111 0v373h86q35 -145 100 -214t170 -69q76 0 118 32t42 87q0 111 -217 227q-156 84 -223.5 167t-67.5 188q0 137 95 227t239 90q135 0 235 -70l37 49h53v-309h-80q-47 117 -98 168t-121 51q-57 0 -91 -30.5t-34 -81.5q0 -57 51.5 -108.5t165.5 -112.5 q166 -90 238 -175.5t72 -195.5q0 -141 -102.5 -227t-270.5 -86q-187 0 -289 92l-45 -72h-63z" />
<glyph unicode="t" horiz-adv-x="782" d="M51 973v92q240 70 330 268h104v-248h236v-112h-236v-629q0 -125 28 -179t93 -54q80 0 121 73l43 -59q-57 -145 -270 -145q-141 0 -220 65.5t-79 183.5v744h-150z" />
<glyph unicode="u" horiz-adv-x="1452" d="M27 1004v81h458v-579q0 -205 51.5 -299t163.5 -94q123 0 187 110q65 107 65 314v213q0 166 -26.5 203.5t-151.5 50.5v81h463v-620q0 -238 14 -301q10 -53 42 -67.5t132 -14.5v-80l-407 -25l-23 183h-8q-51 -84 -148.5 -132t-215.5 -48q-219 0 -334 155q-88 119 -88 338 v277q0 94 -3 134t-23.5 69.5t-49.5 35.5t-98 15z" />
<glyph unicode="v" horiz-adv-x="1277" d="M14 1004v81h613v-81q-96 0 -123 -15.5t-27 -52.5q0 -43 35 -131l195 -537h8l219 535q31 76 31 112q0 45 -32 65.5t-108 23.5v81h453v-81q-59 0 -98 -31t-80 -125l-383 -868h-187l-323 841q-45 115 -82 149t-111 34z" />
<glyph unicode="w" horiz-adv-x="1824" d="M16 1004v81h586v-81q-74 -2 -102.5 -21.5t-28.5 -67.5q0 -29 23 -110l129 -479h8l287 759h167l215 -759h11l164 424q37 94 36 155q0 98 -129 99v81h441v-81q-74 0 -112 -49.5t-124 -266.5l-282 -708h-162l-217 727h-8l-277 -727h-154l-280 841q-31 96 -75 137t-116 46z " />
<glyph unicode="x" horiz-adv-x="1327" d="M18 0v82q156 0 224 80l284 334l-342 434q-37 47 -66.5 60.5t-82.5 13.5v81h624v-81q-104 0 -104 -58q0 -20 23 -53l145 -205l108 139q47 59 59.5 80t12.5 43q0 53 -102 54v81h471v-81q-80 -4 -134.5 -34t-136.5 -126l-208 -242l323 -416q47 -59 91 -81.5t114 -22.5v-82 h-651v82q59 0 82.5 10t23.5 39q0 37 -57 115l-119 164l-90 -109q-102 -123 -102 -156q0 -63 124 -63v-82h-514z" />
<glyph unicode="y" horiz-adv-x="1323" d="M16 1004v81h621v-81q-80 0 -111.5 -16.5t-31.5 -55.5q0 -27 18 -82l209 -598h8l176 399q90 207 90 262q0 53 -29.5 72t-119.5 19v81h493v-81q-80 0 -128 -57.5t-154 -284.5l-469 -984q-43 -90 -131 -150t-178 -60q-68 0 -109 32.5t-41 87.5q0 102 152 115q182 14 235 115 l55 106l-362 897q-47 119 -80 148.5t-113 34.5z" />
<glyph unicode="z" horiz-adv-x="1163" d="M53 0v47l641 930h-188q-176 0 -232.5 -38t-80.5 -173h-80l24 319h924v-47l-631 -927h180q215 0 288 43t112 194h80l-25 -348h-1012z" />
<glyph unicode="{" horiz-adv-x="724" d="M39 666v71q115 23 153.5 81.5t38.5 182.5v349q0 201 86 275.5t345 74.5v-68q-96 -23 -136.5 -82t-40.5 -168v-356q0 -143 -49 -219t-203 -100v-11q147 -20 199.5 -88.5t52.5 -201.5v-396q0 -111 40 -168t147 -84v-65q-256 0 -348.5 65.5t-92.5 249.5v391q0 106 -45 182 t-147 85z" />
<glyph unicode="|" horiz-adv-x="604" d="M193 -512v2191h219v-2191h-219z" />
<glyph unicode="}" horiz-adv-x="724" d="M53 -242q106 27 146.5 84t40.5 168v396q0 133 52 201.5t200 88.5v11q-154 25 -203 100.5t-49 218.5v356q0 109 -40 168.5t-137 81.5v68q258 0 344.5 -75t86.5 -275v-349q0 -125 38.5 -183t153.5 -81v-71q-102 -8 -147 -84t-45 -183v-391q0 -184 -92.5 -249.5 t-348.5 -65.5v65z" />
<glyph unicode="~" horiz-adv-x="1150" d="M150 510q20 125 87.5 199.5t163.5 74.5q59 0 203 -47t205 -47q43 0 67.5 19.5t38.5 66.5h93q-23 -135 -88.5 -208.5t-163.5 -73.5q-61 0 -199.5 49t-214.5 49q-43 0 -62.5 -15.5t-35.5 -66.5h-94z" />
<glyph unicode="&#xa1;" horiz-adv-x="636" d="M160 164q0 59 6 119.5t12 101.5t19.5 112.5t19.5 112.5q41 262 41 543h123q0 -281 41 -543q6 -41 19.5 -112.5t19.5 -112.5t12 -101.5t6 -119.5q0 -184 -159.5 -184t-159.5 184zM162 1444q0 66 45 109.5t110.5 43.5t110.5 -44t45 -109.5t-45 -110.5t-111 -45 q-63 0 -109 46t-46 110z" />
<glyph unicode="&#xa2;" horiz-adv-x="1185" d="M90 535q0 233 134 384.5t360 180.5v299h131v-293q186 -6 289.5 -81t103.5 -167q0 -49 -32 -86t-93 -37q-88 0 -154 107q-59 109 -114 133v-848q178 2 323 121l54 -78q-129 -150 -377 -182v-289h-131v281q-221 10 -357.5 161.5t-136.5 393.5zM406 565q0 -338 178 -415v831 q-178 -51 -178 -416z" />
<glyph unicode="&#xa3;" horiz-adv-x="1449" d="M72 147q0 88 66.5 144.5t168.5 56.5q111 0 232 -55q8 37 8 115q0 133 -119 350h-268v125h227q-49 154 -49 272q0 203 142.5 322.5t383.5 119.5q188 0 310 -71.5t122 -184.5q0 -104 -110 -104q-51 0 -82 24.5t-47.5 60.5t-36 72t-62.5 60.5t-112 24.5q-111 0 -178.5 -56.5 t-67.5 -150.5q0 -92 29 -178l76 -211h436v-125h-408q29 -113 29 -203q0 -186 -82 -297q170 -35 342 -35q205 0 317 101l23 -9q0 -336 -324 -335q-154 0 -438 120q-41 -51 -131 -87t-180 -36q-100 0 -158.5 46.5t-58.5 123.5zM231 165.5q0 -65.5 93 -65.5q98 1 172 58 q-123 74 -187 73q-78 0 -78 -65.5z" />
<glyph unicode="&#xa4;" horiz-adv-x="1249" d="M104 965l76 71l154 -147q125 96 291 96q162 0 290 -96l154 147l76 -71l-156 -148q104 -121 104.5 -278.5t-100.5 -276.5l152 -145l-76 -72l-151 145q-125 -96 -293 -96q-170 0 -293 99l-152 -146l-74 70l152 145q-100 119 -100 277q0 160 100 278zM287 539 q0 -133 99 -227.5t238.5 -94.5t240 94.5t100.5 227.5t-100.5 228t-240 95t-238.5 -95t-99 -228z" />
<glyph unicode="&#xa5;" horiz-adv-x="1742" d="M57 1495v82h703v-82q-92 0 -125 -14.5t-33 -50.5q0 -41 43 -123l293 -564h8l242 410q80 135 103.5 187.5t23.5 89.5q0 35 -30 50t-109 15v82h514v-82q-92 0 -156 -59.5t-188 -272.5l-244 -418h252v-133h-336v-131h336v-133h-336q2 -168 41 -217t180 -53v-78h-737v78 q139 4 176 53t39 217h-338v133h338v131h-338v133h244l-330 578q-61 109 -104.5 140.5t-131.5 31.5z" />
<glyph unicode="&#xa6;" horiz-adv-x="622" d="M201 -369v789h221v-789h-221zM201 748v788h221v-788h-221z" />
<glyph unicode="&#xa7;" horiz-adv-x="1146" d="M96 0q0 82 37 131t100 49q59 0 102.5 -40t43.5 -95q0 -49 -47 -102.5t-47 -73.5q0 -45 85 -79t195 -34q131 0 203 54.5t72 150.5q0 66 -50.5 116t-214.5 142l-221 125q-129 74 -190.5 161t-61.5 204q0 217 203 313q-76 55 -120 144t-44 186q0 158 115 253t307 95 q180 0 296 -83t116 -214q0 -72 -36 -113t-99 -41q-59 0 -97 35t-38 90q0 43 30.5 78t30.5 51q0 41 -57.5 67.5t-145.5 26.5q-221 0 -221 -182q0 -53 45 -101t201 -143l215 -131q135 -82 191.5 -169t56.5 -199q0 -188 -177 -310q156 -137 156 -329q0 -172 -131 -280.5 t-342 -108.5q-201 0 -331 100t-130 256zM293 803q0 -100 133 -174l348 -197q96 61 96 139q-2 59 -50 120t-124 102l-286 161q-117 -66 -117 -151z" />
<glyph unicode="&#xa8;" horiz-adv-x="747" d="M41 1516q0 57 38 95t93 38q57 0 95 -38t38 -95q0 -55 -38 -93.5t-95 -38.5q-55 0 -93 38.5t-38 93.5zM442 1516q0 57 38 95t93 38q57 0 95.5 -38t38.5 -95q0 -55 -38 -93.5t-96 -38.5q-55 0 -93 38.5t-38 93.5z" />
<glyph unicode="&#xa9;" horiz-adv-x="1847" d="M92 788.5q0 333.5 240.5 571t585.5 237.5q348 0 592.5 -235t244.5 -571q0 -338 -243.5 -574.5t-591.5 -236.5q-344 0 -586 237.5t-242 571zM215 788.5q0 -284.5 206 -487.5t498.5 -203t502.5 204t210 489q0 287 -210 487.5t-504 200.5q-293 0 -498 -203t-205 -487.5z M444 768q0 213 142.5 346t369.5 133q131 0 273 -104l20 92h45l11 -268h-56q-27 82 -101.5 130t-178.5 48q-137 0 -212 -97.5t-75 -271.5q0 -170 74.5 -260t216.5 -90q213 0 272 199h72q-33 -141 -126 -222t-247 -81q-229 0 -364.5 121.5t-135.5 324.5z" />
<glyph unicode="&#xaa;" horiz-adv-x="780" d="M109 1159q0 55 41.5 96t152.5 88l129 64v29q0 92 -86 92q-47 0 -65.5 -12.5t-32.5 -51.5q-23 -59 -66 -59q-66 0 -65 57q0 55 66.5 95t181.5 40q121 0 170 -35.5t49 -121.5v-209q0 -119 47 -119q35 0 51 27l16 -45q-39 -55 -139 -56q-117 0 -117 78h-8q-53 -78 -160 -78 q-76 0 -120.5 34t-44.5 87zM283 1188q0 -25 18 -41.5t47 -16.5q35 0 59.5 41.5t24.5 98.5v59q-150 -66 -149 -141z" />
<glyph unicode="&#xab;" horiz-adv-x="1132" d="M94 537l402 378l65 -47l-188 -331l184 -330l-70 -49zM545 537l401 378l66 -47l-189 -331l185 -330l-70 -49z" />
<glyph unicode="&#xac;" horiz-adv-x="1304" d="M145 621v143h1004v-539h-148v396h-856z" />
<glyph unicode="&#xad;" horiz-adv-x="956" d="M135 496v194h686v-194h-686z" />
<glyph unicode="&#xae;" horiz-adv-x="1847" d="M92 788.5q0 333.5 240.5 571t585.5 237.5q348 0 592.5 -235t244.5 -571q0 -338 -243.5 -574.5t-591.5 -236.5q-344 0 -586 237.5t-242 571zM215 788.5q0 -284.5 206 -487.5t498.5 -203t502.5 204t210 489q0 287 -210 487.5t-504 200.5q-293 0 -498 -203t-205 -487.5z M492 375v55q63 2 81.5 26.5t18.5 102.5v510q0 80 -15.5 103.5t-72.5 25.5v62h377q180 0 280.5 -59t100.5 -163q0 -199 -252 -233l266 -297q55 -63 145 -78v-55h-254l-297 350q-51 59 -98 59v-219q0 -86 25.5 -110.5t120.5 -24.5v-55h-426zM772 852h76q104 0 154.5 43 t50.5 137q0 84 -40 120t-132 36h-88q-21 -1 -21 -19v-317z" />
<glyph unicode="&#xaf;" horiz-adv-x="667" d="M43 1417v133h582v-133h-582z" />
<glyph unicode="&#xb0;" horiz-adv-x="684" d="M84 1351.5q0 100.5 76 173t182.5 72.5t182 -72.5t75.5 -173t-75.5 -173t-182 -72.5t-182.5 72.5t-76 173zM178 1351.5q0 -63.5 49 -108.5t115 -45t113 45t47 108.5t-47 107.5t-113 44t-115 -44t-49 -107.5z" />
<glyph unicode="&#xb1;" horiz-adv-x="1286" d="M139 180v131h1008v-131h-1008zM139 893v131h434v428h140v-428h434v-131h-434v-428h-140v428h-434z" />
<glyph unicode="&#xb2;" horiz-adv-x="581" d="M57 1427q0 74 63.5 122t160.5 48q100 0 163.5 -49t63.5 -127q0 -157 -293 -364v-8h162q37 0 57.5 17t34.5 67h53l-30 -175h-433v37q178 158 240.5 248t62.5 178q0 51 -26.5 80t-71.5 29q-35 0 -59.5 -24.5t-24.5 -59.5q0 -39 20.5 -63.5t53.5 -24.5q-4 -23 -24.5 -38 t-53.5 -15q-51 0 -85 34.5t-34 87.5z" />
<glyph unicode="&#xb3;" horiz-adv-x="579" d="M55 1096q0 45 31 74.5t76 29.5q66 0 80 -47q-23 0 -39.5 -19.5t-16.5 -46.5q0 -31 22.5 -49t61.5 -18q99 0 99 119q0 57 -23.5 90t-64.5 33q-37 -14 -60 -15q-47 0 -47 43q0 39 45 39q20 0 55 -10q35 0 57.5 36t22.5 89q0 88 -77.5 88t-77.5 -59q0 -47 49 -48 q-2 -16 -23.5 -28.5t-48.5 -12.5q-41 0 -68.5 29t-27.5 68q0 53 53 84.5t143 31.5q102 0 163 -39.5t61 -107.5q0 -51 -37 -93t-94 -54v-9q70 -16 110.5 -61t40.5 -105q0 -78 -69.5 -128t-176.5 -50q-94 0 -156.5 41t-62.5 105z" />
<glyph unicode="&#xb4;" horiz-adv-x="612" d="M33 1333l260 244q94 88 174 88q51 0 82 -24.5t31 -67.5q0 -33 -35 -59.5t-107 -57.5l-284 -123h-121z" />
<glyph unicode="&#xb5;" horiz-adv-x="1523" d="M61 1004v81h459v-559q0 -217 50.5 -315t160.5 -98q76 0 125 33.5t86 115.5q47 119 47 295v191q0 166 -26.5 204.5t-151.5 51.5v81h461v-628q0 -223 14 -293q10 -51 42 -66.5t132 -15.5v-80l-407 -25l-23 183h-8q-43 -96 -115.5 -138t-183.5 -42q-205 -1 -309 208l-8 -2 q43 -141 86 -323t43 -250t-38 -106.5t-104 -38.5q-68 0 -110.5 48t-42.5 119v1113q0 168 -27 206.5t-152 49.5z" />
<glyph unicode="&#xb6;" horiz-adv-x="1349" d="M68 1145q0 209 152.5 320.5t438.5 111.5h594v-88q-90 0 -126.5 -15.5t-53.5 -58.5q-24 -64 -24 -252v-1024q0 -248 28 -315q23 -74 176 -74v-88h-401v1804h-98v-1804h-455v88q113 0 166 18.5t70 61.5q20 57 20 309v584q-10 0 -32.5 -1t-41.5 -1q-195 0 -304 111.5 t-109 312.5z" />
<glyph unicode="&#xb7;" horiz-adv-x="575" d="M133 561q0 66 45 112t109 46q68 0 112.5 -46t44.5 -112q0 -63 -45 -107t-112 -44q-63 0 -108.5 44t-45.5 107z" />
<glyph unicode="&#xb8;" horiz-adv-x="497" d="M-8 -356q0 84 74 84q29 0 47 -16.5t37 -59.5q20 -49 39.5 -67.5t54.5 -18.5q41 0 65.5 25.5t24.5 66.5q0 111 -156 111q-43 0 -80 -5l-4 7l113 254h133l-66 -152q127 0 202 -51t75 -139q0 -94 -82 -154.5t-209 -60.5q-117 0 -192.5 50t-75.5 126z" />
<glyph unicode="&#xb9;" horiz-adv-x="509" d="M104 1511v52q101 1 218 34v-485q0 -63 16 -81.5t74 -20.5v-52h-303v52q57 2 73.5 19.5t16.5 76.5v260q0 109 -4 119q-4 27 -91 26z" />
<glyph unicode="&#xba;" horiz-adv-x="784" d="M84 1321q0 119 89 197.5t216 78.5q129 0 220 -78.5t91 -197.5q0 -121 -91 -202t-220 -81q-127 0 -216 81t-89 202zM262 1321q0 -94 35 -150.5t92 -56.5q59 0 95 56.5t36 150.5q0 90 -37 146.5t-94 56.5q-55 0 -91 -57.5t-36 -145.5z" />
<glyph unicode="&#xbb;" horiz-adv-x="1132" d="M121 868l65 47l402 -378l-393 -379l-70 49l184 330zM571 868l66 47l401 -378l-393 -379l-70 49l185 330z" />
<glyph unicode="&#xbc;" horiz-adv-x="1458" d="M57 0l1188 1577h146l-1170 -1577h-164zM279 1511v52q100 1 217 34v-485q0 -63 16 -81.5t74 -20.5v-52h-303v52q57 2 73.5 19.5t16.5 76.5v260q0 109 -4 119q-4 27 -90 26zM756 147v62l317 430h64v-432q53 2 66.5 14t13.5 60h38v-193h-38q0 39 -14.5 49t-65.5 13v-17 q0 -57 12 -73.5t55 -18.5v-41h-295v41q57 2 73.5 17.5t16.5 68.5v20h-243zM827 209h172v227h-8z" />
<glyph unicode="&#xbd;" horiz-adv-x="1466" d="M57 0l1188 1577h146l-1170 -1577h-164zM279 1511v52q100 1 217 34v-485q0 -63 16 -81.5t74 -20.5v-52h-303v52q57 2 73.5 19.5t16.5 76.5v260q0 109 -4 119q-4 27 -90 26zM803 469q0 74 63.5 122t159.5 48q100 0 163.5 -49t63.5 -127q1 -158 -292 -365v-8h161 q37 0 57.5 17.5t34.5 66.5h54l-31 -174h-432v37q178 158 240.5 248t62.5 178q0 51 -26.5 79.5t-71.5 28.5q-35 0 -59.5 -24.5t-24.5 -59.5q0 -39 20.5 -63.5t52.5 -24.5q-4 -23 -24.5 -38t-52.5 -15q-51 0 -85 35t-34 88z" />
<glyph unicode="&#xbe;" horiz-adv-x="1462" d="M70 0l1187 1577h146l-1170 -1577h-163zM193 1096q0 45 30.5 74.5t75.5 29.5q66 0 80 -47q-23 0 -39 -19.5t-16 -46.5q0 -31 22.5 -49t61.5 -18q98 0 98 119q0 57 -23.5 90t-64.5 33q-35 -14 -60 -15q-47 0 -47 43q0 39 45 39q20 0 56 -10q35 0 57.5 36t22.5 89 q0 88 -78 88t-78 -59q0 -47 49 -48q-2 -16 -23.5 -28.5t-48.5 -12.5q-39 0 -67.5 29t-28.5 68q0 53 53.5 84.5t143.5 31.5q102 0 162.5 -39.5t60.5 -107.5q0 -51 -37 -93t-94 -54v-9q70 -16 110.5 -61t40.5 -105q0 -78 -69.5 -128t-175.5 -50q-94 0 -156.5 41t-62.5 105z M768 147v62l317 430h64v-432q53 2 66.5 14t13.5 60h39v-193h-39q0 39 -14.5 49t-65.5 13v-17q0 -57 12.5 -73.5t55.5 -18.5v-41h-295v41q57 2 73.5 17.5t16.5 68.5v20h-244zM840 209h172v227h-8z" />
<glyph unicode="&#xbf;" horiz-adv-x="821" d="M92 492q0 164 92 256t258 92v247h140v-485h-72q-281 0 -281 -182q0 -90 55.5 -153.5t131.5 -63.5q27 0 83 11t79 11q59 0 97 -33.5t38 -87.5q0 -125 -154 -124q-182 0 -324.5 155.5t-142.5 356.5zM365 1444q0 66 45 109.5t110.5 43.5t110.5 -44t45 -109.5t-45 -110.5 t-110.5 -45t-110.5 46t-45 110z" />
<glyph unicode="&#xc0;" horiz-adv-x="1656" d="M-27 0v82q100 10 150.5 45t85.5 121l539 1349h151l490 -1196q59 -145 98 -204.5t84 -81t145 -31.5v-84h-774v84q104 4 144 21.5t40 64.5q0 45 -53 184l-47 123h-580q-96 -217 -96 -301q0 -57 42 -75.5t143 -18.5v-82h-562zM338 1890q0 76 117 76q104 0 192 -68l258 -198 h-149l-238 57q-102 25 -141 55.5t-39 77.5zM494 600h487l-236 621h-8z" />
<glyph unicode="&#xc1;" horiz-adv-x="1656" d="M-27 0v82q100 10 150.5 45t85.5 121l539 1349h151l490 -1196q59 -145 98 -204.5t84 -81t145 -31.5v-84h-774v84q104 4 144 21.5t40 64.5q0 45 -53 184l-47 123h-580q-96 -217 -96 -301q0 -57 42 -75.5t143 -18.5v-82h-562zM494 600h487l-236 621h-8zM745 1700l259 198 q88 68 192 68q117 0 117 -76q0 -47 -39 -77.5t-141 -55.5l-238 -57h-150z" />
<glyph unicode="&#xc2;" horiz-adv-x="1656" d="M-27 0v82q100 10 150.5 45t85.5 121l539 1349h151l490 -1196q59 -145 98 -204.5t84 -81t145 -31.5v-84h-774v84q104 4 144 21.5t40 64.5q0 45 -53 184l-47 123h-580q-96 -217 -96 -301q0 -57 42 -75.5t143 -18.5v-82h-562zM442 1700l254 266h238l254 -266h-137l-236 100 l-235 -100h-138zM494 600h487l-236 621h-8z" />
<glyph unicode="&#xc3;" horiz-adv-x="1656" d="M-27 0v82q100 10 150.5 45t85.5 121l539 1349h151l490 -1196q59 -145 98 -204.5t84 -81t145 -31.5v-84h-774v84q104 4 144 21.5t40 64.5q0 45 -53 184l-47 123h-580q-96 -217 -96 -301q0 -57 42 -75.5t143 -18.5v-82h-562zM461 1696q20 121 87.5 197.5t156.5 76.5 q49 0 178 -49q115 -45 161 -45q39 0 62.5 19.5t38.5 66.5h92q-16 -119 -90 -209q-61 -74 -150 -74q-66 0 -174 52q-100 47 -178 47q-35 0 -55.5 -18.5t-34.5 -63.5h-94zM494 600h487l-236 621h-8z" />
<glyph unicode="&#xc4;" horiz-adv-x="1656" d="M-27 0v82q100 10 150.5 45t85.5 121l539 1349h151l490 -1196q59 -145 98 -204.5t84 -81t145 -31.5v-84h-774v84q104 4 144 21.5t40 64.5q0 45 -53 184l-47 123h-580q-96 -217 -96 -301q0 -57 42 -75.5t143 -18.5v-82h-562zM481 1849q0 51 35 84t88 33q55 0 91 -32.5 t36 -84.5q0 -53 -36 -86.5t-91 -33.5q-53 0 -88 33.5t-35 86.5zM494 600h487l-236 621h-8zM926 1849q0 51 35.5 84t91.5 33q51 0 87 -34t36 -83q0 -53 -36 -86.5t-87 -33.5q-55 0 -91 33.5t-36 86.5z" />
<glyph unicode="&#xc5;" horiz-adv-x="1656" d="M-27 0v82q100 10 150.5 45t85.5 121l539 1349h151l490 -1196q59 -145 98 -204.5t84 -81t145 -31.5v-84h-774v84q104 4 144 21.5t40 64.5q0 45 -53 184l-47 123h-580q-96 -217 -96 -301q0 -57 42 -75.5t143 -18.5v-82h-562zM494 600h487l-236 621h-8zM690 1833q0 57 40 95 t99.5 38t99.5 -38t40 -95t-40 -95t-99.5 -38t-99.5 38t-40 95zM776 1832.5q0 -20.5 15.5 -34.5t38 -14t37 14t14.5 34.5t-14.5 34t-37 13.5t-38 -13.5t-15.5 -34z" />
<glyph unicode="&#xc6;" horiz-adv-x="2326" d="M-45 0v84q98 10 151.5 45t104.5 121q6 10 620 1130q16 33 17 52q0 27 -39 37t-131 10v98h1481v-401h-86q-25 174 -111 233t-303 59h-275q-37 0 -36 -34v-562q184 0 265 18.5t114.5 68t46.5 163.5h75v-600h-75q-18 111 -49 158t-113 67.5t-264 22.5v-428q0 -133 76.5 -183 t281.5 -50q223 0 319.5 74.5t137.5 281.5h90l-31 -465h-1391v84q137 4 176.5 47t39.5 186v244h-508q-131 -233 -158 -292.5t-27 -98.5q0 -18 4 -31.5t15.5 -21.5t19.5 -14.5t26.5 -9.5t28 -4t33 -3t31.5 -2v-84h-557zM608 684h439v793z" />
<glyph unicode="&#xc7;" horiz-adv-x="1685" d="M96 762q0 371 234.5 603t609.5 232q231 0 469 -147l39 127h100l-41 -518h-82q-43 188 -167.5 296.5t-299.5 108.5q-240 0 -372.5 -183t-132.5 -507q0 -317 132 -488t382 -171q416 0 530 440h90v-555h-96l-29 162q-213 -172 -512 -182l-45 -107q127 0 202 -51t75 -139 q0 -94 -82 -154.5t-209 -60.5q-117 0 -192.5 50t-75.5 126q0 84 73 84q29 0 47.5 -16.5t36.5 -59.5q20 -49 40 -67.5t54 -18.5q41 0 66 25.5t25 66.5q0 111 -156 111q-43 0 -80 -5l-4 7l94 213q-334 29 -528.5 236.5t-194.5 541.5z" />
<glyph unicode="&#xc8;" horiz-adv-x="1564" d="M72 0v82q137 4 176 47t39 186v947q0 143 -35 185t-158 48v82h1295l14 -401h-88q-27 172 -113 232t-305 60h-231q-51 0 -64.5 -13t-13.5 -62v-521q264 0 335.5 42t90.5 208h76v-600h-76q-10 72 -25.5 112t-40 69.5t-75 42t-113 17.5t-172.5 5v-422q0 -133 75.5 -183 t274.5 -50q233 0 331.5 73.5t141.5 282.5h82l-33 -469h-1388zM446 1890q0 76 117 76q104 0 193 -68l258 -198h-150l-237 57q-102 25 -141.5 55.5t-39.5 77.5z" />
<glyph unicode="&#xc9;" horiz-adv-x="1564" d="M72 0v82q137 4 176 47t39 186v947q0 143 -35 185t-158 48v82h1295l14 -401h-88q-27 172 -113 232t-305 60h-231q-51 0 -64.5 -13t-13.5 -62v-521q264 0 335.5 42t90.5 208h76v-600h-76q-10 72 -25.5 112t-40 69.5t-75 42t-113 17.5t-172.5 5v-422q0 -133 75.5 -183 t274.5 -50q233 0 331.5 73.5t141.5 282.5h82l-33 -469h-1388zM651 1700l258 198q88 68 193 68q117 0 117 -76q0 -47 -39 -77.5t-142 -55.5l-237 -57h-150z" />
<glyph unicode="&#xca;" horiz-adv-x="1564" d="M72 0v82q137 4 176 47t39 186v947q0 143 -35 185t-158 48v82h1295l14 -401h-88q-27 172 -113 232t-305 60h-231q-51 0 -64.5 -13t-13.5 -62v-521q264 0 335.5 42t90.5 208h76v-600h-76q-10 72 -25.5 112t-40 69.5t-75 42t-113 17.5t-172.5 5v-422q0 -133 75.5 -183 t274.5 -50q233 0 331.5 73.5t141.5 282.5h82l-33 -469h-1388zM451 1700l254 266h237l254 -266h-137l-236 100l-235 -100h-137z" />
<glyph unicode="&#xcb;" horiz-adv-x="1564" d="M72 0v82q137 4 176 47t39 186v947q0 143 -35 185t-158 48v82h1295l14 -401h-88q-27 172 -113 232t-305 60h-231q-51 0 -64.5 -13t-13.5 -62v-521q264 0 335.5 42t90.5 208h76v-600h-76q-10 72 -25.5 112t-40 69.5t-75 42t-113 17.5t-172.5 5v-422q0 -133 75.5 -183 t274.5 -50q233 0 331.5 73.5t141.5 282.5h82l-33 -469h-1388zM449 1849q0 51 34.5 84t87.5 33q55 0 91 -32.5t36 -84.5q0 -53 -35.5 -86.5t-91.5 -33.5q-53 0 -87.5 33.5t-34.5 86.5zM893 1849q0 51 36 84t91 33q51 0 87 -34t36 -83q0 -53 -36 -86.5t-87 -33.5 q-55 0 -91 33.5t-36 86.5z" />
<glyph unicode="&#xcc;" horiz-adv-x="878" d="M74 0v82q139 4 177 55t38 240v823q0 176 -36 232.5t-159 62.5v82h690v-82q-123 -6 -158.5 -62.5t-35.5 -232.5v-823q0 -188 38 -239.5t177 -55.5v-82h-731zM141 1890q0 76 117 76q104 0 193 -68l258 -198h-150l-237 57q-102 25 -141.5 55.5t-39.5 77.5z" />
<glyph unicode="&#xcd;" horiz-adv-x="878" d="M74 0v82q139 4 177 55t38 240v823q0 176 -36 232.5t-159 62.5v82h690v-82q-123 -6 -158.5 -62.5t-35.5 -232.5v-823q0 -188 38 -239.5t177 -55.5v-82h-731zM248 1700l258 198q88 68 192 68q117 0 117 -76q0 -47 -39 -77.5t-141 -55.5l-238 -57h-149z" />
<glyph unicode="&#xce;" horiz-adv-x="878" d="M66 1700l253 266h238l254 -266h-137l-236 100l-235 -100h-137zM74 0v82q139 4 177 55t38 240v823q0 176 -36 232.5t-159 62.5v82h690v-82q-123 -6 -158.5 -62.5t-35.5 -232.5v-823q0 -188 38 -239.5t177 -55.5v-82h-731z" />
<glyph unicode="&#xcf;" horiz-adv-x="878" d="M74 0v82q139 4 177 55t38 240v823q0 176 -36 232.5t-159 62.5v82h690v-82q-123 -6 -158.5 -62.5t-35.5 -232.5v-823q0 -188 38 -239.5t177 -55.5v-82h-731zM92 1849q0 51 35 84t88 33q55 0 91 -32.5t36 -84.5q0 -53 -36 -86.5t-91 -33.5q-53 0 -88 33.5t-35 86.5z M537 1849q0 51 35.5 84t91.5 33q51 0 86.5 -34t35.5 -83q0 -53 -35.5 -86.5t-86.5 -33.5q-55 0 -91 33.5t-36 86.5z" />
<glyph unicode="&#xd0;" horiz-adv-x="1884" d="M74 0v82q137 4 176 46t39 187v455h-178v123h178v369q0 143 -33 185t-150 48v82h779q393 0 649 -230.5t256 -584.5q0 -336 -240.5 -549t-621.5 -213h-854zM590 358q0 -233 301 -233q268 0 412.5 163t144.5 470q0 326 -151.5 510t-415.5 184h-256q-35 0 -35 -35v-524h272 v-123h-272v-412z" />
<glyph unicode="&#xd1;" horiz-adv-x="1925" d="M61 0v82q152 4 194 55t42 240v823q0 176 -40 232.5t-175 62.5v82h571l826 -1184h8v793q0 201 -37 253t-176 56v82h608v-82q-152 -4 -193.5 -55t-41.5 -240v-1220h-275l-907 1292h-8v-881q0 -201 36.5 -253t176.5 -56v-82h-609zM629 1696q20 121 87.5 197.5t155.5 76.5 q49 0 179 -49q115 -45 161 -45q39 0 62.5 19.5t38.5 66.5h92q-16 -119 -90 -209q-61 -74 -150 -74q-66 0 -174 52q-100 47 -178 47q-35 0 -55.5 -18.5t-34.5 -63.5h-94z" />
<glyph unicode="&#xd2;" horiz-adv-x="1933" d="M92 776q0 346 253 583.5t621.5 237.5t621.5 -237.5t253 -583.5q0 -334 -254 -565t-620.5 -231t-620.5 231t-254 565zM449 770q0 -303 139 -480t379 -177q238 0 378 177t140 480q0 319 -139.5 506.5t-379 187.5t-378.5 -187t-139 -507zM664 1890q0 76 116 76 q104 0 193 -68l258 -198h-150l-237 57q-102 25 -141 55.5t-39 77.5z" />
<glyph unicode="&#xd3;" horiz-adv-x="1933" d="M92 776q0 346 253 583.5t621.5 237.5t621.5 -237.5t253 -583.5q0 -334 -254 -565t-620.5 -231t-620.5 231t-254 565zM449 770q0 -303 139 -480t379 -177q238 0 378 177t140 480q0 319 -139.5 506.5t-379 187.5t-378.5 -187t-139 -507zM709 1700l258 198q88 68 192 68 q117 0 117 -76q0 -47 -39 -77.5t-141 -55.5l-238 -57h-149z" />
<glyph unicode="&#xd4;" horiz-adv-x="1933" d="M92 776q0 346 253 583.5t621.5 237.5t621.5 -237.5t253 -583.5q0 -334 -254 -565t-620.5 -231t-620.5 231t-254 565zM449 770q0 -303 139 -480t379 -177q238 0 378 177t140 480q0 319 -139.5 506.5t-379 187.5t-378.5 -187t-139 -507zM592 1700l254 266h237l254 -266 h-137l-235 100l-236 -100h-137z" />
<glyph unicode="&#xd5;" horiz-adv-x="1933" d="M92 776q0 346 253 583.5t621.5 237.5t621.5 -237.5t253 -583.5q0 -334 -254 -565t-620.5 -231t-620.5 231t-254 565zM449 770q0 -303 139 -480t379 -177q238 0 378 177t140 480q0 319 -139.5 506.5t-379 187.5t-378.5 -187t-139 -507zM573 1696q20 121 88 197.5t156 76.5 q49 0 178 -49q115 -45 162 -45q39 0 62.5 19.5t37.5 66.5h93q-16 -119 -90 -209q-61 -74 -150 -74q-66 0 -174 52q-100 47 -178 47q-35 0 -54.5 -18.5t-35.5 -63.5h-95z" />
<glyph unicode="&#xd6;" horiz-adv-x="1933" d="M92 776q0 346 253 583.5t621.5 237.5t621.5 -237.5t253 -583.5q0 -334 -254 -565t-620.5 -231t-620.5 231t-254 565zM449 770q0 -303 139 -480t379 -177q238 0 378 177t140 480q0 319 -139.5 506.5t-379 187.5t-378.5 -187t-139 -507zM608 1849q0 51 35 84t88 33 q55 0 91 -32.5t36 -84.5q0 -53 -36 -86.5t-91 -33.5q-53 0 -88 33.5t-35 86.5zM1053 1849q0 51 35.5 84t91.5 33q51 0 87 -34t36 -83q0 -53 -36 -86.5t-87 -33.5q-55 0 -91 33.5t-36 86.5z" />
<glyph unicode="&#xd7;" horiz-adv-x="1073" d="M104 338l336 336l-331 332l98 98l332 -332l335 336l95 -94l-336 -336l332 -332l-99 -98l-331 332l-336 -336z" />
<glyph unicode="&#xd8;" horiz-adv-x="1931" d="M92 776q0 346 253 583.5t622 237.5q262 0 481 -131l194 234h183l-262 -316q131 -115 204.5 -271.5t73.5 -336.5q0 -334 -254 -565t-620 -231q-254 0 -469 120l-222 -266h-180l287 346q-137 111 -214 265.5t-77 330.5zM449 770q0 -240 88 -403l782 942q-137 156 -352 155 q-240 0 -379 -187.5t-139 -506.5zM623 250q133 -137 344 -137q238 0 378 177t140 480q0 242 -86 418z" />
<glyph unicode="&#xd9;" horiz-adv-x="1802" d="M55 1495v82h736v-82q-154 0 -191 -45q-27 -33 -37 -101.5t-10 -228.5v-536q0 -231 99.5 -344t305.5 -113q422 0 422 469v473q0 172 -13 252t-46 119q-53 55 -199 55v82h664v-82q-137 0 -180 -51q-56 -70 -56 -375v-434q0 -348 -155.5 -501.5t-507.5 -153.5 q-330 0 -482.5 138t-152.5 441v561q0 270 -37 326q-33 49 -160 49zM659 1890q0 76 117 76q104 0 193 -68l258 -198h-150l-237 57q-102 25 -141.5 55.5t-39.5 77.5z" />
<glyph unicode="&#xda;" horiz-adv-x="1802" d="M55 1495v82h736v-82q-154 0 -191 -45q-27 -33 -37 -101.5t-10 -228.5v-536q0 -231 99.5 -344t305.5 -113q422 0 422 469v473q0 172 -13 252t-46 119q-53 55 -199 55v82h664v-82q-137 0 -180 -51q-56 -70 -56 -375v-434q0 -348 -155.5 -501.5t-507.5 -153.5 q-330 0 -482.5 138t-152.5 441v561q0 270 -37 326q-33 49 -160 49zM684 1700l258 198q88 68 193 68q117 0 116 -76q0 -47 -38.5 -77.5t-141.5 -55.5l-237 -57h-150z" />
<glyph unicode="&#xdb;" horiz-adv-x="1802" d="M55 1495v82h736v-82q-154 0 -191 -45q-27 -33 -37 -101.5t-10 -228.5v-536q0 -231 99.5 -344t305.5 -113q422 0 422 469v473q0 172 -13 252t-46 119q-53 55 -199 55v82h664v-82q-137 0 -180 -51q-56 -70 -56 -375v-434q0 -348 -155.5 -501.5t-507.5 -153.5 q-330 0 -482.5 138t-152.5 441v561q0 270 -37 326q-33 49 -160 49zM584 1700l254 266h237l254 -266h-137l-236 100l-235 -100h-137z" />
<glyph unicode="&#xdc;" horiz-adv-x="1802" d="M55 1495v82h736v-82q-154 0 -191 -45q-27 -33 -37 -101.5t-10 -228.5v-536q0 -231 99.5 -344t305.5 -113q422 0 422 469v473q0 172 -13 252t-46 119q-53 55 -199 55v82h664v-82q-137 0 -180 -51q-56 -70 -56 -375v-434q0 -348 -155.5 -501.5t-507.5 -153.5 q-330 0 -482.5 138t-152.5 441v561q0 270 -37 326q-33 49 -160 49zM616 1849q0 51 35 84t88 33q55 0 91 -32.5t36 -84.5q0 -53 -35.5 -86.5t-91.5 -33.5q-53 0 -88 33.5t-35 86.5zM1061 1849q0 51 36 84t91 33q51 0 87 -34t36 -83q0 -53 -36 -86.5t-87 -33.5q-55 0 -91 33.5 t-36 86.5z" />
<glyph unicode="&#xdd;" horiz-adv-x="1556" d="M-29 1495v82h688v-82q-156 0 -155 -65q0 -31 51 -127l293 -560h8l258 431q121 203 121 260q0 35 -32 48t-118 13v82h514v-82q-90 0 -158.5 -71.5t-209.5 -311.5l-299 -512v-209q0 -201 40 -255t173 -54v-82h-729v82q131 0 173 53t42 242v188l-424 754q-61 106 -108.5 141 t-127.5 35zM516 1700l258 198q88 68 193 68q117 0 116 -76q0 -47 -38.5 -77.5t-141.5 -55.5l-237 -57h-150z" />
<glyph unicode="&#xde;" horiz-adv-x="1503" d="M66 0v84q152 4 193.5 44t41.5 183v949q0 145 -43 187t-192 46v84h813v-78q-100 0 -153.5 -7t-82.5 -38t-35 -68.5t-6 -119.5v-35h215q295 0 463 -118t168 -312q0 -231 -157.5 -346t-514.5 -115h-174v-39q0 -78 6 -113.5t36 -63.5t81 -34t154 -6v-84h-813zM602 463h133 q188 0 279.5 81t91.5 257q0 152 -76 232.5t-213 80.5h-178q-37 0 -37 -35v-616z" />
<glyph unicode="&#xdf;" horiz-adv-x="1456" d="M33 0v84q121 0 153.5 41t32.5 194v881q0 240 134 370t380 130q236 0 380 -109.5t144 -287.5q0 -137 -80.5 -227.5t-230.5 -119.5v-10q182 0 307 -141t125 -348t-130 -342t-328 -135q-117 0 -190 49t-73 127q0 43 26 69.5t71 26.5q39 0 64.5 -24.5t35.5 -54.5t29.5 -54.5 t48.5 -24.5q59 0 98 96.5t39 241.5q0 215 -96 333t-273 118v125q127 0 187.5 69.5t60.5 218.5q0 281 -219 281q-119 0 -172 -85t-53 -280v-876q0 -152 19.5 -202t78.5 -50v-84h-569z" />
<glyph unicode="&#xe0;" horiz-adv-x="1175" d="M70 244q0 184 346 323l289 125v86q0 227 -173 228q-57 0 -88.5 -31t-58.5 -107q-39 -109 -145 -108q-57 0 -88 34.5t-31 98.5q0 98 110.5 155.5t321.5 57.5q231 0 328.5 -83t97.5 -278v-448q0 -174 70 -174q39 0 71 27l31 -60q-27 -51 -88.5 -80.5t-136.5 -29.5 q-94 0 -143.5 57t-49.5 162h-10q-119 -217 -369 -217q-127 0 -205.5 72.5t-78.5 189.5zM256 1573q0 43 30.5 67.5t82.5 24.5q80 0 174 -88l260 -244h-131l-275 123q-74 33 -107.5 58.5t-33.5 58.5zM358 301q0 -59 33 -94t82 -35q98 0 165 62.5t67 154.5v195 q-178 -82 -262.5 -147.5t-84.5 -135.5z" />
<glyph unicode="&#xe1;" horiz-adv-x="1175" d="M70 244q0 184 346 323l289 125v86q0 227 -173 228q-57 0 -88.5 -31t-58.5 -107q-39 -109 -145 -108q-57 0 -88 34.5t-31 98.5q0 98 110.5 155.5t321.5 57.5q231 0 328.5 -83t97.5 -278v-448q0 -174 70 -174q39 0 71 27l31 -60q-27 -51 -88.5 -80.5t-136.5 -29.5 q-94 0 -143.5 57t-49.5 162h-10q-119 -217 -369 -217q-127 0 -205.5 72.5t-78.5 189.5zM311 1333l260 244q94 88 174 88q51 0 82 -24.5t31 -67.5q0 -33 -35 -59.5t-106 -57.5l-285 -123h-121zM358 301q0 -59 33 -94t82 -35q98 0 165 62.5t67 154.5v195 q-178 -82 -262.5 -147.5t-84.5 -135.5z" />
<glyph unicode="&#xe2;" horiz-adv-x="1175" d="M70 244q0 184 346 323l289 125v86q0 227 -173 228q-57 0 -88.5 -31t-58.5 -107q-39 -109 -145 -108q-57 0 -88 34.5t-31 98.5q0 98 110.5 155.5t321.5 57.5q231 0 328.5 -83t97.5 -278v-448q0 -174 70 -174q39 0 71 27l31 -60q-27 -51 -88.5 -80.5t-136.5 -29.5 q-94 0 -143.5 57t-49.5 162h-10q-119 -217 -369 -217q-127 0 -205.5 72.5t-78.5 189.5zM207 1333l246 305h213l245 -305h-106l-246 140l-246 -140h-106zM358 301q0 -59 33 -94t82 -35q98 0 165 62.5t67 154.5v195q-178 -82 -262.5 -147.5t-84.5 -135.5z" />
<glyph unicode="&#xe3;" horiz-adv-x="1175" d="M70 244q0 184 346 323l289 125v86q0 227 -173 228q-57 0 -88.5 -31t-58.5 -107q-39 -109 -145 -108q-57 0 -88 34.5t-31 98.5q0 98 110.5 155.5t321.5 57.5q231 0 328.5 -83t97.5 -278v-448q0 -174 70 -174q39 0 71 27l31 -60q-27 -51 -88.5 -80.5t-136.5 -29.5 q-94 0 -143.5 57t-49.5 162h-10q-119 -217 -369 -217q-127 0 -205.5 72.5t-78.5 189.5zM180 1352q20 121 88 197.5t156 76.5q49 0 178 -49q115 -45 162 -45q39 0 62.5 19.5t37.5 66.5h92q-16 -119 -90 -209q-61 -74 -149 -74q-66 0 -174 51q-100 47 -178 48q-35 0 -55 -18.5 t-36 -63.5h-94zM358 301q0 -59 33 -94t82 -35q98 0 165 62.5t67 154.5v195q-178 -82 -262.5 -147.5t-84.5 -135.5z" />
<glyph unicode="&#xe4;" horiz-adv-x="1175" d="M70 244q0 184 346 323l289 125v86q0 227 -173 228q-57 0 -88.5 -31t-58.5 -107q-39 -109 -145 -108q-57 0 -88 34.5t-31 98.5q0 98 110.5 155.5t321.5 57.5q231 0 328.5 -83t97.5 -278v-448q0 -174 70 -174q39 0 71 27l31 -60q-27 -51 -88.5 -80.5t-136.5 -29.5 q-94 0 -143.5 57t-49.5 162h-10q-119 -217 -369 -217q-127 0 -205.5 72.5t-78.5 189.5zM225 1516q0 57 38 95t93 38q57 0 95 -38t38 -95q0 -55 -37.5 -93.5t-95.5 -38.5q-55 0 -93 38.5t-38 93.5zM358 301q0 -59 33 -94t82 -35q98 0 165 62.5t67 154.5v195 q-178 -82 -262.5 -147.5t-84.5 -135.5zM627 1516q0 57 37.5 95t93.5 38q57 0 95 -38t38 -95q0 -55 -38 -93.5t-95 -38.5q-55 0 -93 38.5t-38 93.5z" />
<glyph unicode="&#xe5;" horiz-adv-x="1175" d="M70 244q0 184 346 323l289 125v86q0 227 -173 228q-57 0 -88.5 -31t-58.5 -107q-39 -109 -145 -108q-57 0 -88 34.5t-31 98.5q0 98 110.5 155.5t321.5 57.5q231 0 328.5 -83t97.5 -278v-448q0 -174 70 -174q39 0 71 27l31 -60q-27 -51 -88.5 -80.5t-136.5 -29.5 q-94 0 -143.5 57t-49.5 162h-10q-119 -217 -369 -217q-127 0 -205.5 72.5t-78.5 189.5zM358 301q0 -59 33 -94t82 -35q98 0 165 62.5t67 154.5v195q-178 -82 -262.5 -147.5t-84.5 -135.5zM367 1520q0 78 52 129t132 51q82 0 135 -51.5t53 -128.5q0 -76 -53 -126.5 t-135 -50.5q-80 0 -132 50.5t-52 126.5zM467 1519.5q0 -32.5 24.5 -56t59.5 -23.5t57.5 23.5t22.5 56t-22.5 54t-57.5 21.5t-59.5 -21.5t-24.5 -54z" />
<glyph unicode="&#xe6;" horiz-adv-x="1820" d="M70 231q0 104 75.5 180t260.5 154l299 127v86q0 227 -168 228q-57 0 -86 -26t-64 -106q-45 -115 -141 -114q-59 0 -92 33.5t-33 93.5q0 219 416 219q283 0 381 -119q137 119 372 119q217 0 337 -119t120 -338q0 -25 -9 -30t-57 -5h-673q-8 -18 -9 -82q0 -205 85 -312 t247 -107.5t342 149.5l58 -72q-199 -211 -474 -210q-348 0 -497 260q-57 -123 -162.5 -190.5t-239.5 -67.5q-135 0 -211.5 66.5t-76.5 182.5zM358 293q0 -55 37 -88t99 -33q90 0 150.5 66.5t60.5 164.5v183q-193 -92 -270 -158t-77 -135zM1022 729h313q84 0 105.5 10.5 t21.5 48.5q0 88 -51 143.5t-135 55.5q-88 0 -156.5 -68.5t-97.5 -189.5z" />
<glyph unicode="&#xe7;" horiz-adv-x="1155" d="M80 539q0 254 164 410.5t426 156.5q184 0 306 -69.5t122 -172.5q0 -59 -34 -94t-91 -35q-86 0 -154 105q-61 96 -91 121.5t-83 25.5q-119 0 -184.5 -110.5t-65.5 -309.5q0 -213 79 -327.5t226 -114.5q170 0 328 123l53 -78q-156 -174 -430 -180l-49 -117q127 0 202 -51 t75 -139q0 -94 -82 -154.5t-209 -60.5q-117 0 -193 50t-76 126q0 84 74 84q29 0 47.5 -16.5t36.5 -59.5q20 -49 40 -67.5t54 -18.5q41 0 66 25.5t25 66.5q0 111 -156 111q-43 0 -80 -5l-4 7l100 229q-203 33 -322.5 178.5t-119.5 360.5z" />
<glyph unicode="&#xe8;" d="M78 528q0 254 165 416t423 162q217 0 337.5 -118t120.5 -326q0 -33 -10 -40.5t-57 -7.5h-660q-8 -18 -8 -67q0 -201 87 -317.5t237 -116.5q170 -1 336 149l57 -72q-186 -211 -465 -210q-252 0 -407.5 152.5t-155.5 395.5zM248 1573q0 43 30.5 67.5t81.5 24.5 q80 0 175 -88l260 -244h-131l-275 123q-74 33 -107.5 58.5t-33.5 58.5zM412 729h297q84 0 106.5 9.5t22.5 43.5q0 88 -51.5 146.5t-129.5 58.5q-88 0 -156.5 -72.5t-88.5 -185.5z" />
<glyph unicode="&#xe9;" d="M78 528q0 254 165 416t423 162q217 0 337.5 -118t120.5 -326q0 -33 -10 -40.5t-57 -7.5h-660q-8 -18 -8 -67q0 -201 87 -317.5t237 -116.5q170 -1 336 149l57 -72q-186 -211 -465 -210q-252 0 -407.5 152.5t-155.5 395.5zM412 729h297q84 0 106.5 9.5t22.5 43.5 q0 88 -51.5 146.5t-129.5 58.5q-88 0 -156.5 -72.5t-88.5 -185.5zM475 1333l260 244q94 88 174 88q51 0 82 -24.5t31 -67.5q0 -33 -35 -59.5t-106 -57.5l-285 -123h-121z" />
<glyph unicode="&#xea;" d="M78 528q0 254 165 416t423 162q217 0 337.5 -118t120.5 -326q0 -33 -10 -40.5t-57 -7.5h-660q-8 -18 -8 -67q0 -201 87 -317.5t237 -116.5q170 -1 336 149l57 -72q-186 -211 -465 -210q-252 0 -407.5 152.5t-155.5 395.5zM293 1333l246 305h213l245 -305h-106l-246 140 l-246 -140h-106zM412 729h297q84 0 106.5 9.5t22.5 43.5q0 88 -51.5 146.5t-129.5 58.5q-88 0 -156.5 -72.5t-88.5 -185.5z" />
<glyph unicode="&#xeb;" d="M78 528q0 254 165 416t423 162q217 0 337.5 -118t120.5 -326q0 -33 -10 -40.5t-57 -7.5h-660q-8 -18 -8 -67q0 -201 87 -317.5t237 -116.5q170 -1 336 149l57 -72q-186 -211 -465 -210q-252 0 -407.5 152.5t-155.5 395.5zM342 1516q0 57 38 95t93 38q57 0 95 -38t38 -95 q0 -55 -38 -93.5t-95 -38.5q-55 0 -93 38.5t-38 93.5zM412 729h297q84 0 106.5 9.5t22.5 43.5q0 88 -51.5 146.5t-129.5 58.5q-88 0 -156.5 -72.5t-88.5 -185.5zM743 1516q0 57 38 95t93 38q57 0 95.5 -38t38.5 -95q0 -55 -38 -93.5t-96 -38.5q-55 0 -93 38.5t-38 93.5z" />
<glyph unicode="&#xec;" horiz-adv-x="739" d="M27 1573q0 43 30.5 67.5t81.5 24.5q80 0 174 -88l260 -244h-131l-274 123q-74 33 -107.5 58.5t-33.5 58.5zM51 958v70l475 78v-770q0 -164 30 -207t149 -47v-82h-646v82q115 6 149 50t34 190v251q0 238 -15 301q-10 51 -46 67.5t-130 16.5z" />
<glyph unicode="&#xed;" horiz-adv-x="739" d="M51 958v70l475 78v-770q0 -164 30 -207t149 -47v-82h-646v82q115 6 149 50t34 190v251q0 238 -15 301q-10 51 -46 67.5t-130 16.5zM178 1333l260 244q94 88 174 88q51 0 82 -24.5t31 -67.5q0 -33 -35 -59.5t-106 -57.5l-285 -123h-121z" />
<glyph unicode="&#xee;" horiz-adv-x="739" d="M31 1333l245 305h213l246 -305h-106l-246 140l-246 -140h-106zM51 958v70l475 78v-770q0 -164 30 -207t149 -47v-82h-646v82q115 6 149 50t34 190v251q0 238 -15 301q-10 51 -46 67.5t-130 16.5z" />
<glyph unicode="&#xef;" horiz-adv-x="739" d="M51 958v70l475 78v-770q0 -164 30 -207t149 -47v-82h-646v82q115 6 149 50t34 190v251q0 238 -15 301q-10 51 -46 67.5t-130 16.5zM78 1516q0 57 38 95t93 38q57 0 95 -38t38 -95q0 -55 -38 -93.5t-95 -38.5q-55 0 -93 38.5t-38 93.5zM479 1516q0 57 38 95t93 38 q57 0 95 -38t38 -95q0 -55 -37.5 -93.5t-95.5 -38.5q-55 0 -93 38.5t-38 93.5z" />
<glyph unicode="&#xf0;" horiz-adv-x="1353" d="M80 500q0 231 159.5 391t397.5 160q240 0 330 -207l6 4q-84 309 -266 467l-287 -156l-49 88l254 135q-66 51 -289 125l41 90q250 -70 373 -139l278 154l62 -88l-238 -131q203 -123 309.5 -324t106.5 -438q0 -285 -173 -468t-440 -183q-244 0 -409.5 148t-165.5 372z M410 500q0 -190 67.5 -299t179.5 -109q125 0 200 109.5t75 298.5q0 199 -74 314.5t-199 115.5q-113 0 -181 -114.5t-68 -315.5z" />
<glyph unicode="&#xf1;" horiz-adv-x="1488" d="M51 958v70l395 78l27 -180h8q143 180 363 180q129 0 211 -36t145 -120q88 -119 88 -327v-289q0 -166 27.5 -205t146.5 -47v-82h-641v82q121 6 152 46t31 191v279q0 209 -52.5 292t-185.5 83q-123 0 -195 -139q-45 -91 -45 -218v-282q0 -166 28 -205t151 -47v-82h-646v82 q121 8 152 47t31 190v256q0 236 -15 297q-12 53 -47 69.5t-129 16.5zM356 1352q20 121 88 197.5t156 76.5q49 0 178 -49q115 -45 162 -45q39 0 62.5 19.5t37.5 66.5h93q-16 -119 -91 -209q-61 -74 -149 -74q-66 0 -174 51q-100 47 -178 48q-35 0 -54.5 -18.5t-35.5 -63.5 h-95z" />
<glyph unicode="&#xf2;" horiz-adv-x="1351" d="M76 551q0 240 174 397.5t422 157.5t426 -159t178 -396q0 -246 -178 -408.5t-426 -162.5t-422 162.5t-174 408.5zM397 549q0 -203 75 -324t200 -121q129 0 205.5 122t76.5 323q0 197 -77.5 317.5t-204.5 120.5q-125 0 -200 -121t-75 -317zM414 1573q0 43 30.5 67.5 t81.5 24.5q80 0 174 -88l261 -244h-132l-274 123q-74 33 -107.5 58.5t-33.5 58.5z" />
<glyph unicode="&#xf3;" horiz-adv-x="1351" d="M76 551q0 240 174 397.5t422 157.5t426 -159t178 -396q0 -246 -178 -408.5t-426 -162.5t-422 162.5t-174 408.5zM397 549q0 -203 75 -324t200 -121q129 0 205.5 122t76.5 323q0 197 -77.5 317.5t-204.5 120.5q-125 0 -200 -121t-75 -317zM469 1333l260 244q94 88 174 88 q51 0 82 -24.5t31 -67.5q0 -33 -35 -59.5t-107 -57.5l-284 -123h-121z" />
<glyph unicode="&#xf4;" horiz-adv-x="1351" d="M76 551q0 240 174 397.5t422 157.5t426 -159t178 -396q0 -246 -178 -408.5t-426 -162.5t-422 162.5t-174 408.5zM319 1333l246 305h213l246 -305h-106l-246 140l-246 -140h-107zM397 549q0 -203 75 -324t200 -121q129 0 205.5 122t76.5 323q0 197 -77.5 317.5 t-204.5 120.5q-125 0 -200 -121t-75 -317z" />
<glyph unicode="&#xf5;" horiz-adv-x="1351" d="M76 551q0 240 174 397.5t422 157.5t426 -159t178 -396q0 -246 -178 -408.5t-426 -162.5t-422 162.5t-174 408.5zM268 1352q20 121 88 197.5t156 76.5q49 0 178 -49q115 -45 162 -45q39 0 62.5 19.5t37.5 66.5h92q-16 -119 -90 -209q-61 -74 -149 -74q-66 0 -174 51 q-100 47 -178 48q-35 0 -56 -18.5t-35 -63.5h-94zM397 549q0 -203 75 -324t200 -121q129 0 205.5 122t76.5 323q0 197 -77.5 317.5t-204.5 120.5q-125 0 -200 -121t-75 -317z" />
<glyph unicode="&#xf6;" horiz-adv-x="1351" d="M76 551q0 240 174 397.5t422 157.5t426 -159t178 -396q0 -246 -178 -408.5t-426 -162.5t-422 162.5t-174 408.5zM367 1516q0 57 37.5 95t93.5 38q57 0 95 -38t38 -95q0 -55 -38 -93.5t-95 -38.5q-55 0 -93 38.5t-38 93.5zM397 549q0 -203 75 -324t200 -121 q129 0 205.5 122t76.5 323q0 197 -77.5 317.5t-204.5 120.5q-125 0 -200 -121t-75 -317zM768 1516q0 57 38 95t93 38q57 0 95 -38t38 -95q0 -55 -38 -93.5t-95 -38.5q-55 0 -93 38.5t-38 93.5z" />
<glyph unicode="&#xf7;" d="M96 627v131h1008v-131h-1008zM451 309q0 66 45 112t108 46q68 0 113 -46t45 -112q0 -63 -45 -107t-113 -44q-63 0 -108 44t-45 107zM451 1067q0 66 45 112t108 46q68 0 113 -46t45 -112q0 -63 -45 -107.5t-113 -44.5q-63 0 -108 44.5t-45 107.5z" />
<glyph unicode="&#xf8;" horiz-adv-x="1347" d="M47 -125l213 256q-186 166 -186 420q0 240 174 397.5t422 157.5q176 0 325 -88l162 194h166l-223 -268q174 -160 174 -393q0 -246 -178 -408.5t-426 -162.5q-164 0 -308 77l-151 -182h-164zM395 549q0 -123 29 -219l448 538q-77 119 -202 119t-200 -121t-75 -317z M483 203q74 -98 187 -99q129 0 205.5 122t76.5 323q0 106 -24 188z" />
<glyph unicode="&#xf9;" horiz-adv-x="1452" d="M27 1004v81h458v-579q0 -205 51.5 -299t163.5 -94q123 0 187 110q65 107 65 314v213q0 166 -26.5 203.5t-151.5 50.5v81h463v-620q0 -238 14 -301q10 -53 42 -67.5t132 -14.5v-80l-407 -25l-23 183h-8q-51 -84 -148.5 -132t-215.5 -48q-219 0 -334 155q-88 119 -88 338 v277q0 94 -3 134t-23.5 69.5t-49.5 35.5t-98 15zM352 1573q0 43 31 67.5t82 24.5q80 0 174 -88l260 -244h-131l-274 123q-74 33 -108 58.5t-34 58.5z" />
<glyph unicode="&#xfa;" horiz-adv-x="1452" d="M27 1004v81h458v-579q0 -205 51.5 -299t163.5 -94q123 0 187 110q65 107 65 314v213q0 166 -26.5 203.5t-151.5 50.5v81h463v-620q0 -238 14 -301q10 -53 42 -67.5t132 -14.5v-80l-407 -25l-23 183h-8q-51 -84 -148.5 -132t-215.5 -48q-219 0 -334 155q-88 119 -88 338 v277q0 94 -3 134t-23.5 69.5t-49.5 35.5t-98 15zM449 1333l260 244q94 88 174 88q51 0 81.5 -24.5t30.5 -67.5q0 -33 -34.5 -59.5t-106.5 -57.5l-285 -123h-120z" />
<glyph unicode="&#xfb;" horiz-adv-x="1452" d="M27 1004v81h458v-579q0 -205 51.5 -299t163.5 -94q123 0 187 110q65 107 65 314v213q0 166 -26.5 203.5t-151.5 50.5v81h463v-620q0 -238 14 -301q10 -53 42 -67.5t132 -14.5v-80l-407 -25l-23 183h-8q-51 -84 -148.5 -132t-215.5 -48q-219 0 -334 155q-88 119 -88 338 v277q0 94 -3 134t-23.5 69.5t-49.5 35.5t-98 15zM301 1333l246 305h213l246 -305h-107l-246 140l-245 -140h-107z" />
<glyph unicode="&#xfc;" horiz-adv-x="1452" d="M27 1004v81h458v-579q0 -205 51.5 -299t163.5 -94q123 0 187 110q65 107 65 314v213q0 166 -26.5 203.5t-151.5 50.5v81h463v-620q0 -238 14 -301q10 -53 42 -67.5t132 -14.5v-80l-407 -25l-23 183h-8q-51 -84 -148.5 -132t-215.5 -48q-219 0 -334 155q-88 119 -88 338 v277q0 94 -3 134t-23.5 69.5t-49.5 35.5t-98 15zM348 1516q0 57 38 95t93 38q57 0 95 -38t38 -95q0 -55 -37.5 -93.5t-95.5 -38.5q-55 0 -93 38.5t-38 93.5zM750 1516q0 57 37.5 95t93.5 38q57 0 95 -38t38 -95q0 -55 -38 -93.5t-95 -38.5q-55 0 -93 38.5t-38 93.5z" />
<glyph unicode="&#xfd;" horiz-adv-x="1323" d="M16 1004v81h621v-81q-80 0 -111.5 -16.5t-31.5 -55.5q0 -27 18 -82l209 -598h8l176 399q90 207 90 262q0 53 -29.5 72t-119.5 19v81h493v-81q-80 0 -128 -57.5t-154 -284.5l-469 -984q-43 -90 -131 -150t-178 -60q-68 0 -109 32.5t-41 87.5q0 102 152 115q182 14 235 115 l55 106l-362 897q-47 119 -80 148.5t-113 34.5zM553 1333l260 244q94 88 174 88q51 0 82 -24.5t31 -67.5q0 -33 -35 -59.5t-107 -57.5l-284 -123h-121z" />
<glyph unicode="&#xfe;" horiz-adv-x="1380" d="M-27 -440q127 4 164 47.5t37 193.5v1416q0 205 -27 264q-12 29 -44.5 41t-125.5 24v72l480 82v-760h8q111 166 323 166q219 0 367 -161t148 -396q0 -242 -157 -407t-386 -165q-184 0 -295 138v-299q0 -162 43 -207t203 -49v-72h-738v72zM461 428q0 -147 74.5 -239.5 t195.5 -92.5q127 0 194.5 113t67.5 330q0 438 -266 438q-143 0 -219 -152q-47 -100 -47 -215v-182z" />
<glyph unicode="&#xff;" horiz-adv-x="1323" d="M16 1004v81h621v-81q-80 0 -111.5 -16.5t-31.5 -55.5q0 -27 18 -82l209 -598h8l176 399q90 207 90 262q0 53 -29.5 72t-119.5 19v81h493v-81q-80 0 -128 -57.5t-154 -284.5l-469 -984q-43 -90 -131 -150t-178 -60q-68 0 -109 32.5t-41 87.5q0 102 152 115q182 14 235 115 l55 106l-362 897q-47 119 -80 148.5t-113 34.5zM451 1516q0 57 37.5 95t93.5 38q57 0 95 -38t38 -95q0 -55 -38 -93.5t-95 -38.5q-55 0 -93 38.5t-38 93.5zM852 1516q0 57 38 95t93 38q57 0 95 -38t38 -95q0 -55 -38 -93.5t-95 -38.5q-55 0 -93 38.5t-38 93.5z" />
<glyph unicode="&#x100;" horiz-adv-x="1656" d="M-27 0v82q100 10 150.5 45t85.5 121l539 1349h151l490 -1196q59 -145 98 -204.5t84 -81t145 -31.5v-84h-774v84q104 4 144 21.5t40 64.5q0 45 -53 184l-47 123h-580q-96 -217 -96 -301q0 -57 42 -75.5t143 -18.5v-82h-562zM494 600h487l-236 621h-8zM524 1772v133h582 v-133h-582z" />
<glyph unicode="&#x101;" horiz-adv-x="1175" d="M70 244q0 184 346 323l289 125v86q0 227 -173 228q-57 0 -88.5 -31t-58.5 -107q-39 -109 -145 -108q-57 0 -88 34.5t-31 98.5q0 98 110.5 155.5t321.5 57.5q231 0 328.5 -83t97.5 -278v-448q0 -174 70 -174q39 0 71 27l31 -60q-27 -51 -88.5 -80.5t-136.5 -29.5 q-94 0 -143.5 57t-49.5 162h-10q-119 -217 -369 -217q-127 0 -205.5 72.5t-78.5 189.5zM252 1417v133h582v-133h-582zM358 301q0 -59 33 -94t82 -35q98 0 165 62.5t67 154.5v195q-178 -82 -262.5 -147.5t-84.5 -135.5z" />
<glyph unicode="&#x102;" horiz-adv-x="1656" d="M-27 0v82q100 10 150.5 45t85.5 121l539 1349h151l490 -1196q59 -145 98 -204.5t84 -81t145 -31.5v-84h-774v84q104 4 144 21.5t40 64.5q0 45 -53 184l-47 123h-580q-96 -217 -96 -301q0 -57 42 -75.5t143 -18.5v-82h-562zM494 600h487l-236 621h-8zM508 1966h88 q18 -39 77.5 -61.5t139.5 -22.5t140.5 22.5t78.5 61.5h90q-8 -117 -94 -191.5t-213 -74.5q-129 0 -216 75.5t-91 190.5z" />
<glyph unicode="&#x103;" horiz-adv-x="1175" d="M70 244q0 184 346 323l289 125v86q0 227 -173 228q-57 0 -88.5 -31t-58.5 -107q-39 -109 -145 -108q-57 0 -88 34.5t-31 98.5q0 98 110.5 155.5t321.5 57.5q231 0 328.5 -83t97.5 -278v-448q0 -174 70 -174q39 0 71 27l31 -60q-27 -51 -88.5 -80.5t-136.5 -29.5 q-94 0 -143.5 57t-49.5 162h-10q-119 -217 -369 -217q-127 0 -205.5 72.5t-78.5 189.5zM246 1610h88q18 -47 77.5 -76t139.5 -29t140.5 29t78.5 76h90q-8 -125 -94 -206t-213 -81q-129 0 -216 81t-91 206zM358 301q0 -59 33 -94t82 -35q98 0 165 62.5t67 154.5v195 q-178 -82 -262.5 -147.5t-84.5 -135.5z" />
<glyph unicode="&#x104;" horiz-adv-x="1656" d="M-27 0v82q100 10 150.5 45t85.5 121l539 1349h151l490 -1196q59 -145 98 -204.5t84 -81t145 -31.5v-84h-315q-113 -49 -183.5 -119.5t-70.5 -134.5q0 -41 27.5 -66.5t72.5 -25.5q97 -1 183 108l71 -73q-137 -178 -340 -178q-225 0 -225 180q0 186 311 309h-305v84 q104 4 144 21.5t40 64.5q0 45 -53 184l-47 123h-580q-96 -217 -96 -301q0 -57 42 -75.5t143 -18.5v-82h-562zM494 600h487l-236 621h-8z" />
<glyph unicode="&#x105;" horiz-adv-x="1175" d="M70 244q0 90 81.5 166.5t264.5 156.5l289 125v86q0 227 -173 228q-57 0 -88.5 -31t-58.5 -107q-39 -109 -145 -108q-57 0 -88 34.5t-31 98.5q0 98 110.5 155.5t321.5 57.5q231 0 328.5 -83t97.5 -278v-448q0 -174 70 -174q39 0 71 27l31 -60q-55 -98 -199 -108 q-96 -49 -154.5 -114t-58.5 -122q0 -41 28 -66.5t73 -25.5q96 -1 182 108l72 -73q-137 -178 -340 -178q-225 0 -226 180q0 184 306 307q-100 47 -101 201h-10q-119 -217 -369 -217q-127 0 -205.5 72.5t-78.5 189.5zM358 301q0 -59 33 -94t82 -35q98 0 165 62.5t67 154.5v195 q-178 -82 -262.5 -147.5t-84.5 -135.5z" />
<glyph unicode="&#x106;" horiz-adv-x="1685" d="M96 762q0 371 234.5 603t609.5 232q231 0 469 -147l39 127h100l-41 -518h-82q-43 188 -167.5 296.5t-299.5 108.5q-240 0 -372.5 -183t-132.5 -507q0 -317 132 -488t382 -171q416 0 530 440h90v-555h-96l-29 162q-225 -182 -547 -182q-373 0 -596 211.5t-223 570.5z M653 1700l258 198q88 68 193 68q117 0 117 -76q0 -47 -39 -77.5t-142 -55.5l-237 -57h-150z" />
<glyph unicode="&#x107;" horiz-adv-x="1155" d="M80 539q0 254 164 410.5t426 156.5q184 0 306 -69.5t122 -172.5q0 -59 -34 -94t-91 -35q-86 0 -154 105q-61 96 -91 121.5t-83 25.5q-119 0 -184.5 -110.5t-65.5 -309.5q0 -213 79 -327.5t226 -114.5q170 0 328 123l53 -78q-162 -180 -444 -180q-250 0 -403.5 151.5 t-153.5 397.5zM506 1333l260 244q94 88 174 88q51 0 82 -24.5t31 -67.5q0 -33 -35 -59.5t-107 -57.5l-284 -123h-121z" />
<glyph unicode="&#x108;" horiz-adv-x="1685" d="M96 762q0 371 234.5 603t609.5 232q231 0 469 -147l39 127h100l-41 -518h-82q-43 188 -167.5 296.5t-299.5 108.5q-240 0 -372.5 -183t-132.5 -507q0 -317 132 -488t382 -171q416 0 530 440h90v-555h-96l-29 162q-225 -182 -547 -182q-373 0 -596 211.5t-223 570.5z M561 1700l254 266h238l254 -266h-138l-235 100l-236 -100h-137z" />
<glyph unicode="&#x109;" horiz-adv-x="1155" d="M80 539q0 254 164 410.5t426 156.5q184 0 306 -69.5t122 -172.5q0 -59 -34 -94t-91 -35q-86 0 -154 105q-61 96 -91 121.5t-83 25.5q-119 0 -184.5 -110.5t-65.5 -309.5q0 -213 79 -327.5t226 -114.5q170 0 328 123l53 -78q-162 -180 -444 -180q-250 0 -403.5 151.5 t-153.5 397.5zM281 1333l245 305h213l246 -305h-106l-246 140l-246 -140h-106z" />
<glyph unicode="&#x10a;" horiz-adv-x="1685" d="M96 762q0 371 234.5 603t609.5 232q231 0 469 -147l39 127h100l-41 -518h-82q-43 188 -167.5 296.5t-299.5 108.5q-240 0 -372.5 -183t-132.5 -507q0 -317 132 -488t382 -171q416 0 530 440h90v-555h-96l-29 162q-225 -182 -547 -182q-373 0 -596 211.5t-223 570.5z M803 1829q0 55 40 95t95 40q59 0 101 -39t42 -96q0 -53 -42 -91t-101 -38q-53 0 -94 39t-41 90z" />
<glyph unicode="&#x10b;" horiz-adv-x="1155" d="M80 539q0 254 164 410.5t426 156.5q184 0 306 -69.5t122 -172.5q0 -59 -34 -94t-91 -35q-86 0 -154 105q-61 96 -91 121.5t-83 25.5q-119 0 -184.5 -110.5t-65.5 -309.5q0 -213 79 -327.5t226 -114.5q170 0 328 123l53 -78q-162 -180 -444 -180q-250 0 -403.5 151.5 t-153.5 397.5zM498 1540q0 68 46 114t111 46q68 0 114 -46t46 -114q0 -66 -46 -112t-114 -46q-66 0 -111.5 46t-45.5 112z" />
<glyph unicode="&#x10c;" horiz-adv-x="1685" d="M96 762q0 371 234.5 603t609.5 232q231 0 469 -147l39 127h100l-41 -518h-82q-43 188 -167.5 296.5t-299.5 108.5q-240 0 -372.5 -183t-132.5 -507q0 -317 132 -488t382 -171q416 0 530 440h90v-555h-96l-29 162q-225 -182 -547 -182q-373 0 -596 211.5t-223 570.5z M565 1966h137l236 -100l236 100h137l-254 -266h-238z" />
<glyph unicode="&#x10d;" horiz-adv-x="1155" d="M80 539q0 254 164 410.5t426 156.5q184 0 306 -69.5t122 -172.5q0 -59 -34 -94t-91 -35q-86 0 -154 105q-61 96 -91 121.5t-83 25.5q-119 0 -184.5 -110.5t-65.5 -309.5q0 -213 79 -327.5t226 -114.5q170 0 328 123l53 -78q-162 -180 -444 -180q-250 0 -403.5 151.5 t-153.5 397.5zM322 1638h106l246 -139l246 139h106l-246 -305h-213z" />
<glyph unicode="&#x10e;" horiz-adv-x="1882" d="M72 0v82q137 4 176 46t39 187v947q0 143 -33 185t-150 48v82h779q393 0 649 -230.5t256 -584.5q0 -336 -240.5 -549t-621.5 -213h-854zM555 1966h137l236 -100l235 100h137l-253 -266h-238zM588 358q0 -233 301 -233q268 0 412.5 163t144.5 470q0 326 -151.5 510 t-415.5 184h-256q-35 0 -35 -35v-1059z" />
<glyph unicode="&#x10f;" horiz-adv-x="1421" d="M80 534.5q0 243.5 148.5 407.5t369.5 164q213 0 320 -135h8v174q0 268 -13 321q-18 82 -223 82v70l518 82v-1172q0 -283 15 -362q8 -53 35.5 -68.5t115.5 -15.5v-80l-389 -22v151h-8q-141 -152 -367 -151q-233 0 -381.5 155.5t-148.5 399zM391 539q0 -213 63.5 -328 t182.5 -115q68 0 129 35t100 94q56 84 56 283v80q0 160 -66 262q-76 121 -217 121q-119 0 -183.5 -111.5t-64.5 -320.5zM1382 1475q0 49 42 85.5t105.5 36.5t99.5 -42t36 -119q0 -164 -195 -291l-57 63q119 84 119 181q-20 -16 -55 -17q-39 0 -67 29t-28 74z" />
<glyph unicode="&#x110;" horiz-adv-x="1884" d="M74 0v82q137 4 176 46t39 187v443h-178v123h178v381q0 143 -33 185t-150 48v82h779q393 0 649 -230.5t256 -584.5q0 -336 -240.5 -549t-621.5 -213h-854zM590 358q0 -233 301 -233q268 0 412.5 163t144.5 470q0 326 -151.5 510t-415.5 184h-256q-35 0 -35 -35v-536h272 v-123h-272v-400z" />
<glyph unicode="&#x111;" horiz-adv-x="1421" d="M80 534.5q0 243.5 148.5 407.5t369.5 164q213 0 320 -135h8v260h-174v102h172q-2 96 -11 133q-18 82 -223 82v70l518 82v-367h144v-102h-144v-703q0 -283 15 -362q8 -53 35.5 -68.5t115.5 -15.5v-80l-389 -22v151h-8q-141 -152 -367 -151q-233 0 -381.5 155.5t-148.5 399 zM391 539q0 -213 63.5 -328t182.5 -115q68 0 129 35t100 94q56 84 56 283v80q0 160 -66 262q-76 121 -217 121q-119 0 -183.5 -111.5t-64.5 -320.5z" />
<glyph unicode="&#x112;" horiz-adv-x="1564" d="M72 0v82q137 4 176 47t39 186v947q0 143 -35 185t-158 48v82h1295l14 -401h-88q-27 172 -113 232t-305 60h-231q-51 0 -64.5 -13t-13.5 -62v-521q264 0 335.5 42t90.5 208h76v-600h-76q-10 72 -25.5 112t-40 69.5t-75 42t-113 17.5t-172.5 5v-422q0 -133 75.5 -183 t274.5 -50q233 0 331.5 73.5t141.5 282.5h82l-33 -469h-1388zM535 1772v133h581v-133h-581z" />
<glyph unicode="&#x113;" d="M78 528q0 254 165 416t423 162q217 0 337.5 -118t120.5 -326q0 -33 -10 -40.5t-57 -7.5h-660q-8 -18 -8 -67q0 -201 87 -317.5t237 -116.5q170 -1 336 149l57 -72q-186 -211 -465 -210q-252 0 -407.5 152.5t-155.5 395.5zM360 1417v133h582v-133h-582zM412 729h297 q84 0 106.5 9.5t22.5 43.5q0 88 -51.5 146.5t-129.5 58.5q-88 0 -156.5 -72.5t-88.5 -185.5z" />
<glyph unicode="&#x114;" horiz-adv-x="1564" d="M72 0v82q137 4 176 47t39 186v947q0 143 -35 185t-158 48v82h1295l14 -401h-88q-27 172 -113 232t-305 60h-231q-51 0 -64.5 -13t-13.5 -62v-521q264 0 335.5 42t90.5 208h76v-600h-76q-10 72 -25.5 112t-40 69.5t-75 42t-113 17.5t-172.5 5v-422q0 -133 75.5 -183 t274.5 -50q233 0 331.5 73.5t141.5 282.5h82l-33 -469h-1388zM518 1966h88q18 -39 77.5 -61.5t139.5 -22.5t140.5 22.5t78.5 61.5h91q-8 -117 -94.5 -191.5t-213.5 -74.5q-129 0 -216 75.5t-91 190.5z" />
<glyph unicode="&#x115;" d="M78 528q0 254 165 416t423 162q217 0 337.5 -118t120.5 -326q0 -33 -10 -40.5t-57 -7.5h-660q-8 -18 -8 -67q0 -201 87 -317.5t237 -116.5q170 -1 336 149l57 -72q-186 -211 -465 -210q-252 0 -407.5 152.5t-155.5 395.5zM336 1610h88q18 -47 77.5 -76t139.5 -29 t140.5 29t78.5 76h90q-8 -125 -94 -206t-213 -81q-129 0 -216 81t-91 206zM412 729h297q84 0 106.5 9.5t22.5 43.5q0 88 -51.5 146.5t-129.5 58.5q-88 0 -156.5 -72.5t-88.5 -185.5z" />
<glyph unicode="&#x116;" horiz-adv-x="1564" d="M72 0v82q137 4 176 47t39 186v947q0 143 -35 185t-158 48v82h1295l14 -401h-88q-27 172 -113 232t-305 60h-231q-51 0 -64.5 -13t-13.5 -62v-521q264 0 335.5 42t90.5 208h76v-600h-76q-10 72 -25.5 112t-40 69.5t-75 42t-113 17.5t-172.5 5v-422q0 -133 75.5 -183 t274.5 -50q233 0 331.5 73.5t141.5 282.5h82l-33 -469h-1388zM643 1829q0 55 40 95t95 40q59 0 101.5 -39t42.5 -96q0 -53 -42 -91t-102 -38q-53 0 -94 39t-41 90z" />
<glyph unicode="&#x117;" d="M78 528q0 254 165 416t423 162q217 0 337.5 -118t120.5 -326q0 -33 -10 -40.5t-57 -7.5h-660q-8 -18 -8 -67q0 -201 87 -317.5t237 -116.5q170 -1 336 149l57 -72q-186 -211 -465 -210q-252 0 -407.5 152.5t-155.5 395.5zM412 729h297q84 0 106.5 9.5t22.5 43.5 q0 88 -51.5 146.5t-129.5 58.5q-88 0 -156.5 -72.5t-88.5 -185.5zM506 1540q0 68 46 114t112 46q68 0 113.5 -46t45.5 -114q0 -66 -46 -112t-113 -46q-66 0 -112 46t-46 112z" />
<glyph unicode="&#x118;" horiz-adv-x="1564" d="M72 0v82q137 4 176 47t39 186v947q0 143 -35 185t-158 48v82h1295l14 -401h-88q-27 172 -113 232t-305 60h-231q-51 0 -64.5 -13t-13.5 -62v-521q264 0 335.5 42t90.5 208h76v-600h-76q-10 72 -25.5 112t-40 69.5t-75 42t-113 17.5t-172.5 5v-422q0 -133 75.5 -183 t274.5 -50q233 0 331.5 73.5t141.5 282.5h82l-33 -469h-514q-113 -49 -183.5 -119.5t-70.5 -134.5q0 -41 28 -66.5t73 -25.5q96 -1 182 108l72 -73q-137 -178 -340 -178q-225 0 -226 180q0 186 312 309h-721z" />
<glyph unicode="&#x119;" d="M78 528q0 254 165 416t423 162q217 0 337.5 -118t120.5 -326q0 -33 -10 -40.5t-57 -7.5h-660q-8 -18 -8 -67q0 -201 87 -317.5t237 -116.5q170 0 336 149l57 -72q-172 -195 -420 -208q-96 -49 -154.5 -114t-58.5 -122q0 -41 27.5 -66.5t72.5 -25.5q97 -1 183 108l71 -73 q-137 -178 -340 -178q-225 0 -225 180q0 174 277 297q-209 29 -335 175t-126 365zM412 729h297q84 0 106.5 9.5t22.5 43.5q0 88 -51.5 146.5t-129.5 58.5q-88 0 -156.5 -72.5t-88.5 -185.5z" />
<glyph unicode="&#x11a;" horiz-adv-x="1564" d="M72 0v82q137 4 176 47t39 186v947q0 143 -35 185t-158 48v82h1295l14 -401h-88q-27 172 -113 232t-305 60h-231q-51 0 -64.5 -13t-13.5 -62v-521q264 0 335.5 42t90.5 208h76v-600h-76q-10 72 -25.5 112t-40 69.5t-75 42t-113 17.5t-172.5 5v-422q0 -133 75.5 -183 t274.5 -50q233 0 331.5 73.5t141.5 282.5h82l-33 -469h-1388zM451 1966h137l235 -100l236 100h137l-254 -266h-237z" />
<glyph unicode="&#x11b;" d="M78 528q0 254 165 416t423 162q217 0 337.5 -118t120.5 -326q0 -33 -10 -40.5t-57 -7.5h-660q-8 -18 -8 -67q0 -201 87 -317.5t237 -116.5q170 -1 336 149l57 -72q-186 -211 -465 -210q-252 0 -407.5 152.5t-155.5 395.5zM309 1638h107l246 -139l245 139h107l-246 -305 h-213zM412 729h297q84 0 106.5 9.5t22.5 43.5q0 88 -51.5 146.5t-129.5 58.5q-88 0 -156.5 -72.5t-88.5 -185.5z" />
<glyph unicode="&#x11c;" horiz-adv-x="1794" d="M96 760q0 373 229.5 605t596.5 232q238 0 489 -147l39 127h74v-518h-103q-41 193 -164.5 299t-310.5 106q-233 0 -364 -182t-131 -506q0 -317 128 -488t367 -171q172 0 270.5 89t98.5 247q0 94 -50.5 139t-164.5 53v82h663v-82q-100 0 -139 -44t-39 -159v-272 q-90 0 -137 -15.5t-158 -82.5q-155 -92 -393 -92q-369 0 -585 210.5t-216 569.5zM559 1700l254 266h238l254 -266h-138l-235 100l-236 -100h-137z" />
<glyph unicode="&#x11d;" horiz-adv-x="1249" d="M45 -246q0 102 54.5 158.5t140.5 56.5q117 0 188 -84q-53 -10 -87 -48t-34 -89q0 -82 74 -126t213 -44q307 0 307 195q0 72 -47 121t-131 59l-358 49q-227 31 -228 203q0 82 54.5 136t154.5 75v8q-92 37 -151.5 128t-59.5 196q0 154 120 256t300 102q184 0 315 -100 q162 100 250 100q78 0 126 -35t48 -92q0 -43 -26.5 -70.5t-69.5 -27.5q-41 0 -85 44t-85 44q-43 0 -82 -56q37 -66 37 -168q0 -162 -105.5 -264t-328.5 -127q-98 -10 -136 -26.5t-38 -48.5q0 -50 92 -58q188 -16 334 -39q158 -23 250 -120t92 -240q0 -174 -144.5 -264 t-420.5 -90q-254 0 -393.5 74.5t-139.5 211.5zM248 1333l246 305h213l245 -305h-106l-246 140l-246 -140h-106zM412 739q0 -121 41.5 -194.5t111.5 -73.5q66 0 103 69.5t37 194.5q0 127 -37 195.5t-105 68.5q-70 0 -110.5 -70.5t-40.5 -189.5z" />
<glyph unicode="&#x11e;" horiz-adv-x="1794" d="M96 760q0 373 229.5 605t596.5 232q238 0 489 -147l39 127h74v-518h-103q-41 193 -164.5 299t-310.5 106q-233 0 -364 -182t-131 -506q0 -317 128 -488t367 -171q172 0 270.5 89t98.5 247q0 94 -50.5 139t-164.5 53v82h663v-82q-100 0 -139 -44t-39 -159v-272 q-90 0 -137 -15.5t-158 -82.5q-155 -92 -393 -92q-369 0 -585 210.5t-216 569.5zM625 1966h88q18 -39 77.5 -61.5t139.5 -22.5t140.5 22.5t78.5 61.5h90q-8 -117 -94 -191.5t-213 -74.5q-129 0 -216 75.5t-91 190.5z" />
<glyph unicode="&#x11f;" horiz-adv-x="1249" d="M45 -246q0 102 54.5 158.5t140.5 56.5q117 0 188 -84q-53 -10 -87 -48t-34 -89q0 -82 74 -126t213 -44q307 0 307 195q0 72 -47 121t-131 59l-358 49q-227 31 -228 203q0 82 54.5 136t154.5 75v8q-92 37 -151.5 128t-59.5 196q0 154 120 256t300 102q184 0 315 -100 q162 100 250 100q78 0 126 -35t48 -92q0 -43 -26.5 -70.5t-69.5 -27.5q-41 0 -85 44t-85 44q-43 0 -82 -56q37 -66 37 -168q0 -162 -105.5 -264t-328.5 -127q-98 -10 -136 -26.5t-38 -48.5q0 -50 92 -58q188 -16 334 -39q158 -23 250 -120t92 -240q0 -174 -144.5 -264 t-420.5 -90q-254 0 -393.5 74.5t-139.5 211.5zM274 1610h88q18 -47 78 -76t139.5 -29t140.5 29t79 76h90q-8 -125 -94 -206t-213 -81q-129 0 -216 81t-92 206zM412 739q0 -121 41.5 -194.5t111.5 -73.5q66 0 103 69.5t37 194.5q0 127 -37 195.5t-105 68.5 q-70 0 -110.5 -70.5t-40.5 -189.5z" />
<glyph unicode="&#x120;" horiz-adv-x="1794" d="M96 760q0 373 229.5 605t596.5 232q238 0 489 -147l39 127h74v-518h-103q-41 193 -164.5 299t-310.5 106q-233 0 -364 -182t-131 -506q0 -317 128 -488t367 -171q172 0 270.5 89t98.5 247q0 94 -50.5 139t-164.5 53v82h663v-82q-100 0 -139 -44t-39 -159v-272 q-90 0 -137 -15.5t-158 -82.5q-155 -92 -393 -92q-369 0 -585 210.5t-216 569.5zM766 1829q0 55 40 95t95 40q59 0 101 -39t42 -96q0 -53 -41.5 -91t-101.5 -38q-53 0 -94 39t-41 90z" />
<glyph unicode="&#x121;" horiz-adv-x="1249" d="M45 -246q0 102 54.5 158.5t140.5 56.5q117 0 188 -84q-53 -10 -87 -48t-34 -89q0 -82 74 -126t213 -44q307 0 307 195q0 72 -47 121t-131 59l-358 49q-227 31 -228 203q0 82 54.5 136t154.5 75v8q-92 37 -151.5 128t-59.5 196q0 154 120 256t300 102q184 0 315 -100 q162 100 250 100q78 0 126 -35t48 -92q0 -43 -26.5 -70.5t-69.5 -27.5q-41 0 -85 44t-85 44q-43 0 -82 -56q37 -66 37 -168q0 -162 -105.5 -264t-328.5 -127q-98 -10 -136 -26.5t-38 -48.5q0 -50 92 -58q188 -16 334 -39q158 -23 250 -120t92 -240q0 -174 -144.5 -264 t-420.5 -90q-254 0 -393.5 74.5t-139.5 211.5zM412 739q0 -121 41.5 -194.5t111.5 -73.5q66 0 103 69.5t37 194.5q0 127 -37 195.5t-105 68.5q-70 0 -110.5 -70.5t-40.5 -189.5zM455 1540q0 68 46 114t111 46q68 0 114 -46t46 -114q0 -66 -46 -112t-114 -46q-66 0 -111.5 46 t-45.5 112z" />
<glyph unicode="&#x122;" horiz-adv-x="1794" d="M96 760q0 373 229.5 605t596.5 232q238 0 489 -147l39 127h74v-518h-103q-41 193 -164.5 299t-310.5 106q-233 0 -364 -182t-131 -506q0 -317 128 -488t367 -171q172 0 270.5 89t98.5 247q0 94 -50.5 139t-164.5 53v82h663v-82q-100 0 -139 -44t-39 -159v-272 q-90 0 -137 -15.5t-158 -82.5q-155 -92 -393 -92q-369 0 -585 210.5t-216 569.5zM762 -215q0 49 42 86t105.5 37t99 -42t35.5 -120q1 -147 -194 -258l-57 63q119 66 118 148q-20 -16 -55 -16q-39 0 -66.5 28.5t-27.5 73.5z" />
<glyph unicode="&#x123;" horiz-adv-x="1249" d="M45 -246q0 102 54.5 158.5t140.5 56.5q117 0 188 -84q-53 -10 -87 -48t-34 -89q0 -82 74 -126t213 -44q307 0 307 195q0 72 -47 121t-131 59l-358 49q-227 31 -228 203q0 82 54.5 136t154.5 75v8q-92 37 -151.5 128t-59.5 196q0 154 120 256t300 102q184 0 315 -100 q162 100 250 100q78 0 126 -35t48 -92q0 -43 -26.5 -70.5t-69.5 -27.5q-41 0 -85 44t-85 44q-43 0 -82 -56q37 -66 37 -168q0 -162 -105.5 -264t-328.5 -127q-98 -10 -136 -26.5t-38 -48.5q0 -50 92 -58q188 -16 334 -39q158 -23 250 -120t92 -240q0 -174 -144.5 -264 t-420.5 -90q-254 0 -393.5 74.5t-139.5 211.5zM412 739q0 -121 41.5 -194.5t111.5 -73.5q66 0 103 69.5t37 194.5q0 127 -37 195.5t-105 68.5q-70 0 -110.5 -70.5t-40.5 -189.5zM475 1495q0 147 195 258l57 -63q-119 -66 -119 -148q20 16 56 17q39 0 66.5 -29t27.5 -74 q0 -49 -42 -86t-105.5 -37t-99.5 42t-36 120z" />
<glyph unicode="&#x124;" horiz-adv-x="1935" d="M72 0v82q137 4 176 46t39 187v947q0 143 -34 185t-159 48v82h707v-82q-137 -4 -175 -48t-38 -200v-377h760v392q0 143 -39 185t-176 48v82h708v-82q-125 -4 -158.5 -48t-33.5 -200v-917q0 -156 37.5 -200t177.5 -48v-82h-752v82q150 4 193 46t43 187v428h-760v-413 q0 -156 41 -200t192 -48v-82h-749zM592 1700l254 266h237l254 -266h-137l-235 100l-236 -100h-137z" />
<glyph unicode="&#x125;" horiz-adv-x="1462" d="M33 0v82q125 8 153.5 46t28.5 194v841q0 231 -14 301q-10 51 -40 66.5t-122 15.5v76l457 78v-756h8q123 162 332 162q201 0 311 -123q115 -131 115 -330v-317q0 -94 3 -136t23.5 -72t50 -36t97.5 -10v-82h-641v82q123 6 152.5 45t29.5 195v251q0 219 -47 308.5t-162 89.5 q-123 0 -195 -90q-73 -101 -73 -273v-272q0 -168 27.5 -207t150.5 -47v-82h-645zM592 1333l246 305h213l245 -305h-106l-246 140l-246 -140h-106z" />
<glyph unicode="&#x126;" horiz-adv-x="1943" d="M76 0v82q137 4 176 46t39 187v793h-148v123h148v31q0 143 -34 185t-159 48v82h707v-82q-137 -4 -175 -48t-38 -200v-16h760v31q0 143 -39 185t-176 48v82h708v-82q-125 -4 -158.5 -48t-33.5 -200v-16h153v-123h-153v-778q0 -156 38 -200t177 -48v-82h-752v82 q150 4 193 46t43 187v428h-760v-413q0 -156 41 -200t192 -48v-82h-749zM592 870h760v238h-760v-238z" />
<glyph unicode="&#x127;" horiz-adv-x="1462" d="M33 0v82q125 8 153.5 46t28.5 194v909h-174v102h172q-2 88 -12 131q-10 51 -40 66.5t-122 15.5v76l457 78v-367h145v-102h-145v-287h8q123 162 332 162q201 0 311 -123q115 -131 115 -330v-317q0 -94 3 -136t23.5 -72t50 -36t97.5 -10v-82h-641v82q123 6 152.5 45 t29.5 195v251q0 219 -47 308.5t-162 89.5q-123 0 -195 -90q-73 -101 -73 -273v-272q0 -168 27.5 -207t150.5 -47v-82h-645z" />
<glyph unicode="&#x128;" horiz-adv-x="878" d="M55 1696q20 121 88 197.5t156 76.5q49 0 178 -49q115 -45 162 -45q39 0 62.5 19.5t37.5 66.5h92q-16 -119 -90 -209q-61 -74 -149 -74q-66 0 -174 52q-100 47 -178 47q-35 0 -55.5 -18.5t-34.5 -63.5h-95zM74 0v82q139 4 177 55t38 240v823q0 176 -36 232.5t-159 62.5v82 h690v-82q-123 -6 -158.5 -62.5t-35.5 -232.5v-823q0 -188 38 -239.5t177 -55.5v-82h-731z" />
<glyph unicode="&#x129;" horiz-adv-x="739" d="M-20 1352q20 121 87.5 197.5t155.5 76.5q49 0 178 -49q115 -45 162 -45q39 0 62.5 19.5t38.5 66.5h92q-16 -119 -90 -209q-61 -74 -150 -74q-66 0 -174 51q-100 47 -178 48q-35 0 -54.5 -18.5t-35.5 -63.5h-94zM51 958v70l475 78v-770q0 -164 30 -207t149 -47v-82h-646 v82q115 6 149 50t34 190v251q0 238 -15 301q-10 51 -46 67.5t-130 16.5z" />
<glyph unicode="&#x12a;" horiz-adv-x="878" d="M74 0v82q139 4 177 55t38 240v823q0 176 -36 232.5t-159 62.5v82h690v-82q-123 -6 -158.5 -62.5t-35.5 -232.5v-823q0 -188 38 -239.5t177 -55.5v-82h-731zM150 1772v133h581v-133h-581z" />
<glyph unicode="&#x12b;" horiz-adv-x="739" d="M51 958v70l475 78v-770q0 -164 30 -207t149 -47v-82h-646v82q115 6 149 50t34 190v251q0 238 -15 301q-10 51 -46 67.5t-130 16.5zM92 1417v133h582v-133h-582z" />
<glyph unicode="&#x12c;" horiz-adv-x="878" d="M74 0v82q139 4 177 55t38 240v823q0 176 -36 232.5t-159 62.5v82h690v-82q-123 -6 -158.5 -62.5t-35.5 -232.5v-823q0 -188 38 -239.5t177 -55.5v-82h-731zM131 1966h88q18 -39 77.5 -61.5t139.5 -22.5t140.5 22.5t78.5 61.5h90q-8 -117 -94 -191.5t-213 -74.5 q-129 0 -216 75.5t-91 190.5z" />
<glyph unicode="&#x12d;" horiz-adv-x="739" d="M51 958v70l475 78v-770q0 -164 30 -207t149 -47v-82h-646v82q115 6 149 50t34 190v251q0 238 -15 301q-10 51 -46 67.5t-130 16.5zM76 1610h88q18 -47 77.5 -76t139.5 -29t140.5 29t78.5 76h90q-8 -125 -94 -206t-213 -81q-129 0 -216 81t-91 206z" />
<glyph unicode="&#x12e;" horiz-adv-x="878" d="M63 -309q0 186 312 309h-301v82q139 4 177 55t38 240v823q0 176 -36 232.5t-159 62.5v82h690v-82q-123 -6 -158.5 -62.5t-35.5 -232.5v-823q0 -188 38 -239.5t177 -55.5v-82h-277q-113 -49 -183.5 -119.5t-70.5 -134.5q0 -41 28 -66.5t73 -25.5q96 -1 182 108l72 -73 q-137 -178 -340 -178q-225 0 -226 180z" />
<glyph unicode="&#x12f;" horiz-adv-x="739" d="M4 -309q0 186 311 309h-256v82q115 6 149 50t34 190v251q0 238 -15 301q-10 51 -46 67.5t-130 16.5v70l475 78v-770q0 -164 30 -207t149 -47v-82h-236q-113 -49 -183.5 -119.5t-70.5 -134.5q0 -41 27.5 -66.5t72.5 -25.5q97 -1 183 108l71 -73q-137 -178 -340 -178 q-225 0 -225 180zM225 1540q0 68 46 114t112 46q68 0 114 -46t46 -114q0 -66 -46 -112t-114 -46q-66 0 -112 46t-46 112z" />
<glyph unicode="&#x130;" horiz-adv-x="878" d="M74 0v82q139 4 177 55t38 240v823q0 176 -36 232.5t-159 62.5v82h690v-82q-123 -6 -158.5 -62.5t-35.5 -232.5v-823q0 -188 38 -239.5t177 -55.5v-82h-731zM301 1829q0 55 40 95t95 40q59 0 101.5 -39t42.5 -96q0 -53 -42 -91t-102 -38q-53 0 -94 39t-41 90z" />
<glyph unicode="&#x131;" horiz-adv-x="739" d="M51 958v70l475 78v-770q0 -164 30 -207t149 -47v-82h-646v82q115 6 149 50t34 190v251q0 238 -15 301q-10 51 -46 67.5t-130 16.5z" />
<glyph unicode="&#x132;" horiz-adv-x="1712" d="M74 0v82q139 4 177 55t38 240v823q0 176 -36 232.5t-159 62.5v82h690v-82q-123 -6 -158.5 -62.5t-35.5 -232.5v-823q0 -188 38 -239.5t177 -55.5v-82h-731zM535 -307q0 57 36.5 90t94.5 33q45 0 73.5 -23.5t69.5 -93.5q39 -66 71.5 -89.5t82.5 -23.5q88 0 135 96.5 t47 270.5v1309q0 143 -35 185t-160 48v82h690v-82q-127 -4 -160.5 -48t-33.5 -200v-1251q0 -258 -133 -393t-389 -135q-180 0 -284.5 62t-104.5 163z" />
<glyph unicode="&#x133;" horiz-adv-x="1417" d="M51 958v70l475 78v-770q0 -164 30 -207t149 -47v-82h-646v82q115 6 149 50t34 190v251q0 238 -15 301q-10 51 -46 67.5t-130 16.5zM225 1540q0 68 46 114t112 46q68 0 114 -46t46 -114q0 -66 -46 -112t-114 -46q-66 0 -112 46t-46 112zM426 -330q0 49 33 78t78 29 q51 0 85.5 -32t51 -68.5t50.5 -68.5t83 -32q78 0 114.5 61.5t36.5 202.5v754q0 213 -16 283q-10 49 -45 65t-129 16v70l475 78v-1110q0 -254 -125 -391t-356 -137q-154 0 -245 57t-91 145zM942 1540q0 68 46 114t112 46q68 0 114 -46t46 -114q0 -66 -46.5 -112t-113.5 -46 q-66 0 -112 46t-46 112z" />
<glyph unicode="&#x134;" horiz-adv-x="833" d="M-344 -307q0 57 37 90t94 33q45 0 73.5 -23.5t69.5 -93.5q39 -66 72 -89.5t82 -23.5q88 0 135 96.5t47 270.5v1309q0 143 -34.5 185t-159.5 48v82h690v-82q-127 -4 -161 -48t-34 -200v-1251q0 -258 -133 -393t-389 -135q-180 0 -284.5 62t-104.5 163zM43 1700l254 266 h238l253 -266h-137l-235 100l-236 -100h-137z" />
<glyph unicode="&#x135;" horiz-adv-x="677" d="M-313 -330q0 49 32.5 78t77.5 29q51 0 86 -32t51.5 -68.5t50 -68.5t83.5 -32q78 0 114.5 61.5t36.5 202.5v754q0 213 -16 283q-10 49 -45 65t-129 16v70l475 78v-1110q0 -254 -125 -391t-356 -137q-154 0 -245 57t-91 145zM0 1333l246 305h213l246 -305h-107l-246 140 l-246 -140h-106z" />
<glyph unicode="&#x136;" horiz-adv-x="1683" d="M72 0v82q137 4 176 47t39 186v947q0 141 -35 184t-158 49v82h707v-82q-137 -4 -175 -48t-38 -200v-454l530 569q47 51 47 86q0 47 -139 47v82h559v-80q-92 -4 -148.5 -37t-176.5 -157l-365 -381l602 -734q78 -98 229 -106v-82h-757v82q158 2 157 55q0 33 -73 123 l-363 447l-102 -107v-270q0 -156 34.5 -200t159.5 -48v-82h-710zM743 -215q0 49 42 86t105.5 37t99.5 -42t36 -120q0 -147 -195 -258l-57 63q119 66 119 148q-20 -16 -55 -16q-39 0 -67 28.5t-28 73.5z" />
<glyph unicode="&#x137;" horiz-adv-x="1359" d="M33 0v82q113 2 147.5 48t34.5 192v868q0 94 -1 144t-8 96.5t-16.5 64.5t-32 32.5t-47 16.5t-71.5 2v76l457 78v-1139l196 187q197 184 197 223q0 33 -178 33v81h559v-81q-78 0 -136.5 -27t-129.5 -92l-199 -187l354 -501q47 -66 92 -90.5t119 -24.5v-82h-637v82 q119 0 119 27q0 29 -98 172l-156 233l-102 -98v-80q0 -158 26.5 -206t114.5 -48v-82h-604zM555 -215q0 49 42 86t105.5 37t99.5 -42t36 -120q0 -147 -195 -258l-57 63q119 66 119 148q-20 -16 -56 -16q-39 0 -66.5 28.5t-27.5 73.5z" />
<glyph unicode="&#x138;" horiz-adv-x="1382" d="M55 0v82q111 0 147 47t36 193v274q0 94 -1 147.5t-9.5 98.5t-16.5 63.5t-32.5 30.5t-47 14t-70.5 2v76l457 78v-545l197 187q197 186 196 223q0 33 -178 33v81h559v-81q-78 0 -137 -27t-129 -92l-199 -187l355 -501q49 -70 94 -92.5t117 -22.5v-82h-637v82q104 0 104 41 q0 25 -35 78l-204 313l-103 -98v-80q0 -158 26.5 -206t114.5 -48v-82h-604z" />
<glyph unicode="&#x139;" horiz-adv-x="1546" d="M72 0v82q137 4 176 47t39 186v947q0 143 -35 185t-158 48v82h707v-82q-137 -4 -175 -48t-38 -200v-858q0 -168 75.5 -222t294.5 -54q240 0 335.5 69.5t140.5 282.5h82l-33 -465h-1411zM246 1700l258 198q88 68 192 68q117 0 117 -76q0 -47 -39 -77.5t-141 -55.5l-238 -57 h-149z" />
<glyph unicode="&#x13a;" horiz-adv-x="727" d="M31 1552v70l475 78v-1364q0 -164 29.5 -207t148.5 -47v-82h-645v82q115 6 148.5 50t33.5 190v845q0 238 -14 301q-10 51 -46 67.5t-130 16.5zM158 1700l258 198q88 68 192 68q117 0 117 -76q0 -47 -39 -77.5t-141 -55.5l-238 -57h-149z" />
<glyph unicode="&#x13b;" horiz-adv-x="1546" d="M72 0v82q137 4 176 47t39 186v947q0 143 -35 185t-158 48v82h707v-82q-137 -4 -175 -48t-38 -200v-858q0 -168 75.5 -222t294.5 -54q240 0 335.5 69.5t140.5 282.5h82l-33 -465h-1411zM686 -215q0 49 42 86t105.5 37t99.5 -42t36 -120q0 -147 -195 -258l-57 63 q119 66 119 148q-20 -16 -56 -16q-39 0 -66.5 28.5t-27.5 73.5z" />
<glyph unicode="&#x13c;" horiz-adv-x="727" d="M31 1552v70l475 78v-1364q0 -164 29.5 -207t148.5 -47v-82h-645v82q115 6 148.5 50t33.5 190v845q0 238 -14 301q-10 51 -46 67.5t-130 16.5zM238 -215q0 49 42 86t105.5 37t99 -42t35.5 -120q1 -147 -194 -258l-58 63q119 66 119 148q-20 -16 -55 -16q-39 0 -66.5 28.5 t-27.5 73.5z" />
<glyph unicode="&#x13d;" horiz-adv-x="1546" d="M72 0v82q137 4 176 47t39 186v947q0 143 -35 185t-158 48v82h707v-82q-137 -4 -175 -48t-38 -200v-858q0 -168 75.5 -222t294.5 -54q240 0 335.5 69.5t140.5 282.5h82l-33 -465h-1411zM90 1966h137l236 -100l235 100h138l-254 -266h-238z" />
<glyph unicode="&#x13e;" horiz-adv-x="727" d="M31 1552v70l475 78v-1364q0 -164 29.5 -207t148.5 -47v-82h-645v82q115 6 148.5 50t33.5 190v845q0 238 -14 301q-10 51 -46 67.5t-130 16.5zM698 1475q0 49 42 85.5t105.5 36.5t99.5 -42t36 -119q0 -164 -195 -291l-57 63q119 84 119 181q-20 -16 -55 -17q-39 0 -67 29 t-28 74z" />
<glyph unicode="&#x13f;" horiz-adv-x="1546" d="M72 0v82q137 4 176 47t39 186v947q0 143 -35 185t-158 48v82h707v-82q-137 -4 -175 -48t-38 -200v-858q0 -168 75.5 -222t294.5 -54q240 0 335.5 69.5t140.5 282.5h82l-33 -465h-1411zM850 821q0 66 45 112t109 46q68 0 112.5 -46t44.5 -112q0 -63 -45 -107t-112 -44 q-63 0 -108.5 44t-45.5 107z" />
<glyph unicode="&#x140;" horiz-adv-x="899" d="M31 1552v70l475 78v-1364q0 -164 29.5 -207t148.5 -47v-82h-645v82q115 6 148.5 50t33.5 190v845q0 238 -14 301q-10 51 -46 67.5t-130 16.5zM659 852q0 66 45.5 112t108.5 46q68 0 113 -46t45 -112q0 -63 -45 -107.5t-113 -44.5q-63 0 -108.5 44.5t-45.5 107.5z" />
<glyph unicode="&#x141;" horiz-adv-x="1550" d="M76 0v82q137 4 176 47t39 186v310l-154 -93v152l154 92v486q0 143 -35 185t-158 48v82h707v-82q-137 -4 -175 -48t-38 -200v-293l242 146v-152l-242 -145v-414q0 -168 75.5 -222t295.5 -54q240 0 335 69.5t140 282.5h82l-33 -465h-1411z" />
<glyph unicode="&#x142;" horiz-adv-x="731" d="M33 1552v70l475 78v-735l149 88v-133l-149 -89v-495q0 -164 29.5 -207t148.5 -47v-82h-645v82q115 6 148.5 50t33.5 190v342l-147 -86v133l147 86v370q0 238 -14 301q-10 51 -46 67.5t-130 16.5z" />
<glyph unicode="&#x143;" horiz-adv-x="1925" d="M61 0v82q152 4 194 55t42 240v823q0 176 -40 232.5t-175 62.5v82h571l826 -1184h8v793q0 201 -37 253t-176 56v82h608v-82q-152 -4 -193.5 -55t-41.5 -240v-1220h-275l-907 1292h-8v-881q0 -201 36.5 -253t176.5 -56v-82h-609zM760 1700l258 198q88 68 192 68 q117 0 117 -76q0 -47 -39 -77.5t-141 -55.5l-238 -57h-149z" />
<glyph unicode="&#x144;" horiz-adv-x="1488" d="M51 958v70l395 78l27 -180h8q143 180 363 180q129 0 211 -36t145 -120q88 -119 88 -327v-289q0 -166 27.5 -205t146.5 -47v-82h-641v82q121 6 152 46t31 191v279q0 209 -52.5 292t-185.5 83q-123 0 -195 -139q-45 -91 -45 -218v-282q0 -166 28 -205t151 -47v-82h-646v82 q121 8 152 47t31 190v256q0 236 -15 297q-12 53 -47 69.5t-129 16.5zM555 1333l260 244q94 88 174 88q51 0 82 -24.5t31 -67.5q0 -33 -35 -59.5t-106 -57.5l-285 -123h-121z" />
<glyph unicode="&#x145;" horiz-adv-x="1925" d="M61 0v82q152 4 194 55t42 240v823q0 176 -40 232.5t-175 62.5v82h571l826 -1184h8v793q0 201 -37 253t-176 56v82h608v-82q-152 -4 -193.5 -55t-41.5 -240v-1220h-275l-907 1292h-8v-881q0 -201 36.5 -253t176.5 -56v-82h-609zM854 -215q0 49 42 86t105.5 37t99.5 -42 t36 -120q0 -147 -195 -258l-57 63q119 66 119 148q-20 -16 -56 -16q-39 0 -66.5 28.5t-27.5 73.5z" />
<glyph unicode="&#x146;" horiz-adv-x="1488" d="M51 958v70l395 78l27 -180h8q143 180 363 180q129 0 211 -36t145 -120q88 -119 88 -327v-289q0 -166 27.5 -205t146.5 -47v-82h-641v82q121 6 152 46t31 191v279q0 209 -52.5 292t-185.5 83q-123 0 -195 -139q-45 -91 -45 -218v-282q0 -166 28 -205t151 -47v-82h-646v82 q121 8 152 47t31 190v256q0 236 -15 297q-12 53 -47 69.5t-129 16.5zM608 -215q0 49 42 86t105.5 37t99.5 -42t36 -120q0 -147 -195 -258l-57 63q119 66 119 148q-20 -16 -56 -16q-39 0 -66.5 28.5t-27.5 73.5z" />
<glyph unicode="&#x147;" horiz-adv-x="1925" d="M61 0v82q152 4 194 55t42 240v823q0 176 -40 232.5t-175 62.5v82h571l826 -1184h8v793q0 201 -37 253t-176 56v82h608v-82q-152 -4 -193.5 -55t-41.5 -240v-1220h-275l-907 1292h-8v-881q0 -201 36.5 -253t176.5 -56v-82h-609zM590 1966h137l236 -100l235 100h137 l-254 -266h-237z" />
<glyph unicode="&#x148;" horiz-adv-x="1488" d="M51 958v70l395 78l27 -180h8q143 180 363 180q129 0 211 -36t145 -120q88 -119 88 -327v-289q0 -166 27.5 -205t146.5 -47v-82h-641v82q121 6 152 46t31 191v279q0 209 -52.5 292t-185.5 83q-123 0 -195 -139q-45 -91 -45 -218v-282q0 -166 28 -205t151 -47v-82h-646v82 q121 8 152 47t31 190v256q0 236 -15 297q-12 53 -47 69.5t-129 16.5zM408 1638h106l246 -139l246 139h106l-246 -305h-213z" />
<glyph unicode="&#x149;" horiz-adv-x="1632" d="M39 1579q0 51 32.5 86t82 35t82 -35t32.5 -88q0 -39 -35 -178q-26 -108 -36 -178h-84q-6 33 -39 178q-35 139 -35 180zM195 958v70l395 78l26 -180h9q143 180 362 180q129 0 211 -36t145 -120q88 -119 89 -327v-289q0 -166 27.5 -205t146.5 -47v-82h-641v82 q121 6 151.5 46t30.5 191v279q0 209 -52.5 292t-185.5 83q-123 0 -194 -139q-45 -91 -45 -218v-282q0 -166 27.5 -205t150.5 -47v-82h-645v82q121 8 151.5 47t30.5 190v256q0 236 -14 297q-12 53 -47 69.5t-129 16.5z" />
<glyph unicode="&#x14a;" horiz-adv-x="1925" d="M61 0v82q152 4 194 55t42 240v823q0 176 -40 232.5t-175 62.5v82h571l826 -1184h8v793q0 201 -37 253t-176 56v82h608v-82q-152 -4 -193.5 -54.5t-41.5 -236.5v-1224q0 -248 -121 -380t-342 -132q-150 0 -241 60t-91 159q0 109 104 108q37 0 60.5 -19.5t56.5 -76.5 q39 -68 70 -90.5t78 -22.5q117 0 185.5 74t78.5 209l-1020 1423h-8v-901q0 -201 36.5 -253t176.5 -56v-82h-609z" />
<glyph unicode="&#x14b;" horiz-adv-x="1433" d="M51 958v70l395 78l27 -180h8q143 180 363 180q129 0 211 -36t145 -120q88 -119 88 -327v-627q0 -254 -125 -391t-356 -137q-154 0 -245 57t-91 145q0 49 33 78t78 29q51 0 85.5 -32t51 -68.5t50.5 -68.5t83 -32q78 0 115 61.5t37 202.5v758q0 209 -52.5 292t-185.5 83 q-123 0 -195 -139q-45 -91 -45 -218v-282q0 -166 28 -205t151 -47v-82h-646v82q121 8 152 47t31 190v256q0 236 -15 297q-12 53 -47 69.5t-129 16.5z" />
<glyph unicode="&#x14c;" horiz-adv-x="1933" d="M92 776q0 346 253 583.5t621.5 237.5t621.5 -237.5t253 -583.5q0 -334 -254 -565t-620.5 -231t-620.5 231t-254 565zM449 770q0 -303 139 -480t379 -177q238 0 378 177t140 480q0 319 -139.5 506.5t-379 187.5t-378.5 -187t-139 -507zM674 1772v133h581v-133h-581z" />
<glyph unicode="&#x14d;" horiz-adv-x="1351" d="M76 551q0 240 174 397.5t422 157.5t426 -159t178 -396q0 -246 -178 -408.5t-426 -162.5t-422 162.5t-174 408.5zM381 1417v133h582v-133h-582zM397 549q0 -203 75 -324t200 -121q129 0 205.5 122t76.5 323q0 197 -77.5 317.5t-204.5 120.5q-125 0 -200 -121t-75 -317z " />
<glyph unicode="&#x14e;" horiz-adv-x="1933" d="M92 776q0 346 253 583.5t621.5 237.5t621.5 -237.5t253 -583.5q0 -334 -254 -565t-620.5 -231t-620.5 231t-254 565zM449 770q0 -303 139 -480t379 -177q238 0 378 177t140 480q0 319 -139.5 506.5t-379 187.5t-378.5 -187t-139 -507zM664 1966h88q18 -39 77.5 -61.5 t139.5 -22.5t140.5 22.5t78.5 61.5h90q-8 -117 -94 -191.5t-213 -74.5q-129 0 -216 75.5t-91 190.5z" />
<glyph unicode="&#x14f;" horiz-adv-x="1351" d="M76 551q0 240 174 397.5t422 157.5t426 -159t178 -396q0 -246 -178 -408.5t-426 -162.5t-422 162.5t-174 408.5zM365 1610h88q18 -47 77.5 -76t139.5 -29t140.5 29t78.5 76h90q-8 -125 -94 -206t-213 -81q-129 0 -216 81t-91 206zM397 549q0 -203 75 -324t200 -121 q129 0 205.5 122t76.5 323q0 197 -77.5 317.5t-204.5 120.5q-125 0 -200 -121t-75 -317z" />
<glyph unicode="&#x150;" horiz-adv-x="1933" d="M92 776q0 346 253 583.5t621.5 237.5t621.5 -237.5t253 -583.5q0 -334 -254 -565t-620.5 -231t-620.5 231t-254 565zM449 770q0 -303 139 -480t379 -177q238 0 378 177t140 480q0 319 -139.5 506.5t-379 187.5t-378.5 -187t-139 -507zM555 1700l217 198q74 68 193 68 q117 0 116 -76q0 -47 -37.5 -74.5t-142.5 -58.5l-196 -57h-150zM1014 1700l217 198q74 68 192 68q117 0 117 -76q0 -47 -38 -74.5t-142 -58.5l-197 -57h-149z" />
<glyph unicode="&#x151;" horiz-adv-x="1351" d="M76 551q0 240 174 397.5t422 157.5t426 -159t178 -396q0 -246 -178 -408.5t-426 -162.5t-422 162.5t-174 408.5zM319 1333l261 244q94 88 174 88q51 0 81.5 -24.5t30.5 -67.5q0 -33 -34.5 -59.5t-106.5 -57.5l-285 -123h-121zM397 549q0 -203 75 -324t200 -121 q129 0 205.5 122t76.5 323q0 197 -77.5 317.5t-204.5 120.5q-125 0 -200 -121t-75 -317zM805 1333l260 244q94 88 174 88q51 0 82 -24.5t31 -67.5q0 -33 -35 -59.5t-107 -57.5l-284 -123h-121z" />
<glyph unicode="&#x152;" horiz-adv-x="2418" d="M92 776q0 338 259 569.5t636 231.5h1258l18 -401h-86q-27 164 -118 228t-308 64h-272q-37 0 -37 -34v-568q238 0 319.5 49.5t98.5 206.5h84v-600h-84q-25 158 -105 209t-313 53v-438q0 -133 76.5 -183t279.5 -50q164 0 258 36.5t141.5 109.5t77.5 210h82l-43 -469h-1335 q-373 0 -630 225.5t-257 550.5zM449 770q0 -295 143 -466t395 -171q84 0 119 39t35 139v955q0 100 -35 139t-119 39q-252 0 -395 -179.5t-143 -494.5z" />
<glyph unicode="&#x153;" horiz-adv-x="2156" d="M76 551q0 240 174 397.5t422 157.5q143 0 269 -57.5t212 -159.5q168 217 471 217q217 0 338 -118t121 -326q0 -33 -10.5 -40.5t-57.5 -7.5h-659q-8 -18 -8 -67q0 -201 87 -317.5t236 -116.5q170 -1 336 149l57 -72q-186 -211 -465 -210q-301 0 -458 208 q-84 -98 -207 -153t-262 -55q-248 0 -422 162.5t-174 408.5zM397 549q0 -203 75 -324t200 -121q129 0 205.5 122t76.5 323q0 197 -77.5 317.5t-204.5 120.5q-125 0 -200 -121t-75 -317zM1370 729h297q84 0 106.5 9.5t22.5 43.5q0 88 -51 146.5t-129 58.5q-88 0 -157 -72.5 t-89 -185.5z" />
<glyph unicode="&#x154;" horiz-adv-x="1669" d="M72 0v82q135 0 175 44t40 189v947q0 143 -34 185t-159 48v82h709q295 0 457.5 -104.5t162.5 -290.5q0 -365 -411 -439l475 -544q100 -117 254 -117v-82h-486l-507 623q-86 104 -160 104v-401q0 -154 52 -199t245 -45v-82h-813zM588 850h133q195 0 289 77t94 244 q0 131 -81 211t-220 80h-178q-37 0 -37 -35v-577zM598 1700l258 198q88 68 193 68q117 0 116 -76q0 -47 -39 -77.5t-141 -55.5l-237 -57h-150z" />
<glyph unicode="&#x155;" horiz-adv-x="1019" d="M53 958v72l410 76l33 -236h8q55 109 145 172.5t191 63.5q78 0 127 -39t49 -98q0 -68 -39 -112t-103 -44q-45 0 -99 41t-79 41q-39 0 -73.5 -51t-57.5 -137q-37 -133 -37 -291v-99q0 -158 37 -195.5t180 -39.5v-82h-684v82q125 8 154 46t29 194v249q0 254 -33 320.5 t-158 66.5zM387 1333l260 244q94 88 174 88q51 0 82 -24.5t31 -67.5q0 -33 -35 -59.5t-106 -57.5l-285 -123h-121z" />
<glyph unicode="&#x156;" horiz-adv-x="1669" d="M72 0v82q135 0 175 44t40 189v947q0 143 -34 185t-159 48v82h709q295 0 457.5 -104.5t162.5 -290.5q0 -365 -411 -439l475 -544q100 -117 254 -117v-82h-486l-507 623q-86 104 -160 104v-401q0 -154 52 -199t245 -45v-82h-813zM588 850h133q195 0 289 77t94 244 q0 131 -81 211t-220 80h-178q-37 0 -37 -35v-577zM743 -215q0 49 42 86t105.5 37t99.5 -42t36 -120q0 -147 -195 -258l-57 63q119 66 119 148q-20 -16 -55 -16q-39 0 -67 28.5t-28 73.5z" />
<glyph unicode="&#x157;" horiz-adv-x="1019" d="M53 958v72l410 76l33 -236h8q55 109 145 172.5t191 63.5q78 0 127 -39t49 -98q0 -68 -39 -112t-103 -44q-45 0 -99 41t-79 41q-39 0 -73.5 -51t-57.5 -137q-37 -133 -37 -291v-99q0 -158 37 -195.5t180 -39.5v-82h-684v82q125 8 154 46t29 194v249q0 254 -33 320.5 t-158 66.5zM236 -215q0 49 41.5 86t105 37t99.5 -42t36 -120q1 -147 -194 -258l-58 63q119 66 119 148q-20 -16 -55 -16q-39 0 -66.5 28.5t-27.5 73.5z" />
<glyph unicode="&#x158;" horiz-adv-x="1669" d="M72 0v82q135 0 175 44t40 189v947q0 143 -34 185t-159 48v82h709q295 0 457.5 -104.5t162.5 -290.5q0 -365 -411 -439l475 -544q100 -117 254 -117v-82h-486l-507 623q-86 104 -160 104v-401q0 -154 52 -199t245 -45v-82h-813zM395 1966h137l236 -100l236 100h137 l-254 -266h-238zM588 850h133q195 0 289 77t94 244q0 131 -81 211t-220 80h-178q-37 0 -37 -35v-577z" />
<glyph unicode="&#x159;" horiz-adv-x="1019" d="M53 958v72l410 76l33 -236h8q55 109 145 172.5t191 63.5q78 0 127 -39t49 -98q0 -68 -39 -112t-103 -44q-45 0 -99 41t-79 41q-39 0 -73.5 -51t-57.5 -137q-37 -133 -37 -291v-99q0 -158 37 -195.5t180 -39.5v-82h-684v82q125 8 154 46t29 194v249q0 254 -33 320.5 t-158 66.5zM238 1638h106l246 -139l246 139h106l-246 -305h-213z" />
<glyph unicode="&#x15a;" horiz-adv-x="1357" d="M111 522h79q27 -193 155 -305.5t314 -112.5q154 0 248 70t94 184q0 96 -73.5 155.5t-311.5 148.5q-469 178 -469 501q0 193 141.5 313.5t364.5 120.5q203 0 379 -131l37 103h49l23 -443h-80q-49 166 -153.5 256.5t-241.5 90.5q-125 0 -205 -62.5t-80 -161.5 q0 -88 67.5 -141t280.5 -133q285 -109 411 -233t126 -293q0 -207 -171 -338t-440 -131q-227 0 -424 143l-41 -123h-49zM436 1700l258 198q88 68 193 68q117 0 117 -76q0 -47 -39 -77.5t-142 -55.5l-237 -57h-150z" />
<glyph unicode="&#x15b;" horiz-adv-x="954" d="M111 0v373h86q35 -145 100 -214t170 -69q76 0 118 32t42 87q0 111 -217 227q-156 84 -223.5 167t-67.5 188q0 137 95 227t239 90q135 0 235 -70l37 49h53v-309h-80q-47 117 -98 168t-121 51q-57 0 -91 -30.5t-34 -81.5q0 -57 51.5 -108.5t165.5 -112.5 q166 -90 238 -175.5t72 -195.5q0 -141 -102.5 -227t-270.5 -86q-187 0 -289 92l-45 -72h-63zM283 1333l260 244q94 88 174 88q51 0 81.5 -24.5t30.5 -67.5q0 -33 -34.5 -59.5t-106.5 -57.5l-285 -123h-120z" />
<glyph unicode="&#x15c;" horiz-adv-x="1357" d="M111 522h79q27 -193 155 -305.5t314 -112.5q154 0 248 70t94 184q0 96 -73.5 155.5t-311.5 148.5q-469 178 -469 501q0 193 141.5 313.5t364.5 120.5q203 0 379 -131l37 103h49l23 -443h-80q-49 166 -153.5 256.5t-241.5 90.5q-125 0 -205 -62.5t-80 -161.5 q0 -88 67.5 -141t280.5 -133q285 -109 411 -233t126 -293q0 -207 -171 -338t-440 -131q-227 0 -424 143l-41 -123h-49zM281 1700l254 266h237l254 -266h-137l-236 100l-235 -100h-137z" />
<glyph unicode="&#x15d;" horiz-adv-x="954" d="M111 0v373h86q35 -145 100 -214t170 -69q76 0 118 32t42 87q0 111 -217 227q-156 84 -223.5 167t-67.5 188q0 137 95 227t239 90q135 0 235 -70l37 49h53v-309h-80q-47 117 -98 168t-121 51q-57 0 -91 -30.5t-34 -81.5q0 -57 51.5 -108.5t165.5 -112.5 q166 -90 238 -175.5t72 -195.5q0 -141 -102.5 -227t-270.5 -86q-187 0 -289 92l-45 -72h-63zM143 1333l246 305h213l246 -305h-107l-245 140l-246 -140h-107z" />
<glyph unicode="&#x15e;" horiz-adv-x="1357" d="M111 522h79q27 -193 155 -305.5t314 -112.5q154 0 248 70t94 184q0 96 -73.5 155.5t-311.5 148.5q-469 178 -469 501q0 193 141.5 313.5t364.5 120.5q203 0 379 -131l37 103h49l23 -443h-80q-49 166 -153.5 256.5t-241.5 90.5q-125 0 -205 -62.5t-80 -161.5 q0 -88 67.5 -141t280.5 -133q285 -109 411 -233t126 -293q0 -197 -155 -326t-404 -141l-45 -109q127 0 201.5 -51t74.5 -139q0 -94 -82 -154.5t-209 -60.5q-117 0 -192.5 50t-75.5 126q0 84 74 84q29 0 47 -16.5t37 -59.5q20 -49 39.5 -67.5t54.5 -18.5q41 0 65.5 25.5 t24.5 66.5q0 111 -156 111q-43 0 -80 -5l-4 7l94 213q-180 18 -344 139l-41 -123h-49z" />
<glyph unicode="&#x15f;" horiz-adv-x="954" d="M111 0v373h86q35 -145 100 -214t170 -69q76 0 118 32t42 87q0 111 -217 227q-156 84 -223.5 167t-67.5 188q0 137 95 227t239 90q135 0 235 -70l37 49h53v-309h-80q-47 117 -98 168t-121 51q-57 0 -91 -30.5t-34 -81.5q0 -57 51.5 -108.5t165.5 -112.5 q166 -90 238 -175.5t72 -195.5q0 -137 -95.5 -221t-253.5 -90l-45 -109q127 0 202 -51t75 -139q0 -94 -82 -154.5t-209 -60.5q-117 0 -192.5 50t-75.5 126q0 84 74 84q29 0 47 -16.5t36 -59.5q20 -49 40 -67.5t55 -18.5q41 0 65.5 25.5t24.5 66.5q0 111 -156 111 q-43 0 -80 -5l-4 7l96 219q-114 19 -184 82l-45 -72h-63z" />
<glyph unicode="&#x160;" horiz-adv-x="1357" d="M111 522h79q27 -193 155 -305.5t314 -112.5q154 0 248 70t94 184q0 96 -73.5 155.5t-311.5 148.5q-469 178 -469 501q0 193 141.5 313.5t364.5 120.5q203 0 379 -131l37 103h49l23 -443h-80q-49 166 -153.5 256.5t-241.5 90.5q-125 0 -205 -62.5t-80 -161.5 q0 -88 67.5 -141t280.5 -133q285 -109 411 -233t126 -293q0 -207 -171 -338t-440 -131q-227 0 -424 143l-41 -123h-49zM281 1966h137l235 -100l236 100h137l-254 -266h-237z" />
<glyph unicode="&#x161;" horiz-adv-x="954" d="M111 0v373h86q35 -145 100 -214t170 -69q76 0 118 32t42 87q0 111 -217 227q-156 84 -223.5 167t-67.5 188q0 137 95 227t239 90q135 0 235 -70l37 49h53v-309h-80q-47 117 -98 168t-121 51q-57 0 -91 -30.5t-34 -81.5q0 -57 51.5 -108.5t165.5 -112.5 q166 -90 238 -175.5t72 -195.5q0 -141 -102.5 -227t-270.5 -86q-187 0 -289 92l-45 -72h-63zM143 1638h107l246 -139l245 139h107l-246 -305h-213z" />
<glyph unicode="&#x162;" horiz-adv-x="1693" d="M25 1126l20 451h1604l20 -451h-88q-12 197 -92 270.5t-252 73.5q-156 0 -200 -12t-44 -51v-1073q0 -139 51.5 -192.5t225.5 -59.5v-82h-371l-55 -127q127 0 201.5 -51t74.5 -139q0 -94 -82 -154.5t-209 -60.5q-117 0 -192.5 50t-75.5 126q0 84 74 84q29 0 47 -16.5 t37 -59.5q20 -49 39.5 -67.5t54.5 -18.5q41 0 65.5 25.5t24.5 66.5q0 111 -155 111q-43 0 -80 -5l-4 7l100 229h-352v82q174 6 227 59.5t53 192.5v1073q0 39 -39 51t-172 12q-74 0 -116.5 -4t-98 -22.5t-85 -53t-52.5 -101t-25 -163.5h-79z" />
<glyph unicode="&#x163;" horiz-adv-x="782" d="M51 973v92q240 70 330 268h104v-248h236v-112h-236v-629q0 -125 28 -179t93 -54q80 0 121 73l43 -59q-57 -145 -270 -145l-45 -107q127 0 201.5 -51t74.5 -139q0 -94 -82 -154.5t-209 -60.5q-117 0 -192.5 50t-75.5 126q0 84 74 84q29 0 47 -16.5t37 -59.5 q20 -49 39.5 -67.5t54.5 -18.5q41 0 65.5 25.5t24.5 66.5q0 111 -156 111q-43 0 -79 -5l-5 7l99 225q-172 51 -172 233v744h-150z" />
<glyph unicode="&#x164;" horiz-adv-x="1693" d="M25 1126l20 451h1604l20 -451h-88q-12 197 -92 270.5t-252 73.5q-156 0 -200 -12t-44 -51v-1073q0 -139 51.5 -192.5t225.5 -59.5v-82h-858v82q174 6 227 59.5t53 192.5v1073q0 39 -39 51t-172 12q-74 0 -116.5 -4t-98 -22.5t-85 -53t-52.5 -101t-25 -163.5h-79z M471 1966h137l236 -100l235 100h138l-254 -266h-238z" />
<glyph unicode="&#x165;" horiz-adv-x="782" d="M51 973v92q240 70 330 268h104v-248h236v-112h-236v-629q0 -125 28 -179t93 -54q80 0 121 73l43 -59q-57 -145 -270 -145q-141 0 -220 65.5t-79 183.5v744h-150zM639 1475q0 49 42 85.5t105.5 36.5t99.5 -42t36 -119q0 -164 -195 -291l-57 63q119 84 118 181 q-20 -16 -55 -17q-39 0 -66.5 29t-27.5 74z" />
<glyph unicode="&#x166;" horiz-adv-x="1693" d="M25 1126l20 451h1604l20 -451h-88q-12 197 -92 270.5t-252 73.5q-156 0 -200 -12t-44 -51v-451h416v-122h-416v-500q0 -139 51.5 -192.5t225.5 -59.5v-82h-858v82q174 6 227 59.5t53 192.5v500h-416v122h416v451q0 39 -39 51t-172 12q-74 0 -116.5 -4t-98 -22.5t-85 -53 t-52.5 -101t-25 -163.5h-79z" />
<glyph unicode="&#x167;" horiz-adv-x="788" d="M57 973v92q240 70 330 268h105v-248h235v-112h-235v-193h208v-102h-208v-334q0 -125 27.5 -179t92.5 -54q80 0 121 73l43 -59q-57 -145 -270 -145q-141 0 -220 65.5t-79 183.5v449h-107v102h107v193h-150z" />
<glyph unicode="&#x168;" horiz-adv-x="1802" d="M55 1495v82h736v-82q-154 0 -191 -45q-27 -33 -37 -101.5t-10 -228.5v-536q0 -231 99.5 -344t305.5 -113q422 0 422 469v473q0 172 -13 252t-46 119q-53 55 -199 55v82h664v-82q-137 0 -180 -51q-56 -70 -56 -375v-434q0 -348 -155.5 -501.5t-507.5 -153.5 q-330 0 -482.5 138t-152.5 441v561q0 270 -37 326q-33 49 -160 49zM594 1696q20 121 88 197.5t156 76.5q49 0 178 -49q115 -45 162 -45q39 0 62.5 19.5t37.5 66.5h92q-16 -119 -90 -209q-61 -74 -150 -74q-66 0 -174 52q-100 47 -178 47q-35 0 -54.5 -18.5t-35.5 -63.5h-94z " />
<glyph unicode="&#x169;" horiz-adv-x="1452" d="M27 1004v81h458v-579q0 -205 51.5 -299t163.5 -94q123 0 187 110q65 107 65 314v213q0 166 -26.5 203.5t-151.5 50.5v81h463v-620q0 -238 14 -301q10 -53 42 -67.5t132 -14.5v-80l-407 -25l-23 183h-8q-51 -84 -148.5 -132t-215.5 -48q-219 0 -334 155q-88 119 -88 338 v277q0 94 -3 134t-23.5 69.5t-49.5 35.5t-98 15zM250 1352q20 121 88 197.5t156 76.5q49 0 178 -49q115 -45 162 -45q39 0 62.5 19.5t37.5 66.5h92q-16 -119 -90 -209q-61 -74 -150 -74q-66 0 -174 51q-100 47 -178 48q-35 0 -54.5 -18.5t-35.5 -63.5h-94z" />
<glyph unicode="&#x16a;" horiz-adv-x="1802" d="M55 1495v82h736v-82q-154 0 -191 -45q-27 -33 -37 -101.5t-10 -228.5v-536q0 -231 99.5 -344t305.5 -113q422 0 422 469v473q0 172 -13 252t-46 119q-53 55 -199 55v82h664v-82q-137 0 -180 -51q-56 -70 -56 -375v-434q0 -348 -155.5 -501.5t-507.5 -153.5 q-330 0 -482.5 138t-152.5 441v561q0 270 -37 326q-33 49 -160 49zM672 1772v133h581v-133h-581z" />
<glyph unicode="&#x16b;" horiz-adv-x="1452" d="M27 1004v81h458v-579q0 -205 51.5 -299t163.5 -94q123 0 187 110q65 107 65 314v213q0 166 -26.5 203.5t-151.5 50.5v81h463v-620q0 -238 14 -301q10 -53 42 -67.5t132 -14.5v-80l-407 -25l-23 183h-8q-51 -84 -148.5 -132t-215.5 -48q-219 0 -334 155q-88 119 -88 338 v277q0 94 -3 134t-23.5 69.5t-49.5 35.5t-98 15zM362 1417v133h582v-133h-582z" />
<glyph unicode="&#x16c;" horiz-adv-x="1802" d="M55 1495v82h736v-82q-154 0 -191 -45q-27 -33 -37 -101.5t-10 -228.5v-536q0 -231 99.5 -344t305.5 -113q422 0 422 469v473q0 172 -13 252t-46 119q-53 55 -199 55v82h664v-82q-137 0 -180 -51q-56 -70 -56 -375v-434q0 -348 -155.5 -501.5t-507.5 -153.5 q-330 0 -482.5 138t-152.5 441v561q0 270 -37 326q-33 49 -160 49zM651 1966h88q18 -39 78 -61.5t139.5 -22.5t140.5 22.5t79 61.5h90q-8 -117 -94.5 -191.5t-213.5 -74.5q-129 0 -216 75.5t-91 190.5z" />
<glyph unicode="&#x16d;" horiz-adv-x="1452" d="M27 1004v81h458v-579q0 -205 51.5 -299t163.5 -94q123 0 187 110q65 107 65 314v213q0 166 -26.5 203.5t-151.5 50.5v81h463v-620q0 -238 14 -301q10 -53 42 -67.5t132 -14.5v-80l-407 -25l-23 183h-8q-51 -84 -148.5 -132t-215.5 -48q-219 0 -334 155q-88 119 -88 338 v277q0 94 -3 134t-23.5 69.5t-49.5 35.5t-98 15zM346 1610h88q18 -47 77.5 -76t139.5 -29t140.5 29t78.5 76h91q-8 -125 -94.5 -206t-213.5 -81q-129 0 -216 81t-91 206z" />
<glyph unicode="&#x16e;" horiz-adv-x="1802" d="M55 1495v82h736v-82q-154 0 -191 -45q-27 -33 -37 -101.5t-10 -228.5v-536q0 -231 99.5 -344t305.5 -113q422 0 422 469v473q0 172 -13 252t-46 119q-53 55 -199 55v82h664v-82q-137 0 -180 -51q-56 -70 -56 -375v-434q0 -348 -155.5 -501.5t-507.5 -153.5 q-330 0 -482.5 138t-152.5 441v561q0 270 -37 326q-33 49 -160 49zM823 1833q0 57 40 95t99.5 38t99.5 -38t40 -95t-40 -95t-99.5 -38t-99.5 38t-40 95zM909 1832.5q0 -20.5 15.5 -34.5t38 -14t37 14t14.5 34.5t-14.5 34t-37 13.5t-38 -13.5t-15.5 -34z" />
<glyph unicode="&#x16f;" horiz-adv-x="1452" d="M27 1004v81h458v-579q0 -205 51.5 -299t163.5 -94q123 0 187 110q65 107 65 314v213q0 166 -26.5 203.5t-151.5 50.5v81h463v-620q0 -238 14 -301q10 -53 42 -67.5t132 -14.5v-80l-407 -25l-23 183h-8q-51 -84 -148.5 -132t-215.5 -48q-219 0 -334 155q-88 119 -88 338 v277q0 94 -3 134t-23.5 69.5t-49.5 35.5t-98 15zM487 1520q0 78 52.5 129t132.5 51q82 0 135 -51.5t53 -128.5q0 -76 -53 -126.5t-135 -50.5q-80 0 -132.5 50.5t-52.5 126.5zM588 1519.5q0 -32.5 24.5 -56t59.5 -23.5q33 0 56.5 23.5t23.5 56t-22.5 54t-57.5 21.5 t-59.5 -21.5t-24.5 -54z" />
<glyph unicode="&#x170;" horiz-adv-x="1802" d="M55 1495v82h736v-82q-154 0 -191 -45q-27 -33 -37 -101.5t-10 -228.5v-536q0 -231 99.5 -344t305.5 -113q422 0 422 469v473q0 172 -13 252t-46 119q-53 55 -199 55v82h664v-82q-137 0 -180 -51q-56 -70 -56 -375v-434q0 -348 -155.5 -501.5t-507.5 -153.5 q-330 0 -482.5 138t-152.5 441v561q0 270 -37 326q-33 49 -160 49zM584 1700l217 198q74 68 192 68q117 0 117 -76q0 -47 -38 -74.5t-142 -58.5l-197 -57h-149zM1042 1700l218 198q74 68 192 68q117 0 117 -76q0 -47 -38 -74.5t-142 -58.5l-197 -57h-150z" />
<glyph unicode="&#x171;" horiz-adv-x="1452" d="M27 1004v81h458v-579q0 -205 51.5 -299t163.5 -94q123 0 187 110q65 107 65 314v213q0 166 -26.5 203.5t-151.5 50.5v81h463v-620q0 -238 14 -301q10 -53 42 -67.5t132 -14.5v-80l-407 -25l-23 183h-8q-51 -84 -148.5 -132t-215.5 -48q-219 0 -334 155q-88 119 -88 338 v277q0 94 -3 134t-23.5 69.5t-49.5 35.5t-98 15zM270 1333l260 244q94 88 175 88q51 0 81.5 -24.5t30.5 -67.5q0 -33 -34.5 -59.5t-106.5 -57.5l-285 -123h-121zM756 1333l260 244q94 88 174 88q51 0 82 -24.5t31 -67.5q0 -33 -35 -59.5t-107 -57.5l-284 -123h-121z" />
<glyph unicode="&#x172;" horiz-adv-x="1802" d="M55 1495v82h736v-82q-154 0 -191 -45q-27 -33 -37 -101.5t-10 -228.5v-536q0 -231 99.5 -344t305.5 -113q422 0 422 469v473q0 172 -13 252t-46 119q-53 55 -199 55v82h664v-82q-137 0 -180 -51q-55 -70 -56 -375v-434q0 -303 -117.5 -457.5t-375.5 -187.5 q-102 -49 -167 -117t-65 -127q0 -41 28 -66.5t73 -25.5q96 -1 182 108l72 -73q-137 -178 -340 -178q-225 0 -226 180q0 170 263 289q-326 4 -475.5 141t-149.5 438v561q0 270 -37 326q-33 49 -160 49z" />
<glyph unicode="&#x173;" horiz-adv-x="1452" d="M27 1004v81h458v-579q0 -205 51.5 -299t163.5 -94q123 0 187 110q66 106 65 314v213q0 166 -26.5 203.5t-151.5 50.5v81h463v-620q0 -238 14 -301q10 -53 42 -67.5t132 -14.5v-80l-239 -14q-102 -49 -165 -116t-63 -126q0 -41 28 -66.5t73 -25.5q96 -1 182 108l72 -73 q-137 -178 -340 -178q-225 0 -225 180q0 174 268 293l-21 176h-8q-51 -84 -148.5 -132t-215.5 -48q-219 0 -334 155q-88 119 -88 338v277q0 94 -3 134t-23.5 69.5t-49.5 35.5t-98 15z" />
<glyph unicode="&#x174;" horiz-adv-x="2512" d="M-57 1493v84h774v-84q-100 0 -141 -19.5t-41 -64.5q0 -43 51 -186l286 -826l332 906q-39 109 -86 143.5t-149 46.5v84h723v-84q-88 0 -128 -22.5t-40 -81.5q0 -55 35 -166l258 -826l276 791q49 137 49 205q0 59 -41 80.5t-139 21.5v82h582v-82q-176 0 -236 -166 l-493 -1349h-183l-356 1081l-406 -1081h-170l-434 1196q-74 203 -136 260t-187 57zM954 1700l254 266h238l254 -266h-137l-236 100l-235 -100h-138z" />
<glyph unicode="&#x175;" horiz-adv-x="1824" d="M16 1004v81h586v-81q-74 -2 -102.5 -21.5t-28.5 -67.5q0 -29 23 -110l129 -479h8l287 759h167l215 -759h11l164 424q37 94 36 155q0 98 -129 99v81h441v-81q-74 0 -112 -49.5t-124 -266.5l-282 -708h-162l-217 727h-8l-277 -727h-154l-280 841q-31 96 -75 137t-116 46z M606 1333l246 305h213l246 -305h-107l-246 140l-245 -140h-107z" />
<glyph unicode="&#x176;" horiz-adv-x="1556" d="M-29 1495v82h688v-82q-156 0 -155 -65q0 -31 51 -127l293 -560h8l258 431q121 203 121 260q0 35 -32 48t-118 13v82h514v-82q-90 0 -158.5 -71.5t-209.5 -311.5l-299 -512v-209q0 -201 40 -255t173 -54v-82h-729v82q131 0 173 53t42 242v188l-424 754q-61 106 -108.5 141 t-127.5 35zM481 1700l254 266h238l254 -266h-137l-236 100l-236 -100h-137z" />
<glyph unicode="&#x177;" horiz-adv-x="1323" d="M16 1004v81h621v-81q-80 0 -111.5 -16.5t-31.5 -55.5q0 -27 18 -82l209 -598h8l176 399q90 207 90 262q0 53 -29.5 72t-119.5 19v81h493v-81q-80 0 -128 -57.5t-154 -284.5l-469 -984q-43 -90 -131 -150t-178 -60q-68 0 -109 32.5t-41 87.5q0 102 152 115q182 14 235 115 l55 106l-362 897q-47 119 -80 148.5t-113 34.5zM403 1333l246 305h213l246 -305h-107l-245 140l-246 -140h-107z" />
<glyph unicode="&#x178;" horiz-adv-x="1556" d="M-29 1495v82h688v-82q-156 0 -155 -65q0 -31 51 -127l293 -560h8l258 431q121 203 121 260q0 35 -32 48t-118 13v82h514v-82q-90 0 -158.5 -71.5t-209.5 -311.5l-299 -512v-209q0 -201 40 -255t173 -54v-82h-729v82q131 0 173 53t42 242v188l-424 754q-61 106 -108.5 141 t-127.5 35zM514 1849q0 51 35 84t88 33q55 0 91 -32.5t36 -84.5q0 -53 -36 -86.5t-91 -33.5q-53 0 -88 33.5t-35 86.5zM958 1849q0 51 36 84t91 33q51 0 87 -34t36 -83q0 -53 -35.5 -86.5t-87.5 -33.5q-55 0 -91 33.5t-36 86.5z" />
<glyph unicode="&#x179;" horiz-adv-x="1632" d="M31 0v47l1030 1423h-518q-150 0 -226.5 -74.5t-107.5 -236.5h-80l33 418h1327v-47l-1020 -1415h586q215 0 291.5 80.5t115.5 326.5h94l-26 -522h-1499zM483 1890q0 76 117 76q104 0 193 -68l258 -198h-150l-237 57q-102 25 -141.5 55.5t-39.5 77.5z" />
<glyph unicode="&#x17a;" horiz-adv-x="1163" d="M53 0v47l641 930h-188q-176 0 -232.5 -38t-80.5 -173h-80l24 319h924v-47l-631 -927h180q215 0 288 43t112 194h80l-25 -348h-1012zM442 1333l260 244q94 88 175 88q51 0 81.5 -24.5t30.5 -67.5q0 -33 -34.5 -59.5t-106.5 -57.5l-285 -123h-121z" />
<glyph unicode="&#x17b;" horiz-adv-x="1632" d="M31 0v47l1030 1423h-518q-150 0 -226.5 -74.5t-107.5 -236.5h-80l33 418h1327v-47l-1020 -1415h586q215 0 291.5 80.5t115.5 326.5h94l-26 -522h-1499zM668 1829q0 55 40 95t95 40q59 0 101 -39t42 -96q0 -53 -42 -91t-101 -38q-53 0 -94 39t-41 90z" />
<glyph unicode="&#x17c;" horiz-adv-x="1163" d="M53 0v47l641 930h-188q-176 0 -232.5 -38t-80.5 -173h-80l24 319h924v-47l-631 -927h180q215 0 288 43t112 194h80l-25 -348h-1012zM512 1540q0 68 46 114t112 46q68 0 113.5 -46t45.5 -114q0 -66 -46 -112t-113 -46q-66 0 -112 46t-46 112z" />
<glyph unicode="&#x17d;" horiz-adv-x="1632" d="M31 0v47l1030 1423h-518q-150 0 -226.5 -74.5t-107.5 -236.5h-80l33 418h1327v-47l-1020 -1415h586q215 0 291.5 80.5t115.5 326.5h94l-26 -522h-1499zM438 1966h137l236 -100l236 100h137l-254 -266h-238z" />
<glyph unicode="&#x17e;" horiz-adv-x="1163" d="M53 0v47l641 930h-188q-176 0 -232.5 -38t-80.5 -173h-80l24 319h924v-47l-631 -927h180q215 0 288 43t112 194h80l-25 -348h-1012zM295 1638h106l246 -139l246 139h106l-245 -305h-213z" />
<glyph unicode="&#x18f;" horiz-adv-x="1746" d="M80 592q0 39 16.5 49t79.5 10h1110q12 33 12 131q0 313 -151.5 496.5t-407.5 183.5q-160 0 -276.5 -53t-243.5 -188l-96 84q254 295 661 294q389 0 629 -219t240 -573q0 -362 -254 -594.5t-651 -232.5q-315 0 -491.5 162.5t-176.5 449.5zM385 418q0 -135 111.5 -217 t302.5 -82q383 0 467 383h-697q-123 0 -153.5 -14.5t-30.5 -69.5z" />
<glyph unicode="&#x192;" horiz-adv-x="1480" d="M-258 -319q0 47 29.5 76.5t74.5 29.5q63 0 131 -90q59 -78 78 -93.5t58 -15.5q92 0 149 129t111 451l112 702h-225l31 113h215l18 92q49 244 207 383t383 139q145 0 239.5 -57t94.5 -145q0 -94 -102 -95q-57 0 -111 60q-70 76 -101.5 97.5t-70.5 21.5q-96 0 -156.5 -97.5 t-99.5 -310.5l-16 -88h266l-29 -113h-250l-71 -407q-49 -279 -87 -419t-92 -247q-168 -330 -446 -329q-139 0 -239.5 62t-100.5 151z" />
<glyph unicode="&#x1c4;" horiz-adv-x="3514" d="M72 0v82q137 4 176 46t39 187v947q0 143 -33 185t-150 48v82h779q393 0 649 -230.5t256 -584.5q0 -336 -240.5 -549t-621.5 -213h-854zM588 358q0 -233 301 -233q268 0 412.5 163t144.5 470q0 326 -151.5 510t-415.5 184h-256q-35 0 -35 -35v-1059zM1913 0v47l1030 1423 h-518q-150 0 -226.5 -74.5t-107.5 -236.5h-80l33 418h1327v-47l-1020 -1415h586q215 0 291.5 80.5t115.5 326.5h95l-27 -522h-1499zM2320 1966h138l235 -100l236 100h137l-254 -266h-238z" />
<glyph unicode="&#x1c5;" horiz-adv-x="3045" d="M72 0v82q137 4 176 46t39 187v947q0 143 -33 185t-150 48v82h779q393 0 649 -230.5t256 -584.5q0 -336 -240.5 -549t-621.5 -213h-854zM588 358q0 -233 301 -233q268 0 412.5 163t144.5 470q0 326 -151.5 510t-415.5 184h-256q-35 0 -35 -35v-1059zM1935 0v47l641 930 h-188q-176 0 -232.5 -38t-80.5 -173h-80l24 319h924v-47l-631 -927h180q215 0 288 43t112 194h80l-25 -348h-1012zM2177 1638h107l245 -139l246 139h107l-246 -305h-213z" />
<glyph unicode="&#x1c6;" horiz-adv-x="2584" d="M80 534.5q0 243.5 148.5 407.5t369.5 164q213 0 320 -135h8v174q0 268 -13 321q-18 82 -223 82v70l518 82v-1172q0 -283 15 -362q8 -53 35.5 -68.5t115.5 -15.5v-80l-389 -22v151h-8q-141 -152 -367 -151q-233 0 -381.5 155.5t-148.5 399zM391 539q0 -213 63.5 -328 t182.5 -115q68 0 129 35t100 94q56 84 56 283v80q0 160 -66 262q-76 121 -217 121q-119 0 -183.5 -111.5t-64.5 -320.5zM1475 0v47l641 930h-189q-176 0 -232.5 -38t-80.5 -173h-80l25 319h923v-47l-631 -927h181q215 0 287.5 43t111.5 194h80l-25 -348h-1011zM1716 1638 h107l245 -139l246 139h107l-246 -305h-213z" />
<glyph unicode="&#x1c7;" horiz-adv-x="2365" d="M72 0v82q137 4 176 47t39 186v947q0 143 -35 185t-158 48v82h707v-82q-137 -4 -175 -48t-38 -200v-858q0 -168 75.5 -222t294.5 -54q240 0 335.5 69.5t140.5 282.5h82l-33 -465h-1411zM1188 -307q0 57 37 90t94 33q45 0 73.5 -23.5t69.5 -93.5q39 -66 72 -89.5t82 -23.5 q88 0 135 96.5t47 270.5v1309q0 143 -34.5 185t-159.5 48v82h690v-82q-127 -4 -161 -48t-34 -200v-1251q0 -258 -133 -393t-389 -135q-180 0 -284.5 62t-104.5 163z" />
<glyph unicode="&#x1c8;" horiz-adv-x="2211" d="M72 0v82q137 4 176 47t39 186v947q0 143 -35 185t-158 48v82h707v-82q-137 -4 -175 -48t-38 -200v-858q0 -168 75.5 -222t294.5 -54q240 0 335.5 69.5t140.5 282.5h82l-33 -465h-1411zM1221 -330q0 49 32.5 78t77.5 29q51 0 86 -32t51.5 -68.5t50 -68.5t83.5 -32 q78 0 114.5 61.5t36.5 202.5v754q0 213 -16 283q-10 49 -45 65t-129 16v70l475 78v-1110q0 -254 -125 -391t-357 -137q-154 0 -244.5 57t-90.5 145zM1737 1540q0 68 46 114t111 46q68 0 114 -46t46 -114q0 -66 -46 -112t-114 -46q-66 0 -111.5 46t-45.5 112z" />
<glyph unicode="&#x1c9;" horiz-adv-x="1404" d="M31 1552v70l475 78v-1364q0 -164 29.5 -207t148.5 -47v-82h-645v82q115 6 148.5 50t33.5 190v845q0 238 -14 301q-10 51 -46 67.5t-130 16.5zM414 -330q0 49 32.5 78t77.5 29q51 0 86 -32t51.5 -68.5t50 -68.5t83.5 -32q78 0 114.5 61.5t36.5 202.5v754q0 213 -16 283 q-10 49 -45 65t-129 16v70l475 78v-1110q0 -254 -125 -391t-356 -137q-154 0 -245 57t-91 145zM930 1540q0 68 46 114t111 46q68 0 114 -46t46 -114q0 -66 -46 -112t-114 -46q-66 0 -111.5 46t-45.5 112z" />
<glyph unicode="&#x1ca;" horiz-adv-x="2758" d="M61 0v82q152 4 194 55t42 240v823q0 176 -40 232.5t-175 62.5v82h571l826 -1184h8v793q0 201 -37 253t-176 56v82h608v-82q-152 -4 -193.5 -55t-41.5 -240v-1220h-275l-907 1292h-8v-881q0 -201 36.5 -253t176.5 -56v-82h-609zM1581 -307q0 57 37 90t94 33q45 0 74 -23.5 t69 -93.5q39 -66 72 -89.5t82 -23.5q88 0 135 96.5t47 270.5v1309q0 143 -34.5 185t-159.5 48v82h690v-82q-127 -4 -161 -48t-34 -200v-1251q0 -258 -133 -393t-389 -135q-180 0 -284.5 62t-104.5 163z" />
<glyph unicode="&#x1cb;" horiz-adv-x="2572" d="M61 0v82q152 4 194 55t42 240v823q0 176 -40 232.5t-175 62.5v82h571l826 -1184h8v793q0 201 -37 253t-176 56v82h608v-82q-152 -4 -193.5 -55t-41.5 -240v-1220h-275l-907 1292h-8v-881q0 -201 36.5 -253t176.5 -56v-82h-609zM1581 -330q0 49 33 78t78 29q51 0 85.5 -32 t51 -68.5t50.5 -68.5t83 -32q78 0 115 61.5t37 202.5v754q0 213 -17 283q-10 49 -45 65t-129 16v70l475 78v-1110q0 -254 -125 -391t-356 -137q-154 0 -245 57t-91 145zM2097 1540q0 68 46 114t112 46q68 0 114 -46t46 -114q0 -66 -46.5 -112t-113.5 -46q-66 0 -112 46 t-46 112z" />
<glyph unicode="&#x1cc;" horiz-adv-x="2166" d="M51 958v70l395 78l27 -180h8q143 180 363 180q129 0 211 -36t145 -120q88 -119 88 -327v-289q0 -166 27.5 -205t146.5 -47v-82h-641v82q121 6 152 46t31 191v279q0 209 -52.5 292t-185.5 83q-123 0 -195 -139q-45 -91 -45 -218v-282q0 -166 28 -205t151 -47v-82h-646v82 q121 8 152 47t31 190v256q0 236 -15 297q-12 53 -47 69.5t-129 16.5zM1176 -330q0 49 32.5 78t77.5 29q51 0 86 -32t51.5 -68.5t50 -68.5t82.5 -32q78 0 115 61.5t37 202.5v754q0 213 -16 283q-10 49 -45 65t-129 16v70l475 78v-1110q0 -254 -125 -391t-357 -137 q-154 0 -244.5 57t-90.5 145zM1692 1540q0 68 46 114t111 46q68 0 114 -46t46 -114q0 -66 -46 -112t-114 -46q-66 0 -111.5 46t-45.5 112z" />
<glyph unicode="&#x1ea;" horiz-adv-x="1931" d="M92 776q0 346 253 583.5t621.5 237.5t621.5 -237.5t253 -583.5q0 -305 -218 -529t-546 -261q-100 -49 -161.5 -116t-61.5 -124q0 -41 27.5 -66.5t72.5 -25.5q97 -1 183 108l71 -73q-137 -178 -340 -178q-225 0 -225 180q0 172 266 291q-346 18 -581.5 246.5t-235.5 547.5 zM449 770q0 -303 139 -480t379 -177q238 0 378 177t140 480q0 319 -139.5 506.5t-379 187.5t-378.5 -187t-139 -507z" />
<glyph unicode="&#x1eb;" horiz-adv-x="1351" d="M76 551q0 240 174 397.5t422 157.5t426 -159t178 -396q0 -225 -152.5 -384t-378.5 -183q-98 -49 -158.5 -115t-60.5 -123q0 -41 28 -66.5t73 -25.5q96 -1 182 108l72 -73q-137 -178 -340 -178q-225 0 -226 180q0 174 275 295q-219 27 -366.5 183.5t-147.5 381.5zM397 549 q0 -203 75 -324t200 -121q129 0 205.5 122t76.5 323q0 197 -77.5 317.5t-204.5 120.5q-125 0 -200 -121t-75 -317z" />
<glyph unicode="&#x1f1;" horiz-adv-x="3493" d="M72 0v82q137 4 176 46t39 187v947q0 143 -33 185t-150 48v82h779q393 0 649 -230.5t256 -584.5q0 -336 -240.5 -549t-621.5 -213h-854zM588 358q0 -233 301 -233q268 0 412.5 163t144.5 470q0 326 -151.5 510t-415.5 184h-256q-35 0 -35 -35v-1059zM1892 0v47l1030 1423 h-518q-150 0 -226.5 -74.5t-106.5 -236.5h-80l32 418h1328v-47l-1020 -1415h585q215 0 292 80.5t116 326.5h94l-27 -522h-1499z" />
<glyph unicode="&#x1f2;" horiz-adv-x="3035" d="M72 0v82q137 4 176 46t39 187v947q0 143 -33 185t-150 48v82h779q393 0 649 -230.5t256 -584.5q0 -336 -240.5 -549t-621.5 -213h-854zM588 358q0 -233 301 -233q268 0 412.5 163t144.5 470q0 326 -151.5 510t-415.5 184h-256q-35 0 -35 -35v-1059zM1925 0v47l641 930 h-188q-176 0 -232.5 -38t-81.5 -173h-79l24 319h924v-47l-631 -927h180q215 0 288 43t112 194h79l-24 -348h-1012z" />
<glyph unicode="&#x1f3;" horiz-adv-x="2584" d="M80 534.5q0 243.5 148.5 407.5t369.5 164q213 0 320 -135h8v174q0 268 -13 321q-18 82 -223 82v70l518 82v-1172q0 -283 15 -362q8 -53 35.5 -68.5t115.5 -15.5v-80l-389 -22v151h-8q-141 -152 -367 -151q-233 0 -381.5 155.5t-148.5 399zM391 539q0 -213 63.5 -328 t182.5 -115q68 0 129 35t100 94q56 84 56 283v80q0 160 -66 262q-76 121 -217 121q-119 0 -183.5 -111.5t-64.5 -320.5zM1475 0v47l641 930h-189q-176 0 -232.5 -38t-80.5 -173h-80l25 319h923v-47l-631 -927h181q215 0 287.5 43t111.5 194h80l-25 -348h-1011z" />
<glyph unicode="&#x1fa;" horiz-adv-x="1615" d="M-29 0v78q98 10 146.5 45t89.5 121l559 1231h92l549 -1188q53 -115 114.5 -161t151.5 -46v-80h-702v80q111 0 158 21.5t47 74.5q-1 55 -54 174l-98 221h-561q-137 -293 -137 -393q0 -55 40 -77.5t128 -22.5v-78h-523zM512 674h465l-223 502zM545 1640l127 115 q-4 12 -4 43q0 74 48 121t122 47q51 0 98 -27q47 47 100 48q61 0 61.5 -53.5t-91.5 -102.5q4 -20 4 -33q0 -68 -49.5 -115t-122.5 -47q-63 0 -109 35l-70 -31h-114zM748 1798q0 -37 25.5 -60.5t64.5 -23.5q41 0 66.5 23.5t25.5 60.5q0 39 -25.5 62.5t-66.5 23.5t-65.5 -23.5 t-24.5 -62.5z" />
<glyph unicode="&#x1fb;" horiz-adv-x="1175" d="M70 244q0 184 346 323l289 125v86q0 227 -173 228q-57 0 -88.5 -31t-58.5 -107q-39 -109 -145 -108q-57 0 -88 34.5t-31 98.5q0 98 110.5 155.5t321.5 57.5q231 0 328.5 -83t97.5 -278v-448q0 -174 70 -174q39 0 71 27l31 -60q-27 -51 -88.5 -80.5t-136.5 -29.5 q-94 0 -143.5 57t-49.5 162h-10q-119 -217 -369 -217q-127 0 -205.5 72.5t-78.5 189.5zM184 1354l138 114q-5 14 -5 43q0 74 48.5 121t121.5 47q52 0 93 -24q51 66 106 65q37 0 59.5 -20.5t22.5 -52.5q0 -53 -111 -105q2 -10 2 -31q0 -68 -49 -114.5t-123 -46.5 q-61 0 -106 34l-62 -30h-135zM358 301q0 -59 33 -94t82 -35q98 0 165 62.5t67 154.5v195q-178 -82 -262.5 -147.5t-84.5 -135.5zM414 1511q0 -29 20.5 -48t53 -19t53 19.5t20.5 47.5q0 31 -20.5 50.5t-53 19.5t-53 -19.5t-20.5 -50.5z" />
<glyph unicode="&#x1fc;" horiz-adv-x="2326" d="M-45 0v84q98 10 151.5 45t104.5 121q6 10 620 1130q16 33 17 52q0 27 -39 37t-131 10v98h1481v-401h-86q-25 174 -111 233t-303 59h-275q-37 0 -36 -34v-562q184 0 265 18.5t114.5 68t46.5 163.5h75v-600h-75q-18 111 -49 158t-113 67.5t-264 22.5v-428q0 -133 76.5 -183 t281.5 -50q223 0 319.5 74.5t137.5 281.5h90l-31 -465h-1391v84q137 4 176.5 47t39.5 186v244h-508q-131 -233 -158 -292.5t-27 -98.5q0 -18 4 -31.5t15.5 -21.5t19.5 -14.5t26.5 -9.5t28 -4t33 -3t31.5 -2v-84h-557zM608 684h439v793zM1104 1700l258 198q88 68 192 68 q117 0 117 -76q0 -47 -39 -77.5t-141 -55.5l-238 -57h-149z" />
<glyph unicode="&#x1fd;" horiz-adv-x="1820" d="M70 231q0 104 75.5 180t260.5 154l299 127v86q0 227 -168 228q-57 0 -86 -26t-64 -106q-45 -115 -141 -114q-59 0 -92 33.5t-33 93.5q0 219 416 219q283 0 381 -119q137 119 372 119q217 0 337 -119t120 -338q0 -25 -9 -30t-57 -5h-673q-8 -18 -9 -82q0 -205 85 -312 t247 -107.5t342 149.5l58 -72q-199 -211 -474 -210q-348 0 -497 260q-57 -123 -162.5 -190.5t-239.5 -67.5q-135 0 -211.5 66.5t-76.5 182.5zM358 293q0 -55 37 -88t99 -33q90 0 150.5 66.5t60.5 164.5v183q-193 -92 -270 -158t-77 -135zM686 1333l260 244q94 88 174 88 q51 0 82 -24.5t31 -67.5q0 -33 -35 -59.5t-106 -57.5l-285 -123h-121zM1022 729h313q84 0 105.5 10.5t21.5 48.5q0 88 -51 143.5t-135 55.5q-88 0 -156.5 -68.5t-97.5 -189.5z" />
<glyph unicode="&#x1fe;" horiz-adv-x="1931" d="M92 776q0 346 253 583.5t622 237.5q262 0 481 -131l194 234h183l-262 -316q131 -115 204.5 -271.5t73.5 -336.5q0 -334 -254 -565t-620 -231q-254 0 -469 120l-222 -266h-180l287 346q-137 111 -214 265.5t-77 330.5zM449 770q0 -240 88 -403l782 942q-137 156 -352 155 q-240 0 -379 -187.5t-139 -506.5zM623 250q133 -137 344 -137q238 0 378 177t140 480q0 242 -86 418zM784 1700l258 198q88 68 193 68q117 0 117 -76q0 -47 -39 -77.5t-142 -55.5l-237 -57h-150z" />
<glyph unicode="&#x1ff;" horiz-adv-x="1347" d="M45 -125l213 258q-184 164 -184 418q0 240 174 397.5t422 157.5q176 0 325 -86l160 192h168l-223 -268q174 -160 174 -393q0 -246 -178 -408.5t-426 -162.5q-164 0 -308 77l-151 -182h-166zM395 549q0 -121 29 -217l446 538q-77 117 -200 117q-125 0 -200 -121t-75 -317z M483 203q74 -98 187 -99q129 0 205.5 122t76.5 323q0 106 -24 188zM545 1333l260 244q94 88 174 88q51 0 82 -24.5t31 -67.5q0 -33 -35 -59.5t-107 -57.5l-284 -123h-121z" />
<glyph unicode="&#x218;" horiz-adv-x="1357" d="M111 522h79q27 -193 155 -305.5t314 -112.5q154 0 248 70t94 184q0 96 -73.5 155.5t-311.5 148.5q-469 178 -469 501q0 193 141.5 313.5t364.5 120.5q203 0 379 -131l37 103h49l23 -443h-80q-49 166 -153.5 256.5t-241.5 90.5q-125 0 -205 -62.5t-80 -161.5 q0 -88 67.5 -141t280.5 -133q285 -109 411 -233t126 -293q0 -207 -171 -338t-440 -131q-227 0 -424 143l-41 -123h-49zM506 -215q0 49 42 86t105.5 37t99 -42t35.5 -120q1 -147 -194 -258l-57 63q119 66 118 148q-20 -16 -55 -16q-39 0 -66.5 28.5t-27.5 73.5z" />
<glyph unicode="&#x219;" horiz-adv-x="954" d="M111 0v373h86q35 -145 100 -214t170 -69q76 0 118 32t42 87q0 111 -217 227q-156 84 -223.5 167t-67.5 188q0 137 95 227t239 90q135 0 235 -70l37 49h53v-309h-80q-47 117 -98 168t-121 51q-57 0 -91 -30.5t-34 -81.5q0 -57 51.5 -108.5t165.5 -112.5 q166 -90 238 -175.5t72 -195.5q0 -141 -102.5 -227t-270.5 -86q-187 0 -289 92l-45 -72h-63zM340 -213q0 49 42 86t105.5 37t99.5 -42t36 -120q0 -147 -195 -258l-57 64q119 66 118 147q-20 -16 -55 -16q-39 0 -66.5 28.5t-27.5 73.5z" />
<glyph unicode="&#x21a;" horiz-adv-x="1693" d="M25 1126l20 451h1604l20 -451h-88q-12 197 -92 270.5t-252 73.5q-156 0 -200 -12t-44 -51v-1073q0 -139 51.5 -192.5t225.5 -59.5v-82h-858v82q174 6 227 59.5t53 192.5v1073q0 39 -39 51t-172 12q-74 0 -116.5 -4t-98 -22.5t-85 -53t-52.5 -101t-25 -163.5h-79z M692 -215q0 49 42 86t105.5 37t99.5 -42t36 -120q0 -147 -195 -258l-57 63q119 66 119 148q-20 -16 -56 -16q-39 0 -66.5 28.5t-27.5 73.5z" />
<glyph unicode="&#x21b;" horiz-adv-x="782" d="M51 973v92q240 70 330 268h104v-248h236v-112h-236v-629q0 -125 28 -179t93 -54q80 0 121 73l43 -59q-57 -145 -270 -145q-141 0 -220 65.5t-79 183.5v744h-150zM260 -215q0 49 42 86t105.5 37t99.5 -42t36 -120q0 -147 -195 -258l-57 63q119 66 119 148q-20 -16 -56 -16 q-39 0 -66.5 28.5t-27.5 73.5z" />
<glyph unicode="&#x237;" horiz-adv-x="677" d="M-313 -330q0 49 32.5 78t77.5 29q51 0 86 -32t51.5 -68.5t50 -68.5t83.5 -32q78 0 114.5 61.5t36.5 202.5v754q0 213 -16 283q-10 49 -45 65t-129 16v70l475 78v-1110q0 -254 -125 -391t-356 -137q-154 0 -245 57t-91 145z" />
<glyph unicode="&#x259;" horiz-adv-x="1200" d="M76 465q0 33 10 40t57 7h660q8 18 8 68q0 180 -87 286.5t-237 106.5q-169 0 -335 -150l-58 72q186 211 465 211q252 0 407.5 -152.5t155.5 -396.5q0 -254 -164.5 -415.5t-422.5 -161.5q-217 0 -338 129t-121 356zM362 344q0 -111 48.5 -178.5t132.5 -67.5q102 0 171.5 84 t73.5 215h-296q-84 0 -107 -9t-23 -44z" />
<glyph unicode="&#x2bc;" horiz-adv-x="417" d="M94 1579q0 51 33 86t82 35t82 -35t33 -88q0 -39 -35 -178q-27 -108 -37 -178h-84q-6 33 -39 178q-35 139 -35 180z" />
<glyph unicode="&#x2c6;" horiz-adv-x="790" d="M43 1333l246 305h213l246 -305h-107l-246 140l-245 -140h-107z" />
<glyph unicode="&#x2c7;" horiz-adv-x="790" d="M43 1638h107l245 -139l246 139h107l-246 -305h-213z" />
<glyph unicode="&#x2d8;" horiz-adv-x="679" d="M33 1610h88q18 -47 77.5 -76t139.5 -29t140.5 29t78.5 76h90q-8 -125 -94 -206t-213 -81q-129 0 -216 81t-91 206z" />
<glyph unicode="&#x2d9;" horiz-adv-x="399" d="M41 1540q0 68 46 114t112 46q68 0 113.5 -46t45.5 -114q0 -66 -46 -112t-113 -46q-66 0 -112 46t-46 112z" />
<glyph unicode="&#x2da;" horiz-adv-x="458" d="M43 1520q0 78 52 129t132 51q82 0 135.5 -51.5t53.5 -128.5q0 -76 -53.5 -126.5t-135.5 -50.5q-80 0 -132 50.5t-52 126.5zM143 1519.5q0 -32.5 25 -56t59.5 -23.5t57 23.5t22.5 56t-22.5 54t-57 21.5t-59.5 -21.5t-25 -54z" />
<glyph unicode="&#x2db;" horiz-adv-x="569" d="M-20 -309q0 94 88 177t249 142h127v-10q-113 -49 -183.5 -119.5t-70.5 -134.5q0 -41 28 -66.5t73 -25.5q96 -1 182 108l72 -73q-137 -178 -340 -178q-225 0 -225 180z" />
<glyph unicode="&#x2dc;" horiz-adv-x="821" d="M23 1352q20 121 87.5 197.5t155.5 76.5q49 0 178 -49q115 -45 162 -45q39 0 62.5 19.5t38.5 66.5h92q-16 -119 -90 -209q-61 -74 -150 -74q-66 0 -174 51q-100 47 -178 48q-35 0 -54.5 -18.5t-35.5 -63.5h-94z" />
<glyph unicode="&#x2dd;" horiz-adv-x="1097" d="M33 1333l260 244q94 88 174 88q51 0 82 -24.5t31 -67.5q0 -33 -35 -59.5t-107 -57.5l-284 -123h-121zM518 1333l260 244q94 88 174 88q51 0 82 -24.5t31 -67.5q0 -33 -35 -59.5t-106 -57.5l-285 -123h-121z" />
<glyph unicode="&#x3bc;" horiz-adv-x="1474" d="M41 1004v81h459v-559q0 -217 50 -315t161 -98q76 0 125 33.5t86 115.5q47 119 47 295v191q0 166 -27 204.5t-151 51.5v81h460v-628q0 -223 15 -293q10 -51 41.5 -66.5t132.5 -15.5v-80l-408 -25l-22 183h-9q-43 -96 -115.5 -138t-183.5 -42q-205 -1 -309 208l-8 -2 q43 -141 86 -323t43 -250t-38 -106.5t-103 -38.5q-68 0 -113 48t-45 119v1113q0 168 -25.5 206.5t-148.5 49.5z" />
<glyph unicode="&#x1e0c;" horiz-adv-x="1882" d="M72 0v82q137 4 176 46t39 187v947q0 143 -33 185t-150 48v82h779q393 0 649 -230.5t256 -584.5q0 -336 -240.5 -549t-621.5 -213h-854zM588 358q0 -233 301 -233q268 0 412.5 163t144.5 470q0 326 -151.5 510t-415.5 184h-256q-35 0 -35 -35v-1059zM760 -338q0 68 46 114 t112 46q68 0 113.5 -46t45.5 -114q0 -66 -46 -112t-113 -46q-66 0 -112 46t-46 112z" />
<glyph unicode="&#x1e0d;" horiz-adv-x="1421" d="M80 534.5q0 243.5 148.5 407.5t369.5 164q213 0 320 -135h8v174q0 268 -13 321q-18 82 -223 82v70l518 82v-1172q0 -283 15 -362q8 -53 35.5 -68.5t115.5 -15.5v-80l-389 -22v151h-8q-141 -152 -367 -151q-233 0 -381.5 155.5t-148.5 399zM391 539q0 -213 63.5 -328 t182.5 -115q68 0 129 35t100 94q56 84 56 283v80q0 160 -66 262q-76 121 -217 121q-119 0 -183.5 -111.5t-64.5 -320.5zM557 -338q0 68 46 114t112 46q68 0 113.5 -46t45.5 -114q0 -66 -46 -112t-113 -46q-66 0 -112 46t-46 112z" />
<glyph unicode="&#x1e24;" horiz-adv-x="1935" d="M72 0v82q137 4 176 46t39 187v947q0 143 -34 185t-159 48v82h707v-82q-137 -4 -175 -48t-38 -200v-377h760v392q0 143 -39 185t-176 48v82h708v-82q-125 -4 -158.5 -48t-33.5 -200v-917q0 -156 37.5 -200t177.5 -48v-82h-752v82q150 4 193 46t43 187v428h-760v-413 q0 -156 41 -200t192 -48v-82h-749zM860 -338q0 68 46 114t112 46q68 0 114 -46t46 -114q0 -66 -46.5 -112t-113.5 -46q-66 0 -112 46t-46 112z" />
<glyph unicode="&#x1e25;" horiz-adv-x="1462" d="M33 0v82q125 8 153.5 46t28.5 194v841q0 231 -14 301q-10 51 -40 66.5t-122 15.5v76l457 78v-756h8q123 162 332 162q201 0 311 -123q115 -131 115 -330v-317q0 -94 3 -136t23.5 -72t50 -36t97.5 -10v-82h-641v82q123 6 152.5 45t29.5 195v251q0 219 -47 308.5t-162 89.5 q-123 0 -195 -90q-73 -101 -73 -273v-272q0 -168 27.5 -207t150.5 -47v-82h-645zM575 -338q0 68 46.5 114t111.5 46q68 0 114 -46t46 -114q0 -66 -46 -112t-114 -46q-66 0 -112 46t-46 112z" />
<glyph unicode="&#x1e44;" horiz-adv-x="1925" d="M61 0v82q152 4 194 55t42 240v823q0 176 -40 232.5t-175 62.5v82h571l826 -1184h8v793q0 201 -37 253t-176 56v82h608v-82q-152 -4 -193.5 -55t-41.5 -240v-1220h-275l-907 1292h-8v-881q0 -201 36.5 -253t176.5 -56v-82h-609zM864 1829q0 55 40 95t95 40q59 0 101.5 -39 t42.5 -96q0 -53 -42 -91t-102 -38q-53 0 -94 39t-41 90z" />
<glyph unicode="&#x1e45;" horiz-adv-x="1488" d="M51 958v70l395 78l27 -180h8q143 180 363 180q129 0 211 -36t145 -120q88 -119 88 -327v-289q0 -166 27.5 -205t146.5 -47v-82h-641v82q121 6 152 46t31 191v279q0 209 -52.5 292t-185.5 83q-123 0 -195 -139q-45 -91 -45 -218v-282q0 -166 28 -205t151 -47v-82h-646v82 q121 8 152 47t31 190v256q0 236 -15 297q-12 53 -47 69.5t-129 16.5zM625 1540q0 68 46 114t111 46q68 0 114 -46t46 -114q0 -66 -46 -112t-114 -46q-66 0 -111.5 46t-45.5 112z" />
<glyph unicode="&#x1e5a;" horiz-adv-x="1669" d="M72 0v82q135 0 175 44t40 189v947q0 143 -34 185t-159 48v82h709q295 0 457.5 -104.5t162.5 -290.5q0 -365 -411 -439l475 -544q100 -117 254 -117v-82h-486l-507 623q-86 104 -160 104v-401q0 -154 52 -199t245 -45v-82h-813zM588 850h133q195 0 289 77t94 244 q0 131 -81 211t-220 80h-178q-37 0 -37 -35v-577zM737 -338q0 68 46 114t112 46q68 0 114 -46t46 -114q0 -66 -46 -112t-114 -46q-66 0 -112 46t-46 112z" />
<glyph unicode="&#x1e5b;" horiz-adv-x="1019" d="M53 958v72l410 76l33 -236h8q55 109 145 172.5t191 63.5q78 0 127 -39t49 -98q0 -68 -39 -112t-103 -44q-45 0 -99 41t-79 41q-39 0 -73.5 -51t-57.5 -137q-37 -133 -37 -291v-99q0 -158 37 -195.5t180 -39.5v-82h-684v82q125 8 154 46t29 194v249q0 254 -33 320.5 t-158 66.5zM229 -338q0 68 46.5 114t111.5 46q68 0 114 -46t46 -114q0 -66 -46 -112t-114 -46q-66 0 -112 46t-46 112z" />
<glyph unicode="&#x1e62;" horiz-adv-x="1357" d="M111 522h79q27 -193 155 -305.5t314 -112.5q154 0 248 70t94 184q0 96 -73.5 155.5t-311.5 148.5q-469 178 -469 501q0 193 141.5 313.5t364.5 120.5q203 0 379 -131l37 103h49l23 -443h-80q-49 166 -153.5 256.5t-241.5 90.5q-125 0 -205 -62.5t-80 -161.5 q0 -88 67.5 -141t280.5 -133q285 -109 411 -233t126 -293q0 -207 -171 -338t-440 -131q-227 0 -424 143l-41 -123h-49zM500 -338q0 68 46 114t111 46q68 0 114 -46t46 -114q0 -66 -46 -112t-114 -46q-66 0 -111.5 46t-45.5 112z" />
<glyph unicode="&#x1e63;" horiz-adv-x="954" d="M111 0v373h86q35 -145 100 -214t170 -69q76 0 118 32t42 87q0 111 -217 227q-156 84 -223.5 167t-67.5 188q0 137 95 227t239 90q135 0 235 -70l37 49h53v-309h-80q-47 117 -98 168t-121 51q-57 0 -91 -30.5t-34 -81.5q0 -57 51.5 -108.5t165.5 -112.5 q166 -90 238 -175.5t72 -195.5q0 -141 -102.5 -227t-270.5 -86q-187 0 -289 92l-45 -72h-63zM332 -336q0 68 46 114t111 46q68 0 114 -46t46 -114q0 -66 -46 -112t-114 -46q-66 0 -111.5 46t-45.5 112z" />
<glyph unicode="&#x1e6c;" horiz-adv-x="1693" d="M25 1126l20 451h1604l20 -451h-88q-12 197 -92 270.5t-252 73.5q-156 0 -200 -12t-44 -51v-1073q0 -139 51.5 -192.5t225.5 -59.5v-82h-858v82q174 6 227 59.5t53 192.5v1073q0 39 -39 51t-172 12q-74 0 -116.5 -4t-98 -22.5t-85 -53t-52.5 -101t-25 -163.5h-79z M686 -338q0 68 46 114t112 46q68 0 114 -46t46 -114q0 -66 -46.5 -112t-113.5 -46q-66 0 -112 46t-46 112z" />
<glyph unicode="&#x1e6d;" horiz-adv-x="782" d="M51 973v92q240 70 330 268h104v-248h236v-112h-236v-629q0 -125 28 -179t93 -54q80 0 121 73l43 -59q-57 -145 -270 -145q-141 0 -220 65.5t-79 183.5v744h-150zM272 -338q0 68 46.5 114t111.5 46q68 0 114 -46t46 -114q0 -66 -46 -112t-114 -46q-66 0 -112 46t-46 112z " />
<glyph unicode="&#x1e80;" horiz-adv-x="2512" d="M-57 1493v84h774v-84q-100 0 -141 -19.5t-41 -64.5q0 -43 51 -186l286 -826l332 906q-39 109 -86 143.5t-149 46.5v84h723v-84q-88 0 -128 -22.5t-40 -81.5q0 -55 35 -166l258 -826l276 791q49 137 49 205q0 59 -41 80.5t-139 21.5v82h582v-82q-176 0 -236 -166 l-493 -1349h-183l-356 1081l-406 -1081h-170l-434 1196q-74 203 -136 260t-187 57zM961 1890q0 76 116 76q104 0 193 -68l258 -198h-150l-237 57q-102 25 -141 55.5t-39 77.5z" />
<glyph unicode="&#x1e81;" horiz-adv-x="1824" d="M16 1004v81h586v-81q-74 -2 -102.5 -21.5t-28.5 -67.5q0 -29 23 -110l129 -479h8l287 759h167l215 -759h11l164 424q37 94 36 155q0 98 -129 99v81h441v-81q-74 0 -112 -49.5t-124 -266.5l-282 -708h-162l-217 727h-8l-277 -727h-154l-280 841q-31 96 -75 137t-116 46z M657 1573q0 43 31 67.5t82 24.5q80 0 174 -88l260 -244h-131l-274 123q-74 33 -108 58.5t-34 58.5z" />
<glyph unicode="&#x1e82;" horiz-adv-x="2512" d="M-57 1493v84h774v-84q-100 0 -141 -19.5t-41 -64.5q0 -43 51 -186l286 -826l332 906q-39 109 -86 143.5t-149 46.5v84h723v-84q-88 0 -128 -22.5t-40 -81.5q0 -55 35 -166l258 -826l276 791q49 137 49 205q0 59 -41 80.5t-139 21.5v82h582v-82q-176 0 -236 -166 l-493 -1349h-183l-356 1081l-406 -1081h-170l-434 1196q-74 203 -136 260t-187 57zM1053 1700l258 198q88 68 192 68q117 0 117 -76q0 -47 -39 -77.5t-141 -55.5l-238 -57h-149z" />
<glyph unicode="&#x1e83;" horiz-adv-x="1824" d="M16 1004v81h586v-81q-74 -2 -102.5 -21.5t-28.5 -67.5q0 -29 23 -110l129 -479h8l287 759h167l215 -759h11l164 424q37 94 36 155q0 98 -129 99v81h441v-81q-74 0 -112 -49.5t-124 -266.5l-282 -708h-162l-217 727h-8l-277 -727h-154l-280 841q-31 96 -75 137t-116 46z M756 1333l260 244q94 88 174 88q51 0 82 -24.5t31 -67.5q0 -33 -35 -59.5t-107 -57.5l-284 -123h-121z" />
<glyph unicode="&#x1e84;" horiz-adv-x="2512" d="M-57 1493v84h774v-84q-100 0 -141 -19.5t-41 -64.5q0 -43 51 -186l286 -826l332 906q-39 109 -86 143.5t-149 46.5v84h723v-84q-88 0 -128 -22.5t-40 -81.5q0 -55 35 -166l258 -826l276 791q49 137 49 205q0 59 -41 80.5t-139 21.5v82h582v-82q-176 0 -236 -166 l-493 -1349h-183l-356 1081l-406 -1081h-170l-434 1196q-74 203 -136 260t-187 57zM983 1849q0 51 35 84t88 33q55 0 91 -32.5t36 -84.5q0 -53 -36 -86.5t-91 -33.5q-53 0 -88 33.5t-35 86.5zM1427 1849q0 51 36 84t91 33q51 0 87 -34t36 -83q0 -53 -35.5 -86.5t-87.5 -33.5 q-55 0 -91 33.5t-36 86.5z" />
<glyph unicode="&#x1e85;" horiz-adv-x="1824" d="M16 1004v81h586v-81q-74 -2 -102.5 -21.5t-28.5 -67.5q0 -29 23 -110l129 -479h8l287 759h167l215 -759h11l164 424q37 94 36 155q0 98 -129 99v81h441v-81q-74 0 -112 -49.5t-124 -266.5l-282 -708h-162l-217 727h-8l-277 -727h-154l-280 841q-31 96 -75 137t-116 46z M653 1516q0 57 38 95t93 38q57 0 95.5 -38t38.5 -95q0 -55 -38 -93.5t-96 -38.5q-55 0 -93 38.5t-38 93.5zM1055 1516q0 57 37.5 95t93.5 38q57 0 95 -38t38 -95q0 -55 -38 -93.5t-95 -38.5q-55 0 -93 38.5t-38 93.5z" />
<glyph unicode="&#x1e92;" horiz-adv-x="1632" d="M31 0v47l1030 1423h-518q-150 0 -226.5 -74.5t-107.5 -236.5h-80l33 418h1327v-47l-1020 -1415h586q215 0 291.5 80.5t115.5 326.5h94l-26 -522h-1499zM651 -338q0 68 46 114t112 46q68 0 114 -46t46 -114q0 -66 -46 -112t-114 -46q-66 0 -112 46t-46 112z" />
<glyph unicode="&#x1e93;" horiz-adv-x="1163" d="M53 0v47l641 930h-188q-176 0 -232.5 -38t-80.5 -173h-80l24 319h924v-47l-631 -927h180q215 0 288 43t112 194h80l-25 -348h-1012zM463 -338q0 68 46 114t112 46q68 0 113.5 -46t45.5 -114q0 -66 -46 -112t-113 -46q-66 0 -112 46t-46 112z" />
<glyph unicode="&#x1eb8;" horiz-adv-x="1564" d="M72 0v82q137 4 176 47t39 186v947q0 143 -35 185t-158 48v82h1295l14 -401h-88q-27 172 -113 232t-305 60h-231q-51 0 -64.5 -13t-13.5 -62v-521q264 0 335.5 42t90.5 208h76v-600h-76q-10 72 -25.5 112t-40 69.5t-75 42t-113 17.5t-172.5 5v-422q0 -133 75.5 -183 t274.5 -50q233 0 331.5 73.5t141.5 282.5h82l-33 -469h-1388zM666 -338q0 68 46 114t111 46q68 0 114 -46t46 -114q0 -66 -46 -112t-114 -46q-66 0 -111.5 46t-45.5 112z" />
<glyph unicode="&#x1eb9;" d="M78 528q0 254 165 416t423 162q217 0 337.5 -118t120.5 -326q0 -33 -10 -40.5t-57 -7.5h-660q-8 -18 -8 -67q0 -201 87 -317.5t237 -116.5q170 -1 336 149l57 -72q-186 -211 -465 -210q-252 0 -407.5 152.5t-155.5 395.5zM412 729h297q84 0 106.5 9.5t22.5 43.5 q0 88 -51.5 146.5t-129.5 58.5q-88 0 -156.5 -72.5t-88.5 -185.5zM481 -338q0 68 46 114t112 46q68 0 114 -46t46 -114q0 -66 -46 -112t-114 -46q-66 0 -112 46t-46 112z" />
<glyph unicode="&#x1ebc;" horiz-adv-x="1564" d="M72 0v82q137 4 176 47t39 186v947q0 143 -35 185t-158 48v82h1295l14 -401h-88q-27 172 -113 232t-305 60h-231q-51 0 -64.5 -13t-13.5 -62v-521q264 0 335.5 42t90.5 208h76v-600h-76q-10 72 -25.5 112t-40 69.5t-75 42t-113 17.5t-172.5 5v-422q0 -133 75.5 -183 t274.5 -50q233 0 331.5 73.5t141.5 282.5h82l-33 -469h-1388zM436 1696q20 121 88 197.5t156 76.5q49 0 178 -49q115 -45 162 -45q39 0 62.5 19.5t37.5 66.5h92q-16 -119 -90 -209q-61 -74 -149 -74q-66 0 -174 52q-100 47 -178 47q-35 0 -56 -18.5t-35 -63.5h-94z" />
<glyph unicode="&#x1ebd;" d="M78 528q0 254 165 416t423 162q217 0 337.5 -118t120.5 -326q0 -33 -10 -40.5t-57 -7.5h-660q-8 -18 -8 -67q0 -201 87 -317.5t237 -116.5q170 -1 336 149l57 -72q-186 -211 -465 -210q-252 0 -407.5 152.5t-155.5 395.5zM260 1352q20 121 88 197.5t156 76.5 q49 0 178 -49q115 -45 162 -45q39 0 62.5 19.5t37.5 66.5h92q-16 -119 -90 -209q-61 -74 -149 -74q-66 0 -174 51q-100 47 -179 48q-35 0 -55.5 -18.5t-34.5 -63.5h-94zM412 729h297q84 0 106.5 9.5t22.5 43.5q0 88 -51.5 146.5t-129.5 58.5q-88 0 -156.5 -72.5 t-88.5 -185.5z" />
<glyph unicode="&#x1eca;" horiz-adv-x="878" d="M74 0v82q139 4 177 55t38 240v823q0 176 -36 232.5t-159 62.5v82h690v-82q-123 -6 -158.5 -62.5t-35.5 -232.5v-823q0 -188 38 -239.5t177 -55.5v-82h-731zM279 -338q0 68 46 114t111 46q68 0 114 -46t46 -114q0 -66 -46 -112t-114 -46q-66 0 -111.5 46t-45.5 112z" />
<glyph unicode="&#x1ecb;" horiz-adv-x="739" d="M51 958v70l475 78v-770q0 -164 30 -207t149 -47v-82h-646v82q115 6 149 50t34 190v251q0 238 -15 301q-10 51 -46 67.5t-130 16.5zM225 -338q0 68 46 114t112 46q68 0 114 -46t46 -114q0 -66 -46 -112t-114 -46q-66 0 -112 46t-46 112zM225 1540q0 68 46 114t112 46 q68 0 114 -46t46 -114q0 -66 -46 -112t-114 -46q-66 0 -112 46t-46 112z" />
<glyph unicode="&#x1ecc;" horiz-adv-x="1933" d="M92 776q0 346 253 583.5t621.5 237.5t621.5 -237.5t253 -583.5q0 -334 -254 -565t-620.5 -231t-620.5 231t-254 565zM449 770q0 -303 139 -480t379 -177q238 0 378 177t140 480q0 319 -139.5 506.5t-379 187.5t-378.5 -187t-139 -507zM829 -338q0 68 46.5 114t111.5 46 q68 0 114 -46t46 -114q0 -66 -46 -112t-114 -46q-66 0 -112 46t-46 112z" />
<glyph unicode="&#x1ecd;" horiz-adv-x="1351" d="M76 551q0 240 174 397.5t422 157.5t426 -159t178 -396q0 -246 -178 -408.5t-426 -162.5t-422 162.5t-174 408.5zM397 549q0 -203 75 -324t200 -121q129 0 205.5 122t76.5 323q0 197 -77.5 317.5t-204.5 120.5q-125 0 -200 -121t-75 -317zM514 -338q0 68 46 114t112 46 q68 0 113.5 -46t45.5 -114q0 -66 -46 -112t-113 -46q-66 0 -112 46t-46 112z" />
<glyph unicode="&#x1ee4;" horiz-adv-x="1802" d="M55 1495v82h736v-82q-154 0 -191 -45q-27 -33 -37 -101.5t-10 -228.5v-536q0 -231 99.5 -344t305.5 -113q422 0 422 469v473q0 172 -13 252t-46 119q-53 55 -199 55v82h664v-82q-137 0 -180 -51q-56 -70 -56 -375v-434q0 -348 -155.5 -501.5t-507.5 -153.5 q-330 0 -482.5 138t-152.5 441v561q0 270 -37 326q-33 49 -160 49zM809 -338q0 68 46 114t112 46q68 0 113.5 -46t45.5 -114q0 -66 -46 -112t-113 -46q-66 0 -112 46t-46 112z" />
<glyph unicode="&#x1ee5;" horiz-adv-x="1452" d="M27 1004v81h458v-579q0 -205 51.5 -299t163.5 -94q123 0 187 110q65 107 65 314v213q0 166 -26.5 203.5t-151.5 50.5v81h463v-620q0 -238 14 -301q10 -53 42 -67.5t132 -14.5v-80l-407 -25l-23 183h-8q-51 -84 -148.5 -132t-215.5 -48q-219 0 -334 155q-88 119 -88 338 v277q0 94 -3 134t-23.5 69.5t-49.5 35.5t-98 15zM510 -338q0 68 46 114t112 46q68 0 113.5 -46t45.5 -114q0 -66 -46 -112t-113 -46q-66 0 -112 46t-46 112z" />
<glyph unicode="&#x1ef2;" horiz-adv-x="1556" d="M-29 1495v82h688v-82q-156 0 -155 -65q0 -31 51 -127l293 -560h8l258 431q121 203 121 260q0 35 -32 48t-118 13v82h514v-82q-90 0 -158.5 -71.5t-209.5 -311.5l-299 -512v-209q0 -201 40 -255t173 -54v-82h-729v82q131 0 173 53t42 242v188l-424 754q-61 106 -108.5 141 t-127.5 35zM475 1890q0 76 117 76q104 0 192 -68l258 -198h-149l-238 57q-102 25 -141 55.5t-39 77.5z" />
<glyph unicode="&#x1ef3;" horiz-adv-x="1323" d="M16 1004v81h621v-81q-80 0 -111.5 -16.5t-31.5 -55.5q0 -27 18 -82l209 -598h8l176 399q90 207 90 262q0 53 -29.5 72t-119.5 19v81h493v-81q-80 0 -128 -57.5t-154 -284.5l-469 -984q-43 -90 -131 -150t-178 -60q-68 0 -109 32.5t-41 87.5q0 102 152 115q182 14 235 115 l55 106l-362 897q-47 119 -80 148.5t-113 34.5zM457 1573q0 43 30.5 67.5t81.5 24.5q80 0 174 -88l261 -244h-132l-274 123q-74 33 -107.5 58.5t-33.5 58.5z" />
<glyph unicode="&#x1ef8;" horiz-adv-x="1556" d="M-29 1495v82h688v-82q-156 0 -155 -65q0 -31 51 -127l293 -560h8l258 431q121 203 121 260q0 35 -32 48t-118 13v82h514v-82q-90 0 -158.5 -71.5t-209.5 -311.5l-299 -512v-209q0 -201 40 -255t173 -54v-82h-729v82q131 0 173 53t42 242v188l-424 754q-61 106 -108.5 141 t-127.5 35zM485 1696q20 121 88 197.5t156 76.5q49 0 178 -49q115 -45 162 -45q39 0 62.5 19.5t37.5 66.5h93q-16 -119 -91 -209q-61 -74 -149 -74q-66 0 -174 52q-100 47 -178 47q-35 0 -54.5 -18.5t-35.5 -63.5h-95z" />
<glyph unicode="&#x1ef9;" horiz-adv-x="1323" d="M16 1004v81h621v-81q-80 0 -111.5 -16.5t-31.5 -55.5q0 -27 18 -82l209 -598h8l176 399q90 207 90 262q0 53 -29.5 72t-119.5 19v81h493v-81q-80 0 -128 -57.5t-154 -284.5l-469 -984q-43 -90 -131 -150t-178 -60q-68 0 -109 32.5t-41 87.5q0 102 152 115q182 14 235 115 l55 106l-362 897q-47 119 -80 148.5t-113 34.5zM354 1352q20 121 88 197.5t156 76.5q49 0 178 -49q115 -45 162 -45q39 0 62.5 19.5t37.5 66.5h92q-16 -119 -90 -209q-61 -74 -149 -74q-66 0 -174 51q-100 47 -178 48q-35 0 -54.5 -18.5t-35.5 -63.5h-95z" />
<glyph unicode="&#x2000;" horiz-adv-x="993" />
<glyph unicode="&#x2001;" horiz-adv-x="1987" />
<glyph unicode="&#x2002;" horiz-adv-x="993" />
<glyph unicode="&#x2003;" horiz-adv-x="1987" />
<glyph unicode="&#x2004;" horiz-adv-x="662" />
<glyph unicode="&#x2005;" horiz-adv-x="496" />
<glyph unicode="&#x2006;" horiz-adv-x="331" />
<glyph unicode="&#x2007;" horiz-adv-x="331" />
<glyph unicode="&#x2008;" horiz-adv-x="248" />
<glyph unicode="&#x2009;" horiz-adv-x="397" />
<glyph unicode="&#x200a;" horiz-adv-x="110" />
<glyph unicode="&#x2010;" horiz-adv-x="935" d="M135 498v190h666v-190h-666z" />
<glyph unicode="&#x2011;" horiz-adv-x="935" d="M135 498v190h666v-190h-666z" />
<glyph unicode="&#x2012;" horiz-adv-x="935" d="M135 498v190h666v-190h-666z" />
<glyph unicode="&#x2013;" horiz-adv-x="1495" d="M135 498v190h1225v-190h-1225z" />
<glyph unicode="&#x2014;" horiz-adv-x="2330" d="M135 498v190h2060v-190h-2060z" />
<glyph unicode="&#x2018;" horiz-adv-x="505" d="M90 1298q0 214 250 402l59 -86q-154 -119 -153 -225q16 6 45 6q47 0 78.5 -38t31.5 -93q0 -68 -45 -113t-112 -45q-70 0 -112 52t-42 140z" />
<glyph unicode="&#x2019;" horiz-adv-x="495" d="M111 1542q0 68 45 113t112 45q70 0 112 -52.5t42 -140.5q0 -213 -250 -401l-59 86q154 119 153 225q-16 -6 -45 -6q-47 0 -78.5 38t-31.5 93z" />
<glyph unicode="&#x201a;" horiz-adv-x="534" d="M113 59q0 68 45 113t112 45q70 0 112 -52t42 -140q0 -214 -250 -402l-59 86q154 119 153 225q-14 -6 -45 -6q-47 0 -78.5 38t-31.5 93z" />
<glyph unicode="&#x201c;" horiz-adv-x="927" d="M90 1298q0 214 250 402l59 -86q-154 -119 -153 -225q16 6 45 6q47 0 78.5 -38t31.5 -93q0 -68 -45 -113t-112 -45q-70 0 -112 52t-42 140zM512 1298q0 214 250 402l59 -86q-154 -119 -153 -225q14 6 45 6q47 0 78.5 -38t31.5 -93q0 -68 -45 -113t-112 -45q-70 0 -112 52 t-42 140z" />
<glyph unicode="&#x201d;" horiz-adv-x="917" d="M111 1542q0 68 45 113t112 45q70 0 112 -52.5t42 -140.5q0 -213 -250 -401l-59 86q154 119 153 225q-16 -6 -45 -6q-47 0 -78.5 38t-31.5 93zM532 1542q0 68 45.5 113t112.5 45q70 0 112 -52.5t42 -140.5q0 -213 -250 -401l-59 86q154 119 153 225q-16 -6 -45 -6 q-47 0 -79 38t-32 93z" />
<glyph unicode="&#x201e;" horiz-adv-x="956" d="M113 59q0 68 45 113t112 45q70 0 112 -52t42 -140q0 -214 -250 -402l-59 86q154 119 153 225q-14 -6 -45 -6q-47 0 -78.5 38t-31.5 93zM535 59q0 68 45 113t112 45q70 0 112 -52t42 -140q0 -214 -250 -402l-59 86q154 119 153 225q-14 -6 -45 -6q-47 0 -78.5 38t-31.5 93 z" />
<glyph unicode="&#x2020;" horiz-adv-x="1187" d="M55 1005.5q0 59.5 38 98.5t95 39q41 0 142.5 -40t210.5 -48q-4 131 -46 246.5t-42 158.5q0 59 41 98t102 39t102 -38.5t41 -98.5q0 -43 -42 -157.5t-48 -247.5q104 10 205.5 49t144.5 39q57 0 95.5 -39t38.5 -98.5t-38 -98.5t-96 -39q-43 0 -145 39t-205 47 q0 -145 33 -237t106 -182q-55 -166 -97 -488.5t-42 -578.5h-106q0 256 -42 578.5t-98 488.5q74 90 106 182t34 237q-106 -8 -209 -47t-146 -39q-57 0 -95 39t-38 98.5z" />
<glyph unicode="&#x2021;" horiz-adv-x="1220" d="M82 59.5q0 63.5 44 105.5t110 42q39 0 133 -41t190 -51q-2 143 -33.5 235t-105.5 185q76 88 108.5 180t34.5 235q-98 -10 -193.5 -51t-133.5 -41q-66 0 -110 42t-44 105.5t44 105.5t110 42q37 0 132 -42t193 -52q-4 127 -53 238.5t-49 152.5q0 63 44 105t109.5 42 t109.5 -42t44 -105q0 -41 -49 -151.5t-55 -239.5q96 10 190 52t133 42q66 0 110 -42t44 -105.5t-44 -105.5t-110 -42q-39 0 -133 41t-190 51q0 -143 33.5 -235t109.5 -180q-74 -88 -106.5 -182.5t-32.5 -237.5q94 10 187 51t132 41q66 0 110 -42t44 -105.5t-44 -105.5 t-110 -42q-41 0 -133 42t-186 52q6 -129 53 -240.5t47 -150.5q0 -63 -44 -105t-109.5 -42t-109.5 41.5t-44 105.5q0 41 47 152.5t51 238.5q-96 -10 -190.5 -52t-130.5 -42q-66 0 -110 42t-44 105.5z" />
<glyph unicode="&#x2022;" horiz-adv-x="954" d="M145 756q0 131 99.5 226t236.5 95q133 0 230.5 -95t97.5 -226t-99.5 -227.5t-238.5 -96.5q-129 0 -227.5 97.5t-98.5 226.5z" />
<glyph unicode="&#x2026;" horiz-adv-x="1544" d="M111 131q0 66 45 112t108 46q68 0 113 -46t45 -112q0 -63 -45 -107t-113 -44q-63 0 -108 44t-45 107zM616 131q0 66 45.5 112t108.5 46q68 0 113 -46t45 -112q0 -63 -45 -107t-113 -44q-63 0 -108.5 44t-45.5 107zM1122 131q0 66 45 112t109 46q68 0 113 -46t45 -112 q0 -63 -45.5 -107t-112.5 -44q-63 0 -108.5 44t-45.5 107z" />
<glyph unicode="&#x202f;" horiz-adv-x="397" />
<glyph unicode="&#x2030;" horiz-adv-x="1982" d="M63 0l1188 1577h146l-1170 -1577h-164zM176 1270q0 137 77.5 232t186.5 95q111 0 188 -95t77 -232q0 -133 -78 -226.5t-186.5 -93.5t-186.5 93.5t-78 226.5zM330 1266q0 -135 26.5 -189.5t83.5 -54.5q55 0 83 54t28 190q0 143 -26.5 201.5t-84 58.5t-84 -58.5 t-26.5 -201.5zM758 299q0 137 77.5 232.5t186 95.5t186.5 -95.5t78 -232.5q0 -133 -78 -226t-186.5 -93t-186 93t-77.5 226zM911 295q0 -135 27 -189.5t84 -54.5q55 0 83 54.5t28 189.5q0 143 -27 201.5t-84 58.5t-84 -58.5t-27 -201.5zM1384 299q0 137 78 232.5t186.5 95.5 t186.5 -95.5t78 -232.5q0 -133 -78 -226t-186.5 -93t-186.5 93t-78 226zM1538 295q0 -135 27 -189.5t84 -54.5q55 0 82.5 54.5t27.5 189.5q0 143 -26.5 201.5t-84 58.5t-84 -58.5t-26.5 -201.5z" />
<glyph unicode="&#x2039;" horiz-adv-x="681" d="M94 537l402 378l65 -47l-188 -331l184 -330l-70 -49z" />
<glyph unicode="&#x203a;" horiz-adv-x="681" d="M121 868l65 47l402 -378l-393 -379l-70 49l184 330z" />
<glyph unicode="&#x2044;" horiz-adv-x="81" d="M-625 0l1188 1577h146l-1170 -1577h-164z" />
<glyph unicode="&#x205f;" horiz-adv-x="496" />
<glyph unicode="&#x2070;" horiz-adv-x="643" d="M57 1270q0 137 78 232t187 95q111 0 187.5 -95t76.5 -232q0 -133 -78 -226.5t-186.5 -93.5t-186.5 93.5t-78 226.5zM211 1266q0 -135 27 -189.5t84 -54.5q55 0 82.5 54t27.5 190q0 143 -26.5 201.5t-84 58.5t-84 -58.5t-26.5 -201.5z" />
<glyph unicode="&#x2074;" horiz-adv-x="579" d="M25 1106v61l317 430h64v-432q53 2 66 14.5t13 59.5h39v-192h-39q0 39 -14 49t-65 12v-16q0 -57 12 -74t55 -19v-41h-295v41q57 2 73.5 17.5t16.5 68.5v21h-243zM96 1167h172v228h-8z" />
<glyph unicode="&#x2075;" horiz-adv-x="542" d="M25 1081q0 49 47 49q27 0 40 -17t16 -38.5t21.5 -39t55.5 -17.5q131 0 131 196q0 106 -66 107q-68 0 -96 -61q-14 -33 -35 -33q-27 0 -26 20q0 8 2 13l92 337q35 -14 108 -14q94 0 144 14h8q-10 -51 -54 -79.5t-110 -28.5h-72l-32 -129l2 -8q29 35 90 34q80 0 137 -59 t57 -141q0 -98 -80.5 -167t-195.5 -69q-80 0 -132 37t-52 94z" />
<glyph unicode="&#x2076;" horiz-adv-x="606" d="M59 1239q0 150 84 254t205 104q66 0 111 -28.5t45 -67.5q0 -51 -51 -51q-29 0 -58.5 40t-66.5 40q-53 0 -93 -61.5t-40 -155.5l8 -2q49 74 145 73q86 0 145.5 -60t59.5 -148q0 -94 -71.5 -160t-174.5 -66q-111 0 -179.5 80t-68.5 209zM209 1180q0 -182 100 -183 q96 0 97 164q0 154 -87 154q-61 0 -110 -94v-41z" />
<glyph unicode="&#x2077;" horiz-adv-x="473" d="M35 1397l59 229h45q-4 -8 -4 -24q0 -14 13.5 -19.5t54.5 -5.5h262v-16q-92 -199 -219 -533q-35 -90 -96 -90q-49 0 -50 47q0 33 150 297l106 203h-139q-68 0 -88 -9.5t-39 -45.5l-12 -33h-43z" />
<glyph unicode="&#x2078;" horiz-adv-x="577" d="M59 1104q0 109 144 170q-123 66 -123 162q0 66 57 116q53 45 150 45q86 0 141 -34q63 -41 64 -109q0 -47 -29 -78.5t-82 -62.5q137 -68 137 -180q0 -82 -67.5 -132.5t-163.5 -50.5q-86 0 -157 41t-71 113zM172 1130q0 -53 33 -82.5t90 -29.5q43 0 73.5 28.5t30.5 72 t-86 100.5l-53 28q-88 -41 -88 -117zM207 1450q0 -49 76 -88l41 -21q68 43 67 101q0 88 -92 88q-43 0 -67.5 -22.5t-24.5 -57.5z" />
<glyph unicode="&#x2079;" horiz-adv-x="610" d="M57 1372q0 94 72 159.5t174 65.5q111 0 179.5 -79.5t68.5 -210.5q0 -147 -85 -252t-206 -105q-72 0 -123 29t-51 68q0 51 51 51q33 0 68 -40t76 -40q55 0 94 65.5t39 167.5l-8 6q-49 -74 -144 -73q-86 0 -145.5 55t-59.5 133zM205 1391q0 -137 84 -138q61 1 112 95v41 q0 162 -98 161.5t-98 -159.5z" />
<glyph unicode="&#x2080;" horiz-adv-x="647" d="M59 299q0 137 78 232.5t186.5 95.5t186.5 -95.5t78 -232.5q0 -133 -78 -226t-186.5 -93t-186.5 93t-78 226zM213 295q0 -135 27 -189.5t84 -54.5q55 0 82.5 54.5t27.5 189.5q0 143 -26.5 201.5t-84 58.5t-84 -58.5t-26.5 -201.5z" />
<glyph unicode="&#x2081;" horiz-adv-x="509" d="M104 553v51q101 2 218 35v-485q0 -63 16 -82t74 -21v-51h-303v51q57 2 73.5 19.5t16.5 76.5v261q0 109 -4 118q-4 27 -91 27z" />
<glyph unicode="&#x2082;" horiz-adv-x="581" d="M57 469q0 74 63.5 122t160.5 48q100 0 163.5 -49t63.5 -127q0 -158 -293 -365v-8h162q37 0 57.5 17.5t34.5 66.5h53l-30 -174h-433v37q178 158 240.5 248t62.5 178q0 51 -26.5 79.5t-71.5 28.5q-35 0 -59.5 -24.5t-24.5 -59.5q0 -39 20.5 -63.5t53.5 -24.5 q-4 -23 -24.5 -38t-53.5 -15q-51 0 -85 35t-34 88z" />
<glyph unicode="&#x2083;" horiz-adv-x="581" d="M55 125q0 45 31 74.5t76 29.5q66 0 80 -47q-23 0 -39.5 -19.5t-16.5 -45.5q0 -31 22.5 -49.5t61.5 -18.5q99 0 99 119q0 57 -23.5 90t-64.5 33q-35 -14 -60 -15q-47 0 -47 43q0 39 45 39q20 0 55 -10q35 0 57.5 36t22.5 89q0 88 -77.5 88t-77.5 -59q0 -47 49 -47 q-2 -16 -23.5 -28.5t-48.5 -12.5q-41 0 -68.5 28.5t-27.5 67.5q0 53 53 85t143 32q102 0 163 -40t61 -108q0 -51 -37 -93t-94 -54v-8q70 -16 110.5 -61.5t40.5 -104.5q0 -78 -69.5 -128t-176.5 -50q-94 0 -156.5 40.5t-62.5 104.5z" />
<glyph unicode="&#x2084;" horiz-adv-x="579" d="M25 147v62l317 430h64v-432q53 2 66 14t13 60h39v-193h-39q0 39 -14 49t-65 13v-17q0 -57 12 -73.5t55 -18.5v-41h-295v41q57 2 73.5 17.5t16.5 68.5v20h-243zM96 209h172v227h-8z" />
<glyph unicode="&#x2085;" horiz-adv-x="542" d="M25 111q0 49 47 49q27 0 40 -17.5t16 -39t21.5 -39t55.5 -17.5q131 0 131 197q0 106 -66 106q-68 0 -96 -61q-14 -33 -35 -33q-27 0 -26 20q0 8 2 13l92 338q35 -14 108 -15q94 0 144 15h8q-10 -51 -54 -80t-110 -29h-72l-32 -129l2 -8q29 35 90 35q80 0 137 -59.5 t57 -141.5q0 -98 -80.5 -166.5t-195.5 -68.5q-80 0 -132 36.5t-52 94.5z" />
<glyph unicode="&#x2086;" horiz-adv-x="608" d="M59 268q0 150 84 254.5t205 104.5q66 0 111 -29t45 -68q0 -51 -51 -51q-29 0 -58.5 40t-66.5 40q-53 0 -93 -61.5t-40 -155.5l8 -2q49 74 145 74q86 0 145.5 -60.5t59.5 -148.5q0 -94 -71.5 -159.5t-174.5 -65.5q-111 0 -179.5 79.5t-68.5 208.5zM209 209 q0 -182 100 -182q96 0 97 163q0 154 -87 154q-61 0 -110 -94v-41z" />
<glyph unicode="&#x2087;" horiz-adv-x="473" d="M35 438l59 230h45q-4 -8 -4 -25q0 -14 13.5 -19.5t54.5 -5.5h262v-16q-92 -199 -219 -532q-35 -90 -96 -90q-49 0 -50 47q0 33 150 297l106 202h-139q-68 0 -88 -9t-39 -46l-12 -33h-43z" />
<glyph unicode="&#x2088;" horiz-adv-x="577" d="M59 133q0 109 144 170q-123 66 -123 162q0 66 57 117q53 45 150 45q86 0 141 -35q63 -41 64 -109q0 -47 -29 -78.5t-82 -62.5q137 -68 137 -180q0 -82 -67.5 -132t-163.5 -50q-86 0 -157 40.5t-71 112.5zM172 160q0 -53 33 -83t90 -30q43 0 73.5 28.5t30.5 72t-86 100.5 l-53 28q-88 -41 -88 -116zM207 479q0 -49 76 -88l41 -20q68 43 67 100q0 88 -92 88q-43 0 -67.5 -22.5t-24.5 -57.5z" />
<glyph unicode="&#x2089;" horiz-adv-x="610" d="M57 401q0 94 72 160t174 66q111 0 179.5 -80t68.5 -211q0 -147 -85 -251.5t-206 -104.5q-72 0 -123 28.5t-51 67.5q0 51 51 51q33 0 68 -40t76 -40q55 0 94 65.5t39 168.5l-8 6q-49 -74 -144 -74q-86 0 -145.5 55t-59.5 133zM205 420q0 -137 84 -137q61 0 112 94v41 q0 162 -98 162t-98 -160z" />
<glyph unicode="&#x20ac;" horiz-adv-x="1560" d="M76 881v123h192q57 285 238.5 439t443.5 154q100 0 167 -24.5t155 -99.5l37 104h80v-483h-113q-35 186 -117 285.5t-201 99.5q-289 0 -344 -475h451v-123h-457q-6 -43 -6 -88q2 -20 2 -60h461v-123h-455q0 -227 92.5 -369.5t240 -142.5t247.5 126t119 329h112v-553h-94 l-24 141q-147 -162 -377 -161q-256 0 -434.5 168.5t-229.5 461.5h-184v123h174q-2 20 -2 62q0 43 6 86h-180z" />
<glyph unicode="&#x2120;" horiz-adv-x="1650" d="M139 967v184h49q27 -139 162 -139q51 0 85 22.5t34 63.5q0 37 -26.5 62.5t-102.5 56.5q-106 43 -147 90t-41 118q0 80 57 126t137 46q72 0 135 -49l25 37h22v-162h-47q-39 113 -133 113q-39 0 -65.5 -17.5t-26.5 -52t23.5 -57.5t85.5 -49q131 -55 176 -102.5t45 -122.5 q0 -88 -72 -136.5t-166 -48.5q-86 0 -155 58l-23 -41h-31zM621 946v51q61 2 77.5 22.5t16.5 96.5v291q0 72 -16.5 95.5t-69.5 23.5v51h270l174 -432l187 432h247v-51q-55 0 -70.5 -24.5t-15.5 -100.5v-279q0 -82 16.5 -102.5t78.5 -22.5v-51h-318v51q63 2 78.5 21.5 t15.5 97.5v359h-8l-237 -537h-27l-223 537h-9v-353q0 -82 16.5 -102.5t78.5 -22.5v-51h-262z" />
<glyph unicode="&#x2122;" horiz-adv-x="1855" d="M125 1411v166h649v-166h-45q-6 66 -27.5 88.5t-87.5 22.5q-61 0 -78.5 -5.5t-17.5 -21.5v-397q0 -57 18.5 -78t81.5 -23v-51h-333v51q63 2 82.5 23.5t19.5 77.5v397q0 16 -16.5 21.5t-69.5 5.5q-68 0 -99.5 -19.5t-33.5 -91.5h-43zM825 946v51q61 2 78 22.5t17 96.5v291 q0 70 -17.5 94.5t-68.5 24.5v51h270l174 -432l186 432h248v-51q-55 0 -70.5 -24.5t-15.5 -100.5v-279q0 -82 16.5 -102.5t77.5 -22.5v-51h-317v51q61 2 77.5 22.5t16.5 96.5v359h-8l-238 -537h-26l-224 537h-8v-353q0 -82 16.5 -102.5t77.5 -22.5v-51h-262z" />
<glyph unicode="&#x2153;" horiz-adv-x="1464" d="M57 0l1188 1577h146l-1170 -1577h-164zM279 1511v52q100 1 217 34v-485q0 -63 16 -81.5t74 -20.5v-52h-303v52q57 2 73.5 19.5t16.5 76.5v260q0 109 -4 119q-4 27 -90 26zM801 125q0 45 30.5 74.5t75.5 29.5q66 0 80 -47q-23 0 -39 -19.5t-16 -45.5q0 -31 22.5 -49.5 t61.5 -18.5q98 0 98 119q0 57 -23.5 90t-64.5 33q-35 -14 -59 -15q-47 0 -47 43q0 39 45 39q20 0 55 -10q35 0 57.5 36t22.5 89q0 88 -78 88t-78 -59q0 -47 49 -47q-2 -16 -23.5 -28.5t-47.5 -12.5q-41 0 -69 28.5t-28 67.5q0 53 53.5 85t143.5 32q102 0 162.5 -40 t60.5 -108q0 -51 -37 -93t-94 -54v-8q70 -16 111 -61.5t41 -104.5q0 -78 -70 -128t-176 -50q-94 0 -156.5 40.5t-62.5 104.5z" />
<glyph unicode="&#x2154;" horiz-adv-x="1468" d="M74 0l1188 1577h145l-1169 -1577h-164zM182 1427q0 74 63.5 122t160.5 48q100 0 163.5 -49t63.5 -127q0 -157 -293 -364v-8h162q37 0 57.5 17t34.5 67h53l-31 -175h-432v37q178 158 240.5 248t62.5 178q0 51 -26.5 80t-71.5 29q-35 0 -59.5 -24.5t-24.5 -59.5 q0 -39 20.5 -63.5t53.5 -24.5q-4 -23 -24.5 -38t-53.5 -15q-51 0 -85 34.5t-34 87.5zM817 125q0 45 31 74.5t76 29.5q66 0 80 -47q-23 0 -39.5 -19.5t-16.5 -45.5q0 -31 22.5 -49.5t61.5 -18.5q98 0 98 119q0 57 -23.5 90t-64.5 33q-35 -14 -59 -15q-47 0 -47 43q0 39 45 39 q20 0 55 -10q35 0 57.5 36t22.5 89q0 88 -77.5 88t-77.5 -59q0 -47 49 -47q-2 -16 -23.5 -28.5t-48.5 -12.5q-41 0 -68.5 28.5t-27.5 67.5q0 53 53 85t143 32q102 0 163 -40t61 -108q0 -51 -37 -93t-95 -54v-8q70 -16 111 -61.5t41 -104.5q0 -78 -69.5 -128t-176.5 -50 q-94 0 -156.5 40.5t-62.5 104.5z" />
<glyph unicode="&#x215b;" horiz-adv-x="1464" d="M57 0l1188 1577h146l-1170 -1577h-164zM279 1511v52q100 1 217 34v-485q0 -63 16 -81.5t74 -20.5v-52h-303v52q57 2 73.5 19.5t16.5 76.5v260q0 109 -4 119q-4 27 -90 26zM805 133q0 109 143 170q-123 66 -123 162q0 66 58 117q53 45 149 45q86 0 142 -35q63 -41 63 -109 q0 -47 -29 -78.5t-82 -62.5q137 -68 138 -180q0 -82 -68 -132t-164 -50q-86 0 -156.5 40.5t-70.5 112.5zM918 160q0 -53 32.5 -83t89.5 -30q43 0 74 28.5t31 72t-86 100.5l-53 28q-88 -41 -88 -116zM952 479q0 -49 76 -88l41 -20q68 43 68 100q0 88 -93 88 q-43 0 -67.5 -22.5t-24.5 -57.5z" />
<glyph unicode="&#x215c;" horiz-adv-x="1466" d="M72 0l1188 1577h145l-1169 -1577h-164zM172 1096q0 45 30.5 74.5t76.5 29.5q66 0 79 -47q-23 0 -39 -19.5t-16 -46.5q0 -31 22.5 -49t61.5 -18q98 0 98 119q0 57 -23.5 90t-64.5 33q-35 -14 -59 -15q-47 0 -47 43q0 39 45 39q20 0 55 -10q35 0 57.5 36t22.5 89 q0 88 -78 88t-78 -59q0 -47 50 -48q-2 -16 -24 -28.5t-48 -12.5q-39 0 -67.5 29t-28.5 68q0 53 53 84.5t143 31.5q102 0 162.5 -39.5t60.5 -107.5q0 -51 -36.5 -93t-94.5 -54v-9q70 -16 111 -61t41 -105q0 -78 -69.5 -128t-176.5 -50q-94 0 -156.5 41t-62.5 105zM819 133 q0 109 144 170q-123 66 -123 162q0 66 57 117q53 45 150 45q86 0 141 -35q63 -41 63 -109q0 -47 -28.5 -78.5t-81.5 -62.5q137 -68 137 -180q0 -82 -67.5 -132t-163.5 -50q-86 0 -157 40.5t-71 112.5zM932 160q0 -53 32.5 -83t90.5 -30q43 0 73.5 28.5t30.5 72t-86 100.5 l-53 28q-88 -41 -88 -116zM967 479q-1 -49 75 -88l41 -20q68 43 68 100q0 88 -92 88q-43 0 -67.5 -22.5t-24.5 -57.5z" />
<glyph unicode="&#x215d;" horiz-adv-x="1460" d="M66 0l1187 1577h146l-1170 -1577h-163zM162 1081q0 49 47 49q27 0 40 -17t16 -38.5t21.5 -39t55.5 -17.5q131 0 131 196q0 106 -65 107q-68 0 -97 -61q-14 -33 -35 -33q-27 0 -26 20q0 8 2 13l92 337q37 -14 109 -14q92 0 143 14h8q-10 -51 -54 -79.5t-110 -28.5h-71 l-33 -129l2 -8q29 35 90 34q80 0 137.5 -59t57.5 -141q0 -98 -81 -167t-196 -69q-80 0 -132 37t-52 94zM813 133q0 109 143 170q-123 66 -122 162q0 66 57 117q53 45 149 45q86 0 142 -35q63 -41 63 -109q0 -47 -28.5 -78.5t-81.5 -62.5q137 -68 137 -180q0 -82 -67.5 -132 t-164.5 -50q-86 0 -156.5 40.5t-70.5 112.5zM926 160q0 -53 32.5 -83t90.5 -30q43 0 73.5 28.5t30.5 72t-86 100.5l-53 28q-88 -41 -88 -116zM961 479q-1 -49 75 -88l41 -20q68 43 68 100q0 88 -92 88q-43 0 -67.5 -22.5t-24.5 -57.5z" />
<glyph unicode="&#x215e;" horiz-adv-x="1464" d="M57 0l1188 1577h146l-1170 -1577h-164zM254 1397l59 229h45q-4 -8 -4 -24q0 -14 13.5 -19.5t54.5 -5.5h262v-16q-92 -199 -219 -533q-35 -90 -96 -90q-49 0 -50 47q0 33 150 297l106 203h-139q-68 0 -88 -9.5t-39 -45.5l-12 -33h-43zM805 133q0 109 143 170 q-123 66 -123 162q0 66 58 117q53 45 149 45q86 0 142 -35q63 -41 63 -109q0 -47 -29 -78.5t-82 -62.5q137 -68 138 -180q0 -82 -68 -132t-164 -50q-86 0 -156.5 40.5t-70.5 112.5zM918 160q0 -53 32.5 -83t89.5 -30q43 0 74 28.5t31 72t-86 100.5l-53 28q-88 -41 -88 -116z M952 479q0 -49 76 -88l41 -20q68 43 68 100q0 88 -93 88q-43 0 -67.5 -22.5t-24.5 -57.5z" />
<glyph unicode="&#x2212;" horiz-adv-x="1298" d="M145 627v131h1008v-131h-1008z" />
<glyph unicode="&#x2215;" horiz-adv-x="1191" d="M-70 0l1188 1577h146l-1170 -1577h-164z" />
<glyph unicode="&#x2219;" horiz-adv-x="575" d="M133 561q0 66 45 112t109 46q68 0 112.5 -46t44.5 -112q0 -63 -45 -107t-112 -44q-63 0 -108.5 44t-45.5 107z" />
<glyph unicode="&#xe000;" horiz-adv-x="1085" d="M0 1085h1085v-1085h-1085v1085z" />
<glyph unicode="&#xf6c3;" horiz-adv-x="348" d="M23 -236q0 49 41.5 86t105 37t99.5 -42t36 -119q1 -147 -194 -258l-58 63q119 66 119 147q-20 -16 -55 -16q-39 0 -66.5 28.5t-27.5 73.5z" />
<glyph unicode="&#xfb06;" horiz-adv-x="1775" d="M111 0v373h86q35 -145 100 -214t170 -69q76 0 118 32t42 87t-49.5 106.5t-167.5 120.5q-162 94 -226.5 172t-64.5 183q0 150 109.5 237.5t291.5 87.5q82 0 142 -14q-16 76 -17 145q0 193 110.5 296.5t315.5 103.5q201 0 304.5 -101.5t103.5 -298.5v-162h235v-112h-235 v-629q0 -125 28.5 -179t94.5 -54q72 0 118 73l43 -59q-57 -145 -270 -145q-141 0 -220 65.5t-79 183.5v744h-150v92q137 0 215 66.5t78 171.5q0 102 -75.5 166.5t-200.5 64.5q-137 0 -215 -80t-78 -221q0 -125 82 -219q39 -43 39 -88q0 -51 -36 -85t-89 -34q-47 0 -84 29.5 t-58.5 65.5t-60.5 65.5t-86 29.5q-53 0 -87 -31.5t-34 -80.5q0 -57 46 -103.5t171 -117.5q176 -102 243 -182.5t67 -188.5q0 -141 -102.5 -227t-270.5 -86q-191 0 -289 92l-45 -72h-63z" />
<glyph horiz-adv-x="354" d="M41 1829q0 55 40 95t95 40q59 0 101 -39t42 -96q0 -53 -41.5 -91t-101.5 -38q-53 0 -94 39t-41 90z" />
<glyph horiz-adv-x="694" d="M0 1849q0 51 35 84t88 33q55 0 91 -32.5t36 -84.5q0 -53 -36 -86.5t-91 -33.5q-53 0 -88 33.5t-35 86.5zM444 1849q0 51 36 84t91 33q51 0 87 -34t36 -83q0 -53 -35.5 -86.5t-87.5 -33.5q-55 0 -91 33.5t-36 86.5z" />
<glyph horiz-adv-x="352" d="M18 -338q0 68 46.5 114t111.5 46q68 0 114 -46t46 -114q0 -66 -46 -112t-114 -46q-66 0 -112 46t-46 112z" />
<glyph horiz-adv-x="649" d="M41 1700l258 198q88 68 193 68q117 0 116 -76q0 -47 -39 -77.5t-141 -55.5l-238 -57h-149z" />
<glyph horiz-adv-x="1067" d="M41 1700l217 198q74 68 193 68q117 0 116 -76q0 -47 -37.5 -74.5t-142.5 -58.5l-197 -57h-149zM500 1700l217 198q74 68 192 68q117 0 117 -76q0 -47 -38 -74.5t-142 -58.5l-197 -57h-149z" />
<glyph horiz-adv-x="821" d="M23 1696q20 121 87.5 197.5t155.5 76.5q49 0 178 -49q115 -45 162 -45q39 0 62.5 19.5t38.5 66.5h92q-16 -119 -90 -209q-61 -74 -150 -74q-66 0 -174 52q-100 47 -178 47q-35 0 -54.5 -18.5t-35.5 -63.5h-94z" />
<glyph horiz-adv-x="649" d="M41 1890q0 76 117 76q104 0 192 -68l258 -198h-149l-238 57q-102 25 -141 55.5t-39 77.5z" />
<glyph horiz-adv-x="679" d="M33 1966h88q18 -39 77.5 -61.5t139.5 -22.5t140.5 22.5t78.5 61.5h90q-8 -117 -94 -191.5t-213 -74.5q-129 0 -216 75.5t-91 190.5z" />
<glyph horiz-adv-x="790" d="M23 1700l253 266h238l254 -266h-137l-236 100l-235 -100h-137z" />
<glyph horiz-adv-x="790" d="M23 1966h137l235 -100l236 100h137l-254 -266h-238z" />
<glyph horiz-adv-x="364" d="M43 1833q0 57 40 95t99.5 38t99.5 -38t40 -95t-40 -95t-99.5 -38t-99.5 38t-40 95zM129 1832.5q0 -20.5 15.5 -34.5t38 -14t36.5 14t14 34.5t-14 34t-36.5 13.5t-38 -13.5t-15.5 -34z" />
<glyph horiz-adv-x="667" d="M43 1772v133h582v-133h-582z" />
<glyph horiz-adv-x="348" d="M23 1475q0 49 41.5 85.5t105 36.5t99.5 -42t36 -119q1 -164 -194 -291l-58 63q119 84 119 181q-20 -16 -55 -17q-39 0 -66.5 29t-27.5 74z" />
<glyph horiz-adv-x="1939" d="M80 539q0 254 164 410.5t432 156.5q88 0 162 -19q-29 70 -29 164q0 190 110.5 293t317.5 103q199 0 302 -101.5t103 -298.5v-162h236v-112h-236v-629q0 -125 29 -179t94 -54q74 0 119 73l43 -59q-57 -145 -270 -145q-141 0 -220 65.5t-79 183.5v744h-150v92 q135 10 214 72.5t79 162.5q0 104 -75.5 169t-198.5 65q-137 0 -216 -79t-79 -214q0 -139 92 -240q74 -61 74 -141q0 -57 -35 -91t-92 -34q-82 0 -151.5 104.5t-95.5 126t-77 21.5q-119 0 -185.5 -109.5t-66.5 -308.5q0 -215 79 -329.5t228 -114.5q164 0 326 123l53 -78 q-162 -180 -444 -180q-250 0 -403.5 151.5t-153.5 397.5z" />
<glyph horiz-adv-x="2318" d="M111 0v373h86q35 -145 100 -214t170 -69q76 0 118 32t42 87q0 51 -44 101t-173 126q-164 94 -227.5 171t-63.5 184q0 150 109.5 237.5t291.5 87.5h25q-59 66 -60 162q0 141 104.5 240.5t252.5 99.5q80 0 153.5 -37t130 -72.5t91.5 -35.5q25 129 129 129q117 0 116 -105 q0 -53 -41 -101t-86 -48v-396h8q135 154 353 154q238 0 390 -159t152 -404q0 -244 -151.5 -403.5t-386.5 -159.5q-199 0 -303 135h-8v-285q0 -162 43 -207t202 -49v-86h-706v86q111 4 144.5 49t33.5 193v1106q0 229 82 446q-51 0 -163 65.5t-185 65.5q-102 0 -170 -61.5 t-68 -155.5q0 -139 156 -209q131 -61 131 -147q0 -51 -36 -85t-89 -34q-47 0 -84 29.5t-58.5 65.5t-60.5 65.5t-86 29.5q-53 0 -87 -31.5t-34 -80.5q0 -59 45 -104.5t172 -116.5q176 -102 243 -183.5t67 -187.5q0 -141 -102.5 -227t-270.5 -86q-193 0 -289 92l-45 -72h-63z M1393 475q0 -154 79.5 -257t210.5 -103q246 0 246 424q0 450 -246 450q-139 0 -214.5 -99t-75.5 -276v-139z" />
</font>
</defs>
</svg>
